<?xml version="1.0" encoding="utf-8" ?>
<svg baseProfile="full" height="300mm" version="1.1" viewBox="0,0,200,300" width="200mm" xmlns="http://www.w3.org/2000/svg" xmlns:ev="http://www.w3.org/2001/xml-events" xmlns:xlink="http://www.w3.org/1999/xlink"><defs /><rect fill="#222222" height="300" width="200" x="0" y="0" /><text fill="#FFFFFF" style="font-size:12px; font-family:Arial; font-weight:bold;" x="10" y="20">Over 10km Runs</text><text fill="#FFFFFF" style="font-size:4px; font-family:Arial" x="10" y="280">ATHLETE</text><text fill="#FFFFFF" style="font-size:9px; font-family:Arial" x="10" y="290">Zayn</text><text fill="#FFFFFF" style="font-size:4px; font-family:Arial" x="65" y="280">SPECIAL TRACKS</text><rect fill="yellow" height="2.6" width="2.6" x="65" y="283" /><text fill="#FFFFFF" style="font-size:3px; font-family:Arial" x="70" y="285.5">Over 20.0 km</text><rect fill="red" height="2.6" width="2.6" x="65" y="287" /><text fill="#FFFFFF" style="font-size:3px; font-family:Arial" x="70" y="289.5">Over 40.0 km</text><text fill="#FFFFFF" style="font-size:4px; font-family:Arial" x="120" y="280">STATISTICS</text><text fill="#FFFFFF" style="font-size:3px; font-family:Arial" x="120" y="285">Number: 4</text><text fill="#FFFFFF" style="font-size:3px; font-family:Arial" x="120" y="290">Weekly: 1.0</text><text fill="#FFFFFF" style="font-size:3px; font-family:Arial" x="141" y="285">Total: 100.0 km</text><text fill="#FFFFFF" style="font-size:3px; font-family:Arial" x="141" y="290">Avg: 25.0 km</text><text fill="#FFFFFF" style="font-size:3px; font-family:Arial" x="167" y="285">Min: 13.8 km</text><text fill="#FFFFFF" style="font-size:3px; font-family:Arial" x="167" y="290">Max: 35.8 km</text><polyline fill="none" points="85.99441879824735,87.89766132196382 84.01988027128391,89.82504556095228 83.58217468654038,90.07781536828406 83.37791208026465,90.43590517604025 82.66785635385895,90.88878219870821 81.28665206412552,92.25793670754501 78.36861483217217,94.79610440830584 77.7461002226919,95.41747480946651 77.95036282890942,95.52279156334407 77.31812142871786,95.83874136710801 75.74238132347818,97.32369624578132 77.80446096736705,100.50418686211196 78.65069176460383,100.62003123342583 79.3996546541457,101.51518917209614 80.01244247285649,101.77846986983786 78.67014534614282,103.08433508374583 78.88413474312983,104.8219601255405 78.8063204169157,106.62274962149968 78.97167586011346,106.99132951754291 80.67386424541473,108.67625428845349 80.38206052221358,108.96058341844036 79.72063874965534,108.93952202046785 79.27320637408411,109.2027892758997 79.33156711870106,110.32956774428749 78.47560953069478,110.63495479748963 78.23243976134108,110.43487369713694 77.90172887506196,110.5507101572075 77.5029304533382,111.54058159872511 75.86882960348157,114.11000368907844 74.95451127085835,115.09985090832197 74.92533089849167,115.5 75.03232559707249,115.03666937216622 75.97582430200418,114.00470039701031 77.55156440724386,111.4984595469723 77.87254850275349,110.5928324834531 78.22271297057159,110.42434310528188 78.66041855537333,110.71919938898645 78.60205781069817,110.57177132184734 79.35102070029825,110.31903714480723 79.34129390947055,109.10801311886462 79.92490135587286,108.89739921537694 80.49878201144747,108.92899132035382 80.7127714084927,108.70784644147352 78.9230419062078,106.91761361304816 78.8063204169157,106.52797178294713 78.86468116159085,104.57974697133614 78.67014534614282,103.06327283463906 80.01244247285649,101.76793865109357 79.38020107254852,101.4625329753253 78.61178460152587,100.5252494819506 77.80446096736705,100.48312423923926 76.99713733320823,99.05085872392374 76.16063332674094,97.86080384908564 75.38249006489059,97.08147059888142 75.33385611098493,96.86030769920762 74.16664121823851,96.51276531984331 72.35745813447284,95.49119654517563 71.26805756788235,95.69129821079696 70.70390370301902,94.74344577764714 70.0230283489218,94.34323956109438 69.57559597335057,93.53229200661735 69.71177104418166,89.99355881468364 68.86554024694487,90.00409088656306 67.0563571631792,90.48856536745734 64.98455072852084,91.49963734247285 64.2064074666705,91.97357490928698 63.535258903342765,93.07942322152667 61.589900748687796,90.70973796308681 61.14246837317478,90.60441772144259 60.714489579200745,89.95143051957712 60.18924287741538,89.45642213714746 60.150335714337416,89.06673350091296 60.03361422504531,89.41429368632089 59.654269384918734,89.16152272483305 58.79831179691246,88.23469210422627 57.242025273211766,86.17036629319045 57.61164332256885,86.4547394477122 57.28093243628973,86.38101312775689 57.3198395993677,86.0966398289529 57.11557699315017,86.0755751179895 56.658417826809455,85.44363236965 56.61951066373149,85.57002113920316 56.35688731283881,85.25404900916328 56.337433731299825,85.36990553663054 57.09612341155298,84.10601115268219 56.86268043308519,83.30553902259999 55.91918172809528,82.315475286945 55.87054777418962,81.60978744186286 55.97754247271223,81.47286253749917 55.74409949412802,81.74671221712924 61.28837023477536,75.37430705774022 61.14246837317478,75.12151166621334 58.88585291383788,73.25713206415821 56.493062383669894,71.45592903866054 58.91503328620456,67.87452331253735 58.856672541529406,67.73758545787132 57.300386017828714,66.55780782165675 56.736232152965385,65.87311104703258 55.35502786323195,64.96719958261383 54.60606497369008,64.09288432019821 53.00114449614193,62.976281268071034 50.46245210443158,65.89417868824967 50.102560845785774,66.1469901443852 50.05392689193832,66.37873359239893 49.4800462363055,67.0739617171057 46.951080635306425,69.83377385971835 46.571735795238055,70.08657845627022 44.295666754303966,72.86739997021505 43.95522907725535,73.00433298727876 42.86582851066487,72.1932663113912 41.66943324560998,70.90819035527966 41.552711756317876,70.60271980752441 39.0334729461465,68.72774857472541 38.10942782269558,67.65331594462623 34.1603507688269,65.20947878382867 34.0533560703625,64.91453013754654 33.88800062722294,65.03040289147611 33.693464811716694,64.60904697929072 32.29280694044428,63.72419558293768 31.95236926333746,63.355505909305066 31.86482814635383,62.807736665075936 31.670292330964003,62.74453238852584 31.038050930714235,61.94394250325422 30.454443484311923,61.73326022065157 29.296955382335,60.943198937333364 28.363183468172792,59.80550313448475 27.26405611075461,58.825813491748704 26.933345224475488,58.14108024539746 26.408098522748332,57.90932364566834 25.542414143972564,56.98229354587966 25.33815153775504,56.05525752455287 25.5035069808946,55.11768097976892 27.77957602177048,51.52533724960085 27.721215277095325,51.156616584790754 27.94493146491004,50.8511044669649 27.662854532478377,49.723864535582834 27.2737829015241,48.91266776412522 25.377058700774796,46.194598768073774 24.74481730052503,44.89875724975718 24.20984380802838,42.67578264203621 23.898586503288243,39.38866770485765 23.528968453931157,39.39920344865095 23.013448542973492,36.95489037463267 22.74109840131132,36.63881239991315 22.449294678110164,36.61774051043176 21.671151416318025,37.070785459414765 21.02918322524056,37.17614454701834 20.688745548250154,37.56597250555933 20.40666861581849,37.58704425727774 18.93792320904322,34.5 20.338581080373842,37.544900750828674 21.126451133051887,39.97866817949398 21.719785370165482,40.863664391144994 22.84809309983393,43.22362788885221 25.289517583849374,47.64845596108353 27.332143646199256,50.8827091986459 27.332143646199256,51.32517471926258 27.020886341459118,51.97833564080065 24.871265580586623,55.14928478215734 24.7837244636612,55.676013808995776 24.725363719044253,55.465322427677165 24.949079906800762,55.07554256582807 24.880992371356115,56.171137351047946 25.065801396092866,57.08763817362342 25.99957331031328,58.18321776921948 35.13302984612528,66.44193628676294 36.92275934841018,69.31762977515609 40.79402207600651,76.11162443647481 41.640252873301506,76.93320224938361 42.15577278425917,77.71264357086329 42.194679947337136,78.16556025519094 43.93577549571637,80.06147523266554 44.70419196673902,80.57758113602176 46.27020528126741,82.23121423190605 47.447146964783315,85.81226597355271 48.06966157426359,87.22359741225955 48.32255813438678,87.46583948974148 48.79917088226648,89.62493581835588 50.96824522461975,95.55438657462219 51.172507830837276,95.44906984363479 51.13360066775931,95.14365089224884 48.896438789961394,88.5401255754332 48.38091887894552,86.42314245802845 48.24474380817264,84.65370006898593 51.60048662486952,83.56885271005012 53.53611798869679,83.05275743363745 53.8765556657454,83.09488772901386 55.11185809393646,82.47346463335998 59.08038872934412,77.83903906670457 63.136460481619,82.17855104772752 63.778428672696464,82.07322462205047 64.90673640236491,81.2095450509878 67.68859856337076,78.36568578211882 69.21570471476298,77.08066444184078 69.32269941322738,76.84893807220215 73.27177646715427,73.15179916893976 73.60248735343339,73.2360654912336 75.80074206815334,75.7113668953316 76.75396756385453,76.51188087459741 77.5126572441659,77.56518202002917 78.99112944165245,78.78700177963765 81.86053271970013,81.9152348403295 83.54326752340421,83.35820179824805 86.45157796458807,86.66538587002287 86.76283526927,86.53899805328547 89.67114571045386,83.5372550927641 90.77027306781383,84.23240108585014 91.06207679095678,84.7800895256878" stroke="yellow" stroke-linecap="round" stroke-linejoin="round" stroke-width="0.5"><title>2025-04-04 35.8km</title><desc>1743763192000</desc></polyline><polyline fill="none" points="116.39196675876155,75.54691835504491 119.5332409972325,64.73530348681379 119.19667589990422,70.20185904763639 120.09418282518163,71.7810828902293 118.523545706179,73.11734805582091 117.17728531826288,73.3603052443359 118.07479224307463,70.68777423445135 121.8891966752708,72.75291220704094 120.54293628782034,71.17368928075302 118.86011080304161,71.05221053224523 122.78670360101387,68.62263371713925 118.4113573404029,69.71594371984247 121.32825484732166,64.85678269306663 121.44044321309775,69.47298600303475 116.39196675876155,71.29516802006401 119.86980609362945,69.59446486597881 113.25069252029061,73.48178382520564 117.8504155119881,70.68777423445135 118.4113573404029,68.62263371713925 117.62603878136724,69.47298600303475 126.37673130165786,64.85678269306663 122.56232686946169,67.65080200496595 127.04986149538308,65.34269942960236 124.13296398846433,72.87439083226491 112.80193905811757,83.3215196444653 120.31855955626816,74.08917659823783 117.28947368403897,73.11734805582091 120.09418282518163,71.65960418584291 121.8891966752708,71.29516802006401 120.65512465313077,70.68777423445135 120.54293628782034,73.11734805582091 124.80609418218955,67.8937599855708 124.02077562268823,67.1648859375855 120.87950138468295,69.83742256497499 122.33795013837516,67.52932300139219 117.62603878136724,70.32333785749506 119.30886426521465,70.32333785749506 117.28947368403897,70.68777423445135 119.64542936207727,70.444816658739 130.97645429335535,49.06441205262672 124.13296398846433,65.58565774513409 113.58725761715323,69.35150713147596 116.84072022140026,63.64199023495894 139.390581717249,52.95177863328718 168.5595567864366,55.98877750034444 175.066481994465,78.58387627627235 162.0526315793395,90.9746075652074 155.99445983348414,84.5362978380872 167.66204986162484,71.65960418584291 165.97922437638044,71.29516802006401 185.5,66.9219278509263 156.21883656503633,52.101417964324355 155.0969529086724,63.03459367575124 157.78947368403897,54.65249867702369 163.39889196678996,70.08038022881374 164.18421052629128,70.20185904763639 163.5110803321004,71.05221053224523 160.3698060940951,73.48178382520564 172.37396121909842,71.29516802006401 166.31578947370872,72.75291220704094 164.18421052629128,71.29516802006401 165.4182825484313,70.56629545101896 165.86703601153567,71.29516802006401 165.86703601153567,71.7810828902293 165.19390581734478,70.444816658739 168.8961218832992,71.17368928075302 167.77423822740093,71.17368928075302 166.31578947370872,71.90256158530246 164.18421052629128,68.37967584189028 167.99861495848745,66.55749065498821 163.84764542942867,70.444816658739 164.4085872573778,71.41664675064385 165.86703601153567,70.80925300938543 166.4279778394848,72.38847627921496 166.98891966743395,74.33213364565745 171.7008310253732,71.17368928075302 167.43767313053831,70.80925300938543 166.76454293634742,73.3603052443359 165.86703601153567,72.50995493063238 166.65235457057133,72.75291220704094 164.4085872573778,73.11734805582091 168.22299169003963,69.95890140137635 165.86703601153567,72.38847627921496 155.0969529086724,103.85115282400511 170.5789473685436,78.82683267211542 174.6177285318263,87.57323947013356 173.38365650968626,82.10674057039432 167.88642659271136,70.56629545101896 167.54986149584875,71.05221053224523 169.79362880904227,73.3603052443359 170.6911357343197,74.57509065815248 166.4279778394848,73.60326239734422 168.22299169003963,72.87439083226491 166.76454293634742,71.53812547249254 163.17451523523778,67.77228099969216 166.65235457057133,73.11734805582091 170.35457063745707,73.72474096075166 168.8961218832992,74.08917659823783 162.61357340728864,71.90256158530246 168.5595567864366,75.30396148376167 166.76454293634742,71.65960418584291 163.95983379520476,72.75291220704094 165.97922437638044,72.9958694485249 164.5207756231539,67.77228099969216 161.4916897509247,58.05393358611036 158.3504155119881,74.45361215632875 159.3601108030416,71.29516802006401 158.3504155119881,72.63143357331865 154.8725761771202,80.1630922203185 162.50138504151255,66.43601157225203 164.18421052629128,68.25819689105265 169.23268698062748,74.45361215632875 169.457063711714,77.8550068771001 165.4182825484313,74.69656915101223 167.32548476429656,54.40953877638094 166.65235457057133,81.8637846497586 165.19390581734478,98.50618378212675 165.5304709142074,75.66839677782264 163.84764542942867,81.74230667634401 164.0720221605152,90.12426618859172 167.77423822740093,69.10854936181568 165.4182825484313,73.72474096075166 167.77423822740093,81.98526261455845 166.2036011083983,77.8550068771001 163.06232686992735,103.48672365793027 167.77423822740093,83.07856390008237 166.31578947370872,74.93952611053828 164.96952908625826,73.23882665450219 163.5110803321004,70.444816658739 171.0277008311823,81.13491667725611 169.79362880904227,78.0979633788811 172.5983379506506,74.93952611053828 175.40304709179327,73.84621951554436 171.7008310253732,69.35150713147596 168.5595567864366,69.10854936181568 172.03739612177014,72.9958694485249 171.25207756226882,77.24761546880472 171.9252077564597,76.03283199225552 176.52493074769154,79.55570164881647 170.80332409963012,76.39726712752599 164.29639889206737,77.24761546880472 165.86703601153567,70.444816658739 163.62326869834214,75.66839677782264 164.85734072048217,75.9113535961369 166.76454293634742,90.0027888136683 169.9058171743527,78.0979633788811 170.9155124654062,85.26516433176585 165.97922437638044,77.73352861299645 168.5595567864366,77.49057205859572 166.54016620479524,77.97648513235617 171.25207756226882,71.7810828902293 168.33518005535007,74.21065512648784 170.24238227168098,66.07157427072525 166.31578947370872,72.26699761906639 170.80332409963012,72.38847627921496 164.74515235424042,70.68777423445135 169.34487534640357,68.50115478399675 171.0277008311823,76.51874548872001 167.32548476429656,75.06100457697175 167.66204986162484,73.23882665450219 165.86703601153567,72.75291220704094 168.11080332426354,75.54691835504491 166.76454293634742,70.08038022881374 168.8961218832992,58.41837263118941 166.2036011083983,81.74230667634401 167.66204986162484,73.84621951554436 168.67174515221268,69.23002825118601 165.97922437638044,86.60141874675173 169.5692520774901,79.67717978055589 167.43767313053831,61.8197998967953 169.5692520774901,97.41289256035816 167.77423822740093,85.87255283421837 169.23268698062748,83.07856390008237 168.44736842112616,97.777323046932 168.44736842112616,73.3603052443359 167.32548476429656,74.93952611053828 172.03739612177014,73.48178382520564 156.44321329612285,69.95890140137635 172.5983379506506,74.81804763502441 166.31578947370872,72.38847627921496 173.72022160654888,61.94127931422554 161.15512465359643,65.70713688968681 146.12188365636393,60.605005236924626 138.9418282546103,61.09092320664786 129.18144044280052,69.83742256497499 125.25484764529392,74.45361215632875 122.4501385036856,76.76170218386687 125.0304709142074,76.2757887581829 127.16204986162484,71.65960418584291 131.87396121863276,67.65080200496595 136.69806094188243,62.67015563452151 141.52216066466644,56.35321699443739 145.4487534626387,55.25989827408921 149.26315789483488,60.605005236924626 170.35457063745707,56.83913619676605 176.9736842107959,68.62263371713925 178.65650969557464,77.24761546880472 168.11080332426354,71.17368928075302 170.01800554059446,70.68777423445135 169.68144044326618,70.444816658739 169.68144044326618,71.41664675064385 178.31994459871203,71.41664675064385 171.0277008311823,71.05221053224523 168.5595567864366,69.71594371984247 168.5595567864366,70.20185904763639 167.10110803321004,71.05221053224523 172.71052631596103,73.11734805582091 170.80332409963012,71.17368928075302 165.30609418265522,72.9958694485249 169.5692520774901,72.38847627921496 163.95983379520476,84.05038666643668 165.19390581734478,79.79865790368058 168.78393351845443,72.02404027222656 169.00831024954095,70.32333785749506 166.76454293634742,70.56629545101896 165.0817174515687,71.29516802006401 174.6177285318263,77.24761546880472 162.27700831042603,90.24574355443474 168.44736842112616,74.21065512648784 169.457063711714,72.87439083226491 170.35457063745707,72.87439083226491 172.48614958440885,72.14551895007025 172.37396121909842,71.90256158530246 170.01800554059446,72.02404027222656 169.9058171743527,73.96769806114025 164.4085872573778,82.95708601456136 165.5304709142074,70.93073177535553 164.5207756231539,73.96769806114025 168.78393351845443,70.68777423445135 166.98891966743395,76.154310379643 169.12049861485139,66.67896972887684 162.27700831042603,66.67896972887684 164.74515235424042,45.17703645420261 166.54016620479524,73.11734805582091 166.65235457057133,73.84621951554436 170.1301939059049,71.7810828902293 171.0277008311823,69.83742256497499 165.0817174515687,75.18248303455766 166.09141274215654,72.14551895007025 154.9847645428963,92.18938021187205 170.24238227168098,68.98707046406344 170.35457063745707,71.7810828902293" stroke="yellow" stroke-linecap="round" stroke-linejoin="round" stroke-width="0.5"><title>2025-01-11 29.4km</title><desc>1736530614000</desc></polyline><polyline fill="none" points="94.87981174487504,232.44721346966253 94.81153413883294,232.39175722092477 94.54980331554543,232.63822916034405 94.37341949986876,232.68136167620105 94.09461927509983,232.41640444704535 94.0718600730761,232.47802248107473 93.946684461931,232.39175722092477 93.64512503513834,232.39175722092477 93.53701882553287,232.20074097590987 93.24114919922431,232.05901896810974 93.22407979771378,231.9665914443176 93.31511660580873,231.89264935284882 93.22407979771378,231.61536593649362 93.41184321438777,231.38121479097026 93.62805563362781,231.34424349846086 93.71340264120954,231.22100574049546 93.95237426244421,231.1409011019132 93.99220286597847,230.99301541679597 94.1401376791182,230.88826290067664 94.42462770442944,230.91907247766358 94.81722393931705,230.59249039299903 95.14154256816255,230.72805292021803 95.20982017420465,230.53703293311264 95.5,230.43844180391898 95.30085698229959,230.23509723844472 95.28378758081817,229.9639703936773 94.71480753022479,229.98861832442344 94.44169710596907,229.42171410714218 94.31083169431076,229.4586862366632 93.87271705534658,229.30463559072086 93.67926383815939,229.34160777124634 93.34356560831657,228.95956112960994 93.18994099469273,228.91026466355106 92.73475695421803,228.95956112960994 92.42750772691215,228.86713023225457 91.36920483282302,228.09686884134135 91.31230682777823,227.6655194101695 91.39196403487585,227.50530334902578 91.05626580500393,226.87676049715083 91.01074740095646,226.39610694118892 90.6522899690899,225.7120952658006 90.66366957011633,225.43479166516772 90.4531469513895,225.13283782539656 89.91261590336217,224.80623348342488 89.83295869629364,224.3563801625205 89.55415847149561,223.7709510378918 89.54277887046919,223.39504178703646 89.10466423156322,222.40904239897645 88.74620679969667,222.11940290213533 88.67223939311225,222.1871909580732 88.37636976680369,222.16870331182145 88.08618994100834,221.89755070412502 87.65945490307058,221.3614054980353 87.62531610004953,221.20734015715425 87.38634447878576,221.00397347893886 87.17582186008804,220.39387052017264 86.66373981456854,219.98713277751085 86.48735599889187,219.90085482390714 85.81595953920623,220.1658511166679 85.45181230685557,220.04875983353122 84.75196684463299,219.26609289691987 83.94970497331815,218.61283780059603 83.63676594549906,218.50190719037346 83.36365552124334,218.16911448954488 83.31244731668266,217.8363204834386 82.98812868786626,217.43573337443377 82.53863444787567,217.46038494344975 82.34518123068847,217.31863832380623 81.91844619277981,217.67608586679125 81.51447035686579,217.71306311288208 81.25273953360738,217.9226005362725 81.19015172802028,218.18760300717258 81.29825793762575,218.38481361114827 81.27549873560201,218.5327212633274 80.8772127002012,218.73609386409225 80.63255127845332,219.06272156644263 80.24564484407892,219.03807046295697 80.15460803598398,218.5820237567532 79.85873840967542,218.5203956354817 79.7164933970198,218.56969813608885 79.5856279853906,218.76690785198298 79.29544815959525,218.76690785198298 79.1987215509871,219.19830250759696 78.74922731105471,219.62353223599348 78.0266226468375,219.67283409563242 77.94696543976897,219.77760045228206 77.9697246417636,219.67283409563242 77.61695701041026,220.12887493945163 77.42919359370717,220.7451424563551 76.63262152290554,221.14571394248924 76.57003371734754,221.55860872625635 76.62124192190822,222.1871909580732 76.53020511381328,222.267304045301 75.87587805563817,222.3350919831064 74.84033436357277,221.97766406474693 74.61843214387773,222.00847687562054 74.44204832820105,221.88522556501994 74.22583590896102,221.87906299477618 73.96410508570261,221.65104758172674 73.58288845184143,221.59558428052696 73.23012082045898,221.42303155607806 72.90580219161347,221.07792505466205 72.49613655524445,221.17652705541695 72.3368221410492,221.2874541693236 72.30268333802815,221.6818605111912 72.02388311325922,222.27346658732858 72.06371171679348,222.519967901957 72.18888732793857,222.680193372551 72.06940151727758,223.01296838345297 72.10354032032774,223.34574208965205 72.2685445350071,223.61072762633557 72.27992413600441,223.820250488272 71.70525428492692,223.89419961019303 71.5630092722713,223.59224029014877 71.11920483285212,223.49364109584712 70.7209187974222,223.09308069122926 70.20883675190271,223.01913087134017 69.83330991852563,223.11156813613343 69.46347288566176,222.88971853154362 69.40657488058787,222.96983095564065 69.47485248665907,223.28411742768367 69.29277887046919,223.39504178703646 69.4293340826116,223.56142805424315 69.34967687554308,223.7154891219543 69.36674627705361,224.2639442533764 68.82621522899717,224.59671305520897 68.24016577689326,224.33789298874763 67.93291654958739,224.0729097221556 67.76222253442393,224.22080746132997 67.52894071370247,224.15302102953137 66.82909525147988,224.34405538045394 66.10080078674946,224.30091862912377 65.95855577412294,224.15918343466183 65.5432003371534,224.02977283302607 65.07663669571048,223.51829090517276 65.04249789266032,223.34574208965205 64.84335487495991,223.25330507991748 64.67835066030966,223.3272546957669 64.30282382693258,223.23481766589975 63.68263557177852,223.2594675503642 63.18762292779866,223.3827168653661 62.10087103120168,223.28411742768367 62.049662826641,223.3827168653661 61.69120539477444,223.44434145576088 61.35550716493162,223.72165155883704 60.54755549313268,223.7894383351304 60.137889856734546,223.6785144911919 59.58028940713848,223.76478860457428 59.233211576298345,223.46282882415835 58.334223096375354,223.88187476101302 57.867659454932436,223.7709510378918 57.640067434695084,223.83873777479312 57.41247541445773,224.0605848989435 57.48644282101304,224.27010665045236 57.41247541445773,224.49811502771627 57.002809778030496,224.66449913269753 56.627282944653416,224.64601202602353 56.189168305689236,225.02191573695745 55.62018825512496,224.70763569927658 55.062587805557996,224.54125167884195 54.260325934243156,224.55973880832607 53.941697105939966,224.39335449800274 53.179263838159386,224.34405538045394 53.07115762855392,224.479627884808 52.21199775219429,224.467303120633 51.81371171679348,225.01575339445844 51.540601292508654,225.12667549094476 51.26749086822383,224.9849416752768 50.795237426267704,225.08353913731844 50.52212700195378,225.31770765071997 50.442469794885255,225.58268703157228 49.77676313571283,225.85382786743867 49.68003652713378,225.84766558531555 49.42399550435948,225.52106399355398 48.74121944367653,225.82917873631231 48.525007024465594,225.80452959805552 48.29172520371503,225.61966083290463 48.092582186014624,225.8415033027777 48.041373981453944,226.12496783730603 47.83085136275622,225.71825755775353 47.426875526842196,225.50873938058794 46.954622084856965,225.625823131566 46.40840123628732,225.4902524577701 46.06132340544718,225.6073362342504 46.02718460242613,225.7983673123672 45.879249789286405,225.9709111424745 45.3614779432537,225.84766558531555 45.350098342227284,225.9585865948029 45.213543130113976,226.03253385394783 44.94612250634236,226.03253385394783 44.54783647091244,225.85999014909612 44.343003652698826,225.94009976996313 44.15524023602484,226.25437524490553 43.921958415274275,226.33448449362186 43.82523180669523,226.4947027642629 43.409876369754784,226.74735403825616 43.31314976117574,227.00616675882338 42.67589210454025,227.8010866104014 42.31174487216049,227.92432933185773 42.152430458023446,228.10919307861332 42.0613936498994,227.88119439969887 41.42413599326392,227.59157357337244 41.32171958417166,227.25881651073723 41.06567856139736,227.08011310549773 40.97464175330242,226.8705982893007 40.64463332397281,226.9630313601665 39.5351222253521,226.7720029027696 38.86372576566646,226.95070695653703 38.70441135150031,227.46216820398695 38.10698229839909,227.67168156034313 37.5323124473216,228.0105991304299 37.16816521494184,228.57135068457865 36.92919359373627,228.78086130394513 36.76987917954102,228.81783371252823 36.604874964861665,228.77469923429453 36.712981174496235,228.7377268069249 36.63332396739861,228.71307851307938 36.673152570961975,228.80550957812375 36.747119977517286,228.7377268069249 36.70160157349892,228.82399577906472 36.291935937071685,228.81783371252823 36.02451531330007,228.97188524164812 35.580710873851785,228.89794054255617 34.93207361618988,228.92875084167463 34.12981174487504,229.1937189525779 33.73152570947423,229.1382605791805 32.838227030064445,229.4525242161908 32.26924697950017,229.79759667399048 31.71733633041731,229.93932245576434 31.051629671244882,229.79143467810354 30.772829446475953,230.00094228710805 30.357474009564612,230.08104800101864 30.283506602980196,230.19812544694287 30.49971902219113,230.5616806975304 30.494029221707024,230.7711864062294 30.915074459131574,231.30727218984248 30.795588648499688,231.42434794522705 30.408682214125292,231.23949141557387 29.896600168576697,230.78351025535812 29.020370890706545,230.986853507653 28.502599044673843,230.6602716836569 27.506883956171805,230.49389932817576 27.376018544542603,230.78351025535812 26.932214105094317,230.88826290067664 26.516858668153873,230.4507657013237 26.050295026710955,230.3521744719692 25.64062939028372,230.41995595444314 24.54818769317353,230.21044937922852 24.388873279007385,229.95164642562304 24.161281258799136,229.79143467810354 24.110073054238455,229.62506062037573 23.990587243635673,229.57576454067748 24.104383253725246,229.46484825669904 24.036105647683144,229.3724179093697 24.041795448138146,229.0766401218134 24.13283225626219,229.02118167194567 24.053175049164565,228.91642672337184 23.842652430466842,229.1382605791805 23.529713402647758,229.16290874961123 22.926594549033325,229.612736603136 22.607965720730135,229.6065745938322 22.47141050855862,229.73597669509036 22.397443101974204,229.9947803059913 22.24950828886358,230.06872404994647 22.084504074184224,230.00094228710805 22.078814273671014,229.8284066466731 21.561042427638313,229.6743566714722 20.980682776047615,229.27382542798296 20.736021354299737,229.26150135976786 20.58808654116001,229.10745035608124 20.406012924970128,229.10745035608124 20.058935094129993,228.69459228799678 19.279432424838888,228.39265004189656 18.943734195025172,227.87503226474655 18.6421747681743,228.04140975152404 18.101643720146967,227.94281572464388 17.754565889306832,227.5299519934997 17.509904467558954,227.47449253337254 16.650744591170223,227.86270799349586 16.110213543113787,227.67784371005837 15.979348131484585,227.46216820398695 15.763135712302756,227.46216820398695 15.535543692065403,227.24649215003592 15.25674346726737,227.3574113319337 15.177086260198848,227.25881651073723 14.892596234887606,227.39438436034106 14.5,227.33892481168004" stroke="yellow" stroke-linecap="round" stroke-linejoin="round" stroke-width="0.5"><title>2024-11-09 21.0km</title><desc>1731113022000</desc></polyline><polyline fill="none" points="185.5,231.84999163458997 185.20522151899058,231.61404123730608 184.73101265821606,232.0720623309462 183.0007911392604,232.8076696715725 182.92389240511693,232.29413276952982 182.30870253161993,231.21153694686654 182.42405063292244,231.35033162545005 182.8854430380161,230.3648872271733 183.34683544305153,230.28161000320688 183.64161392406095,229.93462117972376 183.32120253163157,229.15736393137195 181.43718354433076,228.0747503588209 181.0526898734388,228.15802854344656 181.3602848101873,227.7832764271443 181.02705696207704,228.11638945566665 182.53939873416675,226.18710178336187 183.82104430376785,226.7839338612248 184.25680379744153,226.86721260778722 184.43623417720664,226.7145348780905 184.48749999998836,225.3543097255897 184.01329113927204,224.0079548967915 182.41123417724157,222.5921901128022 182.60348101262935,222.21742709238606 183.78259493672522,221.60670059690892 185.21803797467146,219.73286849707074 185.12832278484711,219.44138185380143 182.98797468352132,218.88616797089344 181.57816455699503,219.2748178581678 180.23243670887314,218.4697565009992 179.54034810123267,218.44199570409546 178.77136075950693,218.53915847561439 176.73354430380277,219.35809987409448 175.16993670887314,219.621826018687 174.0292721518781,219.56630475530983 173.59351265820442,220.23255885207618 173.13212025316898,220.48240354002337 171.50443037971854,219.56630475530983 170.51756329112686,218.70572311191063 169.96645569620887,217.45648480356613 169.13338607596233,216.88738464651396 169.2743670885684,216.06843266802025 169.00522151903715,215.79082103194378 168.08243670884985,215.91574631803087 167.0827531645773,216.66529632094898 167.0186708861147,216.929026178841 167.42879746836843,217.9700615403417 167.28781645570416,218.60856042505475 166.8905063291313,218.8167661222251 165.19873417721828,217.78961581700423 163.31471518985927,217.2205166512722 162.0202531645773,217.80349626328098 161.68702531646704,217.67857221033773 160.62325949361548,216.59589366630826 157.6242088607396,216.11007437868102 156.2143987341551,215.12455146106367 155.50949367083376,213.54215192660922 154.65079113928368,213.12572882010136 153.38196202530526,213.30617894425814 152.40791139239445,213.07020567072323 151.587658227887,213.25065584725235 151.33132911392022,213.87528975888563 151.01091772154905,214.06961989302363 150.21629746834515,213.79200535523705 149.9984177214792,213.8475282950094 149.9471518987557,214.15290417576034 149.4473101265612,214.34723402780946 148.24256329110358,213.90305121868732 147.83243670879165,213.98633557399444 146.5251582278288,215.3188803257217 145.4870253164554,215.72141805994033 145.46139240503544,216.27664113057835 144.15411392401438,217.9006593591621 143.15443037974183,218.4697565009992 142.8083860759507,218.91392870331765 142.16756329115015,218.24767001302098 141.18069620250026,217.9006593591621 140.9756329113734,217.16499469078553 140.296360759472,216.6514157920319 140.21946202532854,216.22111889607913 139.30949367093854,216.33216334901226 136.8231012658216,215.92962690035347 135.92594936711248,216.2488800153369 135.38765822781716,216.19335777277593 135.01598101260606,217.0261897190212 135.01598101260606,217.48424574347155 132.50395569618559,218.53915847561439 131.5811708860565,219.9688335496612 130.92753164557507,220.44076278136345 129.79968354431912,220.44076278136345 128.86408227845095,220.87105018363218 127.99256329110358,220.67672696053341 126.46740506327478,220.7461281342985 124.77563291136175,221.31521680933656 123.82721518987091,221.25969603753765 122.12262658227701,221.77326256179367 120.58465189870913,222.7587512195023 119.40553797467146,223.03635274173575 118.70063291140832,222.84203171849367 118.43148734176066,222.99471253908996 117.93164556962438,222.66159059155325 117.9188291138853,222.9114321065863 117.70094936707756,222.52278960886179 117.7393987341784,222.85591179812036 117.31645569624379,223.1335131793021 116.16297468356788,223.39723411829618 116.0219936708454,223.61931462697976 116.44493670883821,224.31331455484906 116.59873417718336,225.1044714012678 117.38053797464818,226.21486145618837 117.29082278476562,226.40917905310926 116.3936708860565,226.13158242561622 115.2914556961623,225.02119188732468 114.52246835437836,224.9517922646628 113.84319620253518,225.3265499278932 113.11265822785208,225.42370920220856 112.6128164556576,224.9795521167398 111.67721518984763,224.59091382095357 109.72911392396782,224.3965943769872 109.75474683544599,224.85463275066286 110.92104430380277,224.85463275066286 111.9976265822188,225.49310865366715 112.8563291139435,226.52021759132913 114.1892405062681,226.3120202793216 114.61218354431912,226.42305887393013 116.56028481008252,228.03311125289474 116.91914556961274,228.78261377262243 118.03417721518781,230.1566940992634 118.03417721518781,230.40652582557232 117.41898734174902,230.71187527032453 116.84224683541106,230.4759234694502 116.68844936706591,230.2538509204751 116.76534810126759,229.22676202838193 116.36803797463654,228.82425271543616 115.20174050627975,228.35234416660387 114.72753164556343,227.68611835120828 114.24050632910803,227.4918020513578 112.80506329110358,228.01923154892575 112.22832278482383,228.03311125289474 111.3311708860565,227.85267502255738 110.40838607592741,227.26972603838658 109.65221518982435,228.005351843909 109.06265822780551,227.908193880794 108.39620253164321,228.33846448575787 106.52499999996508,228.24130669180886 105.83291139238281,227.93595330386597 105.97389240504708,228.15802854344656 108.19113924051635,229.40719696269662 109.11392405058723,229.6431500816252 109.1908227847889,229.82358462327102 106.31993670883821,229.49047456734115 105.5381329113734,229.6431500816252 104.6794303797069,229.49047456734115 104.5,229.5737521356932 104.61534810124431,229.79582547410973 105.33306962024653,230.05953722864797 106.53781645570416,230.12893499838538 109.30617088603321,233.0852566123067 110.72879746835679,233.40448109623685 112.70253164554015,234.25111736571125 112.93322784808697,234.7924074436596 112.80506329110358,235.70843331803917 112.34367088606814,236.92979432926222" stroke="#4DD2FF" stroke-linecap="round" stroke-linejoin="round" stroke-width="0.5"><title>2024-10-27 13.8km</title><desc>1729977789000</desc></polyline></svg>