<?xml version="1.0" encoding="utf-8" ?>
<svg baseProfile="full" height="300mm" version="1.1" viewBox="0,0,200,300" width="200mm" xmlns="http://www.w3.org/2000/svg" xmlns:ev="http://www.w3.org/2001/xml-events" xmlns:xlink="http://www.w3.org/1999/xlink"><defs /><rect fill="#222222" height="300" width="200" x="0" y="0" /><text fill="#FFFFFF" style="font-size:12px; font-family:Arial; font-weight:bold;" x="10" y="20">Over 10km Runs</text><text fill="#FFFFFF" style="font-size:4px; font-family:Arial" x="10" y="280">ATHLETE</text><text fill="#FFFFFF" style="font-size:9px; font-family:Arial" x="10" y="290">Zayn</text><text fill="#FFFFFF" style="font-size:4px; font-family:Arial" x="65" y="280">SPECIAL TRACKS</text><rect fill="yellow" height="2.6" width="2.6" x="65" y="283" /><text fill="#FFFFFF" style="font-size:3px; font-family:Arial" x="70" y="285.5">Over 20.0 km</text><rect fill="red" height="2.6" width="2.6" x="65" y="287" /><text fill="#FFFFFF" style="font-size:3px; font-family:Arial" x="70" y="289.5">Over 40.0 km</text><text fill="#FFFFFF" style="font-size:4px; font-family:Arial" x="120" y="280">STATISTICS</text><text fill="#FFFFFF" style="font-size:3px; font-family:Arial" x="120" y="285">Number: 5</text><text fill="#FFFFFF" style="font-size:3px; font-family:Arial" x="120" y="290">Weekly: 1.2</text><text fill="#FFFFFF" style="font-size:3px; font-family:Arial" x="141" y="285">Total: 138.6 km</text><text fill="#FFFFFF" style="font-size:3px; font-family:Arial" x="141" y="290">Avg: 27.7 km</text><text fill="#FFFFFF" style="font-size:3px; font-family:Arial" x="167" y="285">Min: 13.8 km</text><text fill="#FFFFFF" style="font-size:3px; font-family:Arial" x="167" y="290">Max: 38.6 km</text><polyline fill="none" points="55.499033702450106,104.82212537987652 55.635689609567635,104.95826251095423 55.679419499851065,104.656392913952 55.351445322768996,104.43146974351112 55.43890510330675,104.29533173406526 52.48713750956813,101.88032409538573 54.06687979583512,100.32355335909233 53.148552099999506,99.31725989762344 52.72765190608334,99.06272487958631 52.421542674157536,99.00945000789943 52.41061020156485,98.59508870773425 53.03922737430548,97.94986478039937 53.28520800714614,97.93802576158487 53.06655855575809,97.59469346917467 51.76559431996429,96.25094802082458 51.536012396012666,95.8839299982501 54.00675119672087,93.5752303885456 54.11607592241489,93.46275361045264 54.05594732327154,93.30291792218486 54.15980581266922,93.17268120391964 53.94115636128117,92.81156921579532 52.92443641234422,91.78150328631455 52.40514396529761,91.100705446559 53.268809298286214,90.1179785439017 54.258198065828765,89.33652460388112 55.586493483016966,88.04592518736172 56.26977301860461,87.73215251809597 57.95337379432749,87.24077025175939 58.48906495020492,86.88555231172359 58.6858494564658,86.571775177581 59.3090003929392,86.04486368899961 59.407392646040535,86.1159081332371 59.626042097457685,86.02710256825958 60.35305152332876,86.13366923461581 62.62153958147974,86.18103215275187 62.93311504970188,86.33496144666424 62.807391615147935,86.0330229422616 64.84629774937639,84.12664029474399 64.46366120944731,83.14382934218156 64.42539755546022,82.49256254537613 65.38745514157927,78.4723550304916 65.84115275321528,77.24671476856747 67.31157031378825,74.83682725897233 67.650476963463,73.68218759350566 67.73793674402987,68.46538078566664 68.03857973968843,68.3528693529588 68.15883693794603,67.95019558329659 68.1151070476626,67.79030985780264 68.21349930076394,67.10338983598194 68.10964081139537,68.15153271701274 68.03857973968843,68.34694769430644 68.02764726709574,68.09823764181783 68.2462967185129,55.282720070841606 68.37202015303774,54.40024649319821 68.26816166364006,54.25810220307176 68.393885098194,53.523686080974585 68.38841886189766,52.70042141732847 68.40481757075759,52.63527062056528 68.4868111150281,52.72411260322406 68.31735779021983,52.21475058611395 68.393885098194,51.66984815301839 68.38295262563042,49.975889015579014 68.3009590813308,49.827813987642 68.05497844851925,49.70935377119167 66.31671530997846,49.14666538673919 65.97780866033281,48.95120430004317 65.72089555492857,48.57805001181987 65.36012396015576,46.52270919541479 65.39838761414285,47.269034922501305 65.021217310481,47.351959580453695 64.90642634851974,47.186110179987736 64.92282505737967,47.00249080633512 64.56751969884499,46.76556196956517 63.37041395250708,45.20773767527862 62.76366172489361,44.2481504409152 62.72539807090652,43.53733777988964 62.976844940014416,40.220129843881296 64.20674810407218,34.07108988817345 64.04276101553114,34.0 60.42411259500659,34.171800456570054 59.48938619031105,34.479855537894764 57.849515304900706,35.208519638865255 56.821862883341964,35.35662129928096 55.728615626401734,35.214443710458 52.61286094409297,34.11848311238282 51.4212214340223,34.15402801239543 50.48102879305952,34.42061426681903 49.66655958665069,34.924163694056915 49.52443744323682,34.91823960129841 49.29485551925609,35.1374307459555 48.55144738452509,35.58765935047995 47.17942207705346,36.20968160756456 45.51222001021961,36.55919678627106 43.28199560602661,36.84354700896074 41.784246864001034,37.17528767784097 40.554343699943274,37.34708142049931 40.53247875481611,37.22860301614128 33.7980756519828,46.102157553883444 34.33923304415657,47.517808642674936 34.43762529731612,48.42404933024227 34.51415260529029,52.025219719049346 34.388429170736345,54.287715617341746 34.51415260529029,55.62030810293072 34.73826829297468,56.1000360548569 34.623477330984315,56.55014859835501 34.70000463895849,57.93600579516351 34.15884724678472,59.80746780290792 34.18071219191188,60.63658278450748 33.96752897682018,61.744030335386924 33.32251309521962,63.82859661831026 32.43698281707475,65.49857996096398 31.513188884971896,66.43422941533936 31.57878372038249,66.39277681902604 31.775568226643372,66.62964851372817 32.037947568285745,67.56528497159889 32.311259382549906,68.11600267076574 33.03826880842098,70.62083295775665 37.74469824958942,75.7131582364018 38.291321878059534,76.18684673239477 39.54308998724446,77.64934258822905 38.012543827528134,79.06444517212367 38.056273717811564,79.23615050859371 37.963347700977465,79.34864691220719 39.55402245983714,81.87089393108909 39.8273342740722,82.16100654108595 41.5273337586259,84.70092795755045 41.66398966574343,85.06207585927768 41.691320847166935,85.49426714725269 42.4565939270251,86.17511178948916 42.724439504992915,86.55993450738606 43.46238140342757,87.26445139274438 44.457236407266464,88.38929766839283 44.87813660118263,89.08787859820586 45.643409681040794,88.40113807299349 45.21704325082828,88.78595028649579 45.05852239855449,89.02275690003444 45.07492110741441,89.16484053811291 45.457557647372596,89.37796553112275 46.61093350345618,90.38438158490317 48.097749772889074,92.33797730031074 50.38263653992908,94.83022392130079 50.67234706302406,95.03149467277399 50.929260168399196,95.44587406833307 52.350481602421496,96.87842662280309 54.69549696860486,99.49484199822473 54.25273182953242,99.98023110187205 54.63536836949061,100.32355335909233 54.39485397291719,100.6550355475265 57.35208780298126,103.01088803570747 55.8434065883921,104.56760752595437 55.777811752981506,104.72150213710847 55.87620400611195,104.97010051161487 55.41704015817959,105.53832252541179 55.586493483016966,105.69221530698997 55.60835842814413,106.0" stroke="yellow" stroke-linecap="round" stroke-linejoin="round" stroke-width="0.5"><title>2025-04-05 38.6km</title><desc>1743839508000</desc></polyline><polyline fill="none" points="177.5505944872857,81.4645878417432 175.79544913000427,83.17781827640283 175.4063774991082,83.40250254958664 175.2248107380292,83.72080460092548 174.5936500923126,84.1233619544073 173.36591294585378,85.34038818448607 170.7721020730387,87.5965372518258 170.21875575350714,88.14886649730033 170.40032251458615,88.24248138963594 169.83833015881828,88.5233256596548 168.43767228751676,89.843285551804 170.27063197098323,92.67038832187973 171.02283712409553,92.7733610963769 171.68858191475738,93.5690570418592 172.23328219805262,93.80308432874881 171.04012919653906,94.96385340777488 171.2303419939126,96.50840900048206 171.16117370393476,98.1091107746688 171.30815632009762,98.43673734892946 172.82121266255854,99.93444825640472 172.5618315752654,100.1871852608383 171.97390111078857,100.16846401819203 171.57618344359798,100.40247935635853 171.62805966104497,101.40406021714443 170.86720847169636,101.67551537554391 170.651057565643,101.49766550856293 170.35709233340458,101.60063125084707 170.00260484742466,102.48051697664778 168.55007075864705,104.76444772362447 167.73734335185145,105.64431191850599 167.7114052431134,106.0 167.80651164180017,105.58815055303421 168.64517715730472,104.6708447973433 170.04583502866444,102.44307515286346 170.33115422466653,101.63807331862336 170.64241152937757,101.48830498247116 171.03148316030274,101.75039945688331 170.97960694285575,101.6193522860849 171.6453517335758,101.39469968427147 171.6367056973104,100.31823388343764 172.1554678718676,100.1310215247795 172.66558401015936,100.15910339586844 172.855796807562,99.96253017019626 171.26492613885785,98.37121210048645 171.16117370393476,98.0248638070625 171.21304992141086,96.29310841896222 171.04012919653906,94.94513140856725 172.23328219805262,93.79372324541328 171.67128984228475,93.52225153362087 170.98825297912117,92.68911065062275 170.27063197098323,92.65166599043732 169.5530109628162,91.37854108793545 168.8094518459693,90.32071453252138 168.1177689465403,89.627973865674 168.07453876532963,89.43138462151546 167.03701441618614,89.12245806208375 165.42885167506756,88.21439692904823 164.4604956158728,88.39226507626154 163.95902551381732,87.54972958013241 163.35380297680967,87.19399072096712 162.9560853096482,86.47314845032815 163.0771298170439,83.3276078352792 162.3249246639607,83.33696967694414 160.71676192281302,83.76761365996208 158.87515620313934,84.66634430441627 158.18347330371034,85.08762214158924 157.586896802939,86.07059841912996 155.85768955439562,83.96421152273979 155.45997188723413,83.87059353016957 155.07954629260348,83.29016046184552 154.61266033549327,82.85015301079693 154.5780761904898,82.5037631119194 154.47432375559583,82.81270549894543 154.13712834211765,82.5880201998516 153.37627715276903,81.76417075931386 151.99291135394014,79.92921448283596 152.32146073118201,80.18199062019266 152.0274954989436,80.11645611355925 152.06207964385976,79.86367984795652 151.88051288280985,79.84495566043188 151.47414917938295,79.2832287730198 151.4395650344086,79.39557434595918 151.20612205585348,79.11471023036574 151.18882998335175,79.21769381034392 151.86322081027902,78.09423213572154 151.65571594049106,77.38270135342464 150.81705042495742,76.50264469951071 150.77382024371764,75.87536661498598 150.8689266424335,75.75365558888734 150.66142177255824,75.99707752633549 155.58966243089526,70.33271738466283 155.45997188723413,70.10801036996418 153.45409147898317,68.45078405702952 151.3271665632492,66.84971470103483 153.48002958769212,63.666242944476835 153.42815337024513,63.544520406998345 152.04478757141624,62.495829174804385 151.54331746930256,61.88720981958613 150.31558032284374,61.08195518454886 149.6498355321819,60.30478606239922 148.22323955214233,59.312250016060716 145.96662409283454,61.90593661177991 145.64672075182898,62.13065790612018 145.6034905705892,62.33665208212915 145.09337443229742,62.954632637425675 142.84540500916773,65.40779898641631 142.50820959574776,65.6325141833513 140.48503711493686,68.10435552907438 140.18242584643303,68.2260737664692 139.21406978726736,67.50512561012147 138.15060732944403,66.36283587136131 138.04685489452095,66.0913064955821 135.80753150765668,64.4246653997543 134.98615806459566,63.4696141730019 131.4758673500619,61.29731447451195 131.38076095140423,61.03513790004217 131.23377833527047,61.13813590353675 131.06085761042777,60.76359731492994 129.81582839149632,59.97706274038501 129.5132171229634,59.64933858605218 129.43540279677836,59.162432591176184 129.26248207196477,59.10625101201731 128.7004897161678,58.394615558449004 128.1817275415815,58.20734241835453 127.15284922873252,57.50506572207814 126.32282974946429,56.49378056398564 125.3458276540041,55.62294532600208 125.05186242173659,55.01429355145956 124.58497646465548,54.80828768503852 123.81547923907056,53.98426092966838 123.63391247799154,53.16022891071043 123.7808950940962,52.32682753757399 125.8040675749071,49.13363311075955 125.752191357431,48.80588140869804 125.95105019101175,48.53431508174981 125.70031513995491,47.53232403162838 125.35447369026951,46.81126023478282 123.6684966229077,44.39519890495285 123.10650426713983,43.24333977756032 122.63097227382241,41.267362348480674 122.35429911402753,38.34548240431468 122.02574973681476,38.354847509916 121.56750981599907,36.182124777449644 121.32542080117855,35.90116657769977 121.0660397138854,35.88243600926944 120.37435681448551,36.28514263058605 119.80371842245222,36.378795152908424 119.5011071539775,36.725308893830515 119.25037210294977,36.7440393397992 117.94482063027681,34.0 119.18984984920826,36.706578445177 119.89017878490267,38.86992727065808 120.41758699566708,39.656590569909895 121.42052719983622,41.75433590119792 123.59068229675177,45.68751640984556 125.4063499077165,48.562408176578174 125.4063499077165,48.95571086156997 125.12967674795073,49.5362983473824 123.21890273829922,52.35491980635561 123.14108841214329,52.823123385773215 123.0892121946963,52.63584215793526 123.28807102827705,52.28937116962334 123.22754877453553,53.2632332009307 123.39182346320013,54.0779005987788 124.22184294246836,55.05174912819348 132.34047097433358,62.392832254903624 133.93134164300864,64.9490042445832 137.37246406756458,70.98811061020388 138.12466922070598,71.71840199945291 138.58290914155077,72.41123872965545 138.61749328652513,72.81383133794589 140.1651337739604,74.49908909570513 140.84817063712399,74.95784989868116 142.2401824722183,76.42774598391406 143.286352857569,79.61090308760322 143.83969917710056,80.86541992201091 144.06449611941935,81.08074621310516 144.48815189531888,82.9999429496529 146.4162179774139,88.27056584411184 146.59778473852202,88.17695097211981 146.56320059354766,87.90546745977917 144.57461225771112,82.03566717816284 144.11637233686633,80.15390440713236 143.99532782947063,78.58106672798749 146.97821033318178,77.6167579644898 148.69877154548885,77.15800660767127 149.00138281399268,77.19545575912343 150.09942941681948,76.64307967409695 153.62701220382587,72.52359028151841 157.2324093170173,76.38093426464911 157.8030477090506,76.2873107751584 158.80598791319062,75.51959560087562 161.2787542785518,72.99172069521592 162.63618196867174,71.84947950385686 162.7312883673294,71.64350050862413 166.24157908189227,68.3571548168402 166.53554431413068,68.43205821442825 168.48954850499285,70.63232612918364 169.33686005676282,71.34389411075244 170.01125088369008,72.28016179557744 171.32544839257025,73.36622380412155 173.87602908414556,76.14687541362946 175.37179335413384,77.42951270955382 177.95695819074172,80.36923188446235 178.2336313504493,80.25688715848082 180.81879618702806,77.58867119356728 181.79579828245915,78.20657874297467 182.0551793697232,78.69341291172168" stroke="yellow" stroke-linecap="round" stroke-linejoin="round" stroke-width="0.5"><title>2025-04-04 35.8km</title><desc>1743763192000</desc></polyline><polyline fill="none" points="24.57063711900264,150.48614964890294 27.362880886532366,140.87582532165106 27.063711910974234,145.73498582013417 27.861495844554156,147.13874034688342 26.465373961254954,148.32653160521295 25.26869806041941,148.54249355057254 26.066481993999332,146.1669104306493 29.457063711248338,148.00258862855844 28.260387811344117,146.59883491625078 26.764542936347425,146.49085380649194 30.25484764529392,144.33122997090686 26.365650969091803,145.30306108435616 28.95844875322655,140.98380683828145 29.05817174492404,145.08709866937716 24.57063711900264,146.70681601786055 27.662049861159176,145.195079880883 21.778393351472914,148.65047451131977 25.867036011070013,146.1669104306493 26.365650969091803,144.33122997090686 25.667590027675033,145.08709866937716 33.44598337914795,140.98380683828145 30.05540166143328,143.4673795599956 34.04432132933289,141.41573282633908 31.451523545198143,148.11056962877046 21.379501385148615,157.39690635062288 28.060941827949136,149.19037919840775 25.368421052582562,148.32653160521295 27.861495844554156,147.03075927635655 29.457063711248338,146.70681601786055 28.360110803041607,146.1669104306493 28.260387811344117,148.32653160521295 32.049861495383084,143.68334220943507 31.351800553500652,143.03545416670386 28.559556786436588,145.4110422799131 29.85595567850396,143.35939822345972 25.667590027675033,145.8429669844918 27.163434902671725,145.8429669844918 25.368421052582562,146.1669104306493 27.462603877764195,145.950948141166 37.534626038745046,126.94614404684398 31.451523545198143,141.63169577345252 22.077562326565385,144.97911745030433 24.96952908532694,139.90399131993763 45.01385041512549,130.40158100740518 70.9418282546103,133.1011355558876 76.72576177306473,153.18566780118272 65.15789473708719,164.199651169125 59.77285318542272,158.4767091894755 70.14404432149604,147.03075927635655 68.64819944556803,146.70681601786055 86.0,142.8194914230844 59.9722991688177,129.64570485719014 58.97506925230846,139.3640832673991 61.36842105258256,131.91333215741906 66.35457063699141,145.6270046478603 67.05263157887384,145.73498582013417 66.4542936286889,146.49085380649194 63.66204986162484,148.65047451131977 74.33240997232497,146.70681601786055 68.94736842112616,148.00258862855844 67.05263157887384,146.70681601786055 68.14958448754624,146.05892928992398 68.5484764543362,146.70681601786055 68.5484764543362,147.13874034688342 67.95013850415125,145.950948141166 71.24099722970277,146.59883491625078 70.24376731319353,146.59883491625078 68.94736842112616,147.24672140926123 67.05263157887384,144.11526741506532 70.44321329658851,142.4955472489819 66.75346260378137,145.950948141166 67.25207756226882,146.8147971117869 68.5484764543362,146.27489156392403 69.04709141282365,147.67864558158908 69.54570637084544,149.40634101838805 73.73407202260569,146.59883491625078 69.94459833810106,146.27489156392403 69.34626038791612,148.54249355057254 68.5484764543362,147.78662660508417 69.24653739575297,148.00258862855844 67.25207756226882,148.32653160521295 70.64265927998349,145.51902346801944 68.5484764543362,147.67864558158908 58.97506925230846,175.64546917693224 72.73684210516512,153.40162904188037 76.32686980627477,161.1762128623668 75.22991689760238,156.31710272922646 70.34349030489102,146.05892928992398 70.04432132979855,146.49085380649194 72.03878116374835,148.54249355057254 72.83656509732828,149.62230280728545 69.04709141282365,148.7584554643836 70.64265927998349,148.11056962877046 69.34626038791612,146.92277819779702 66.15512465359643,143.57536088873167 69.24653739575297,148.32653160521295 72.5373961222358,148.86643640964758 71.24099722970277,149.19037919840775 65.65650969557464,147.24672140926123 70.9418282546103,150.27018798550125 69.34626038791612,147.03075927635655 66.85318559594452,148.00258862855844 68.64819944556803,148.21855062094983 67.35180055396631,143.57536088873167 64.65927977859974,134.93682985426858 61.86703601107001,149.51432191685308 62.764542936347425,146.70681601786055 61.86703601107001,147.89460762077942 58.775623268447816,154.5894153069239 65.55678670341149,142.38756584201474 67.05263157887384,144.0072861254448 71.54016620479524,149.51432191685308 71.73961218819022,152.53778389084619 68.14958448754624,149.73028368980158 69.84487534593791,131.69736780121457 69.24653739575297,156.1011419108836 67.95013850415125,170.8943855841644 68.24930747924373,150.59413046913687 66.75346260378137,155.99316149007063 66.95290858717635,163.44379216770176 70.24376731319353,144.76315498840995 68.14958448754624,148.86643640964758 70.24376731319353,156.20912232412957 68.84764542942867,152.53778389084619 66.05540166189894,175.32153214048594 70.24376731319353,157.18094568897504 68.94736842112616,149.94624543155078 67.75069252122194,148.43451258190908 66.4542936286889,145.950948141166 73.13573407195508,155.45325926865917 72.03878116374835,152.75374522572383 74.53185595618561,149.94624543155078 77.0249307481572,148.97441734711174 73.73407202260569,144.97911745030433 70.9418282546103,144.76315498840995 74.0332409972325,148.21855062094983 73.33518005535007,151.99788041668944 73.93351800600067,150.91807288199198 78.02216066466644,154.0495125767775 72.9362880885601,151.24201522453222 67.152354571037,151.99788041668944 68.5484764543362,145.950948141166 66.55401662085205,150.59413046913687 67.65096952905878,150.81009208550677 69.34626038791612,163.3358122787904 72.13850415498018,152.75374522572383 73.0360110802576,159.12459051725455 68.64819944556803,152.4298032115912 70.9418282546103,152.2138418299146 69.14681440452114,152.6457645620685 73.33518005535007,147.13874034688342 70.74238227168098,149.29836011247244 72.43767313007265,142.06362157396507 68.94736842112616,147.57066455029417 72.9362880885601,147.67864558158908 67.5512465373613,146.1669104306493 71.63988919695839,144.22324869700242 73.13573407195508,151.34999598993454 69.84487534593791,150.05422629066743 70.14404432149604,148.43451258190908 68.5484764543362,148.00258862855844 70.542936288286,150.48614964890294 69.34626038791612,145.6270046478603 71.24099722970277,135.26077567215543 68.84764542942867,155.99316149007063 70.14404432149604,148.97441734711174 71.04155124677345,144.87113622331526 68.64819944556803,160.31237221939955 71.83933517988771,154.15749313833658 69.94459833810106,138.28426657489035 71.83933517988771,169.92257116478868 70.24376731319353,159.66449140827172 71.54016620479524,157.18094568897504 70.84210526291281,170.24650937505066 70.84210526291281,148.54249355057254 69.84487534593791,149.94624543155078 74.0332409972325,148.65047451131977 60.17174515221268,145.51902346801944 74.53185595618561,149.83826456451789 68.94736842112616,147.67864558158908 75.52908587269485,138.39224827929866 64.36011080350727,141.7396772353677 50.9972299169749,137.20444909948856 44.61495844880119,137.63637618371285 35.9390581715852,145.4110422799131 32.448753462638706,149.51432191685308 29.95567867020145,151.56595749675762 32.249307479243726,151.13403445179574 34.14404432149604,147.03075927635655 38.332409971859306,143.4673795599956 42.620498614851385,139.0401383418357 46.9085872573778,133.42508177296259 50.39889196678996,132.4532429103274 53.78947368450463,137.20444909948856 72.5373961222358,133.85700995265506 78.4210526314564,144.33122997090686 79.91689750738442,151.99788041668944 70.542936288286,146.59883491625078 72.23822714714333,146.1669104306493 71.93905817205086,145.950948141166 71.93905817205086,146.8147971117869 79.61772853229195,146.8147971117869 73.13573407195508,146.49085380649194 70.9418282546103,145.30306108435616 70.9418282546103,145.73498582013417 69.64542936300859,146.49085380649194 74.63157894741744,148.32653160521295 72.9362880885601,146.59883491625078 68.04986149584875,148.21855062094983 71.83933517988771,147.67864558158908 66.85318559594452,158.04478814802133 67.95013850415125,154.26547369221225 71.14127423847094,147.35470246418845 71.34072022186592,145.8429669844918 69.34626038791612,146.05892928992398 67.85041551245376,146.70681601786055 76.32686980627477,151.99788041668944 65.35734072048217,163.55177204834763 70.84210526291281,149.29836011247244 71.73961218819022,148.11056962877046 72.5373961222358,148.11056962877046 74.43213296402246,147.46268351119943 74.33240997232497,147.24672140926123 72.23822714714333,147.35470246418845 72.13850415498018,149.08239827654324 67.25207756226882,157.07296534639318 68.24930747924373,146.3828726891661 67.35180055396631,149.08239827654324 71.14127423847094,146.1669104306493 69.54570637084544,151.02605367079377 71.44044321309775,142.6035286479164 65.35734072048217,142.6035286479164 67.5512465373613,123.49069907038938 69.14681440452114,148.32653160521295 69.24653739575297,148.97441734711174 72.33795013884082,147.13874034688342 73.13573407195508,145.4110422799131 67.85041551245376,150.16220714186784 68.74792243773118,147.46268351119943 58.87534626061097,165.27944907732308 72.43767313007265,144.65517374582123 72.5373961222358,147.13874034688342" stroke="yellow" stroke-linecap="round" stroke-linejoin="round" stroke-width="0.5"><title>2025-01-11 29.4km</title><desc>1736530614000</desc></polyline><polyline fill="none" points="185.4487215510162,156.61974530636508 185.38803034563898,156.57045086303697 185.15538072495838,156.78953703140724 184.99859511101386,156.8278770455072 184.7507726889744,156.59235950848233 184.7305422872014,156.64713109428703 184.61927507727523,156.57045086303697 184.35122225349187,156.57045086303697 184.25512784492457,156.40065864524513 183.99213262155536,156.27468352720462 183.9769598202256,156.19252572827827 184.05788142737583,156.12679942474642 183.9769598202256,155.88032527687756 184.14386063502752,155.67219092530286 184.336049452133,155.639327554185 184.4119134588691,155.52978288043232 184.6243326777476,155.4585787572505 184.65973588087945,155.3271248149249 184.7912334925786,155.23401146726246 185.04411351506133,155.2613977579167 185.39308794608223,154.97110257155146 185.6813711716968,155.09160259574855 185.74206237707403,154.92180705165083 186.0,154.83417049236596 185.82298398428247,154.65341976749914 185.80781118295272,154.4124181277075 185.3020511379873,154.43432739948184 185.05928631642018,153.93041253967385 184.94296150605078,153.96327665480203 184.55352627145476,153.82634274729935 184.38156785615138,153.85920690776402 184.0831694296212,153.51960989298095 183.94661421750789,153.4757908120373 183.542006181553,153.51960989298095 183.26889575726818,153.43744909533416 182.32818207363016,152.75277230340726 182.27760606913944,152.3693505868141 182.34841247546137,152.22693631023867 182.05001404890209,151.66823155301245 182.00955324532697,151.24098394771863 181.69092441699468,150.6329735695981 181.70103961788118,150.3864814801418 181.51390840124805,150.11807806701108 181.03343635855708,149.8277630963712 180.96262995226425,149.42789347779035 180.7148075302248,148.90751203367108 180.7046923293383,148.57337047735928 180.31525709471316,147.69692657686392 179.99662826640997,147.43946924633929 179.9308794605604,147.4997252960602 179.66788423716207,147.4832918327229 179.4099466142361,147.24226729254588 179.0306265805266,146.76569377602573 179.00028097783797,146.62874680635286 178.78786175893038,146.4479764257194 178.60073054229724,145.90566268459224 178.14554650185164,145.5441180244452 177.98876088790712,145.46742651012755 177.39196403487585,145.702978770365 177.0682776061003,145.59889762979583 176.44619275079458,144.9031936861502 175.7330710873939,144.32252248941222 175.45490306269494,144.22391750255338 175.21213824112783,143.92810176847706 175.16661983705126,143.632284874162 174.87833661143668,143.2762074439379 174.47878617592505,143.2981199497226 174.30682776062167,143.17212295448553 173.92750772691215,143.48985410380556 173.56841809500474,143.52272276700387 173.33576847432414,143.70897825445718 173.28013486936106,143.94453600636916 173.37622927789926,144.1198343210126 173.35599887612625,144.25130778961466 173.001966844633,144.43208343473816 172.78449002531124,144.72241917016072 172.4405731947336,144.70050707817427 172.35965158755425,144.29513222821697 172.09665636418504,144.24035167597322 171.97021635292913,144.28417612096382 171.85389154258883,144.45947364620224 171.59595391966286,144.45947364620224 171.50997471201117,144.84293556230114 171.11042427649954,145.22091754309804 170.4681090194208,145.2647414183375 170.39730261312798,145.35786706869112 170.41753301490098,145.2647414183375 170.10396178704104,145.67011105728307 169.93706097221002,146.21790440564655 169.2289969092526,146.5739679488761 169.17336330431863,146.940985534442 169.2188817083661,147.4997252960602 169.13796010118676,147.57093692915078 168.55633604945615,147.63119287386507 167.63585276764934,147.3134791686607 167.4386063501297,147.34086833387846 167.28182073618518,147.2313116133446 167.0896319191088,147.2258337731255 166.8569822983991,147.02315340597852 166.5181230683229,146.97385269379447 166.20455184043385,146.82047249428433 165.91626861479017,146.51371115969232 165.5521213824395,146.60135738258396 165.41050856985385,146.6999592616121 165.38016296713613,147.05054267661035 165.13234054512577,147.57641474428237 165.16774374825764,147.7955270239545 165.2790109581838,147.9379496644833 165.1728013487009,148.23374967417476 165.2031469514186,148.5295485241295 165.34981736444752,148.76509122340212 165.35993256533402,148.95133376734884 164.84911491995445,149.0170663201643 164.72267490869854,148.74865803568537 164.32818207365926,148.661014307414 163.974150042166,148.30496061441954 163.5189660017204,148.23922744119045 163.18516437202925,148.32139389877557 162.85642034283956,148.1241942502529 162.80584433831973,148.19540529389633 162.86653554372606,148.47477104682184 162.70469232930918,148.57337047735928 162.82607474012184,148.72126938154543 162.755268333829,148.858212552841 162.77044113515876,149.34572822521295 162.2899690924678,149.64152271573403 161.76903624614351,149.41146043443587 161.4959258218878,149.17591975301912 161.34419780838653,149.30738441006542 161.13683618995128,149.2471298040182 160.51475133467466,149.41693811595178 159.86737847712357,149.37859433699487 159.74093846589676,149.25260749746667 159.37173363304464,149.13757585157146 158.95701039620326,148.68292524903518 158.92666479348554,148.5295485241295 158.74964877776802,148.44738229325594 158.6029783647391,148.51311528511724 158.26917673507705,148.43094903634483 157.71789828606416,148.45286004476657 157.2778870469483,148.56241499142925 156.31188536109403,148.47477104682184 156.26636695704656,148.56241499142925 155.94773812871426,148.61719240511593 155.64933970218408,148.86369027451292 154.93116043834016,148.9239451867761 154.5670132059895,148.82534621439117 154.07136836191057,148.9020343151642 153.76285473449389,148.63362562147086 152.96375386347063,149.00611089867016 152.54903062662925,148.90751203367108 152.34672660863725,148.96776691092236 152.14442259064526,149.16496435461158 152.21017139646574,149.35120591150917 152.14442259064526,149.5538800246286 151.7802753582655,149.70177700683416 151.44647372860345,149.68534402312798 151.05703849397833,150.0194806550644 150.5512784490129,149.74012062157271 150.05563360496308,149.59222371452051 149.3425119415624,149.6086567185048 149.05928631642018,149.46075955377455 148.38156785618048,149.41693811595178 148.28547344761319,149.53744700871175 147.5217757797509,149.52649166277843 147.16774374825764,150.01400301729154 146.92497892669053,150.1126004363905 146.68221410509432,149.98661482246098 146.26243326780968,150.07425701094326 146.01966844621347,150.28240680063027 145.94886203992064,150.51794402806263 145.35712278733263,150.75895810437942 145.27114357968094,150.75348052027402 145.04355155944359,150.4631679942613 144.43663950549671,150.7370477656077 144.24445068842033,150.7151374204841 144.0370890699851,150.55080962923967 143.86007305426756,150.74800293579756 143.81455465019098,150.99997141093627 143.62742343355785,150.63845116244192 143.26833380165044,150.45221278273675 142.8485529643367,150.55628722804977 142.3630233211734,150.43577996245585 142.0545096937567,150.53985443044076 142.0241640910681,150.70965983321366 141.89266647936893,150.86303212663915 141.43242483848007,150.75348052027402 141.42230963756447,150.8520769731549 141.3009272267809,150.91780787017342 141.06322000565706,150.91780787017342 140.7091879741638,150.76443568807736 140.52711435797391,150.83564423995995 140.3602135431429,151.11500021768734 140.15285192470765,151.18620843876852 140.06687271708506,151.32862467933592 139.69766788426205,151.55320358955214 139.61168867661036,151.7832593411731 139.0452374262677,152.4898547647972 138.72155099749216,152.5994038505305 138.5799381849065,152.7637271809799 138.49901657769806,152.56106168861152 137.9325653273554,152.30362095410237 137.84152851926046,152.007836898425 137.6139364990231,151.84898942710424 137.53301489184378,151.6627540349291 137.23967406575684,151.74491676458274 136.25344197810045,151.5751136913459 135.6566451250692,151.7339617391408 135.51503231245442,152.18859395909385 134.98398426527274,152.37482805363106 134.47316661986406,152.676088115928 134.14948019108851,153.17453394184122 133.93706097221002,153.36076560350193 133.79544815962436,153.39362996668933 133.64877774656634,153.35528820825857 133.74487215510453,153.32242382837285 133.6740657488408,153.3005142338443 133.70946895197267,153.38267518055363 133.77521775782225,153.32242382837285 133.73475695421803,153.39910735916055 133.37060972183826,153.39362996668933 133.1329025007144,153.53056465923873 132.73840966567514,153.46483603781962 132.16184321441688,153.4922229703734 131.4487215510162,153.7277501800636 131.09468951955205,153.67845384815155 130.30064624897204,153.95779930327262 129.79488620400662,154.26453037687315 129.30429896040005,154.3905088495667 128.71255970781203,154.25905304720072 128.46473728577257,154.4452820329825 128.09553245294956,154.51648711200687 128.02978364709998,154.62055595283164 128.22197246417636,154.94371617557772 128.2169148637331,155.129943472195 128.59117729699938,155.60646416874806 128.48496768757468,155.71053150686203 128.14105085699703,155.54621459161717 127.68586681652232,155.1408980047563 126.90699634730117,155.3216475623558 126.44675470638322,155.0313526076934 125.56167462773737,154.8834660694847 125.44534981739707,155.1408980047563 125.05085698229959,155.23401146726246 124.68165214947658,154.84512506784085 124.2669289126352,154.75748841952736 123.90278168028453,154.81773862616683 122.9317223939579,154.6315105593094 122.79010958137223,154.4014634894338 122.58780556338024,154.25905304720072 122.54228715933277,154.1111649958766 122.43607754990808,154.0673462583727 122.53722955888952,153.9687540059458 122.4765383535123,153.88659369721427 122.48159595392644,153.6236801082705 122.56251756113488,153.57438370839373 122.49171115484205,153.48126819854951 122.30457993820892,153.67845384815155 122.02641191348084,153.7003633329805 121.4903062658268,154.10021031389624 121.20708064065548,154.09473297229124 121.08569822984282,154.20975706229365 121.01994942399324,154.43980471642863 120.88845181232318,154.50553248883807 120.74178139929427,154.4452820329825 120.73672379882191,154.29191701926175 120.27648215790396,154.15498370796558 119.76060691208113,153.79895593597757 119.54313009273028,153.78800120867527 119.41163248103112,153.65106698317686 119.24978926667245,153.65106698317686 118.94127563925576,153.2840820337733 118.2483843776572,153.01568892611976 117.94998595112702,152.55558423532784 117.68193312728545,152.70347533468157 117.20146108459448,152.61583619967132 116.8929474571778,152.24884621644014 116.67547063782695,152.19954891854286 115.91177296996466,152.5446293275454 115.43130092721549,152.38030552004784 115.31497611687519,152.18859395909385 115.1227872998279,152.18859395909385 114.92048328183591,151.9968819111382 114.67266085979645,152.0954767394869 114.60185445353272,152.007836898425 114.34897443105001,152.12834165363165 114.0,152.0790442770376" stroke="yellow" stroke-linecap="round" stroke-linejoin="round" stroke-width="0.5"><title>2024-11-09 21.0km</title><desc>1731113022000</desc></polyline><polyline fill="none" points="86.0,236.08888145297533 85.73797468363773,235.87914776650723 85.31645569624379,236.2862776275142 83.77848101273412,236.94015081918042 83.7101265823585,236.48367357291863 83.16329113929532,235.52136617500219 83.26582278485876,235.6447392226255 83.67594936717069,234.76878864638275 84.08607594942441,234.69476444729662 84.34810126584489,234.38632993753708 84.06329113931861,233.6954346056591 82.38860759499948,232.73311143007595 82.04683544306317,232.80713648306846 82.32025316462386,232.47402349079493 82.02405063301558,232.7701239605958 83.36835443042219,231.05520158522995 84.50759493676014,231.585718987757 84.89493670890806,231.65974454025854 85.05443037982332,231.52403100275842 85.10000000003492,230.31494197830034 84.6784810126992,229.11818213049264 83.25443037983496,227.8597245447163 83.4253164557158,227.5266018599068 84.47341772157233,226.98373386391904 85.74936708866153,225.3181053307344 85.6696202532039,225.05900609226956 83.76708860765211,224.56548264079902 82.51392405072693,224.91094920727483 81.31772151903715,224.1953391120187 80.70253164559836,224.17066284810426 80.01898734184215,224.2570297561033 78.20759493671358,224.9849776658666 76.81772151903715,225.2194009054947 75.80379746836843,225.17004867139622 75.41645569622051,225.76227453518368 75.00632911396679,225.98435870224785 73.55949367088033,225.17004867139622 72.68227848107927,224.40508721060178 72.19240506336791,223.29465315873676 71.45189873425988,222.78878635246656 71.57721518987091,222.06082903825154 71.33797468361445,221.8140631395072 70.51772151904879,221.92510783826583 69.62911392410751,222.59137450752314 69.5721518988139,222.82580104787485 69.93670886079781,223.75116581363545 69.81139240512857,224.31872037783614 69.45822784816846,224.50379210864776 67.95443037978839,223.59076961511164 66.27974683546927,223.08490369003266 65.12911392410751,223.60310778958956 64.83291139244102,223.4920641869685 63.88734177214792,222.529683258952 61.2215189873823,222.09784389217384 59.96835443045711,221.22182352095842 59.34177215193631,219.8152461569989 58.57848101272248,219.44509228454262 57.45063291146653,219.60549239489774 56.584810126631055,219.3957383739762 55.85569620260503,219.55613853089744 55.62784810131416,220.11136867458117 55.34303797472967,220.2841065715911 54.63670886080945,220.0373380935489 54.443037974706385,220.0866918177926 54.39746835449478,220.3581370451284 53.953164556995034,220.53087469139427 52.8822784810327,220.13604552773177 52.517721518990584,220.21007606577768 51.355696202546824,221.3945602895401 50.432911392417736,221.75237160884717 50.41012658231193,222.24590322718723 49.24810126586817,223.6894749859348 48.359493670926895,224.1953391120187 48.0518987342366,224.59015884740802 47.482278481067624,223.99792890046956 46.60506329120835,223.6894749859348 46.422784810187295,223.03555083625542 45.8189873417723,222.57903625958716 45.750632911454886,222.1965501298546 44.941772151971236,222.29525631024444 42.731645569670945,221.9374461336556 41.9341772152693,222.2212266803108 41.45569620258175,222.17187357580406 41.12531645572744,222.9121686391445 41.12531645572744,223.3193295497622 38.89240506332135,224.2570297561033 38.07215189875569,225.52785204414977 37.49113924050471,225.94734469454852 36.4886075949762,225.94734469454852 35.65696202532854,226.32982238546538 34.8822784810327,226.1570906315901 33.526582278485876,226.21878056383866 32.02278481016401,226.7246371638612 31.17974683549255,226.67528536671307 29.664556962030474,227.13178894382145 28.297468354459852,228.00777886179276 27.24936708866153,228.25453577043663 26.622784810198937,228.08180597200408 26.383544303826056,228.21752225697855 25.93924050638452,227.92141385917785 25.927848101302516,228.14349520586256 25.734177215199452,227.7980352078739 25.768354430387262,228.09414382056275 25.392405063379556,228.34090060382732 24.36708860762883,228.5753192162665 24.241772151901387,228.77272411287413 24.61772151902551,229.38961293763714 24.75443037977675,230.092863467813 25.44936708867317,231.0798768499517 25.369620253157336,231.25260360277025 24.572151898755692,231.0058510450035 23.59240506333299,230.01883723319042 22.908860759518575,229.95714867970673 22.305063291219994,230.2902666025766 21.65569620259339,230.3766304019664 21.211392405093648,229.98182410377194 20.379746835445985,229.63636784085247 18.648101265833247,229.46363944621407 18.67088607599726,229.87078466726234 19.707594936771784,229.87078466726234 20.664556962030474,230.43831880326616 21.427848101302516,231.35130452564044 22.61265822785208,231.1662402482907 22.9886075949762,231.2649412212777 24.72025316453073,232.69609889146523 25.03924050636124,233.36232335345994 26.030379746865947,234.5837280882406 26.030379746865947,234.805800733855 25.48354430386098,235.0772224625107 24.970886075985618,234.86748752840504 24.834177215234376,234.67008970709867 24.902531645609997,233.75712180300616 24.549367088649888,233.39933574706083 23.512658227875363,232.9798614814208 23.091139240539633,232.38766075663443 22.658227848121896,232.2149351567641 21.3822784810327,232.68376137682935 20.869620253215544,232.69609889146523 20.072151898755692,232.53571113117505 19.251898734248243,232.01753425634524 18.579746835457627,232.67142386126216 18.055696202558465,232.5850612273789 17.463291139283683,232.9675239873468 15.800000000046566,232.88116150382848 15.184810126607772,232.60973627011117 15.310126582277007,232.80713648306846 17.281012658262625,233.91750841129397 18.101265822770074,234.12724451700342 18.169620253203902,234.287630776249 15.617721519025508,233.99153294875578 14.922784810129087,234.12724451700342 14.159493670915253,233.99153294875578 14.0,234.065557453956 14.102531645621639,234.2629559769848 14.740506329166237,234.49736642546486 15.811392405128572,234.55905333190458 18.272151898767333,237.18689476650616 19.536708860774525,237.47064986333135 21.291139240551274,238.2232154361991 21.496202531678136,238.70436217213864 21.3822784810327,239.51860739380936 20.972151898778975,240.60426162600925" stroke="#4DD2FF" stroke-linecap="round" stroke-linejoin="round" stroke-width="0.5"><title>2024-10-27 13.8km</title><desc>1729977789000</desc></polyline></svg>