<?xml version="1.0" encoding="utf-8" ?>
<svg baseProfile="full" height="300mm" version="1.1" viewBox="0,0,200,300" width="200mm" xmlns="http://www.w3.org/2000/svg" xmlns:ev="http://www.w3.org/2001/xml-events" xmlns:xlink="http://www.w3.org/1999/xlink"><defs /><rect fill="#222222" height="300" width="200" x="0" y="0" /><text fill="#FFFFFF" style="font-size:12px; font-family:Arial; font-weight:bold;" x="10" y="20">Over 10km Runs</text><text fill="#FFFFFF" style="font-size:4px; font-family:Arial" x="10" y="280">ATHLETE</text><text fill="#FFFFFF" style="font-size:9px; font-family:Arial" x="10" y="290">Zayn</text><text fill="#FFFFFF" style="font-size:4px; font-family:Arial" x="65" y="280">SPECIAL TRACKS</text><rect fill="yellow" height="2.6" width="2.6" x="65" y="283" /><text fill="#FFFFFF" style="font-size:3px; font-family:Arial" x="70" y="285.5">Over 20.0 km</text><rect fill="red" height="2.6" width="2.6" x="65" y="287" /><text fill="#FFFFFF" style="font-size:3px; font-family:Arial" x="70" y="289.5">Over 40.0 km</text><text fill="#FFFFFF" style="font-size:4px; font-family:Arial" x="120" y="280">STATISTICS</text><text fill="#FFFFFF" style="font-size:3px; font-family:Arial" x="120" y="285">Number: 7</text><text fill="#FFFFFF" style="font-size:3px; font-family:Arial" x="120" y="290">Weekly: 1.8</text><text fill="#FFFFFF" style="font-size:3px; font-family:Arial" x="141" y="285">Total: 209.2 km</text><text fill="#FFFFFF" style="font-size:3px; font-family:Arial" x="141" y="290">Avg: 29.9 km</text><text fill="#FFFFFF" style="font-size:3px; font-family:Arial" x="167" y="285">Min: 13.8 km</text><text fill="#FFFFFF" style="font-size:3px; font-family:Arial" x="167" y="290">Max: 55.1 km</text><polyline fill="none" points="51.37590694334358,33.3852310107759 49.03804371453589,35.7883255045308 48.512871539918706,36.008455156872515 47.750524834846146,37.03572433600493 47.1575885086786,37.017380280114594 46.39524180360604,38.00795739682508 46.208890386798885,38.64999604965851 44.328435180999804,40.24591364452499 43.80326300638262,41.199790620201384 42.17692336894106,42.337100777222076 41.516222891164944,42.282069758250145 40.85552241350524,43.5294365833397 39.7712959885248,44.51998821228335 39.05977239710046,44.77679726101633 36.51861671358347,47.43658994186262 30.199609580507968,52.93952055378759 30.04714023944689,53.12294951402873 30.318196845648345,53.28803546457493 29.911611936287954,53.50814989786886 30.724781755066942,54.64540475446847 27.844805313739926,57.32343633437995 27.91256946523208,57.800343096329016 30.45372514880728,61.78064526678645 31.84289025585167,61.96406782179838 33.24899640074,63.578180576703744 34.28239971201401,64.00004925980465 31.944536483148113,66.1827499166393 32.30029827886028,68.78729246818693 32.249475165153854,72.54732425598195 32.50359073356958,73.20761675894028 34.53651528042974,74.95004704357416 35.38356717483839,76.10554683250666 34.99392330338014,76.47237106005196 33.960519992164336,76.41734745977737 33.079586021834984,76.69246534150443 33.11346809758106,78.94842070058803 31.72430299059488,79.40694575573434 31.08054355077911,79.0034437510185 30.640076565614436,79.1685128306126 29.89467089844402,81.14933339589334 27.234927949670237,85.2943337210163 25.727175577369053,87.0 27.13328172225738,85.45939870153961 30.064081277349032,80.85587947469321 30.640076565614436,79.13183082222531 31.182189778075553,78.98510273550346 31.656538839102723,79.44362772426393 32.96099875657819,78.8567155899218 33.19817328703357,78.2698020957323 33.09652705973713,76.71080652299861 34.06216621946078,76.36232384757022 35.061687454988714,76.47237106005196 35.45133132650517,76.08720560725487 35.061687454988714,75.3902380609361 32.53747280931566,73.11590956976579 32.23253412730992,72.52898277297209 32.249475165153854,68.32874818716664 31.961477521050256,66.20109185922774 34.3162817878183,63.83497029355203 33.24899640074,63.431443478679284 31.944536483148113,61.92738332142471 30.436784110963345,61.688933939440176 27.895628427388147,57.72697288374184 27.86174635158386,57.30509374868416 28.234449185139965,56.7548155595141 30.792545906617306,54.517005268426146 27.709277010522783,57.23172339258599 24.880123682902195,55.03060282187653 21.102272233343683,53.15963529009605 19.103229762229603,53.39809270511614 18.120649564662017,52.05905969458399 16.79924860916799,51.16025274223648 17.73100569320377,51.74722907265823 19.289581179094967,53.48980703575944 20.814274589181878,53.58152133312251 23.050491590693127,54.168492049517226 23.999189712572843,54.79214694451366 24.86318264500005,54.993917316853185 25.608588312228676,55.74596910639957 27.065517570765223,55.947738718634355 29.454203913279343,53.70992129361548 30.65701760345837,53.10460662395053 30.75866383081302,52.93952055378759 30.369019959354773,52.79277728989837 31.097484588623047,52.077402660404914 51.93496119376505,33.0 56.11939755268395,35.6048839813011 58.32173247839091,37.43929322979238 59.1349022971699,37.65942144604924 60.524067404156085,36.485402080070344 61.591352791234385,37.402605175127974 61.77770420809975,37.9529254364752 60.930652313516475,38.50324450114567 58.694435312005226,40.77788393975061 59.202666448720265,41.41991556556604 60.10054145689355,40.83291528579139 60.76124193466967,41.548321695270715 61.032298540871125,41.548321695270715 63.20075139083201,39.51215967832832 60.981475427164696,37.09075649578881 54.577763104694895,43.621154489635956 61.100062692479696,37.10910054635315 60.54100844200002,36.375337485282216 52.88365931564476,43.254282665089704 50.17309325316455,40.300945106195286 50.91849892033497,40.722852581733605 52.34154610312544,39.6589106417523 52.30766402737936,39.20031359849963 51.32508382975357,38.209741148893954 52.782013088290114,37.200820779427886 53.01918761874549,37.586045395204565 52.18907676206436,38.209741148893954 52.9006003534887,38.94349889125442" stroke="#4dd2ff" stroke-linecap="round" stroke-linejoin="round" stroke-width="0.5"><title>2025-04-06 15.4km</title><desc>1743942179000</desc></polyline><polyline fill="none" points="137.00130816668388,38.64128134302882 137.31414688844234,38.59757214743149 138.45449448702857,37.59771737655683 138.5402728462068,37.82719341474876 138.47467763035093,38.302534414186084 139.00448514297022,38.26428869754454 139.34255279388162,38.018422912871756 139.51410951223806,38.13862406335829 139.75630723228096,38.03481399013981 139.81685666230624,38.176869843766326 139.96823023734032,38.16047879739199 140.00859652401414,38.35170744991774 139.99345916652237,39.12208082173311 140.3163894599129,39.564632176814484 140.76546439918457,39.619267966394546 141.20949355259654,40.26396729292901 141.3760044851515,39.89790987728338 141.5626985609997,39.69575800527673 142.51130629787804,39.176716932081035 143.41954774808255,38.53747196209588 144.38329284245265,38.06759613395843 144.71631470750435,38.051205063842644 144.9332834983943,37.93646747308958 145.26125957764452,37.94193117185205 145.34703793682274,38.06759613395843 145.4227247243398,38.9964176176436 145.48831994019565,41.220079023863946 146.07867688281112,41.2747136136677 147.6731452064996,41.23100594498828 147.84470192488516,41.307494348540786 147.5772752756311,43.1431927546073 147.52177163146553,46.64510058916494 147.42085591476643,46.765287987393094 146.94150626051123,46.798066335497424 146.11399738365435,47.01658829211374 146.27041674451903,48.56261305091175 146.14931788449758,50.69312528640876 145.39245000932715,53.774067340906186 145.09979443094926,55.669548975434736 144.8374135675549,56.494369058047596 147.24929919641,58.32423573793494 147.2442534105794,59.23642136611306 146.98187254718505,60.38892756759742 146.2855541020399,62.09853706449212 145.87684544944204,63.322003805114946 145.6094188002171,63.81356968150067 144.18146140908357,67.92075063026277 143.75761539899395,68.82735889025207 142.80396187628503,70.1817895174172 142.2943375070172,71.12659973263362 140.124649598205,75.85593458840594 139.91272659314563,76.6040817001558 139.84208559145918,78.02390257525258 139.47878901136573,78.3570105341787 138.918706783792,78.63550950453646 137.99532797606662,79.52560717824235 136.87516352083185,80.0935167829739 136.48663801158546,80.10443807972479 136.1788450756867,80.77609479851526 135.28069519714336,81.8682068083508 134.57933096616762,83.51726605738804 133.0,83.0749722377077 133.93347037935746,83.35345383316599 134.47336946363794,83.59917203647638 134.36236217527767,83.7247610321283 134.47841524946853,83.82304792675131 134.24126331528532,84.11244748591707 134.4430947486544,83.86673095003789 134.5440104653535,83.6319344032745 134.50364417865057,83.51726605738804 134.62978882453172,83.4298995819554 134.84171182956197,82.88385682398803 135.1646421229525,82.98214481136529 135.18987105213455,82.76918734396895 135.1646421229525,82.95484260546073 135.30087834049482,83.06405136993271 135.603625490563,82.93846127719007 135.8458232106059,82.22313981582556 136.92057559333625,81.39314002220635 137.06690338253975,81.16925693896337 138.0054195477569,80.51944618747802 138.30816669782507,80.7870159966842 140.07419173987,83.23878506509209 141.28518034011358,82.40333593595278 142.06727714446606,82.67089907985792 142.37002429450513,82.38149400485418 142.29938329281867,82.15215334758977 142.03700242945342,81.99379867835523 141.89067464024993,81.78629895468475 141.11866940758773,81.34945557021274 141.05307419173187,81.21294149506139 141.15903569426155,80.77609479851526 141.64343113437644,80.56313111894997 141.78975892357994,80.30102115152113 141.83517099605524,79.5747533703252 141.62829377685557,79.37816841035965 141.93104092692374,78.72834226668783 141.8553541394067,78.13311846119905 142.2842459353269,77.93106894815719 142.54158101289067,77.62526325265935 143.0158848813153,77.33037801763567 143.33881517473492,77.34676056086755 143.8736684731848,77.70717561381025 144.22182769575738,77.78362707082124 144.52457484582555,77.71809725525964 144.746589422517,77.57611579335935 145.11493178844103,77.58703745374078 145.19566436178866,77.52150746777625 145.29153429262806,77.253926102283 145.18557279015658,77.00818727927981 145.0291534292628,76.89350888851914 145.04933657258516,76.66415158509335 144.95346664174576,76.52216814377607 144.76677256586845,74.9985598151543 144.83236778172432,74.80196295511269 145.8970285927644,74.81288501630479 146.45711082039634,75.26068816646875 146.89104840217624,75.24430517114524 147.22911605305853,74.85657324529893 147.8648850682075,75.13508511155669 147.84470192488516,75.59926927486958 148.9295458792767,75.88870031038823 148.9295458792767,76.24912231478811 149.1263315268152,76.24912231478811 149.217155671824,76.38018443579494 148.96991216595052,76.9699611683609 148.80340123339556,77.1829349687905 148.36946365164476,77.48328161640529 148.24331900579273,77.79454870121845 148.303868435818,77.99113777869934 150.45337320127874,78.49352976548107 150.96299757054658,78.65189176496642 151.08409643056802,78.76656748855748 151.5836292281747,78.79387120663887 151.63913287236937,78.6846562751598 151.89646794990404,78.58636270196439 151.79555223323405,78.08943212575105 151.98224630908226,77.60888076977426 152.04279573910753,77.18839582758665 152.17903195662075,77.090100309033 152.6432442534133,77.1993175439784 152.7340683984221,76.4948636052577 153.53130256023724,76.22727860586747 153.77854606613982,76.21635674904246 154.1216595028818,76.58769899597974 154.93907680807752,77.07371771017642 155.87254718743498,76.08529434400407 155.8170435432694,75.90508316604974 155.25696131563745,75.28253215470613 155.428518034023,75.44090088069788 155.49411324984976,75.09685805341724 155.8675014016044,74.61082662871922 156.03401233415934,74.26131895332946 156.33171369836782,74.20124715885322 156.71014763595304,74.43061193541507 157.1087647168606,74.5452940626783 157.57297701362404,74.51798881007562 158.13810502708657,74.359618150389 159.11194169311784,73.67698219866725 159.15230797982076,73.56775987422589 160.32293029339053,72.82504388194502 160.1866940758773,72.2079287187662 160.4288917959202,71.53073459889129 160.46421229676344,71.01737372209027 160.08073257334763,70.01794839373179 160.0050457858306,69.38988746162795 160.15641936086467,68.67989925148868 160.80732573350542,67.63675062416587 161.02429452439537,66.81205224698351 160.85778359184042,66.11842478668405 160.49448701174697,65.15716675257863 160.6256774434587,64.33790308970492 160.57017379929312,64.00473332490219 160.71145580263692,63.737104088650085 161.13025602689595,63.59509635367431 161.256400672748,63.464012053620536 161.4430947486253,62.753968140663346 161.29172117362032,62.14223264656903 161.08484395439154,61.83090107260068 160.7265931601578,61.50318223955401 160.6206316576281,61.14268988036201 160.69631844514515,60.70572713749425 161.105027097743,60.21414102897688 161.3018127452815,59.760786558566906 161.256400672748,59.39482373525243 160.93347037938656,58.79944759023783 160.97888245186186,58.60280856589088 161.42291160530294,58.176755589323875 161.52382732200203,57.903643442150496 161.47336946366704,57.493973368633306 161.1605307419086,56.7401746241012 161.19080545692123,56.292261659618816 161.41282003361266,55.969981175010616 161.8719865445746,55.838883634984086 162.39170248550363,56.01368030442245 162.62885441974504,56.01914269381814 163.00728835733025,55.63131206424441 163.1788450756867,55.6039999729619 163.9912165950227,55.74602273970231 165.14165576527012,56.34688533418375 165.36367034199066,56.14477754083782 165.64118856287678,56.12292801723379 165.89852364044054,56.42882077190734 167.68977761166752,55.99729313385615 169.31956643617013,55.98636835149955 169.58699308539508,56.07376656604174 169.90487759298412,56.33049823596957 170.1571668846882,56.396046607485914 170.40945617642137,56.33596060243144 170.90898897402803,55.980905959739175 173.11399738368345,55.95359399496374 173.5731638945872,56.05191702189768 174.09287983554532,56.472519635666686 174.42085591476643,56.62000311403972 175.12222014574218,56.70193825528986 175.57634087087354,56.570841986591404 176.6107269669301,56.02460508281365 177.02448140532942,55.92628202030755 179.02261259578518,55.75694755683071 179.47673332088743,55.94266920629161 179.8349841151212,55.97544356756407 180.14277705101995,55.80064680959185 180.4606615585799,55.390965321770636 182.01980938142515,54.839257404259115 183.7706970659783,55.4018901902964 185.894972902257,54.183757606107974 185.87983554473612,53.91063100977044 185.15828817040892,52.48489412823983 185.87478975893464,53.94340625352197 185.91515604560846,54.21107021136413 183.84638385346625,55.390965321770636 183.70510185012245,55.44012721772742 183.41749205754604,55.36365314350405 183.75555970845744,55.44012721772742 185.9353391889308,54.21653273123229 185.95552233228227,54.003494163443975 185.17847131376038,52.381103801424615 186.17249112314312,51.93316496384796 187.0,51.79659771609295 186.29863576899515,51.89492615940253 185.18351709959097,52.375641148704744 185.9353391889308,53.98710655639297 185.9353391889308,54.19468264939496 185.86974397307495,54.29847048179363 183.79592599513126,55.42920235473139 183.47299570174073,55.390965321770636 182.02485516725574,54.850182352653064 180.47075313024106,55.42373992262583 180.10745655017672,55.877120441014995 179.81984675762942,56.008217914626584 179.4969164642098,55.991830742881575 179.012521024124,55.77333477958018 176.95384040367207,55.95905638871773 176.66623061109567,56.02460508281365 175.4451504391909,56.60907842180313 174.95066342738573,56.70740059487434 174.36030648477026,56.59815372801677 173.92132311718888,56.34142296850041 173.6185759671207,56.06284179475915 173.20986731452285,55.93720681135164 170.95440104653244,55.94266920629161 170.75256961316336,55.99729313385615 170.3539525322558,56.33049823596957 170.06634273967938,56.37419715664146 169.55671837038244,56.05737940852123 169.1883760044875,55.969981175010616 167.61409082412138,55.99729313385615 166.94300130815827,56.11200325307436 165.8732947112585,56.42882077190734 165.79256213791086,56.24310031870846 165.42421977201593,56.14477754083782 165.32330405531684,56.16116467937536 165.14165576527012,56.401508969211136 163.96598766586976,55.75694755683071 163.6581947299419,55.685936217159906 163.0779293590167,55.63677448131784 162.7449074939359,55.964518782056984 162.52289291718625,56.05191702189768 162.28574098300305,56.00275552444509 162.0233601196087,55.88258284029871 161.75593347038375,55.39642775623361 162.0738179779437,49.332882111244544 162.30087834049482,48.6609457093291 161.8770323304052,48.69372323364951 161.71052139785024,48.97233161533222 161.46832367780735,51.63817939904402 160.68118108762428,51.599940445092216 158.96561390394345,51.72011994938657 158.10278452624334,51.66549292570562 157.9816856662219,51.741970747796586 156.9170248551527,51.68188103697321 156.97757428517798,51.34319268094259 156.85142963932594,46.601396033220226 156.6748271351098,46.62324831435399 156.68996449263068,46.027771388951805 156.291347411694,45.94036153629713 156.291347411694,45.781930920114974 156.37207998504164,45.716373326395114 156.291347411694,45.83656220466219 155.9532797607826,45.913045936555136 155.9129134741088,45.847488456827705 156.37712577087223,45.628963112816564 156.3973089142237,45.72729959598655 156.25602691085078,45.89119344964274 155.98355447579524,45.83109907799371 156.70005606429186,44.951530522317626 156.71519342178362,44.02278240279702 156.57391141843982,43.929906961704546 156.70005606429186,43.175972677105165 156.60923191925394,42.53129825193173 156.5789572042704,39.71761228784453 156.47299570174073,39.23681660772854 156.50327041675337,38.14955143116822 156.4376752008684,38.06759613395843 156.240889553359,38.051205063842644 156.46794991588104,38.078523512071115 156.5284993459063,38.007495526042476 156.5335451317369,37.55947130226559 156.2005232666852,37.61957226743107 155.17118295645923,37.52668893741793 151.79555223323405,37.57039875404007 151.35152307979297,37.24257451149606 150.93776864139363,36.68527002659539 150.65520463464782,36.61424072752561 150.75107456548722,35.925799436852685 150.62997570546577,36.723516544516315 149.87310783032444,37.406486811014474 149.63595589608303,37.521225208569376 146.58325546627748,37.43926922812534 145.74060923189973,37.302675729384646 144.58007849002024,37.482979095460905 143.52046346478164,37.920076374437485 141.68379742102115,39.083835520927096 140.49803774995962,39.63565869554441 140.2659316015779,39.55916859568242 139.95309287981945,38.98002674950112 139.99345916652237,38.43912610091502 139.9278639506665,38.11130563689949 139.66548308727215,37.72338291259075 139.17099607549608,37.368240639676515 138.93384414125467,37.05134304483363 138.80769949540263,37.089589376984804 138.65632592036854,37.018560458978754 138.1467015511007,36.504964752079104 137.93477854607045,36.70166139380308 138.02055690524867,36.854647315776674 137.12240702673444,35.88755251408293 135.66417492055916,37.26989325283648 135.5935339189018,37.49937028915883 135.68435806391062,37.65781831122149 135.27564941131277,38.171406162036874 135.49261820220272,38.477371728848084 135.37656512801186,38.837972409543 135.42702298634686,39.04559020072338" stroke="red" stroke-linecap="round" stroke-linejoin="round" stroke-width="0.5"><title>2025-04-06 55.1km</title><desc>1743890633000</desc></polyline><polyline fill="none" points="44.1242752768303,146.1165940349092 44.226767207175726,146.21869688321385 44.259564624895575,145.992294685464 44.01358399208402,145.82360230763516 44.079178827480064,145.72149880055076 41.8653531321761,143.9102430715393 43.050159846869064,142.74266501931925 42.36141407499963,141.98794492321758 42.04573892954795,141.79704365969155 41.816157005610876,141.75708750592457 41.80795765116636,141.44631653080432 42.27942053072911,140.96239858529952 42.46390600534505,140.95351932118865 42.29991891680402,140.696020101881 41.32419573997322,139.68821101561844 41.15200929700222,139.4129474986912 43.00506339753338,137.68142279141102 43.087056941803894,137.59706520783948 43.041960492453654,137.47718844164046 43.11985435950919,137.3795109029379 42.955867270968156,137.1086769118483 42.193327309243614,136.33612746473955 41.80385797396593,135.82552908491925 42.45160697370011,135.08848390792627 43.1936485493643,134.50239345290902 44.18987011227,133.53444389051947 44.70232976395346,133.29911438857016 45.965030345731066,132.93057768882136 46.36679871263914,132.6641642337927 46.51438709234935,132.42883138318575 46.98175029469712,132.03364776675153 47.05554448453768,132.08693109992964 47.21953157309326,132.02032692619468 47.76478864249657,132.10025192596368 49.46615468610253,132.13577411456208 49.69983628728369,132.251221085 49.60554371136823,132.02476720669802 51.13472331203229,130.5949802210598 50.84774590708548,129.85787200663617 50.81904816659517,129.36942190903574 51.5405913561699,126.3542662728687 51.88086456489691,125.4350360764256 52.983677735348465,123.62762044422925 53.23785772258998,122.76164069513106 53.303452558015124,118.84903558924998 53.52893480475177,118.76465201472092 53.61912770345225,118.46264668747244 53.58633028574695,118.3427323933538 53.66012447557296,117.82754237698464 53.58223060853197,118.61364953776138 53.52893480475177,118.76021077072801 53.52073545032181,118.5736782313652 53.684722538877395,108.96204005313484 53.7790151147783,108.30018486989866 53.70112124773732,108.19357665230564 53.79541382363823,107.64276456073276 53.79131414642325,107.02531606299817 53.80361317806819,106.97645296542396 53.865108336278354,107.04308445241986 53.7380183426576,106.66106293958364 53.79541382363823,106.25238611476743 53.787214469208266,104.98191676168426 53.7257193109981,104.87086049073332 53.541233836396714,104.78201532839375 52.23753648248385,104.35999904005439 51.98335649524233,104.21340322503602 51.79067166619643,103.93353750886308 51.520092970109545,102.39203189656473 51.54879071059986,102.95177619187598 51.26591298285348,103.01396968534027 51.17981976138253,102.88958263499444 51.192118793027475,102.75186810475134 50.925639774126466,102.5741714771757 50.02781046436576,101.40580325646079 49.57274629366293,100.68611283068822 49.544048553172615,100.15300333491905 49.732633705003536,97.66509738290915 50.65506107803958,93.0533174161319 50.532070761633804,93.0 47.81808444624767,93.12885034242936 47.11703964273329,93.35989165342471 45.88713647867553,93.90638972914894 45.11639716250647,94.01746597446254 44.2964617198013,93.91083278284714 41.959645708077005,93.08886233428711 41.065916075516725,93.11552100929839 40.360771594787366,93.31546070011609 39.74991968997347,93.69312277054269 39.64332808241306,93.68867970097563 39.47114163944207,93.85307305946844 38.91358553839382,94.1907445128636 37.88456655778282,94.65726120567706 36.634165007664706,94.9193975897033 34.96149670451996,95.1326602567242 33.83818514800805,95.38146575837891 32.915757774957456,95.51031106537266 32.89935906609753,95.42145226210778 27.8485567389871,102.07661816541076 28.254424783124705,103.1383564820062 28.328218972979812,103.81803699768352 28.385614453960443,106.51891478928883 28.291321878044982,108.21578671300449 28.385614453960443,109.21523107719986 28.55370121973101,109.5750270411445 28.46760799823096,109.91261144876626 28.525003479226143,110.95200434637081 28.119135435088538,112.35560085218094 28.13553414393391,112.97743708838243 27.975646732607856,113.80802275154201 27.491884821414715,115.37144746373451 26.827737112806062,116.6239349707248 26.134891663721646,117.3256720615027 26.184087790286867,117.29458261427135 26.331676169967977,117.47223638529613 26.52846067621431,118.17396372869916 26.7334445368906,118.5870020030743 27.27870160630846,120.4656247183193 30.80852368718479,124.28486867729953 31.218491408551927,124.64013504929608 32.15731749043334,125.7370069411736 31.0094078706461,126.79833387909457 31.04220528836595,126.9271128814471 30.972510775725823,127.01148518415721 32.16551684487786,128.9031704483168 32.3705007055396,129.12075490581265 33.64550031896215,131.02569596816102 33.74799224929302,131.29655689446008 33.768490635367925,131.6207003604395 34.342445445261546,132.1313338421205 34.54332962873741,132.41995088053955 35.09678605257068,132.94833854455646 35.842927305435296,133.79197325129644 36.158602450886974,134.3159089486544 36.732557260780595,133.80085355474512 36.412782438113936,134.08946271487366 36.29389179892314,134.26706767502765 36.30619083055353,134.37363040358832 36.59316823552945,134.53347414834207 37.45820012758486,135.2882861886792 38.573312329666805,136.7534829752367 40.28697740494681,138.6226679409774 40.504260297253495,138.77362100458413 40.6969451262994,139.08440555125344 41.76286120181612,140.15881996710232 43.52162272644637,142.12113149866855 43.189548872134765,142.48517332640404 43.47652627709613,142.74266501931925 43.29614047969517,142.99127666064305 45.51406585224322,144.75816602678242 44.3825549412868,145.92570564446578 44.33335881473613,146.04112660283135 44.407153004576685,146.22757538371297 44.06278011863469,146.65374189406066 44.18987011227,146.7691614802461 44.20626882110082,147.0" stroke="#ff8f00" stroke-linecap="round" stroke-linejoin="round" stroke-width="0.5"><title>2025-04-05 38.6km</title><desc>1743839508000</desc></polyline><polyline fill="none" points="180.66294586547883,128.59844088130922 179.3465868475323,129.88336370730394 179.05478312433115,130.0518769121918 178.91860805352917,130.29060345069593 178.4452375692199,130.59252146580548 177.5244347093976,131.50529113836092 175.57907655477175,133.1974029388657 175.16406681513763,133.61164987297525 175.3002418859396,133.68186104222696 174.87874761913554,133.8924942447411 173.82825421565212,134.88246416384936 175.2029739782447,137.00279124140798 175.76712784307892,137.08002082228631 176.26643643609714,137.67679278139258 176.6749616485613,137.85231324656343 175.78009689741884,138.72289005583298 175.9227564954199,139.8813067503579 175.8708802779729,141.0818330809998 175.98111724009505,141.32755301169527 177.11590949693345,142.4508361922999 176.92137368145632,142.6403889456269 176.48042583308415,142.62634801364766 176.18213758271304,142.8018595172689 176.221044745791,143.55304516285833 175.65040635378682,143.75663653165975 175.4882931742468,143.6232491314222 175.2678192500607,143.70047343814076 175.0019536355685,144.36038773248583 173.91255306900712,146.07333579271653 173.30300751389586,146.7332339388813 173.28355393232778,147.0 173.35488373137196,146.69111291477748 173.9838828679931,146.00313359800202 175.0343762715056,144.33230636464577 175.24836566849262,143.72855498896388 175.48180864704773,143.616228736857 175.77361237024888,143.8127995926625 175.73470520714181,143.71451421456004 176.23401380018913,143.54602476320724 176.22752927299007,142.7386754125764 176.61660090391524,142.59826614358462 176.99918800764135,142.61932754690497 177.1418476056715,142.471897627649 175.94869460415794,141.27840907536302 175.8708802779729,141.01864785530051 175.90978744105087,139.71983131422166 175.78009689741884,138.7088485564309 176.6749616485613,137.84529243405996 176.253467381699,137.6416886502193 175.74118973434088,137.01683298796706 175.2029739782447,136.98874949282617 174.66475822211942,136.03390581595158 174.10708888448426,135.24053589939285 173.58832670992706,134.72098039925913 173.55590407398995,134.57353846613842 172.7777608121396,134.34184354656463 171.57163875631522,133.66079769678618 170.84537171191187,133.79419880719797 170.46926913535572,133.16229718510294 170.01535223261453,132.89549304072716 169.71706398224342,132.35486133774975 169.80784736279747,129.99570587645576 169.24369349796325,130.00272725770628 168.03757144210977,130.32571024497156 166.65636715234723,130.99975822831766 166.13760497779003,131.31571660619375 165.6901726022188,132.0529488143511 164.39326716581127,130.4731586420603 164.09497891544015,130.40294514763082 163.80965971943806,129.96762034638232 163.45949525161996,129.63761475809588 163.4335571428819,129.37782233393955 163.35574281669687,129.60952912420908 163.1028462566028,129.4410151498887 162.5322078645986,128.82312806948175 161.4946835154551,127.44691086212697 161.74109554840834,127.63649296514632 161.52062162422226,127.58734208517126 161.5465597329021,127.39775988596375 161.41038466212922,127.38371674532391 161.10561188452994,126.96242157976667 161.079673775821,127.0466807594712 160.90459154191194,126.83603267277795 160.89162248754292,126.91327035775612 161.3974156077311,126.07067410179297 161.24178695539013,125.53702601506666 160.61278781871079,124.87698352462758 160.58036518280278,124.40652496123948 160.65169498181785,124.31524169167096 160.49606632941868,124.49780814475525 164.19224682316417,120.24953803849348 164.09497891544015,120.08100777747313 162.59056860924466,118.83808804277214 160.9953749224369,117.63728602577612 162.61002219078364,115.24968220835581 162.57111502767657,115.15839030524512 161.53359067856218,114.37187188110693 161.15748810197692,113.91540736468596 160.23668524215464,113.31146638841165 159.73737664913642,112.72858954680123 158.66742966411402,111.98418751204736 156.97496806964045,113.92945245883311 156.73504056385718,114.09799342959013 156.70261792794918,114.25248906159686 156.32003082422307,114.7159744780729 154.63405375689035,116.55584923981223 154.38115719679627,116.72438563751348 152.86377783620264,118.5782666468076 152.6368193848175,118.66955532485008 151.91055234044325,118.12884420758928 151.11295549708302,117.27212690351735 151.035141170898,117.06847987168294 149.35564863076434,115.81849904981937 148.73961854845402,115.10221062975324 146.10690051256097,113.47298585588578 146.035570713575,113.27635342502617 145.92533375148196,113.35360192765074 145.79564320782083,113.07269798619382 144.86187129362952,112.48279705529421 144.63491284224438,112.23700393953914 144.57655209759832,111.87182444338396 144.4468615539663,111.8296882590148 144.02536728713312,111.2959616688313 143.63629565620795,111.15550681376772 142.86463692155667,110.62879929155315 142.2421223121055,109.87033542298741 141.50937074050307,109.21720899450156 141.288896816317,108.76072016359831 140.9387323484989,108.60621576377889 140.36160942929564,107.9881956972531 140.22543435849366,107.37017168303282 140.3356713205867,106.74512065317685 141.85305068118032,104.35022483306966 141.81414351807325,104.10441105652717 141.96328764327336,103.90073631131236 141.7752363549953,103.14924302371946 141.51585526770214,102.60844517608348 140.2513724672026,100.796399178711 139.82987820036942,99.93250483317388 139.47322920538136,98.45052176136232 139.2657243355352,96.25911180323601 139.01931230261107,96.26613563243154 138.67563236199203,94.63659358309087 138.4940656008839,94.42587493327301 138.29952978543588,94.41182700695208 137.78076761084958,94.71385697294318 137.35278881684644,94.78409636468132 137.1258303654904,95.04398167037289 136.93777907721233,95.0580295048494 135.95861547271488,93.0 136.8923873869353,95.02993383388821 137.41763408869156,96.65244545299356 137.81319024675759,97.24244292743242 138.56539539986989,98.8157519259039 140.19301172255655,101.76563730738417 141.5547624308092,103.92180613243545 141.5547624308092,104.21678314617748 141.34725756096304,104.65222376053862 139.91417705372442,106.76618985476671 139.85581630910747,107.11734253932809 139.8169091460295,106.97688161845144 139.9660532712005,106.71702837722114 139.92066158092348,107.44742490070348 140.04386759741465,108.05842544908228 140.66638220686582,108.78881184614147 146.7553532307502,114.29462419117772 147.94850623226375,116.2117531834374 150.5293480506807,120.74108295765473 151.09350191554404,121.28880149958422 151.43718185616308,121.80842904723977 151.46311996490113,122.11037350346305 152.62385033047758,123.37431682177703 153.1361279778357,123.71838742401451 154.18013685417827,124.82080948793737 154.96476464319858,127.20817731570423 155.3797743828327,128.14906494150637 155.54837208957179,128.3105596598325 155.866113921511,129.74995721223968 157.31216348308953,133.70292438308388 157.44833855389152,133.63271322908986 157.42240044518257,133.42910059483256 155.9309591932979,129.02675038362213 155.58727925264975,127.61542830535473 155.4964958720957,126.43580004599062 157.7336577498936,125.71256847336917 159.0240786591312,125.36850495575345 159.25103711048723,125.39659181934258 160.0745720626146,124.9823097555709 162.72025915287668,121.8926927111388 165.4243069877557,124.78570069848502 165.85228578178794,124.71548308136698 166.60449093490024,124.13969670065853 168.45906570891384,122.24379052141012 169.47713647651835,121.387109627889 169.54846627550432,121.2326253814681 172.18118431142648,118.7678661126265 172.40165823561256,118.82404366081755 173.8671613787592,120.47424459688773 174.5026450425794,121.00792058306251 175.00843816276756,121.71012134668126 175.99408629443496,122.52466785308934 177.90702181312372,124.6101565602221 179.0288450156222,125.57213453216536 180.967718643049,127.77692391334858 181.17522351283696,127.69266536885698 183.11409714029287,125.69150339518092 183.8468487118662,126.154934057231 184.04138452728512,126.52005968379672" stroke="#ff9c00" stroke-linecap="round" stroke-linejoin="round" stroke-width="0.5"><title>2025-04-04 35.8km</title><desc>1743763192000</desc></polyline><polyline fill="none" points="20.92797783901915,180.3646122366772 23.022160664666444,173.1568689912092 22.79778393311426,176.80123936507152 23.396121883764863,177.85405526007526 22.349030470941216,178.7448987038224 21.451523545663804,178.9068701628712 22.049861495383084,177.12518282292876 24.592797783669084,178.50194147136062 23.695290858391672,177.44912618712988 22.573407202027738,177.36814035481075 25.191135733854026,175.74842247809283 22.274238226935267,176.4772958132089 24.218836565036327,173.23785512865288 24.293628809042275,176.31532400200376 20.92797783901915,177.5301120133954 23.246537395752966,176.39630991063314 18.833795013371855,178.98785588343162 21.90027700830251,177.12518282292876 22.274238226935267,175.74842247809283 21.750692520756274,176.31532400200376 27.58448753412813,173.23785512865288 25.04155124630779,175.1005346699385 28.033240997232497,173.5617996196961 26.088642659131438,178.58292722149054 18.534626038745046,185.54767976293806 23.545706370845437,179.39278439880582 21.526315789669752,178.7448987038224 23.396121883764863,177.7730694572092 24.592797783669084,177.5301120133954 23.77008310239762,177.12518282292876 23.695290858391672,178.7448987038224 26.537396121770144,175.2625066570472 26.01385041512549,174.7765906249988 23.919667589943856,176.5582817099057 24.891966758761555,175.0195486675948 21.750692520756274,176.88222523831064 22.87257617712021,176.88222523831064 21.526315789669752,177.12518282292876 23.09695290820673,176.9632111057872 30.650969529058784,162.70960803510388 26.088642659131438,173.7237718300894 19.05817174492404,176.23433808767004 21.22714681411162,172.42799348995322 36.26038781134412,165.30118575546658 55.706371190957725,167.3258516668575 60.04432132979855,182.38925085082883 51.36842105304822,190.64973837678554 47.32963988929987,186.35753189201932 55.108033240772784,177.7730694572092 53.98614958440885,177.5301120133954 67.0,174.6146185672842 47.479224376846105,164.7342786428635 46.73130193911493,172.02306245046202 48.52631578966975,166.434999117977 52.265927977859974,176.72025348589523 52.78947368403897,176.80123936507152 52.34072022140026,177.36814035481075 50.24653739621863,178.98785588343162 58.249307479243726,177.5301120133954 54.21052631596103,178.50194147136062 52.78947368403897,177.5301120133954 53.61218836577609,177.04419696738478 53.91135734086856,177.5301120133954 53.91135734086856,177.85405526007526 53.46260387822986,176.9632111057872 55.93074792250991,177.44912618712988 55.18282548477873,177.44912618712988 54.21052631596103,177.9350410568877 52.78947368403897,175.58645056124078 55.33240997232497,174.3716604366782 52.565096952952445,176.9632111057872 52.9390581715852,177.61109783378197 53.91135734086856,177.20616867294302 54.28531855950132,178.2589841861045 54.65927977813408,179.55475576373283 57.80055401707068,177.44912618712988 54.95844875369221,177.20616867294302 54.509695291053504,178.9068701628712 53.91135734086856,178.33996995375492 54.434903047047555,178.50194147136062 52.9390581715852,178.7448987038224 55.4819944598712,176.63926760095637 53.91135734086856,178.2589841861045 46.73130193911493,199.23410188267007 57.05263157887384,182.55122178141028 59.74515235470608,188.3821596467169 58.922437672968954,184.73782704689074 55.25761772878468,177.04419696738478 55.0332409972325,177.36814035481075 56.52908587269485,178.9068701628712 57.12742382287979,179.71672710543498 54.28531855950132,179.06884159822948 55.4819944598712,178.58292722149054 54.509695291053504,177.69208364828955 52.11634349031374,175.18152066646144 54.434903047047555,178.7448987038224 56.90304709179327,179.14982730714837 55.93074792250991,179.39278439880582 51.74238227168098,177.9350410568877 55.706371190957725,180.20264098915504 54.509695291053504,177.7730694572092 52.63988919695839,178.50194147136062 53.98614958440885,178.66391296568327 53.01385041559115,175.18152066646144 50.994459833949804,168.70262239070144 48.90027700830251,179.6357414375525 49.57340720202774,177.5301120133954 48.90027700830251,178.42095571552636 46.58171745156869,183.44206148013473 51.66759002767503,174.29067438148195 52.78947368403897,175.5054645939963 56.15512465359643,179.6357414375525 56.304709141142666,181.90333791810554 53.61218836577609,179.79771276732208 54.88365650968626,166.27302585088182 54.434903047047555,184.5758564331336 53.46260387822986,195.6707891880651 53.68698060978204,180.44559785182355 52.565096952952445,184.49487111752387 52.71468144049868,190.082844125689 55.18282548477873,176.07236624124926 53.61218836577609,179.14982730714837 55.18282548477873,184.65684174303897 54.135734072420746,181.90333791810554 52.04155124677345,198.99114910530625 55.18282548477873,185.38570926670218 54.21052631596103,179.95968407363398 53.31301939068362,178.8258844363736 52.34072022140026,176.9632111057872 57.351800553966314,184.08994445146527 56.52908587269485,182.06530891923467 58.39889196725562,179.95968407363398 60.26869806088507,179.2308130103047 57.80055401707068,176.23433808767004 55.706371190957725,176.07236624124926 58.0249307481572,178.66391296568327 57.50138504151255,181.49841031251708 57.950138504151255,180.68855466146488 61.01662049861625,183.0371344325249 57.20221606642008,180.93151141837006 52.864265928044915,181.49841031251708 53.91135734086856,176.9632111057872 52.41551246540621,180.44559785182355 53.238227147143334,180.60756906407187 54.509695291053504,190.0018592090928 56.60387811623514,182.06530891923467 57.27700831042603,186.8434428878827 53.98614958440885,181.8223524086643 55.706371190957725,181.66038137237774 54.36011080350727,181.98432342155138 57.50138504151255,177.85405526007526 55.55678670387715,179.47377008426702 56.82825484778732,174.0477161804447 54.21052631596103,178.17799841269152 57.20221606642008,178.2589841861045 53.163434903137386,177.12518282292876 56.22991689760238,175.6674365226645 57.351800553966314,181.0124969924218 54.88365650968626,180.04066971800057 55.108033240772784,178.8258844363736 53.91135734086856,178.50194147136062 55.407202216330916,180.3646122366772 54.509695291053504,176.72025348589523 55.93074792250991,168.94558175408747 54.135734072420746,184.49487111752387 55.108033240772784,179.2308130103047 55.78116343496367,176.15335216745734 53.98614958440885,187.73427916446235 56.379501385148615,183.11811985372333 54.95844875369221,171.21319993113866 56.379501385148615,194.9419283735333 55.18282548477873,187.24836855614558 56.15512465359643,185.38570926670218 55.63157894741744,195.184882031288 55.63157894741744,178.9068701628712 54.88365650968626,179.95968407363398 58.0249307481572,178.98785588343162 47.62880886392668,176.63926760095637 58.39889196725562,179.8786984233884 54.21052631596103,178.2589841861045 59.14681440452114,171.2941862094449 50.77008310239762,173.80475792643847 40.74792243773118,170.40333682461642 35.96121883671731,170.72728213778464 29.4542936286889,176.5582817099057 26.836565096862614,179.6357414375525 24.966759002767503,181.1744681225391 26.68698060978204,180.8505258387886 28.108033240772784,177.7730694572092 31.249307479243726,175.1005346699385 34.465373961254954,171.78010375628946 37.68144044326618,167.56881132966373 40.29916897509247,166.83993218268733 42.84210526337847,170.40333682461642 56.90304709179327,167.8927574644913 61.31578947370872,175.74842247809283 62.437673130538315,181.49841031251708 55.407202216330916,177.44912618712988 56.678670360241085,177.12518282292876 56.45429362915456,176.9632111057872 56.45429362915456,177.61109783378197 62.21329639898613,177.61109783378197 57.351800553966314,177.36814035481075 55.706371190957725,176.4772958132089 55.706371190957725,176.80123936507152 54.734072022140026,177.36814035481075 58.47368421079591,178.7448987038224 57.20221606642008,177.44912618712988 53.53739612177014,178.66391296568327 56.379501385148615,178.2589841861045 52.63988919695839,186.0335911109578 53.46260387822986,183.19910526910098 55.85595567896962,178.01602684811223 56.00554016651586,176.88222523831064 54.509695291053504,177.04419696738478 53.38781163422391,177.5301120133954 59.74515235470608,181.49841031251708 51.5180055401288,190.16382903623162 55.63157894741744,179.47377008426702 56.304709141142666,178.58292722149054 56.90304709179327,178.58292722149054 58.324099723249674,178.09701263339957 58.249307479243726,177.9350410568877 56.678670360241085,178.01602684811223 56.60387811623514,179.31179870740743 52.9390581715852,185.30472400970757 53.68698060978204,177.28715451684548 53.01385041559115,179.31179870740743 55.85595567896962,177.12518282292876 54.65927977813408,180.76954025303712 56.080332410056144,174.4526464858791 51.5180055401288,174.4526464858791 53.163434903137386,160.11802430276293 54.36011080350727,178.7448987038224 54.434903047047555,179.2308130103047 56.753462604247034,177.85405526007526 57.351800553966314,176.5582817099057 53.38781163422391,180.12165535637178 54.0609418284148,178.09701263339957 46.65650969557464,191.4595868079341 56.82825484778732,175.99138030933682 56.90304709179327,177.85405526007526" stroke="#ffb900" stroke-linecap="round" stroke-linejoin="round" stroke-width="0.5"><title>2025-01-11 29.4km</title><desc>1736530614000</desc></polyline><polyline fill="none" points="186.58654116325488,184.9648089797738 186.54102275922196,184.92783814727954 186.36653554369695,185.09215277355906 186.2489463332604,185.12090778413403 186.06307951672352,184.94426963136357 186.0479067153792,184.98534832071527 185.9644563079637,184.92783814727954 185.76341669009707,184.92783814727954 185.69134588369343,184.80049398393749 185.4940994661447,184.70601264540528 185.48271986514737,184.64439429621052 185.54341107053915,184.59509956856346 185.48271986514737,184.41024395766 185.60789547626337,184.25414319397896 185.7520370890852,184.22949566564057 185.80893509414454,184.14733716032788 185.9682495083107,184.0939340679397 185.9948019106523,183.9953436111973 186.09342511942668,183.9255086004523 186.283085136296,183.94604831843753 186.5448159595544,183.72832692866723 186.76102837876533,183.81870194681323 186.8065467828128,183.69135528874176 187.0,183.6256278692781 186.86723798820458,183.49006482562982 186.85585838720726,183.30931359578244 186.4765383534832,183.3257455496132 186.29446473730786,182.94780940475903 186.2072211295308,182.97245749110516 185.91514470356924,182.86975706047815 185.78617589210626,182.89440518082847 185.5623770722159,182.63970741974117 185.45996066312364,182.60684310903162 185.1565046361502,182.63970741974117 184.95167181793659,182.57808682150426 184.24613655521534,182.06457922755726 184.2082045518473,181.77701294011058 184.26130935658875,181.67020223268264 184.0375105366693,181.2511736647648 184.00716493398068,180.9307379607926 183.76819331273146,180.4747301772004 183.77577971341088,180.28986111011181 183.63543130093603,180.0885585502656 183.27507726890326,179.8708223222784 183.2219724641909,179.57092010834822 183.0361056476686,179.18063402525877 183.02851924698916,178.9300278580231 182.73644282104215,178.27269493264976 182.49747119979293,178.07960193475446 182.44815959541302,178.1247939720488 182.25091317786428,178.11246887454763 182.05745996067708,177.93170046941304 181.77296993539494,177.57427033202111 181.7502107333712,177.4715601047683 181.5908963191905,177.33598231929136 181.45054790671566,176.92924701344964 181.10915987637418,176.65808851833935 180.99157066592306,176.60056988260112 180.54397302614234,176.7772340777774 180.30120820456068,176.69917322235415 179.83464456308866,176.17739526461446 179.29980331554543,175.7418918670628 179.09117729701393,175.66793812691685 178.90910368082405,175.44607632636325 178.87496487778844,175.22421365562332 178.6587524585775,174.95715558295342 178.35908963192196,174.9735899622974 178.23012082045898,174.87909221586597 177.94563079517684,175.11739057785962 177.67631357125356,175.14204207525472 177.50182635572855,175.28173369084834 177.46010115201352,175.45840200477687 177.53217195843172,175.5898757407631 177.51699915707286,175.68848084221463 177.25147513348202,175.82406257605908 177.08836751896888,176.041814377626 176.83042989605747,176.02538030863798 176.76973869065114,175.72134917116637 176.5724922731315,175.68026375698537 176.47766226468957,175.71313209072468 176.39041865692707,175.84460523465168 176.19696543973987,175.84460523465168 176.13248103398655,176.1322016717313 175.8328182073601,176.41568815732535 175.35108176455833,176.44855606375495 175.29797695984598,176.51840030152016 175.31314976117574,176.44855606375495 175.0779713402735,176.75258329296776 174.95279572914296,177.16342830423673 174.42174768193217,177.43047596165707 174.3800224782317,177.70573915083514 174.4141612812673,178.1247939720488 174.35347007587552,178.1782026968649 173.9172520370921,178.22339465540426 173.22688957572973,177.98510937649917 173.07895476259,178.00565125040885 172.9613655521389,177.92348371000844 172.81722393931705,177.91937532984957 172.6427367238066,177.7673650544857 172.38859230122762,177.7303895203513 172.15341388031084,177.6153543707187 171.93720146108535,177.3852833697747 171.66409103682963,177.4510180369398 171.55788142737583,177.52496944621453 171.5351222253521,177.78790700745958 171.34925540882978,178.18231105821906 171.3758078112005,178.3466452679677 171.45925821861601,178.45346224836248 171.37960101153294,178.6753122556329 171.40236021355668,178.89716139310258 171.5123630233429,179.0738184175534 171.5199494240078,179.21350032551345 171.13683618995128,179.26279974012505 171.04200618150935,179.06149352676584 170.7461365552299,178.99576073056596 170.48061253160995,178.7287204608183 170.13922450128302,178.67942058089466 169.88887327902194,178.7410454240853 169.64231525710784,178.59314568769332 169.60438325372525,178.64655397042588 169.64990165777272,178.85607828512002 169.5285192469746,178.9300278580231 169.6195560550841,179.0409520361609 169.56645125037176,179.1436594146362 169.57783085136907,179.50929616891517 169.2174768193363,179.73114203680234 168.82677718460036,179.5585953258269 168.6219443664013,179.38193981476797 168.50814835628262,179.4805383075509 168.35262714246346,179.43534735301728 167.88606350099144,179.56270358696565 167.40053385782812,179.53394575274797 167.3057038494153,179.43945562310546 167.02880022478348,179.35318188868405 166.71775779713062,179.01219393678184 166.69499859510688,178.89716139310258 166.56223658331146,178.83553671994378 166.45223377355433,178.88483646384338 166.20188255129324,178.82321177726408 165.78842371453356,178.83964503357493 165.45841528520396,178.9218112435774 164.73391402080597,178.85607828512002 164.69977521777037,178.9218112435774 164.46080359652115,178.96289430384059 164.23700477663078,179.14776770589015 163.69837032875512,179.19295889008572 163.42525990448485,179.11900966079338 163.05352627142565,179.17652573638043 162.8221410508704,178.97521921610314 162.22281539758842,179.25458317400626 161.9117729699501,179.18063402525877 161.7600449564634,179.2258251831954 161.60831694297667,179.37372326596233 161.65762854734203,179.5134044336337 161.60831694297667,179.6654100184751 161.33520651869185,179.77633275512926 161.08485529643076,179.7640080173478 160.7927788704692,180.01461049130376 160.41345883674512,179.80509046618317 160.04172520371503,179.6941677858922 159.5068839561718,179.7064925388804 159.2944647372933,179.59556966533637 158.7861758921208,179.56270358696565 158.7141050857026,179.65308525653745 158.14133183479134,179.64486874708746 157.87580781118595,180.0105022629723 157.69373419501062,180.0844503272965 157.51166057882074,179.9899611168512 157.19682495085,180.05569275820744 157.01475133464555,180.21180510047634 156.9616465299332,180.38845802104697 156.51784209048492,180.56921857829002 156.45335768474615,180.56511039020916 156.28266366956814,180.34737599570144 155.82747962912254,180.55278582420942 155.68333801631525,180.5363530653667 155.52781680248154,180.4131072219352 155.39505479068612,180.5610022018518 155.36091598763596,180.74997855820402 155.2205675751611,180.47883837183326 154.95125035123783,180.3391595870562 154.63641472323798,180.41721542104278 154.27226749087276,180.32683497184553 154.04088227030297,180.40489082283239 154.0181230682938,180.53224487491025 153.91949985951942,180.647274094983 153.5743186288455,180.56511039020916 153.56673222816607,180.63905772986982 153.47569542007113,180.68835590263188 153.29741500422824,180.68835590263188 153.03189098062285,180.5733267660653 152.89533576848044,180.62673317997542 152.7701601573499,180.83625016326914 152.61463894353074,180.8896563290764 152.55015453779197,180.9964685095074 152.2732509131747,181.16490269216592 152.2087665074505,181.33744450587983 151.7839280696935,181.86739107359972 151.54116324811184,181.94955288790152 151.4349536386726,182.07279538573857 151.37426243326627,181.92079626646228 150.94942399550928,181.72771571558042 150.88114638943807,181.5058776738224 150.71045237426006,181.38674207032818 150.64976116886828,181.24706552620046 150.42975554931036,181.3086875734407 149.69008148356806,181.18133526851307 149.24248384378734,181.3004713043556 149.13627423433354,181.6414454693222 148.73798819893273,181.78112104022875 148.35487496487622,182.00706608694964 148.1121101433091,182.38090045638455 147.95279572915751,182.52057420262645 147.84658611970372,182.54522247501882 147.73658330991748,182.51646615619393 147.80865411633567,182.49181787128327 147.75554931160877,182.47538567538504 147.78210171396495,182.53700638541704 147.8314133183594,182.49181787128327 147.8010677156708,182.54933051937405 147.52795729138597,182.54522247501882 147.34967687552853,182.64792349443087 147.05380724923452,182.59862702836836 146.6213824107981,182.61916722778187 146.08654116324033,182.79581263505315 145.82101713964948,182.75884038611912 145.22548468671448,182.9683494774581 144.8461646529904,183.19839778265668 144.47822422029276,183.29288163717501 144.03441978084447,183.19428978540236 143.8485529643076,183.3339615247387 143.5716493397049,183.3873653340088 143.52233773532498,183.46541696462737 143.66647934813227,183.70778713168693 143.66268614779983,183.8474576041517 143.94338297274953,184.20484812656287 143.86372576566646,184.28289863015016 143.60578814275505,184.1596609437147 143.26440011238446,183.85567350357087 142.68024726047588,183.99123567176866 142.3350660297874,183.77351445577006 141.67125597079576,183.66259955211353 141.58401236303325,183.85567350357087 141.2881427367247,183.9255086004523 141.01123911210743,183.63384380088246 140.70019668446912,183.56811631464734 140.42708626019885,183.61330396962876 139.69879179545387,183.47363291948568 139.59258218601462,183.3010976170808 139.4408541725279,183.19428978540236 139.4067153694923,183.08337374691473 139.32705816242378,183.05050969378135 139.40292216915987,182.97656550446118 139.3574037651124,182.91494527291434 139.36119696543028,182.7177600812065 139.42188817085116,182.6807877812971 139.3687833661097,182.61095114891214 139.22843495363486,182.75884038611912 139.01980893510336,182.77527249974082 138.61772969935555,183.075157735424 138.4053104804916,183.07104972922025 138.31427367238211,183.1573177967257 138.2649620680022,183.32985353732875 138.1663388592424,183.37914936662855 138.05633604945615,183.3339615247387 138.05254284910916,183.21893776444995 137.70736161843524,183.11623778097783 137.3204551840463,182.84921695198864 137.1573475695477,182.8410009065119 137.05872436077334,182.73830023738628 136.9373419499898,182.73830023738628 136.70595672942,182.46306152532998 136.18628828323563,182.26176669459528 135.96248946334526,181.9166881764977 135.76144984546409,182.02760650101482 135.4010958134313,181.96187714975895 135.16971059286152,181.68663466233193 135.00660297836293,181.6496616889126 134.43382972745167,181.9084719956627 134.0734756954189,181.7852291400377 133.9862320876564,181.6414454693222 133.84209047486365,181.6414454693222 133.69036246137694,181.49766143335364 133.50449564485461,181.57160755461882 133.45139084012771,181.5058776738224 133.26173082327296,181.59625624022738 133.0,181.55928320778185" stroke="#ffdf00" stroke-linecap="round" stroke-linejoin="round" stroke-width="0.5"><title>2024-11-09 21.0km</title><desc>1731113022000</desc></polyline><polyline fill="none" points="67.0,244.56666108972422 66.80348101267009,244.40936082487315 66.48734177215374,244.71470822062838 65.33386075953604,245.20511311438167 65.28259493672522,244.86275517968897 64.87246835444239,244.14102463124436 64.94936708861496,244.23355441696913 65.25696202533436,243.57659148477978 65.56455696205376,243.52107333546883 65.76107594935456,243.28974745315645 65.54746835445985,242.77157595424796 64.29145569622051,242.0498335725497 64.03512658228283,242.1053523622977 64.2401898734679,241.8555176180962 64.01803797471803,242.07759297044686 65.02626582275843,240.7914011889152 65.8806962025119,241.1892892408141 66.17120253163739,241.2448084051939 66.29082278482383,241.14302325206518 66.32500000001164,240.23620648372162 66.00886075949529,239.33863659786584 64.94082278481801,238.39479340852995 65.0689873417723,238.14495139492647 65.85506329115015,237.73780039793928 66.81202531646704,236.48857899805444 66.75221518988837,236.29425456919853 65.32531645570998,235.9241119806029 64.38544303801609,236.18321190545248 63.48829113924876,235.64650433400675 63.02689873415511,235.62799713607092 62.514240506337956,235.69277231707383 61.15569620253518,236.2387332494036 60.11329113924876,236.41455067912466 59.35284810126177,236.3775365035399 59.06234177213628,236.82170590138412 58.75474683547509,236.98826902668225 57.669620253145695,236.3775365035399 57.011708860780345,235.8038154079477 56.64430379748228,234.97098986904894 56.08892405065126,234.59158976434264 56.18291139238863,234.04562177868502 56.00348101268173,233.86054735462676 55.38829113924294,233.9438308786921 54.72183544305153,234.44353088063508 54.67911392406677,234.61935078589886 54.95253164556925,235.31337436022295 54.85854430380277,235.73904028336983 54.59367088609724,235.87784408148582 53.46582278481219,235.19307721133373 52.20981012657285,234.81367776751722 51.34683544305153,235.20233084219217 51.12468354430166,235.11904814022273 50.41550632909639,234.39726244421036 48.41613924049307,234.0733829191231 47.47626582279918,233.41636764071154 47.00632911390858,232.3614346177419 46.433860759512754,232.08381921340333 45.58797468355624,232.20411929616967 44.938607594929636,232.04680378048215 44.39177215192467,232.16710389817308 44.220886075956514,232.5835265059286 44.0072784810327,232.7130799286897 43.47753164556343,232.52800357015803 43.33227848101524,232.56501886334445 43.29810126582743,232.76860278383538 42.96487341771717,232.89815601854207 42.16170886074542,232.60203414579155 41.888291139213834,232.65755704932963 41.016772151895566,233.5459202171478 40.3246835443133,233.81427870663174 40.30759493669029,234.18442742039042 39.436075949372025,235.26710623944382 38.76962025318062,235.64650433400675 38.538924050633796,235.94261913555238 38.11170886075706,235.4984466753449 37.45379746836261,235.26710623944382 37.317088607582264,234.7766631271952 36.86424050631467,234.43427719469037 36.81297468356206,234.14741259739094 36.20632911394932,234.2214422326797 34.548734177224105,233.95308460023807 33.95063291140832,234.16592001022946 33.59177215190721,234.12890518185304 33.34398734176648,234.68412647935475 33.34398734176648,234.98949716232164 31.66930379747646,235.69277231707383 31.054113924037665,236.64588903311233 30.61835443036398,236.9605085209041 29.866455696203047,236.9605085209041 29.2427215189673,237.24736678908812 28.661708860774525,237.11781797368894 27.644936708849855,237.16408542286808 26.517088607593905,237.54347787288862 25.88481012659031,237.50646402502753 24.748417721508304,237.84884170786245 23.723101265815785,238.5058341463373 22.93702531643794,238.6909018278311 22.467088607605547,238.56135447899578 22.28765822784044,238.66314169272664 21.954430379759287,238.4410603943761 21.94588607593323,238.60762140439329 21.800632911385037,238.34852640590543 21.826265822775895,238.57060786541842 21.54430379747646,238.7556754528705 20.775316455721622,238.9314894121926 20.681329113896936,239.0795430846556 20.963291139225475,239.54220970322785 21.065822784788907,240.06964760085248 21.587025316461222,240.8099076374565 21.52721518985345,240.9394527020777 20.929113924037665,240.75438828374172 20.194303797441535,240.01412792488554 19.681645569595275,239.96786150978005 19.228797468356788,240.21769995193608 18.741772151901387,240.2824728014748 18.408544303791132,239.98636807782896 17.78481012658449,239.727275880643 16.48607594933128,239.59772958466056 16.503164556983393,239.90308850043948 17.280696202535182,239.90308850043948 17.998417721508304,240.32873910244234 18.570886075962335,241.01347839421942 19.459493670874508,240.8746801862144 19.741455696203047,240.94870591595827 21.04018987339805,242.02207416859892 21.279430379741825,242.52174251508404 22.022784810105804,243.43779606618045 22.022784810105804,243.60435055038397 21.61265822785208,243.80791684688302 21.22816455696011,243.65061564630014 21.12563291139668,243.50256728031673 21.176898734178394,242.81784135225462 20.91202531644376,242.54950181028835 20.134493670862867,242.23489611106925 19.81835443037562,241.7907455674722 19.493670886091422,241.66120136756945 18.53670886074542,242.012821032622 18.152215189882554,242.02207416859892 17.554113924037665,241.901783348374 16.938924050627975,241.5131506922553 16.434810126549564,242.00356789594662 16.041772151889745,241.9387959205269 15.597468354419107,242.2256429905101 14.349999999976717,242.160871127875 13.888607594941277,241.95730220257974 13.982594936678652,242.1053523622977 15.460759493667865,242.93813130846684 16.075949367077556,243.09543338775256 16.12721518985927,243.2157230821831 14.213291139225475,242.99364971155592 13.692088607582264,243.09543338775256 13.119620253157336,242.99364971155592 13.0,243.04916809045972 13.076898734172573,243.19721698274225 13.555379746860126,243.37302481909865 14.358544303802773,243.41928999892116 16.204113924060948,245.3901710748687 17.15253164555179,245.6029873974985 18.4683544303698,246.16741157714569 18.622151898714947,246.52827162910398 18.53670886074542,247.13895554535702 18.229113924055127,247.95319621951057" stroke="#4dd2ff" stroke-linecap="round" stroke-linejoin="round" stroke-width="0.5"><title>2024-10-27 13.8km</title><desc>1729977789000</desc></polyline></svg>