<?xml version="1.0" encoding="utf-8" ?>
<svg baseProfile="full" height="300mm" version="1.1" viewBox="0,0,200,300" width="200mm" xmlns="http://www.w3.org/2000/svg" xmlns:ev="http://www.w3.org/2001/xml-events" xmlns:xlink="http://www.w3.org/1999/xlink"><defs /><rect fill="#222222" height="300" width="200" x="0" y="0" /><text fill="#FFFFFF" style="font-size:12px; font-family:Arial; font-weight:bold;" x="10" y="20">Over 10km Runs</text><text fill="#FFFFFF" style="font-size:4px; font-family:Arial" x="10" y="280">ATHLETE</text><text fill="#FFFFFF" style="font-size:9px; font-family:Arial" x="10" y="290">Zayn</text><text fill="#FFFFFF" style="font-size:4px; font-family:Arial" x="65" y="280">SPECIAL TRACKS</text><rect fill="yellow" height="2.6" width="2.6" x="65" y="283" /><text fill="#FFFFFF" style="font-size:3px; font-family:Arial" x="70" y="285.5">Over 20.0 km</text><rect fill="red" height="2.6" width="2.6" x="65" y="287" /><text fill="#FFFFFF" style="font-size:3px; font-family:Arial" x="70" y="289.5">Over 40.0 km</text><text fill="#FFFFFF" style="font-size:4px; font-family:Arial" x="120" y="280">STATISTICS</text><text fill="#FFFFFF" style="font-size:3px; font-family:Arial" x="120" y="285">Number: 9</text><text fill="#FFFFFF" style="font-size:3px; font-family:Arial" x="120" y="290">Weekly: 1.8</text><text fill="#FFFFFF" style="font-size:3px; font-family:Arial" x="141" y="285">Total: 232.6 km</text><text fill="#FFFFFF" style="font-size:3px; font-family:Arial" x="141" y="290">Avg: 25.8 km</text><text fill="#FFFFFF" style="font-size:3px; font-family:Arial" x="167" y="285">Min: 10.2 km</text><text fill="#FFFFFF" style="font-size:3px; font-family:Arial" x="167" y="290">Max: 55.1 km</text><polyline fill="none" points="53.2017963907565,33.0 52.604290194343776,33.26776003456325 51.61531442106934,34.294169180706376 50.9353935768595,34.69580567715457 44.86761513433885,40.41901177234831 44.496749219310004,40.720227245867136 44.09497781144455,40.75369559539831 43.55928260087967,41.6796503776568 42.81755077088019,42.293231801042566 41.98310246213805,42.36016780823411 41.200163308298215,43.743505435282714 39.30462640943006,45.428036875702674 40.70567542157369,46.677478743731626 42.49819401075365,48.707800135962316 48.84412188956048,53.95081386390666 49.20468597358558,54.48626053065527 48.55567062232876,55.5683033161331 48.81321639660746,55.76909392392554 48.76170724176336,56.092589352076175 48.90593287535012,56.248759315378265 48.49385963648092,56.694958337262506 48.75140541075962,57.208085613063304 49.10166766383918,56.694958337262506 48.06118273566244,55.501373055318254 49.01925301604206,54.11814114739536 48.58657611522358,53.638469114506734 48.16420104535064,53.526917264651274 45.05304809182417,56.32684423759929 43.53867893893039,57.92199897678802 42.04491344798589,59.16018461424392 38.79983669175999,62.39503702028014 37.512107820250094,63.432406326173805 36.14196430094307,64.83786326604604 35.93592768156668,65.2282656942989 34.79242444364354,66.06483899237355 35.32811965420842,66.75640281972301 33.62831754377112,68.34029536417802 33.55620472703595,68.6191479984409 35.0911775418208,71.07302940283262 36.0183423293056,71.2403380744363 36.811583314149175,72.16610943809792 37.460598665405996,72.46726277825655 37.47090049635153,72.60110851816717 36.03894599125488,73.83917609712807 36.224378948740195,75.59029973093129 36.19347345584538,77.70946730847936 38.15082134050317,79.83975901048689 37.85206824232591,80.07397776626749 37.36788218666334,80.00705815809488 36.739470497355796,80.24127665952255 36.80128148314543,81.39005748515774 36.66735768056242,81.5908144199202 35.863814864715096,81.8584899258858 35.482647118740715,81.61312072984583 35.214799513458274,81.72465223105974 34.86453726043692,82.77304439512955 33.1338296571048,85.46091085794615 32.1036465599318,86.62080555183638 32.1036465599318,87.0 32.13455205282662,86.59849996700359 33.17503698106157,85.42745222756639 34.87483909144066,82.79535053385189 35.235403175407555,81.73580537675298 35.62687275232747,81.60196757529047 35.89472035760991,81.82503051306412 36.76007415930508,81.50158914788335 36.739470497355796,80.21897015090508 37.33697669371031,79.98475161560054 37.91387922811555,80.05167123346473 38.161123171506915,79.77283930055273 36.39951007527998,77.9883029768389 36.203775286790915,77.55331911372195 36.244982610689476,75.41184218268609 36.05954965320416,73.73879261022375 37.47090049635153,72.35572457280068 36.852790638047736,72.11034023636603 35.94622951251222,71.16226071698475 35.101479372766335,71.00610588327982 33.41197909339098,68.36260359350126 32.49511613685172,67.47027189910295 32.732058249239344,66.91256196367613 32.65994543238776,66.70063165847387 31.928515433392022,66.48870106154936 30.774710364523344,66.63370623835362 29.270643042575102,65.80829033095506 28.18895079055801,65.98675901023671 27.745972058735788,65.250574374586 27.035145721689332,64.63708448884427 26.79820360930171,64.63708448884427 27.67385924194241,65.21711135296209 28.20955445250729,65.96445043665881 29.466377831064165,65.841753224071 31.75338430685224,67.05756674124859 32.38179599621799,67.59296781377634 32.81447289697826,67.68220114483847 33.50469557213364,68.29567889581085 35.30751599220093,66.73409435764188 35.16329035861418,66.43292980332626" stroke="#4dd2ff" stroke-linecap="round" stroke-linejoin="round" stroke-width="0.5"><title>2025-04-09 13.2km</title><desc>1744204397000</desc></polyline><polyline fill="none" points="118.85804880573414,34.72512948955409 117.75121801765636,34.01691987350932 116.81208886415698,33.0 116.4599154315656,33.03631863804185 112.04936244280543,37.412675970452256 102.5406797635369,45.87462726574449 96.82205402519321,51.37655816024926 96.20155797735788,52.26629801375384 94.74255375674693,53.33761323738145 95.54752160265343,54.463397181534674 92.78044463240076,56.93284102350299 92.17671874799998,56.769422697558184 90.85187583504012,55.33496837473649 88.83945622039028,54.57234374647669 85.97175826947205,52.95629817426379 83.85871767409844,53.08340325974859 82.98666917445371,51.558137978761806 81.72890691529028,50.722869724268094 81.14195119432406,49.99654723989079 81.79598756902851,50.795501856919145 83.08729015517747,51.48550606715435 83.74132652994012,52.919982423685724 84.14381045283517,53.24682398927689 85.85436712531373,53.028929659572896 91.7071541712503,56.11574832815677 95.24565866036573,61.490353635977954 96.62081206374569,61.690083368928754 98.012735630502,63.23344412121514 99.10279625520343,63.76000032138836 96.72143304446945,66.0477833829209 97.10714680392994,69.60651553489151 96.98975565977162,72.00318423156568 97.19099762116093,72.63866072503151 99.18664707249263,74.4906116049533 100.17608671629569,75.743394149511 99.74006246647332,76.07020595780341 98.8177034764085,75.97942494266317 97.84503399604,76.26992407538637 97.97919530363288,78.26709650209523 97.81149366911268,78.52128094254294 96.43634026573272,78.99333707698679 95.88292487175204,78.61206103747827 95.3462796411477,78.82993313104089 94.75932392018149,80.55474719066115 92.009017113538,84.80318595995777 90.23137978720479,87.0 93.11584790161578,83.24180229868216 94.82640457403613,80.53659131500171 95.41336029494414,78.86624512824346 95.86615470825927,78.61206103747827 96.55373140994925,79.01149306437583 97.86180415941635,78.4849688954273 98.02950579405297,78.17631628233357 97.89534448640188,76.32439262530534 98.76739298598841,76.01573735267448 99.80714312032796,76.10651835464523 100.25993753358489,75.68892547336873 99.47173985122936,74.65401837877289 97.54317105381051,72.9291637284623 97.00652582320618,71.87608873959107 97.1239169674227,68.95287464118155 96.7885136983241,65.79358629605849 99.08602609176887,63.63290065023466 98.012735630502,63.160815593015286 96.63758222718025,61.635611639372655 95.1785780065693,61.36325281388417 92.71336397860432,57.441252911725314 92.74690430553164,57.04178651490656 95.54752160265343,54.37260834123299 94.75932392018149,53.24682398927689 95.58106192952255,52.81103514046117 96.67112255410757,51.77603358730266 96.92267500597518,51.140504199502175 103.61397022468736,44.966706264560344" stroke="#4dd2ff" stroke-linecap="round" stroke-linejoin="round" stroke-width="0.5"><title>2025-04-07 10.2km</title><desc>1744033163000</desc></polyline><polyline fill="none" points="171.37590694334358,33.3852310107759 169.0380437145359,35.7883255045308 168.5128715399187,36.008455156872515 167.75052483484615,37.03572433600493 167.1575885086786,37.017380280114594 166.39524180360604,38.00795739682508 166.20889038679888,38.64999604965851 164.3284351809998,40.24591364452499 163.80326300638262,41.199790620201384 162.17692336894106,42.337100777222076 161.51622289116494,42.282069758250145 160.85552241350524,43.5294365833397 159.7712959885248,44.51998821228335 159.05977239710046,44.77679726101633 156.51861671358347,47.43658994186262 150.19960958050797,52.93952055378759 150.0471402394469,53.12294951402873 150.31819684564834,53.28803546457493 149.91161193628795,53.50814989786886 150.72478175506694,54.64540475446847 147.84480531373993,57.32343633437995 147.91256946523208,57.800343096329016 150.45372514880728,61.78064526678645 151.84289025585167,61.96406782179838 153.24899640074,63.578180576703744 154.282399712014,64.00004925980465 151.9445364831481,66.1827499166393 152.30029827886028,68.78729246818693 152.24947516515385,72.54732425598195 152.50359073356958,73.20761675894028 154.53651528042974,74.95004704357416 155.3835671748384,76.10554683250666 154.99392330338014,76.47237106005196 153.96051999216434,76.41734745977737 153.07958602183498,76.69246534150443 153.11346809758106,78.94842070058803 151.72430299059488,79.40694575573434 151.0805435507791,79.0034437510185 150.64007656561444,79.1685128306126 149.89467089844402,81.14933339589334 147.23492794967024,85.2943337210163 145.72717557736905,87.0 147.13328172225738,85.45939870153961 150.06408127734903,80.85587947469321 150.64007656561444,79.13183082222531 151.18218977807555,78.98510273550346 151.65653883910272,79.44362772426393 152.9609987565782,78.8567155899218 153.19817328703357,78.2698020957323 153.09652705973713,76.71080652299861 154.06216621946078,76.36232384757022 155.06168745498871,76.47237106005196 155.45133132650517,76.08720560725487 155.06168745498871,75.3902380609361 152.53747280931566,73.11590956976579 152.23253412730992,72.52898277297209 152.24947516515385,68.32874818716664 151.96147752105026,66.20109185922774 154.3162817878183,63.83497029355203 153.24899640074,63.431443478679284 151.9445364831481,61.92738332142471 150.43678411096334,61.688933939440176 147.89562842738815,57.72697288374184 147.86174635158386,57.30509374868416 148.23444918513997,56.7548155595141 150.7925459066173,54.517005268426146 147.70927701052278,57.23172339258599 144.8801236829022,55.03060282187653 141.10227223334368,53.15963529009605 139.1032297622296,53.39809270511614 138.12064956466202,52.05905969458399 136.799248609168,51.16025274223648 137.73100569320377,51.74722907265823 139.28958117909497,53.48980703575944 140.81427458918188,53.58152133312251 143.05049159069313,54.168492049517226 143.99918971257284,54.79214694451366 144.86318264500005,54.993917316853185 145.60858831222868,55.74596910639957 147.06551757076522,55.947738718634355 149.45420391327934,53.70992129361548 150.65701760345837,53.10460662395053 150.75866383081302,52.93952055378759 150.36901995935477,52.79277728989837 151.09748458862305,52.077402660404914 171.93496119376505,33.0 176.11939755268395,35.6048839813011 178.3217324783909,37.43929322979238 179.1349022971699,37.65942144604924 180.52406740415609,36.485402080070344 181.59135279123439,37.402605175127974 181.77770420809975,37.9529254364752 180.93065231351648,38.50324450114567 178.69443531200523,40.77788393975061 179.20266644872027,41.41991556556604 180.10054145689355,40.83291528579139 180.76124193466967,41.548321695270715 181.03229854087112,41.548321695270715 183.200751390832,39.51215967832832 180.9814754271647,37.09075649578881 174.5777631046949,43.621154489635956 181.1000626924797,37.10910054635315 180.54100844200002,36.375337485282216 172.88365931564476,43.254282665089704 170.17309325316455,40.300945106195286 170.91849892033497,40.722852581733605 172.34154610312544,39.6589106417523 172.30766402737936,39.20031359849963 171.32508382975357,38.209741148893954 172.7820130882901,37.200820779427886 173.0191876187455,37.586045395204565 172.18907676206436,38.209741148893954 172.9006003534887,38.94349889125442" stroke="#4dd2ff" stroke-linecap="round" stroke-linejoin="round" stroke-width="0.5"><title>2025-04-06 15.4km</title><desc>1743942179000</desc></polyline><polyline fill="none" points="17.001308166683884,128.64128134302882 17.314146888442338,128.5975721474315 18.45449448702857,127.59771737655683 18.54027284620679,127.82719341474876 18.474677630350925,128.30253441418608 19.004485142970225,128.26428869754454 19.342552793881623,128.01842291287176 19.514109512238065,128.1386240633583 19.75630723228096,128.0348139901398 19.816856662306236,128.17686984376633 19.96823023734032,128.160478797392 20.008596524014138,128.35170744991774 19.99345916652237,129.1220808217331 20.316389459912898,129.56463217681448 20.765464399184566,129.61926796639455 21.20949355259654,130.263967292929 21.376004485151498,129.89790987728338 21.562698560999706,129.69575800527673 22.511306297878036,129.17671693208104 23.41954774808255,128.53747196209588 24.383292842452647,128.06759613395843 24.716314707504353,128.05120506384264 24.933283498394303,127.93646747308958 25.261259577644523,127.94193117185205 25.347037936822744,128.06759613395843 25.422724724339787,128.9964176176436 25.48831994019565,131.22007902386395 26.078676882811124,131.2747136136677 27.673145206499612,131.23100594498828 27.844701924885157,131.30749434854079 27.57727527563111,133.1431927546073 27.521771631465526,136.64510058916494 27.420855914766435,136.7652879873931 26.941506260511233,136.79806633549742 26.11399738365435,137.01658829211374 26.270416744519025,138.56261305091175 26.149317884497577,140.69312528640876 25.39245000932715,143.77406734090619 25.09979443094926,145.66954897543474 24.837413567554904,146.4943690580476 27.249299196409993,148.32423573793494 27.244253410579404,149.23642136611306 26.98187254718505,150.38892756759742 26.285554102039896,152.09853706449212 25.876845449442044,153.32200380511495 25.6094188002171,153.81356968150067 24.181461409083568,157.92075063026277 23.75761539899395,158.82735889025207 22.80396187628503,160.1817895174172 22.29433750701719,161.12659973263362 20.124649598204996,165.85593458840594 19.912726593145635,166.6040817001558 19.84208559145918,168.02390257525258 19.478789011365734,168.3570105341787 18.918706783792004,168.63550950453646 17.99532797606662,169.52560717824235 16.875163520831848,170.0935167829739 16.486638011585455,170.1044380797248 16.178845075686695,170.77609479851526 15.280695197143359,171.8682068083508 14.579330966167618,173.51726605738804 13.0,173.0749722377077 13.933470379357459,173.353453833166 14.473369463637937,173.59917203647638 14.362362175277667,173.7247610321283 14.478415249468526,173.82304792675131 14.241263315285323,174.11244748591707 14.443094748654403,173.8667309500379 14.544010465353495,173.6319344032745 14.503644178650575,173.51726605738804 14.629788824531715,173.4298995819554 14.841711829561973,172.88385682398803 15.1646421229525,172.9821448113653 15.18987105213455,172.76918734396895 15.1646421229525,172.95484260546073 15.300878340494819,173.0640513699327 15.60362549056299,172.93846127719007 15.845823210605886,172.22313981582556 16.920575593336252,171.39314002220635 17.06690338253975,171.16925693896337 18.0054195477569,170.51944618747802 18.308166697825072,170.7870159966842 20.074191739870002,173.2387850650921 21.285180340113584,172.40333593595278 22.06727714446606,172.67089907985792 22.37002429450513,172.38149400485418 22.299383292818675,172.15215334758977 22.037002429453423,171.99379867835523 21.890674640249927,171.78629895468475 21.11866940758773,171.34945557021274 21.053074191731866,171.2129414950614 21.159035694261547,170.77609479851526 21.643431134376442,170.56313111894997 21.78975892357994,170.30102115152113 21.83517099605524,169.5747533703252 21.62829377685557,169.37816841035965 21.931040926923743,168.72834226668783 21.8553541394067,168.13311846119905 22.284245935326908,167.9310689481572 22.541581012890674,167.62526325265935 23.015884881315287,167.33037801763567 23.33881517473492,167.34676056086755 23.873668473184807,167.70717561381025 24.221827695757383,167.78362707082124 24.524574845825555,167.71809725525964 24.74658942251699,167.57611579335935 25.114931788441027,167.58703745374078 25.19566436178866,167.52150746777625 25.291534292628057,167.253926102283 25.185572790156584,167.0081872792798 25.029153429262806,166.89350888851914 25.04933657258516,166.66415158509335 24.953466641745763,166.52216814377607 24.76677256586845,164.9985598151543 24.832367781724315,164.80196295511269 25.8970285927644,164.8128850163048 26.457110820396338,165.26068816646875 26.89104840217624,165.24430517114524 27.229116053058533,164.85657324529893 27.864885068207514,165.1350851115567 27.844701924885157,165.59926927486958 28.929545879276702,165.88870031038823 28.929545879276702,166.2491223147881 29.126331526815193,166.2491223147881 29.217155671824003,166.38018443579494 28.969912165950518,166.9699611683609 28.80340123339556,167.1829349687905 28.369463651644764,167.4832816164053 28.243319005792728,167.79454870121845 28.303868435818003,167.99113777869934 30.453373201278737,168.49352976548107 30.962997570546577,168.65189176496642 31.084096430568025,168.76656748855748 31.583629228174686,168.79387120663887 31.639132872369373,168.6846562751598 31.896467949904036,168.5863627019644 31.795552233234048,168.08943212575105 31.982246309082257,167.60888076977426 32.04279573910753,167.18839582758665 32.17903195662075,167.090100309033 32.643244253413286,167.1993175439784 32.734068398422096,166.4948636052577 33.531302560237236,166.22727860586747 33.778546066139825,166.21635674904246 34.12165950288181,166.58769899597974 34.939076808077516,167.07371771017642 35.872547187434975,166.08529434400407 35.81704354326939,165.90508316604974 35.256961315637454,165.28253215470613 35.428518034023,165.44090088069788 35.49411324984976,165.09685805341724 35.867501401604386,164.61082662871922 36.03401233415934,164.26131895332946 36.33171369836782,164.20124715885322 36.710147635953035,164.43061193541507 37.108764716860605,164.5452940626783 37.57297701362404,164.51798881007562 38.13810502708657,164.359618150389 39.11194169311784,163.67698219866725 39.15230797982076,163.56775987422589 40.32293029339053,162.82504388194502 40.18669407587731,162.2079287187662 40.42889179592021,161.53073459889129 40.464212296763435,161.01737372209027 40.08073257334763,160.01794839373179 40.00504578583059,159.38988746162795 40.156419360864675,158.67989925148868 40.80732573350542,157.63675062416587 41.02429452439537,156.8120522469835 40.857783591840416,156.11842478668405 40.49448701174697,155.15716675257863 40.6256774434587,154.33790308970492 40.570173799293116,154.0047333249022 40.71145580263692,153.73710408865009 41.13025602689595,153.5950963536743 41.256400672747986,153.46401205362054 41.4430947486253,152.75396814066335 41.29172117362032,152.14223264656903 41.084843954391545,151.83090107260068 40.72659316015779,151.503182239554 40.62063165762811,151.142689880362 40.69631844514515,150.70572713749425 41.105027097743005,150.21414102897688 41.301812745281495,149.7607865585669 41.256400672747986,149.39482373525243 40.93347037938656,148.79944759023783 40.978882451861864,148.60280856589088 41.42291160530294,148.17675558932388 41.523827322002035,147.9036434421505 41.47336946366704,147.4939733686333 41.16053074190859,146.7401746241012 41.190805456921225,146.29226165961882 41.41282003361266,145.96998117501062 41.87198654457461,145.8388836349841 42.39170248550363,146.01368030442245 42.62885441974504,146.01914269381814 43.00728835733025,145.6313120642444 43.178845075686695,145.6039999729619 43.991216595022706,145.7460227397023 45.141655765270116,146.34688533418375 45.363670341990655,146.14477754083782 45.64118856287678,146.1229280172338 45.898523640440544,146.42882077190734 47.68977761166752,145.99729313385615 49.319566436170135,145.98636835149955 49.58699308539508,146.07376656604174 49.90487759298412,146.33049823596957 50.157166884688195,146.3960466074859 50.40945617642137,146.33596060243144 50.908988974028034,145.98090595973918 53.113997383683454,145.95359399496374 53.573163894587196,146.05191702189768 54.09287983554532,146.47251963566669 54.420855914766435,146.62000311403972 55.122220145742176,146.70193825528986 55.57634087087354,146.5708419865914 56.61072696693009,146.02460508281365 57.024481405329425,145.92628202030755 59.022612595785176,145.7569475568307 59.47673332088743,145.9426692062916 59.83498411512119,145.97544356756407 60.14277705101995,145.80064680959185 60.460661558579886,145.39096532177064 62.01980938142515,144.83925740425911 63.77069706597831,145.4018901902964 65.894972902257,144.18375760610797 65.87983554473612,143.91063100977044 65.15828817040892,142.48489412823983 65.87478975893464,143.94340625352197 65.91515604560846,144.21107021136413 63.84638385346625,145.39096532177064 63.705101850122446,145.44012721772742 63.41749205754604,145.36365314350405 63.75555970845744,145.44012721772742 65.93533918893081,144.2165327312323 65.95552233228227,144.00349416344397 65.17847131376038,142.38110380142462 66.17249112314312,141.93316496384796 67.0,141.79659771609295 66.29863576899515,141.89492615940253 65.18351709959097,142.37564114870474 65.93533918893081,143.98710655639297 65.93533918893081,144.19468264939496 65.86974397307495,144.29847048179363 63.795925995131256,145.4292023547314 63.47299570174073,145.39096532177064 62.02485516725574,144.85018235265306 60.470753130241064,145.42373992262583 60.10745655017672,145.877120441015 59.81984675762942,146.00821791462658 59.49691646420979,145.99183074288158 59.012521024124,145.77333477958018 56.953840403672075,145.95905638871773 56.66623061109567,146.02460508281365 55.44515043919091,146.60907842180313 54.950663427385734,146.70740059487434 54.36030648477026,146.59815372801677 53.92132311718888,146.3414229685004 53.618575967120705,146.06284179475915 53.20986731452285,145.93720681135164 50.95440104653244,145.9426692062916 50.75256961316336,145.99729313385615 50.35395253225579,146.33049823596957 50.066342739679385,146.37419715664146 49.55671837038244,146.05737940852123 49.18837600448751,145.96998117501062 47.61409082412138,145.99729313385615 46.94300130815827,146.11200325307436 45.873294711258495,146.42882077190734 45.79256213791086,146.24310031870846 45.42421977201593,146.14477754083782 45.32330405531684,146.16116467937536 45.141655765270116,146.40150896921114 43.96598766586976,145.7569475568307 43.6581947299419,145.6859362171599 43.07792935901671,145.63677448131784 42.7449074939359,145.96451878205698 42.522892917186255,146.05191702189768 42.28574098300305,146.0027555244451 42.0233601196087,145.8825828402987 41.75593347038375,145.3964277562336 42.07381797794369,139.33288211124454 42.30087834049482,138.6609457093291 41.8770323304052,138.6937232336495 41.71052139785024,138.97233161533222 41.46832367780735,141.63817939904402 40.68118108762428,141.59994044509222 38.96561390394345,141.72011994938657 38.10278452624334,141.66549292570562 37.98168566622189,141.74197074779659 36.917024855152704,141.6818810369732 36.97757428517798,141.3431926809426 36.85142963932594,136.60139603322023 36.67482713510981,136.623248314354 36.68996449263068,136.0277713889518 36.291347411694005,135.94036153629713 36.291347411694005,135.78193092011497 36.37207998504164,135.71637332639511 36.291347411694005,135.8365622046622 35.95327976078261,135.91304593655514 35.91291347410879,135.8474884568277 36.377125770872226,135.62896311281656 36.397308914223686,135.72729959598655 36.25602691085078,135.89119344964274 35.983554475795245,135.8310990779937 36.70005606429186,134.95153052231763 36.715193421783624,134.02278240279702 36.57391141843982,133.92990696170455 36.70005606429186,133.17597267710516 36.60923191925394,132.53129825193173 36.57895720427041,129.71761228784453 36.47299570174073,129.23681660772854 36.50327041675337,128.14955143116822 36.4376752008684,128.06759613395843 36.24088955335901,128.05120506384264 36.467949915881036,128.07852351207111 36.52849934590631,128.00749552604248 36.5335451317369,127.55947130226559 36.200523266685195,127.61957226743107 35.17118295645923,127.52668893741793 31.795552233234048,127.57039875404007 31.35152307979297,127.24257451149606 30.93776864139363,126.68527002659539 30.655204634647816,126.61424072752561 30.751074565487215,125.92579943685269 30.629975705465768,126.72351654451631 29.873107830324443,127.40648681101447 29.635955896083033,127.52122520856938 26.58325546627748,127.43926922812534 25.740609231899725,127.30267572938465 24.58007849002024,127.4829790954609 23.520463464781642,127.92007637443749 21.683797421021154,129.0838355209271 20.49803774995962,129.6356586955444 20.265931601577904,129.55916859568242 19.95309287981945,128.98002674950112 19.99345916652237,128.43912610091502 19.927863950666506,128.1113056368995 19.66548308727215,127.72338291259075 19.170996075496078,127.36824063967651 18.933844141254667,127.05134304483363 18.80769949540263,127.0895893769848 18.656325920368545,127.01856045897875 18.146701551100705,126.5049647520791 17.934778546070447,126.70166139380308 18.020556905248668,126.85464731577667 17.122407026734436,125.88755251408293 15.664174920559162,127.26989325283648 15.593533918901812,127.49937028915883 15.684358063910622,127.65781831122149 15.27564941131277,128.17140616203687 15.49261820220272,128.47737172884808 15.376565128011862,128.837972409543 15.427022986346856,129.04559020072338" stroke="red" stroke-linecap="round" stroke-linejoin="round" stroke-width="0.5"><title>2025-04-06 55.1km</title><desc>1743890633000</desc></polyline><polyline fill="none" points="104.1242752768303,176.1165940349092 104.22676720717573,176.21869688321385 104.25956462489557,175.992294685464 104.01358399208402,175.82360230763516 104.07917882748006,175.72149880055076 101.8653531321761,173.9102430715393 103.05015984686906,172.74266501931925 102.36141407499963,171.98794492321758 102.04573892954795,171.79704365969155 101.81615700561088,171.75708750592457 101.80795765116636,171.44631653080432 102.27942053072911,170.96239858529952 102.46390600534505,170.95351932118865 102.29991891680402,170.696020101881 101.32419573997322,169.68821101561844 101.15200929700222,169.4129474986912 103.00506339753338,167.68142279141102 103.0870569418039,167.59706520783948 103.04196049245365,167.47718844164046 103.11985435950919,167.3795109029379 102.95586727096816,167.1086769118483 102.19332730924361,166.33612746473955 101.80385797396593,165.82552908491925 102.45160697370011,165.08848390792627 103.1936485493643,164.50239345290902 104.18987011227,163.53444389051947 104.70232976395346,163.29911438857016 105.96503034573107,162.93057768882136 106.36679871263914,162.6641642337927 106.51438709234935,162.42883138318575 106.98175029469712,162.03364776675153 107.05554448453768,162.08693109992964 107.21953157309326,162.02032692619468 107.76478864249657,162.10025192596368 109.46615468610253,162.13577411456208 109.69983628728369,162.251221085 109.60554371136823,162.02476720669802 111.13472331203229,160.5949802210598 110.84774590708548,159.85787200663617 110.81904816659517,159.36942190903574 111.5405913561699,156.3542662728687 111.88086456489691,155.4350360764256 112.98367773534846,153.62762044422925 113.23785772258998,152.76164069513106 113.30345255801512,148.84903558924998 113.52893480475177,148.76465201472092 113.61912770345225,148.46264668747244 113.58633028574695,148.3427323933538 113.66012447557296,147.82754237698464 113.58223060853197,148.61364953776138 113.52893480475177,148.760210770728 113.52073545032181,148.5736782313652 113.6847225388774,138.96204005313484 113.7790151147783,138.30018486989866 113.70112124773732,138.19357665230564 113.79541382363823,137.64276456073276 113.79131414642325,137.02531606299817 113.80361317806819,136.97645296542396 113.86510833627835,137.04308445241986 113.7380183426576,136.66106293958364 113.79541382363823,136.25238611476743 113.78721446920827,134.98191676168426 113.7257193109981,134.87086049073332 113.54123383639671,134.78201532839375 112.23753648248385,134.3599990400544 111.98335649524233,134.21340322503602 111.79067166619643,133.93353750886308 111.52009297010954,132.39203189656473 111.54879071059986,132.95177619187598 111.26591298285348,133.01396968534027 111.17981976138253,132.88958263499444 111.19211879302748,132.75186810475134 110.92563977412647,132.5741714771757 110.02781046436576,131.40580325646079 109.57274629366293,130.68611283068822 109.54404855317262,130.15300333491905 109.73263370500354,127.66509738290915 110.65506107803958,123.0533174161319 110.5320707616338,123.0 107.81808444624767,123.12885034242936 107.11703964273329,123.35989165342471 105.88713647867553,123.90638972914894 105.11639716250647,124.01746597446254 104.2964617198013,123.91083278284714 101.959645708077,123.08886233428711 101.06591607551672,123.11552100929839 100.36077159478737,123.31546070011609 99.74991968997347,123.69312277054269 99.64332808241306,123.68867970097563 99.47114163944207,123.85307305946844 98.91358553839382,124.1907445128636 97.88456655778282,124.65726120567706 96.6341650076647,124.9193975897033 94.96149670451996,125.1326602567242 93.83818514800805,125.38146575837891 92.91575777495746,125.51031106537266 92.89935906609753,125.42145226210778 87.8485567389871,132.07661816541076 88.2544247831247,133.1383564820062 88.32821897297981,133.81803699768352 88.38561445396044,136.51891478928883 88.29132187804498,138.2157867130045 88.38561445396044,139.21523107719986 88.55370121973101,139.5750270411445 88.46760799823096,139.91261144876626 88.52500347922614,140.9520043463708 88.11913543508854,142.35560085218094 88.13553414393391,142.97743708838243 87.97564673260786,143.808022751542 87.49188482141471,145.3714474637345 86.82773711280606,146.6239349707248 86.13489166372165,147.3256720615027 86.18408779028687,147.29458261427135 86.33167616996798,147.47223638529613 86.52846067621431,148.17396372869916 86.7334445368906,148.5870020030743 87.27870160630846,150.4656247183193 90.80852368718479,154.28486867729953 91.21849140855193,154.64013504929608 92.15731749043334,155.7370069411736 91.0094078706461,156.79833387909457 91.04220528836595,156.9271128814471 90.97251077572582,157.0114851841572 92.16551684487786,158.9031704483168 92.3705007055396,159.12075490581265 93.64550031896215,161.02569596816102 93.74799224929302,161.29655689446008 93.76849063536793,161.6207003604395 94.34244544526155,162.1313338421205 94.54332962873741,162.41995088053955 95.09678605257068,162.94833854455646 95.8429273054353,163.79197325129644 96.15860245088697,164.3159089486544 96.7325572607806,163.80085355474512 96.41278243811394,164.08946271487366 96.29389179892314,164.26706767502765 96.30619083055353,164.37363040358832 96.59316823552945,164.53347414834207 97.45820012758486,165.2882861886792 98.5733123296668,166.7534829752367 100.28697740494681,168.6226679409774 100.5042602972535,168.77362100458413 100.6969451262994,169.08440555125344 101.76286120181612,170.15881996710232 103.52162272644637,172.12113149866855 103.18954887213476,172.48517332640404 103.47652627709613,172.74266501931925 103.29614047969517,172.99127666064305 105.51406585224322,174.75816602678242 104.3825549412868,175.92570564446578 104.33335881473613,176.04112660283135 104.40715300457668,176.22757538371297 104.06278011863469,176.65374189406066 104.18987011227,176.7691614802461 104.20626882110082,177.0" stroke="#ff8700" stroke-linecap="round" stroke-linejoin="round" stroke-width="0.5"><title>2025-04-05 38.6km</title><desc>1743839508000</desc></polyline><polyline fill="none" points="180.66294586547883,158.59844088130922 179.3465868475323,159.88336370730394 179.05478312433115,160.0518769121918 178.91860805352917,160.29060345069593 178.4452375692199,160.59252146580548 177.5244347093976,161.50529113836092 175.57907655477175,163.1974029388657 175.16406681513763,163.61164987297525 175.3002418859396,163.68186104222696 174.87874761913554,163.8924942447411 173.82825421565212,164.88246416384936 175.2029739782447,167.00279124140798 175.76712784307892,167.08002082228631 176.26643643609714,167.67679278139258 176.6749616485613,167.85231324656343 175.78009689741884,168.72289005583298 175.9227564954199,169.8813067503579 175.8708802779729,171.0818330809998 175.98111724009505,171.32755301169527 177.11590949693345,172.4508361922999 176.92137368145632,172.6403889456269 176.48042583308415,172.62634801364766 176.18213758271304,172.8018595172689 176.221044745791,173.55304516285833 175.65040635378682,173.75663653165975 175.4882931742468,173.6232491314222 175.2678192500607,173.70047343814076 175.0019536355685,174.36038773248583 173.91255306900712,176.07333579271653 173.30300751389586,176.7332339388813 173.28355393232778,177.0 173.35488373137196,176.69111291477748 173.9838828679931,176.00313359800202 175.0343762715056,174.33230636464577 175.24836566849262,173.72855498896388 175.48180864704773,173.616228736857 175.77361237024888,173.8127995926625 175.73470520714181,173.71451421456004 176.23401380018913,173.54602476320724 176.22752927299007,172.7386754125764 176.61660090391524,172.59826614358462 176.99918800764135,172.61932754690497 177.1418476056715,172.471897627649 175.94869460415794,171.27840907536302 175.8708802779729,171.01864785530051 175.90978744105087,169.71983131422166 175.78009689741884,168.7088485564309 176.6749616485613,167.84529243405996 176.253467381699,167.6416886502193 175.74118973434088,167.01683298796706 175.2029739782447,166.98874949282617 174.66475822211942,166.03390581595158 174.10708888448426,165.24053589939285 173.58832670992706,164.72098039925913 173.55590407398995,164.57353846613842 172.7777608121396,164.34184354656463 171.57163875631522,163.66079769678618 170.84537171191187,163.79419880719797 170.46926913535572,163.16229718510294 170.01535223261453,162.89549304072716 169.71706398224342,162.35486133774975 169.80784736279747,159.99570587645576 169.24369349796325,160.00272725770628 168.03757144210977,160.32571024497156 166.65636715234723,160.99975822831766 166.13760497779003,161.31571660619375 165.6901726022188,162.0529488143511 164.39326716581127,160.4731586420603 164.09497891544015,160.40294514763082 163.80965971943806,159.96762034638232 163.45949525161996,159.63761475809588 163.4335571428819,159.37782233393955 163.35574281669687,159.60952912420908 163.1028462566028,159.4410151498887 162.5322078645986,158.82312806948175 161.4946835154551,157.44691086212697 161.74109554840834,157.63649296514632 161.52062162422226,157.58734208517126 161.5465597329021,157.39775988596375 161.41038466212922,157.3837167453239 161.10561188452994,156.96242157976667 161.079673775821,157.0466807594712 160.90459154191194,156.83603267277795 160.89162248754292,156.91327035775612 161.3974156077311,156.07067410179297 161.24178695539013,155.53702601506666 160.61278781871079,154.87698352462758 160.58036518280278,154.40652496123948 160.65169498181785,154.31524169167096 160.49606632941868,154.49780814475525 164.19224682316417,150.24953803849348 164.09497891544015,150.08100777747313 162.59056860924466,148.83808804277214 160.9953749224369,147.63728602577612 162.61002219078364,145.2496822083558 162.57111502767657,145.15839030524512 161.53359067856218,144.37187188110693 161.15748810197692,143.91540736468596 160.23668524215464,143.31146638841165 159.73737664913642,142.72858954680123 158.66742966411402,141.98418751204736 156.97496806964045,143.9294524588331 156.73504056385718,144.09799342959013 156.70261792794918,144.25248906159686 156.32003082422307,144.7159744780729 154.63405375689035,146.55584923981223 154.38115719679627,146.72438563751348 152.86377783620264,148.5782666468076 152.6368193848175,148.66955532485008 151.91055234044325,148.12884420758928 151.11295549708302,147.27212690351735 151.035141170898,147.06847987168294 149.35564863076434,145.81849904981937 148.73961854845402,145.10221062975324 146.10690051256097,143.47298585588578 146.035570713575,143.27635342502617 145.92533375148196,143.35360192765074 145.79564320782083,143.07269798619382 144.86187129362952,142.4827970552942 144.63491284224438,142.23700393953914 144.57655209759832,141.87182444338396 144.4468615539663,141.8296882590148 144.02536728713312,141.2959616688313 143.63629565620795,141.15550681376772 142.86463692155667,140.62879929155315 142.2421223121055,139.8703354229874 141.50937074050307,139.21720899450156 141.288896816317,138.7607201635983 140.9387323484989,138.6062157637789 140.36160942929564,137.9881956972531 140.22543435849366,137.37017168303282 140.3356713205867,136.74512065317685 141.85305068118032,134.35022483306966 141.81414351807325,134.10441105652717 141.96328764327336,133.90073631131236 141.7752363549953,133.14924302371946 141.51585526770214,132.60844517608348 140.2513724672026,130.796399178711 139.82987820036942,129.93250483317388 139.47322920538136,128.45052176136232 139.2657243355352,126.25911180323601 139.01931230261107,126.26613563243154 138.67563236199203,124.63659358309087 138.4940656008839,124.42587493327301 138.29952978543588,124.41182700695208 137.78076761084958,124.71385697294318 137.35278881684644,124.78409636468132 137.1258303654904,125.04398167037289 136.93777907721233,125.0580295048494 135.95861547271488,123.0 136.8923873869353,125.02993383388821 137.41763408869156,126.65244545299356 137.81319024675759,127.24244292743242 138.56539539986989,128.8157519259039 140.19301172255655,131.76563730738417 141.5547624308092,133.92180613243545 141.5547624308092,134.21678314617748 141.34725756096304,134.65222376053862 139.91417705372442,136.7661898547667 139.85581630910747,137.1173425393281 139.8169091460295,136.97688161845144 139.9660532712005,136.71702837722114 139.92066158092348,137.44742490070348 140.04386759741465,138.05842544908228 140.66638220686582,138.78881184614147 146.7553532307502,144.29462419117772 147.94850623226375,146.2117531834374 150.5293480506807,150.74108295765473 151.09350191554404,151.28880149958422 151.43718185616308,151.80842904723977 151.46311996490113,152.11037350346305 152.62385033047758,153.37431682177703 153.1361279778357,153.7183874240145 154.18013685417827,154.82080948793737 154.96476464319858,157.20817731570423 155.3797743828327,158.14906494150637 155.54837208957179,158.3105596598325 155.866113921511,159.74995721223968 157.31216348308953,163.70292438308388 157.44833855389152,163.63271322908986 157.42240044518257,163.42910059483256 155.9309591932979,159.02675038362213 155.58727925264975,157.61542830535473 155.4964958720957,156.43580004599062 157.7336577498936,155.71256847336917 159.0240786591312,155.36850495575345 159.25103711048723,155.39659181934258 160.0745720626146,154.9823097555709 162.72025915287668,151.8926927111388 165.4243069877557,154.78570069848502 165.85228578178794,154.71548308136698 166.60449093490024,154.13969670065853 168.45906570891384,152.24379052141012 169.47713647651835,151.387109627889 169.54846627550432,151.2326253814681 172.18118431142648,148.7678661126265 172.40165823561256,148.82404366081755 173.8671613787592,150.47424459688773 174.5026450425794,151.0079205830625 175.00843816276756,151.71012134668126 175.99408629443496,152.52466785308934 177.90702181312372,154.6101565602221 179.0288450156222,155.57213453216536 180.967718643049,157.77692391334858 181.17522351283696,157.69266536885698 183.11409714029287,155.69150339518092 183.8468487118662,156.154934057231 184.04138452728512,156.52005968379672" stroke="#ff9300" stroke-linecap="round" stroke-linejoin="round" stroke-width="0.5"><title>2025-04-04 35.8km</title><desc>1743763192000</desc></polyline><polyline fill="none" points="20.92797783901915,240.3646122366772 23.022160664666444,233.1568689912092 22.79778393311426,236.80123936507152 23.396121883764863,237.85405526007526 22.349030470941216,238.7448987038224 21.451523545663804,238.9068701628712 22.049861495383084,237.12518282292876 24.592797783669084,238.50194147136062 23.695290858391672,237.44912618712988 22.573407202027738,237.36814035481075 25.191135733854026,235.74842247809283 22.274238226935267,236.4772958132089 24.218836565036327,233.23785512865288 24.293628809042275,236.31532400200376 20.92797783901915,237.5301120133954 23.246537395752966,236.39630991063314 18.833795013371855,238.98785588343162 21.90027700830251,237.12518282292876 22.274238226935267,235.74842247809283 21.750692520756274,236.31532400200376 27.58448753412813,233.23785512865288 25.04155124630779,235.1005346699385 28.033240997232497,233.5617996196961 26.088642659131438,238.58292722149054 18.534626038745046,245.54767976293806 23.545706370845437,239.39278439880582 21.526315789669752,238.7448987038224 23.396121883764863,237.7730694572092 24.592797783669084,237.5301120133954 23.77008310239762,237.12518282292876 23.695290858391672,238.7448987038224 26.537396121770144,235.2625066570472 26.01385041512549,234.7765906249988 23.919667589943856,236.5582817099057 24.891966758761555,235.0195486675948 21.750692520756274,236.88222523831064 22.87257617712021,236.88222523831064 21.526315789669752,237.12518282292876 23.09695290820673,236.9632111057872 30.650969529058784,222.70960803510388 26.088642659131438,233.7237718300894 19.05817174492404,236.23433808767004 21.22714681411162,232.42799348995322 36.26038781134412,225.30118575546658 55.706371190957725,227.3258516668575 60.04432132979855,242.38925085082883 51.36842105304822,250.64973837678554 47.32963988929987,246.35753189201932 55.108033240772784,237.7730694572092 53.98614958440885,237.5301120133954 67.0,234.6146185672842 47.479224376846105,224.7342786428635 46.73130193911493,232.02306245046202 48.52631578966975,226.434999117977 52.265927977859974,236.72025348589523 52.78947368403897,236.80123936507152 52.34072022140026,237.36814035481075 50.24653739621863,238.98785588343162 58.249307479243726,237.5301120133954 54.21052631596103,238.50194147136062 52.78947368403897,237.5301120133954 53.61218836577609,237.04419696738478 53.91135734086856,237.5301120133954 53.91135734086856,237.85405526007526 53.46260387822986,236.9632111057872 55.93074792250991,237.44912618712988 55.18282548477873,237.44912618712988 54.21052631596103,237.9350410568877 52.78947368403897,235.58645056124078 55.33240997232497,234.3716604366782 52.565096952952445,236.9632111057872 52.9390581715852,237.61109783378197 53.91135734086856,237.20616867294302 54.28531855950132,238.2589841861045 54.65927977813408,239.55475576373283 57.80055401707068,237.44912618712988 54.95844875369221,237.20616867294302 54.509695291053504,238.9068701628712 53.91135734086856,238.33996995375492 54.434903047047555,238.50194147136062 52.9390581715852,238.7448987038224 55.4819944598712,236.63926760095637 53.91135734086856,238.2589841861045 46.73130193911493,259.2341018826701 57.05263157887384,242.55122178141028 59.74515235470608,248.3821596467169 58.922437672968954,244.73782704689074 55.25761772878468,237.04419696738478 55.0332409972325,237.36814035481075 56.52908587269485,238.9068701628712 57.12742382287979,239.71672710543498 54.28531855950132,239.06884159822948 55.4819944598712,238.58292722149054 54.509695291053504,237.69208364828955 52.11634349031374,235.18152066646144 54.434903047047555,238.7448987038224 56.90304709179327,239.14982730714837 55.93074792250991,239.39278439880582 51.74238227168098,237.9350410568877 55.706371190957725,240.20264098915504 54.509695291053504,237.7730694572092 52.63988919695839,238.50194147136062 53.98614958440885,238.66391296568327 53.01385041559115,235.18152066646144 50.994459833949804,228.70262239070144 48.90027700830251,239.6357414375525 49.57340720202774,237.5301120133954 48.90027700830251,238.42095571552636 46.58171745156869,243.44206148013473 51.66759002767503,234.29067438148195 52.78947368403897,235.5054645939963 56.15512465359643,239.6357414375525 56.304709141142666,241.90333791810554 53.61218836577609,239.79771276732208 54.88365650968626,226.27302585088182 54.434903047047555,244.5758564331336 53.46260387822986,255.6707891880651 53.68698060978204,240.44559785182355 52.565096952952445,244.49487111752387 52.71468144049868,250.082844125689 55.18282548477873,236.07236624124926 53.61218836577609,239.14982730714837 55.18282548477873,244.65684174303897 54.135734072420746,241.90333791810554 52.04155124677345,258.99114910530625 55.18282548477873,245.38570926670218 54.21052631596103,239.95968407363398 53.31301939068362,238.8258844363736 52.34072022140026,236.9632111057872 57.351800553966314,244.08994445146527 56.52908587269485,242.06530891923467 58.39889196725562,239.95968407363398 60.26869806088507,239.2308130103047 57.80055401707068,236.23433808767004 55.706371190957725,236.07236624124926 58.0249307481572,238.66391296568327 57.50138504151255,241.49841031251708 57.950138504151255,240.68855466146488 61.01662049861625,243.0371344325249 57.20221606642008,240.93151141837006 52.864265928044915,241.49841031251708 53.91135734086856,236.9632111057872 52.41551246540621,240.44559785182355 53.238227147143334,240.60756906407187 54.509695291053504,250.0018592090928 56.60387811623514,242.06530891923467 57.27700831042603,246.8434428878827 53.98614958440885,241.8223524086643 55.706371190957725,241.66038137237774 54.36011080350727,241.98432342155138 57.50138504151255,237.85405526007526 55.55678670387715,239.47377008426702 56.82825484778732,234.0477161804447 54.21052631596103,238.17799841269152 57.20221606642008,238.2589841861045 53.163434903137386,237.12518282292876 56.22991689760238,235.6674365226645 57.351800553966314,241.0124969924218 54.88365650968626,240.04066971800057 55.108033240772784,238.8258844363736 53.91135734086856,238.50194147136062 55.407202216330916,240.3646122366772 54.509695291053504,236.72025348589523 55.93074792250991,228.94558175408747 54.135734072420746,244.49487111752387 55.108033240772784,239.2308130103047 55.78116343496367,236.15335216745734 53.98614958440885,247.73427916446235 56.379501385148615,243.11811985372333 54.95844875369221,231.21319993113866 56.379501385148615,254.9419283735333 55.18282548477873,247.24836855614558 56.15512465359643,245.38570926670218 55.63157894741744,255.184882031288 55.63157894741744,238.9068701628712 54.88365650968626,239.95968407363398 58.0249307481572,238.98785588343162 47.62880886392668,236.63926760095637 58.39889196725562,239.8786984233884 54.21052631596103,238.2589841861045 59.14681440452114,231.2941862094449 50.77008310239762,233.80475792643847 40.74792243773118,230.40333682461642 35.96121883671731,230.72728213778464 29.4542936286889,236.5582817099057 26.836565096862614,239.6357414375525 24.966759002767503,241.1744681225391 26.68698060978204,240.8505258387886 28.108033240772784,237.7730694572092 31.249307479243726,235.1005346699385 34.465373961254954,231.78010375628946 37.68144044326618,227.56881132966373 40.29916897509247,226.83993218268733 42.84210526337847,230.40333682461642 56.90304709179327,227.8927574644913 61.31578947370872,235.74842247809283 62.437673130538315,241.49841031251708 55.407202216330916,237.44912618712988 56.678670360241085,237.12518282292876 56.45429362915456,236.9632111057872 56.45429362915456,237.61109783378197 62.21329639898613,237.61109783378197 57.351800553966314,237.36814035481075 55.706371190957725,236.4772958132089 55.706371190957725,236.80123936507152 54.734072022140026,237.36814035481075 58.47368421079591,238.7448987038224 57.20221606642008,237.44912618712988 53.53739612177014,238.66391296568327 56.379501385148615,238.2589841861045 52.63988919695839,246.0335911109578 53.46260387822986,243.19910526910098 55.85595567896962,238.01602684811223 56.00554016651586,236.88222523831064 54.509695291053504,237.04419696738478 53.38781163422391,237.5301120133954 59.74515235470608,241.49841031251708 51.5180055401288,250.16382903623162 55.63157894741744,239.47377008426702 56.304709141142666,238.58292722149054 56.90304709179327,238.58292722149054 58.324099723249674,238.09701263339957 58.249307479243726,237.9350410568877 56.678670360241085,238.01602684811223 56.60387811623514,239.31179870740743 52.9390581715852,245.30472400970757 53.68698060978204,237.28715451684548 53.01385041559115,239.31179870740743 55.85595567896962,237.12518282292876 54.65927977813408,240.76954025303712 56.080332410056144,234.4526464858791 51.5180055401288,234.4526464858791 53.163434903137386,220.11802430276293 54.36011080350727,238.7448987038224 54.434903047047555,239.2308130103047 56.753462604247034,237.85405526007526 57.351800553966314,236.5582817099057 53.38781163422391,240.12165535637178 54.0609418284148,238.09701263339957 46.65650969557464,251.4595868079341 56.82825484778732,235.99138030933682 56.90304709179327,237.85405526007526" stroke="#ffae00" stroke-linecap="round" stroke-linejoin="round" stroke-width="0.5"><title>2025-01-11 29.4km</title><desc>1736530614000</desc></polyline><polyline fill="none" points="126.58654116325488,244.9648089797738 126.54102275922196,244.92783814727954 126.36653554369695,245.09215277355906 126.24894633326039,245.12090778413403 126.06307951672352,244.94426963136357 126.04790671537921,244.98534832071527 125.9644563079637,244.92783814727954 125.76341669009707,244.92783814727954 125.69134588369343,244.80049398393749 125.49409946614469,244.70601264540528 125.48271986514737,244.64439429621052 125.54341107053915,244.59509956856346 125.48271986514737,244.41024395766 125.60789547626337,244.25414319397896 125.7520370890852,244.22949566564057 125.80893509414454,244.14733716032788 125.96824950831069,244.0939340679397 125.99480191065231,243.9953436111973 126.09342511942668,243.9255086004523 126.283085136296,243.94604831843753 126.5448159595544,243.72832692866723 126.76102837876533,243.81870194681323 126.8065467828128,243.69135528874176 127.0,243.6256278692781 126.86723798820458,243.49006482562982 126.85585838720726,243.30931359578244 126.47653835348319,243.3257455496132 126.29446473730786,242.94780940475903 126.20722112953081,242.97245749110516 125.91514470356924,242.86975706047815 125.78617589210626,242.89440518082847 125.5623770722159,242.63970741974117 125.45996066312364,242.60684310903162 125.1565046361502,242.63970741974117 124.95167181793659,242.57808682150426 124.24613655521534,242.06457922755726 124.2082045518473,241.77701294011058 124.26130935658875,241.67020223268264 124.03751053666929,241.2511736647648 124.00716493398068,240.9307379607926 123.76819331273146,240.4747301772004 123.77577971341088,240.28986111011181 123.63543130093603,240.0885585502656 123.27507726890326,239.8708223222784 123.22197246419091,239.57092010834822 123.03610564766859,239.18063402525877 123.02851924698916,238.9300278580231 122.73644282104215,238.27269493264976 122.49747119979293,238.07960193475446 122.44815959541302,238.1247939720488 122.25091317786428,238.11246887454763 122.05745996067708,237.93170046941304 121.77296993539494,237.57427033202111 121.7502107333712,237.4715601047683 121.5908963191905,237.33598231929136 121.45054790671566,236.92924701344964 121.10915987637418,236.65808851833935 120.99157066592306,236.60056988260112 120.54397302614234,236.7772340777774 120.30120820456068,236.69917322235415 119.83464456308866,236.17739526461446 119.29980331554543,235.7418918670628 119.09117729701393,235.66793812691685 118.90910368082405,235.44607632636325 118.87496487778844,235.22421365562332 118.65875245857751,234.95715558295342 118.35908963192196,234.9735899622974 118.23012082045898,234.87909221586597 117.94563079517684,235.11739057785962 117.67631357125356,235.14204207525472 117.50182635572855,235.28173369084834 117.46010115201352,235.45840200477687 117.53217195843172,235.5898757407631 117.51699915707286,235.68848084221463 117.25147513348202,235.82406257605908 117.08836751896888,236.041814377626 116.83042989605747,236.02538030863798 116.76973869065114,235.72134917116637 116.5724922731315,235.68026375698537 116.47766226468957,235.71313209072468 116.39041865692707,235.84460523465168 116.19696543973987,235.84460523465168 116.13248103398655,236.1322016717313 115.8328182073601,236.41568815732535 115.35108176455833,236.44855606375495 115.29797695984598,236.51840030152016 115.31314976117574,236.44855606375495 115.0779713402735,236.75258329296776 114.95279572914296,237.16342830423673 114.42174768193217,237.43047596165707 114.3800224782317,237.70573915083514 114.4141612812673,238.1247939720488 114.35347007587552,238.1782026968649 113.91725203709211,238.22339465540426 113.22688957572973,237.98510937649917 113.07895476259,238.00565125040885 112.96136555213889,237.92348371000844 112.81722393931705,237.91937532984957 112.64273672380659,237.7673650544857 112.38859230122762,237.7303895203513 112.15341388031084,237.6153543707187 111.93720146108535,237.3852833697747 111.66409103682963,237.4510180369398 111.55788142737583,237.52496944621453 111.5351222253521,237.78790700745958 111.34925540882978,238.18231105821906 111.3758078112005,238.3466452679677 111.45925821861601,238.45346224836248 111.37960101153294,238.6753122556329 111.40236021355668,238.89716139310258 111.51236302334291,239.0738184175534 111.51994942400779,239.21350032551345 111.13683618995128,239.26279974012505 111.04200618150935,239.06149352676584 110.7461365552299,238.99576073056596 110.48061253160995,238.7287204608183 110.13922450128302,238.67942058089466 109.88887327902194,238.7410454240853 109.64231525710784,238.59314568769332 109.60438325372525,238.64655397042588 109.64990165777272,238.85607828512002 109.52851924697461,238.9300278580231 109.6195560550841,239.0409520361609 109.56645125037176,239.1436594146362 109.57783085136907,239.50929616891517 109.2174768193363,239.73114203680234 108.82677718460036,239.5585953258269 108.6219443664013,239.38193981476797 108.50814835628262,239.4805383075509 108.35262714246346,239.43534735301728 107.88606350099144,239.56270358696565 107.40053385782812,239.53394575274797 107.3057038494153,239.43945562310546 107.02880022478348,239.35318188868405 106.71775779713062,239.01219393678184 106.69499859510688,238.89716139310258 106.56223658331146,238.83553671994378 106.45223377355433,238.88483646384338 106.20188255129324,238.82321177726408 105.78842371453356,238.83964503357493 105.45841528520396,238.9218112435774 104.73391402080597,238.85607828512002 104.69977521777037,238.9218112435774 104.46080359652115,238.96289430384059 104.23700477663078,239.14776770589015 103.69837032875512,239.19295889008572 103.42525990448485,239.11900966079338 103.05352627142565,239.17652573638043 102.82214105087041,238.97521921610314 102.22281539758842,239.25458317400626 101.9117729699501,239.18063402525877 101.76004495646339,239.2258251831954 101.60831694297667,239.37372326596233 101.65762854734203,239.5134044336337 101.60831694297667,239.6654100184751 101.33520651869185,239.77633275512926 101.08485529643076,239.7640080173478 100.79277887046919,240.01461049130376 100.41345883674512,239.80509046618317 100.04172520371503,239.6941677858922 99.5068839561718,239.7064925388804 99.29446473729331,239.59556966533637 98.78617589212081,239.56270358696565 98.71410508570261,239.65308525653745 98.14133183479134,239.64486874708746 97.87580781118595,240.0105022629723 97.69373419501062,240.0844503272965 97.51166057882074,239.9899611168512 97.19682495084999,240.05569275820744 97.01475133464555,240.21180510047634 96.9616465299332,240.38845802104697 96.51784209048492,240.56921857829002 96.45335768474615,240.56511039020916 96.28266366956814,240.34737599570144 95.82747962912254,240.55278582420942 95.68333801631525,240.5363530653667 95.52781680248154,240.4131072219352 95.39505479068612,240.5610022018518 95.36091598763596,240.74997855820402 95.22056757516111,240.47883837183326 94.95125035123783,240.3391595870562 94.63641472323798,240.41721542104278 94.27226749087276,240.32683497184553 94.04088227030297,240.40489082283239 94.01812306829379,240.53224487491025 93.91949985951942,240.647274094983 93.5743186288455,240.56511039020916 93.56673222816607,240.63905772986982 93.47569542007113,240.68835590263188 93.29741500422824,240.68835590263188 93.03189098062285,240.5733267660653 92.89533576848044,240.62673317997542 92.77016015734989,240.83625016326914 92.61463894353074,240.8896563290764 92.55015453779197,240.9964685095074 92.2732509131747,241.16490269216592 92.20876650745049,241.33744450587983 91.7839280696935,241.86739107359972 91.54116324811184,241.94955288790152 91.4349536386726,242.07279538573857 91.37426243326627,241.92079626646228 90.94942399550928,241.72771571558042 90.88114638943807,241.5058776738224 90.71045237426006,241.38674207032818 90.64976116886828,241.24706552620046 90.42975554931036,241.3086875734407 89.69008148356806,241.18133526851307 89.24248384378734,241.3004713043556 89.13627423433354,241.6414454693222 88.73798819893273,241.78112104022875 88.35487496487622,242.00706608694964 88.11211014330911,242.38090045638455 87.95279572915751,242.52057420262645 87.84658611970372,242.54522247501882 87.73658330991748,242.51646615619393 87.80865411633567,242.49181787128327 87.75554931160877,242.47538567538504 87.78210171396495,242.53700638541704 87.83141331835941,242.49181787128327 87.8010677156708,242.54933051937405 87.52795729138597,242.54522247501882 87.34967687552853,242.64792349443087 87.05380724923452,242.59862702836836 86.6213824107981,242.61916722778187 86.08654116324033,242.79581263505315 85.82101713964948,242.75884038611912 85.22548468671448,242.9683494774581 84.84616465299041,243.19839778265668 84.47822422029276,243.29288163717501 84.03441978084447,243.19428978540236 83.8485529643076,243.3339615247387 83.57164933970489,243.3873653340088 83.52233773532498,243.46541696462737 83.66647934813227,243.70778713168693 83.66268614779983,243.8474576041517 83.94338297274953,244.20484812656287 83.86372576566646,244.28289863015016 83.60578814275505,244.1596609437147 83.26440011238446,243.85567350357087 82.68024726047588,243.99123567176866 82.33506602978741,243.77351445577006 81.67125597079576,243.66259955211353 81.58401236303325,243.85567350357087 81.2881427367247,243.9255086004523 81.01123911210743,243.63384380088246 80.70019668446912,243.56811631464734 80.42708626019885,243.61330396962876 79.69879179545387,243.47363291948568 79.59258218601462,243.3010976170808 79.4408541725279,243.19428978540236 79.4067153694923,243.08337374691473 79.32705816242378,243.05050969378135 79.40292216915987,242.97656550446118 79.3574037651124,242.91494527291434 79.36119696543028,242.7177600812065 79.42188817085116,242.6807877812971 79.36878336610971,242.61095114891214 79.22843495363486,242.75884038611912 79.01980893510336,242.77527249974082 78.61772969935555,243.075157735424 78.40531048049161,243.07104972922025 78.31427367238211,243.1573177967257 78.2649620680022,243.32985353732875 78.16633885924239,243.37914936662855 78.05633604945615,243.3339615247387 78.05254284910916,243.21893776444995 77.70736161843524,243.11623778097783 77.3204551840463,242.84921695198864 77.15734756954771,242.8410009065119 77.05872436077334,242.73830023738628 76.93734194998979,242.73830023738628 76.70595672942,242.46306152532998 76.18628828323563,242.26176669459528 75.96248946334526,241.9166881764977 75.76144984546409,242.02760650101482 75.40109581343131,241.96187714975895 75.16971059286152,241.68663466233193 75.00660297836293,241.6496616889126 74.43382972745167,241.9084719956627 74.07347569541889,241.7852291400377 73.98623208765639,241.6414454693222 73.84209047486365,241.6414454693222 73.69036246137694,241.49766143335364 73.50449564485461,241.57160755461882 73.45139084012771,241.5058776738224 73.26173082327296,241.59625624022738 73.0,241.55928320778185" stroke="#ffd200" stroke-linecap="round" stroke-linejoin="round" stroke-width="0.5"><title>2024-11-09 21.0km</title><desc>1731113022000</desc></polyline><polyline fill="none" points="187.0,244.56666108972422 186.8034810126701,244.40936082487315 186.48734177215374,244.71470822062838 185.33386075953604,245.20511311438167 185.28259493672522,244.86275517968897 184.8724683544424,244.14102463124436 184.94936708861496,244.23355441696913 185.25696202533436,243.57659148477978 185.56455696205376,243.52107333546883 185.76107594935456,243.28974745315645 185.54746835445985,242.77157595424796 184.2914556962205,242.0498335725497 184.03512658228283,242.1053523622977 184.2401898734679,241.8555176180962 184.01803797471803,242.07759297044686 185.02626582275843,240.7914011889152 185.8806962025119,241.1892892408141 186.1712025316374,241.2448084051939 186.29082278482383,241.14302325206518 186.32500000001164,240.23620648372162 186.0088607594953,239.33863659786584 184.940822784818,238.39479340852995 185.0689873417723,238.14495139492647 185.85506329115015,237.73780039793928 186.81202531646704,236.48857899805444 186.75221518988837,236.29425456919853 185.32531645570998,235.9241119806029 184.3854430380161,236.18321190545248 183.48829113924876,235.64650433400675 183.0268987341551,235.62799713607092 182.51424050633796,235.69277231707383 181.15569620253518,236.2387332494036 180.11329113924876,236.41455067912466 179.35284810126177,236.3775365035399 179.06234177213628,236.82170590138412 178.7547468354751,236.98826902668225 177.6696202531457,236.3775365035399 177.01170886078035,235.8038154079477 176.64430379748228,234.97098986904894 176.08892405065126,234.59158976434264 176.18291139238863,234.04562177868502 176.00348101268173,233.86054735462676 175.38829113924294,233.9438308786921 174.72183544305153,234.44353088063508 174.67911392406677,234.61935078589886 174.95253164556925,235.31337436022295 174.85854430380277,235.73904028336983 174.59367088609724,235.87784408148582 173.4658227848122,235.19307721133373 172.20981012657285,234.81367776751722 171.34683544305153,235.20233084219217 171.12468354430166,235.11904814022273 170.4155063290964,234.39726244421036 168.41613924049307,234.0733829191231 167.47626582279918,233.41636764071154 167.00632911390858,232.3614346177419 166.43386075951275,232.08381921340333 165.58797468355624,232.20411929616967 164.93860759492964,232.04680378048215 164.39177215192467,232.16710389817308 164.2208860759565,232.5835265059286 164.0072784810327,232.7130799286897 163.47753164556343,232.52800357015803 163.33227848101524,232.56501886334445 163.29810126582743,232.76860278383538 162.96487341771717,232.89815601854207 162.16170886074542,232.60203414579155 161.88829113921383,232.65755704932963 161.01677215189557,233.5459202171478 160.3246835443133,233.81427870663174 160.3075949366903,234.18442742039042 159.43607594937203,235.26710623944382 158.76962025318062,235.64650433400675 158.5389240506338,235.94261913555238 158.11170886075706,235.4984466753449 157.4537974683626,235.26710623944382 157.31708860758226,234.7766631271952 156.86424050631467,234.43427719469037 156.81297468356206,234.14741259739094 156.20632911394932,234.2214422326797 154.5487341772241,233.95308460023807 153.95063291140832,234.16592001022946 153.5917721519072,234.12890518185304 153.34398734176648,234.68412647935475 153.34398734176648,234.98949716232164 151.66930379747646,235.69277231707383 151.05411392403767,236.64588903311233 150.61835443036398,236.9605085209041 149.86645569620305,236.9605085209041 149.2427215189673,237.24736678908812 148.66170886077452,237.11781797368894 147.64493670884985,237.16408542286808 146.5170886075939,237.54347787288862 145.8848101265903,237.50646402502753 144.7484177215083,237.84884170786245 143.72310126581579,238.5058341463373 142.93702531643794,238.6909018278311 142.46708860760555,238.56135447899578 142.28765822784044,238.66314169272664 141.9544303797593,238.4410603943761 141.94588607593323,238.60762140439329 141.80063291138504,238.34852640590543 141.8262658227759,238.57060786541842 141.54430379747646,238.7556754528705 140.77531645572162,238.9314894121926 140.68132911389694,239.0795430846556 140.96329113922548,239.54220970322785 141.0658227847889,240.06964760085248 141.58702531646122,240.8099076374565 141.52721518985345,240.9394527020777 140.92911392403767,240.75438828374172 140.19430379744153,240.01412792488554 139.68164556959528,239.96786150978005 139.2287974683568,240.21769995193608 138.7417721519014,240.2824728014748 138.40854430379113,239.98636807782896 137.7848101265845,239.727275880643 136.48607594933128,239.59772958466056 136.5031645569834,239.90308850043948 137.28069620253518,239.90308850043948 137.9984177215083,240.32873910244234 138.57088607596233,241.01347839421942 139.4594936708745,240.8746801862144 139.74145569620305,240.94870591595827 141.04018987339805,242.02207416859892 141.27943037974183,242.52174251508404 142.0227848101058,243.43779606618045 142.0227848101058,243.60435055038397 141.61265822785208,243.80791684688302 141.2281645569601,243.65061564630014 141.12563291139668,243.50256728031673 141.1768987341784,242.81784135225462 140.91202531644376,242.54950181028835 140.13449367086287,242.23489611106925 139.81835443037562,241.7907455674722 139.49367088609142,241.66120136756945 138.53670886074542,242.012821032622 138.15221518988255,242.02207416859892 137.55411392403767,241.901783348374 136.93892405062797,241.5131506922553 136.43481012654956,242.00356789594662 136.04177215188975,241.9387959205269 135.5974683544191,242.2256429905101 134.34999999997672,242.160871127875 133.88860759494128,241.95730220257974 133.98259493667865,242.1053523622977 135.46075949366787,242.93813130846684 136.07594936707756,243.09543338775256 136.12721518985927,243.2157230821831 134.21329113922548,242.99364971155592 133.69208860758226,243.09543338775256 133.11962025315734,242.99364971155592 133.0,243.04916809045972 133.07689873417257,243.19721698274225 133.55537974686013,243.37302481909865 134.35854430380277,243.41928999892116 136.20411392406095,245.3901710748687 137.1525316455518,245.6029873974985 138.4683544303698,246.16741157714569 138.62215189871495,246.52827162910398 138.53670886074542,247.13895554535702 138.22911392405513,247.95319621951057" stroke="#4dd2ff" stroke-linecap="round" stroke-linejoin="round" stroke-width="0.5"><title>2024-10-27 13.8km</title><desc>1729977789000</desc></polyline></svg>