<?xml version="1.0" encoding="utf-8" ?>
<svg baseProfile="full" height="300mm" version="1.1" viewBox="0,0,200,300" width="200mm" xmlns="http://www.w3.org/2000/svg" xmlns:ev="http://www.w3.org/2001/xml-events" xmlns:xlink="http://www.w3.org/1999/xlink"><defs /><rect fill="#222222" height="300" width="200" x="0" y="0" /><text fill="#FFFFFF" style="font-size:12px; font-family:Arial; font-weight:bold;" x="10" y="20">Over 10km Runs</text><text fill="#FFFFFF" style="font-size:4px; font-family:Arial" x="10" y="280">ATHLETE</text><text fill="#FFFFFF" style="font-size:9px; font-family:Arial" x="10" y="290">Zayn</text><text fill="#FFFFFF" style="font-size:4px; font-family:Arial" x="65" y="280">SPECIAL TRACKS</text><rect fill="yellow" height="2.6" width="2.6" x="65" y="283" /><text fill="#FFFFFF" style="font-size:3px; font-family:Arial" x="70" y="285.5">Over 20.0 km</text><rect fill="red" height="2.6" width="2.6" x="65" y="287" /><text fill="#FFFFFF" style="font-size:3px; font-family:Arial" x="70" y="289.5">Over 40.0 km</text><text fill="#FFFFFF" style="font-size:4px; font-family:Arial" x="120" y="280">STATISTICS</text><text fill="#FFFFFF" style="font-size:3px; font-family:Arial" x="120" y="285">Number: 8</text><text fill="#FFFFFF" style="font-size:3px; font-family:Arial" x="120" y="290">Weekly: 1.6</text><text fill="#FFFFFF" style="font-size:3px; font-family:Arial" x="141" y="285">Total: 219.4 km</text><text fill="#FFFFFF" style="font-size:3px; font-family:Arial" x="141" y="290">Avg: 27.4 km</text><text fill="#FFFFFF" style="font-size:3px; font-family:Arial" x="167" y="285">Min: 10.2 km</text><text fill="#FFFFFF" style="font-size:3px; font-family:Arial" x="167" y="290">Max: 55.1 km</text><polyline fill="none" points="58.85804880573414,34.72512948955409 57.751218017656356,34.01691987350932 56.812088864156976,33.0 56.459915431565605,33.03631863804185 52.04936244280543,37.412675970452256 42.5406797635369,45.87462726574449 36.82205402519321,51.37655816024926 36.20155797735788,52.26629801375384 34.74255375674693,53.33761323738145 35.54752160265343,54.463397181534674 32.78044463240076,56.93284102350299 32.176718747999985,56.769422697558184 30.85187583504012,55.33496837473649 28.839456220390275,54.57234374647669 25.971758269472048,52.95629817426379 23.858717674098443,53.08340325974859 22.98666917445371,51.558137978761806 21.72890691529028,50.722869724268094 21.141951194324065,49.99654723989079 21.79598756902851,50.795501856919145 23.08729015517747,51.48550606715435 23.741326529940125,52.919982423685724 24.14381045283517,53.24682398927689 25.85436712531373,53.028929659572896 31.707154171250295,56.11574832815677 35.245658660365734,61.490353635977954 36.62081206374569,61.690083368928754 38.01273563050199,63.23344412121514 39.10279625520343,63.76000032138836 36.72143304446945,66.0477833829209 37.107146803929936,69.60651553489151 36.98975565977162,72.00318423156568 37.19099762116093,72.63866072503151 39.18664707249263,74.4906116049533 40.176086716295686,75.743394149511 39.74006246647332,76.07020595780341 38.8177034764085,75.97942494266317 37.84503399604,76.26992407538637 37.97919530363288,78.26709650209523 37.81149366911268,78.52128094254294 36.436340265732724,78.99333707698679 35.88292487175204,78.61206103747827 35.3462796411477,78.82993313104089 34.75932392018149,80.55474719066115 32.00901711353799,84.80318595995777 30.231379787204787,87.0 33.11584790161578,83.24180229868216 34.82640457403613,80.53659131500171 35.41336029494414,78.86624512824346 35.86615470825927,78.61206103747827 36.55373140994925,79.01149306437583 37.86180415941635,78.4849688954273 38.029505794052966,78.17631628233357 37.89534448640188,76.32439262530534 38.76739298598841,76.01573735267448 39.807143120327964,76.10651835464523 40.25993753358489,75.68892547336873 39.47173985122936,74.65401837877289 37.54317105381051,72.9291637284623 37.006525823206175,71.87608873959107 37.1239169674227,68.95287464118155 36.788513698324095,65.79358629605849 39.08602609176887,63.63290065023466 38.01273563050199,63.160815593015286 36.637582227180246,61.635611639372655 35.178578006569296,61.36325281388417 32.71336397860432,57.441252911725314 32.74690430553164,57.04178651490656 35.54752160265343,54.37260834123299 34.75932392018149,53.24682398927689 35.58106192952255,52.81103514046117 36.67112255410757,51.77603358730266 36.92267500597518,51.140504199502175 43.613970224687364,44.966706264560344" stroke="#4dd2ff" stroke-linecap="round" stroke-linejoin="round" stroke-width="0.5"><title>2025-04-07 10.2km</title><desc>1744033163000</desc></polyline><polyline fill="none" points="171.37590694334358,33.3852310107759 169.0380437145359,35.7883255045308 168.5128715399187,36.008455156872515 167.75052483484615,37.03572433600493 167.1575885086786,37.017380280114594 166.39524180360604,38.00795739682508 166.20889038679888,38.64999604965851 164.3284351809998,40.24591364452499 163.80326300638262,41.199790620201384 162.17692336894106,42.337100777222076 161.51622289116494,42.282069758250145 160.85552241350524,43.5294365833397 159.7712959885248,44.51998821228335 159.05977239710046,44.77679726101633 156.51861671358347,47.43658994186262 150.19960958050797,52.93952055378759 150.0471402394469,53.12294951402873 150.31819684564834,53.28803546457493 149.91161193628795,53.50814989786886 150.72478175506694,54.64540475446847 147.84480531373993,57.32343633437995 147.91256946523208,57.800343096329016 150.45372514880728,61.78064526678645 151.84289025585167,61.96406782179838 153.24899640074,63.578180576703744 154.282399712014,64.00004925980465 151.9445364831481,66.1827499166393 152.30029827886028,68.78729246818693 152.24947516515385,72.54732425598195 152.50359073356958,73.20761675894028 154.53651528042974,74.95004704357416 155.3835671748384,76.10554683250666 154.99392330338014,76.47237106005196 153.96051999216434,76.41734745977737 153.07958602183498,76.69246534150443 153.11346809758106,78.94842070058803 151.72430299059488,79.40694575573434 151.0805435507791,79.0034437510185 150.64007656561444,79.1685128306126 149.89467089844402,81.14933339589334 147.23492794967024,85.2943337210163 145.72717557736905,87.0 147.13328172225738,85.45939870153961 150.06408127734903,80.85587947469321 150.64007656561444,79.13183082222531 151.18218977807555,78.98510273550346 151.65653883910272,79.44362772426393 152.9609987565782,78.8567155899218 153.19817328703357,78.2698020957323 153.09652705973713,76.71080652299861 154.06216621946078,76.36232384757022 155.06168745498871,76.47237106005196 155.45133132650517,76.08720560725487 155.06168745498871,75.3902380609361 152.53747280931566,73.11590956976579 152.23253412730992,72.52898277297209 152.24947516515385,68.32874818716664 151.96147752105026,66.20109185922774 154.3162817878183,63.83497029355203 153.24899640074,63.431443478679284 151.9445364831481,61.92738332142471 150.43678411096334,61.688933939440176 147.89562842738815,57.72697288374184 147.86174635158386,57.30509374868416 148.23444918513997,56.7548155595141 150.7925459066173,54.517005268426146 147.70927701052278,57.23172339258599 144.8801236829022,55.03060282187653 141.10227223334368,53.15963529009605 139.1032297622296,53.39809270511614 138.12064956466202,52.05905969458399 136.799248609168,51.16025274223648 137.73100569320377,51.74722907265823 139.28958117909497,53.48980703575944 140.81427458918188,53.58152133312251 143.05049159069313,54.168492049517226 143.99918971257284,54.79214694451366 144.86318264500005,54.993917316853185 145.60858831222868,55.74596910639957 147.06551757076522,55.947738718634355 149.45420391327934,53.70992129361548 150.65701760345837,53.10460662395053 150.75866383081302,52.93952055378759 150.36901995935477,52.79277728989837 151.09748458862305,52.077402660404914 171.93496119376505,33.0 176.11939755268395,35.6048839813011 178.3217324783909,37.43929322979238 179.1349022971699,37.65942144604924 180.52406740415609,36.485402080070344 181.59135279123439,37.402605175127974 181.77770420809975,37.9529254364752 180.93065231351648,38.50324450114567 178.69443531200523,40.77788393975061 179.20266644872027,41.41991556556604 180.10054145689355,40.83291528579139 180.76124193466967,41.548321695270715 181.03229854087112,41.548321695270715 183.200751390832,39.51215967832832 180.9814754271647,37.09075649578881 174.5777631046949,43.621154489635956 181.1000626924797,37.10910054635315 180.54100844200002,36.375337485282216 172.88365931564476,43.254282665089704 170.17309325316455,40.300945106195286 170.91849892033497,40.722852581733605 172.34154610312544,39.6589106417523 172.30766402737936,39.20031359849963 171.32508382975357,38.209741148893954 172.7820130882901,37.200820779427886 173.0191876187455,37.586045395204565 172.18907676206436,38.209741148893954 172.9006003534887,38.94349889125442" stroke="#4dd2ff" stroke-linecap="round" stroke-linejoin="round" stroke-width="0.5"><title>2025-04-06 15.4km</title><desc>1743942179000</desc></polyline><polyline fill="none" points="17.001308166683884,98.64128134302882 17.314146888442338,98.59757214743149 18.45449448702857,97.59771737655683 18.54027284620679,97.82719341474876 18.474677630350925,98.30253441418608 19.004485142970225,98.26428869754454 19.342552793881623,98.01842291287176 19.514109512238065,98.1386240633583 19.75630723228096,98.03481399013981 19.816856662306236,98.17686984376633 19.96823023734032,98.16047879739199 20.008596524014138,98.35170744991774 19.99345916652237,99.1220808217331 20.316389459912898,99.56463217681448 20.765464399184566,99.61926796639455 21.20949355259654,100.26396729292901 21.376004485151498,99.89790987728338 21.562698560999706,99.69575800527673 22.511306297878036,99.17671693208104 23.41954774808255,98.53747196209588 24.383292842452647,98.06759613395843 24.716314707504353,98.05120506384264 24.933283498394303,97.93646747308958 25.261259577644523,97.94193117185205 25.347037936822744,98.06759613395843 25.422724724339787,98.9964176176436 25.48831994019565,101.22007902386395 26.078676882811124,101.2747136136677 27.673145206499612,101.23100594498828 27.844701924885157,101.30749434854079 27.57727527563111,103.1431927546073 27.521771631465526,106.64510058916494 27.420855914766435,106.7652879873931 26.941506260511233,106.79806633549742 26.11399738365435,107.01658829211374 26.270416744519025,108.56261305091175 26.149317884497577,110.69312528640876 25.39245000932715,113.77406734090619 25.09979443094926,115.66954897543474 24.837413567554904,116.4943690580476 27.249299196409993,118.32423573793494 27.244253410579404,119.23642136611306 26.98187254718505,120.38892756759742 26.285554102039896,122.09853706449212 25.876845449442044,123.32200380511495 25.6094188002171,123.81356968150067 24.181461409083568,127.92075063026277 23.75761539899395,128.82735889025207 22.80396187628503,130.1817895174172 22.29433750701719,131.12659973263362 20.124649598204996,135.85593458840594 19.912726593145635,136.6040817001558 19.84208559145918,138.02390257525258 19.478789011365734,138.3570105341787 18.918706783792004,138.63550950453646 17.99532797606662,139.52560717824235 16.875163520831848,140.0935167829739 16.486638011585455,140.1044380797248 16.178845075686695,140.77609479851526 15.280695197143359,141.8682068083508 14.579330966167618,143.51726605738804 13.0,143.0749722377077 13.933470379357459,143.353453833166 14.473369463637937,143.59917203647638 14.362362175277667,143.7247610321283 14.478415249468526,143.82304792675131 14.241263315285323,144.11244748591707 14.443094748654403,143.8667309500379 14.544010465353495,143.6319344032745 14.503644178650575,143.51726605738804 14.629788824531715,143.4298995819554 14.841711829561973,142.88385682398803 15.1646421229525,142.9821448113653 15.18987105213455,142.76918734396895 15.1646421229525,142.95484260546073 15.300878340494819,143.0640513699327 15.60362549056299,142.93846127719007 15.845823210605886,142.22313981582556 16.920575593336252,141.39314002220635 17.06690338253975,141.16925693896337 18.0054195477569,140.51944618747802 18.308166697825072,140.7870159966842 20.074191739870002,143.2387850650921 21.285180340113584,142.40333593595278 22.06727714446606,142.67089907985792 22.37002429450513,142.38149400485418 22.299383292818675,142.15215334758977 22.037002429453423,141.99379867835523 21.890674640249927,141.78629895468475 21.11866940758773,141.34945557021274 21.053074191731866,141.2129414950614 21.159035694261547,140.77609479851526 21.643431134376442,140.56313111894997 21.78975892357994,140.30102115152113 21.83517099605524,139.5747533703252 21.62829377685557,139.37816841035965 21.931040926923743,138.72834226668783 21.8553541394067,138.13311846119905 22.284245935326908,137.9310689481572 22.541581012890674,137.62526325265935 23.015884881315287,137.33037801763567 23.33881517473492,137.34676056086755 23.873668473184807,137.70717561381025 24.221827695757383,137.78362707082124 24.524574845825555,137.71809725525964 24.74658942251699,137.57611579335935 25.114931788441027,137.58703745374078 25.19566436178866,137.52150746777625 25.291534292628057,137.253926102283 25.185572790156584,137.0081872792798 25.029153429262806,136.89350888851914 25.04933657258516,136.66415158509335 24.953466641745763,136.52216814377607 24.76677256586845,134.9985598151543 24.832367781724315,134.80196295511269 25.8970285927644,134.8128850163048 26.457110820396338,135.26068816646875 26.89104840217624,135.24430517114524 27.229116053058533,134.85657324529893 27.864885068207514,135.1350851115567 27.844701924885157,135.59926927486958 28.929545879276702,135.88870031038823 28.929545879276702,136.2491223147881 29.126331526815193,136.2491223147881 29.217155671824003,136.38018443579494 28.969912165950518,136.9699611683609 28.80340123339556,137.1829349687905 28.369463651644764,137.4832816164053 28.243319005792728,137.79454870121845 28.303868435818003,137.99113777869934 30.453373201278737,138.49352976548107 30.962997570546577,138.65189176496642 31.084096430568025,138.76656748855748 31.583629228174686,138.79387120663887 31.639132872369373,138.6846562751598 31.896467949904036,138.5863627019644 31.795552233234048,138.08943212575105 31.982246309082257,137.60888076977426 32.04279573910753,137.18839582758665 32.17903195662075,137.090100309033 32.643244253413286,137.1993175439784 32.734068398422096,136.4948636052577 33.531302560237236,136.22727860586747 33.778546066139825,136.21635674904246 34.12165950288181,136.58769899597974 34.939076808077516,137.07371771017642 35.872547187434975,136.08529434400407 35.81704354326939,135.90508316604974 35.256961315637454,135.28253215470613 35.428518034023,135.44090088069788 35.49411324984976,135.09685805341724 35.867501401604386,134.61082662871922 36.03401233415934,134.26131895332946 36.33171369836782,134.20124715885322 36.710147635953035,134.43061193541507 37.108764716860605,134.5452940626783 37.57297701362404,134.51798881007562 38.13810502708657,134.359618150389 39.11194169311784,133.67698219866725 39.15230797982076,133.56775987422589 40.32293029339053,132.82504388194502 40.18669407587731,132.2079287187662 40.42889179592021,131.53073459889129 40.464212296763435,131.01737372209027 40.08073257334763,130.01794839373179 40.00504578583059,129.38988746162795 40.156419360864675,128.67989925148868 40.80732573350542,127.63675062416587 41.02429452439537,126.81205224698351 40.857783591840416,126.11842478668405 40.49448701174697,125.15716675257863 40.6256774434587,124.33790308970492 40.570173799293116,124.00473332490219 40.71145580263692,123.73710408865009 41.13025602689595,123.59509635367431 41.256400672747986,123.46401205362054 41.4430947486253,122.75396814066335 41.29172117362032,122.14223264656903 41.084843954391545,121.83090107260068 40.72659316015779,121.50318223955401 40.62063165762811,121.14268988036201 40.69631844514515,120.70572713749425 41.105027097743005,120.21414102897688 41.301812745281495,119.7607865585669 41.256400672747986,119.39482373525243 40.93347037938656,118.79944759023783 40.978882451861864,118.60280856589088 41.42291160530294,118.17675558932388 41.523827322002035,117.9036434421505 41.47336946366704,117.4939733686333 41.16053074190859,116.7401746241012 41.190805456921225,116.29226165961882 41.41282003361266,115.96998117501062 41.87198654457461,115.83888363498409 42.39170248550363,116.01368030442245 42.62885441974504,116.01914269381814 43.00728835733025,115.63131206424441 43.178845075686695,115.6039999729619 43.991216595022706,115.74602273970231 45.141655765270116,116.34688533418375 45.363670341990655,116.14477754083782 45.64118856287678,116.12292801723379 45.898523640440544,116.42882077190734 47.68977761166752,115.99729313385615 49.319566436170135,115.98636835149955 49.58699308539508,116.07376656604174 49.90487759298412,116.33049823596957 50.157166884688195,116.39604660748591 50.40945617642137,116.33596060243144 50.908988974028034,115.98090595973918 53.113997383683454,115.95359399496374 53.573163894587196,116.05191702189768 54.09287983554532,116.47251963566669 54.420855914766435,116.62000311403972 55.122220145742176,116.70193825528986 55.57634087087354,116.5708419865914 56.61072696693009,116.02460508281365 57.024481405329425,115.92628202030755 59.022612595785176,115.75694755683071 59.47673332088743,115.94266920629161 59.83498411512119,115.97544356756407 60.14277705101995,115.80064680959185 60.460661558579886,115.39096532177064 62.01980938142515,114.83925740425911 63.77069706597831,115.4018901902964 65.894972902257,114.18375760610797 65.87983554473612,113.91063100977044 65.15828817040892,112.48489412823983 65.87478975893464,113.94340625352197 65.91515604560846,114.21107021136413 63.84638385346625,115.39096532177064 63.705101850122446,115.44012721772742 63.41749205754604,115.36365314350405 63.75555970845744,115.44012721772742 65.93533918893081,114.21653273123229 65.95552233228227,114.00349416344397 65.17847131376038,112.38110380142462 66.17249112314312,111.93316496384796 67.0,111.79659771609295 66.29863576899515,111.89492615940253 65.18351709959097,112.37564114870474 65.93533918893081,113.98710655639297 65.93533918893081,114.19468264939496 65.86974397307495,114.29847048179363 63.795925995131256,115.42920235473139 63.47299570174073,115.39096532177064 62.02485516725574,114.85018235265306 60.470753130241064,115.42373992262583 60.10745655017672,115.877120441015 59.81984675762942,116.00821791462658 59.49691646420979,115.99183074288158 59.012521024124,115.77333477958018 56.953840403672075,115.95905638871773 56.66623061109567,116.02460508281365 55.44515043919091,116.60907842180313 54.950663427385734,116.70740059487434 54.36030648477026,116.59815372801677 53.92132311718888,116.34142296850041 53.618575967120705,116.06284179475915 53.20986731452285,115.93720681135164 50.95440104653244,115.94266920629161 50.75256961316336,115.99729313385615 50.35395253225579,116.33049823596957 50.066342739679385,116.37419715664146 49.55671837038244,116.05737940852123 49.18837600448751,115.96998117501062 47.61409082412138,115.99729313385615 46.94300130815827,116.11200325307436 45.873294711258495,116.42882077190734 45.79256213791086,116.24310031870846 45.42421977201593,116.14477754083782 45.32330405531684,116.16116467937536 45.141655765270116,116.40150896921114 43.96598766586976,115.75694755683071 43.6581947299419,115.6859362171599 43.07792935901671,115.63677448131784 42.7449074939359,115.96451878205698 42.522892917186255,116.05191702189768 42.28574098300305,116.00275552444509 42.0233601196087,115.88258284029871 41.75593347038375,115.3964277562336 42.07381797794369,109.33288211124454 42.30087834049482,108.6609457093291 41.8770323304052,108.69372323364951 41.71052139785024,108.97233161533222 41.46832367780735,111.63817939904402 40.68118108762428,111.59994044509222 38.96561390394345,111.72011994938657 38.10278452624334,111.66549292570562 37.98168566622189,111.74197074779659 36.917024855152704,111.68188103697321 36.97757428517798,111.3431926809426 36.85142963932594,106.60139603322023 36.67482713510981,106.62324831435399 36.68996449263068,106.0277713889518 36.291347411694005,105.94036153629713 36.291347411694005,105.78193092011497 36.37207998504164,105.71637332639511 36.291347411694005,105.83656220466219 35.95327976078261,105.91304593655514 35.91291347410879,105.8474884568277 36.377125770872226,105.62896311281656 36.397308914223686,105.72729959598655 36.25602691085078,105.89119344964274 35.983554475795245,105.83109907799371 36.70005606429186,104.95153052231763 36.715193421783624,104.02278240279702 36.57391141843982,103.92990696170455 36.70005606429186,103.17597267710516 36.60923191925394,102.53129825193173 36.57895720427041,99.71761228784453 36.47299570174073,99.23681660772854 36.50327041675337,98.14955143116822 36.4376752008684,98.06759613395843 36.24088955335901,98.05120506384264 36.467949915881036,98.07852351207111 36.52849934590631,98.00749552604248 36.5335451317369,97.55947130226559 36.200523266685195,97.61957226743107 35.17118295645923,97.52668893741793 31.795552233234048,97.57039875404007 31.35152307979297,97.24257451149606 30.93776864139363,96.68527002659539 30.655204634647816,96.61424072752561 30.751074565487215,95.92579943685269 30.629975705465768,96.72351654451631 29.873107830324443,97.40648681101447 29.635955896083033,97.52122520856938 26.58325546627748,97.43926922812534 25.740609231899725,97.30267572938465 24.58007849002024,97.4829790954609 23.520463464781642,97.92007637443749 21.683797421021154,99.0838355209271 20.49803774995962,99.63565869554441 20.265931601577904,99.55916859568242 19.95309287981945,98.98002674950112 19.99345916652237,98.43912610091502 19.927863950666506,98.11130563689949 19.66548308727215,97.72338291259075 19.170996075496078,97.36824063967651 18.933844141254667,97.05134304483363 18.80769949540263,97.0895893769848 18.656325920368545,97.01856045897875 18.146701551100705,96.5049647520791 17.934778546070447,96.70166139380308 18.020556905248668,96.85464731577667 17.122407026734436,95.88755251408293 15.664174920559162,97.26989325283648 15.593533918901812,97.49937028915883 15.684358063910622,97.65781831122149 15.27564941131277,98.17140616203687 15.49261820220272,98.47737172884808 15.376565128011862,98.837972409543 15.427022986346856,99.04559020072338" stroke="red" stroke-linecap="round" stroke-linejoin="round" stroke-width="0.5"><title>2025-04-06 55.1km</title><desc>1743890633000</desc></polyline><polyline fill="none" points="164.1242752768303,146.1165940349092 164.22676720717573,146.21869688321385 164.25956462489557,145.992294685464 164.01358399208402,145.82360230763516 164.07917882748006,145.72149880055076 161.8653531321761,143.9102430715393 163.05015984686906,142.74266501931925 162.36141407499963,141.98794492321758 162.04573892954795,141.79704365969155 161.81615700561088,141.75708750592457 161.80795765116636,141.44631653080432 162.2794205307291,140.96239858529952 162.46390600534505,140.95351932118865 162.29991891680402,140.696020101881 161.32419573997322,139.68821101561844 161.15200929700222,139.4129474986912 163.00506339753338,137.68142279141102 163.0870569418039,137.59706520783948 163.04196049245365,137.47718844164046 163.1198543595092,137.3795109029379 162.95586727096816,137.1086769118483 162.1933273092436,136.33612746473955 161.80385797396593,135.82552908491925 162.4516069737001,135.08848390792627 163.1936485493643,134.50239345290902 164.18987011227,133.53444389051947 164.70232976395346,133.29911438857016 165.96503034573107,132.93057768882136 166.36679871263914,132.6641642337927 166.51438709234935,132.42883138318575 166.98175029469712,132.03364776675153 167.05554448453768,132.08693109992964 167.21953157309326,132.02032692619468 167.76478864249657,132.10025192596368 169.46615468610253,132.13577411456208 169.6998362872837,132.251221085 169.60554371136823,132.02476720669802 171.1347233120323,130.5949802210598 170.84774590708548,129.85787200663617 170.81904816659517,129.36942190903574 171.5405913561699,126.3542662728687 171.8808645648969,125.4350360764256 172.98367773534846,123.62762044422925 173.23785772258998,122.76164069513106 173.30345255801512,118.84903558924998 173.52893480475177,118.76465201472092 173.61912770345225,118.46264668747244 173.58633028574695,118.3427323933538 173.66012447557296,117.82754237698464 173.58223060853197,118.61364953776138 173.52893480475177,118.76021077072801 173.5207354503218,118.5736782313652 173.6847225388774,108.96204005313484 173.7790151147783,108.30018486989866 173.70112124773732,108.19357665230564 173.79541382363823,107.64276456073276 173.79131414642325,107.02531606299817 173.8036131780682,106.97645296542396 173.86510833627835,107.04308445241986 173.7380183426576,106.66106293958364 173.79541382363823,106.25238611476743 173.78721446920827,104.98191676168426 173.7257193109981,104.87086049073332 173.5412338363967,104.78201532839375 172.23753648248385,104.35999904005439 171.98335649524233,104.21340322503602 171.79067166619643,103.93353750886308 171.52009297010954,102.39203189656473 171.54879071059986,102.95177619187598 171.26591298285348,103.01396968534027 171.17981976138253,102.88958263499444 171.19211879302748,102.75186810475134 170.92563977412647,102.5741714771757 170.02781046436576,101.40580325646079 169.57274629366293,100.68611283068822 169.54404855317262,100.15300333491905 169.73263370500354,97.66509738290915 170.65506107803958,93.0533174161319 170.5320707616338,93.0 167.81808444624767,93.12885034242936 167.1170396427333,93.35989165342471 165.88713647867553,93.90638972914894 165.11639716250647,94.01746597446254 164.2964617198013,93.91083278284714 161.959645708077,93.08886233428711 161.06591607551672,93.11552100929839 160.36077159478737,93.31546070011609 159.74991968997347,93.69312277054269 159.64332808241306,93.68867970097563 159.47114163944207,93.85307305946844 158.91358553839382,94.1907445128636 157.88456655778282,94.65726120567706 156.6341650076647,94.9193975897033 154.96149670451996,95.1326602567242 153.83818514800805,95.38146575837891 152.91575777495746,95.51031106537266 152.89935906609753,95.42145226210778 147.8485567389871,102.07661816541076 148.2544247831247,103.1383564820062 148.3282189729798,103.81803699768352 148.38561445396044,106.51891478928883 148.29132187804498,108.21578671300449 148.38561445396044,109.21523107719986 148.553701219731,109.5750270411445 148.46760799823096,109.91261144876626 148.52500347922614,110.95200434637081 148.11913543508854,112.35560085218094 148.1355341439339,112.97743708838243 147.97564673260786,113.80802275154201 147.49188482141471,115.37144746373451 146.82773711280606,116.6239349707248 146.13489166372165,117.3256720615027 146.18408779028687,117.29458261427135 146.33167616996798,117.47223638529613 146.5284606762143,118.17396372869916 146.7334445368906,118.5870020030743 147.27870160630846,120.4656247183193 150.8085236871848,124.28486867729953 151.21849140855193,124.64013504929608 152.15731749043334,125.7370069411736 151.0094078706461,126.79833387909457 151.04220528836595,126.9271128814471 150.97251077572582,127.01148518415721 152.16551684487786,128.9031704483168 152.3705007055396,129.12075490581265 153.64550031896215,131.02569596816102 153.74799224929302,131.29655689446008 153.76849063536793,131.6207003604395 154.34244544526155,132.1313338421205 154.5433296287374,132.41995088053955 155.09678605257068,132.94833854455646 155.8429273054353,133.79197325129644 156.15860245088697,134.3159089486544 156.7325572607806,133.80085355474512 156.41278243811394,134.08946271487366 156.29389179892314,134.26706767502765 156.30619083055353,134.37363040358832 156.59316823552945,134.53347414834207 157.45820012758486,135.2882861886792 158.5733123296668,136.7534829752367 160.2869774049468,138.6226679409774 160.5042602972535,138.77362100458413 160.6969451262994,139.08440555125344 161.76286120181612,140.15881996710232 163.52162272644637,142.12113149866855 163.18954887213476,142.48517332640404 163.47652627709613,142.74266501931925 163.29614047969517,142.99127666064305 165.51406585224322,144.75816602678242 164.3825549412868,145.92570564446578 164.33335881473613,146.04112660283135 164.40715300457668,146.22757538371297 164.0627801186347,146.65374189406066 164.18987011227,146.7691614802461 164.20626882110082,147.0" stroke="#ff8700" stroke-linecap="round" stroke-linejoin="round" stroke-width="0.5"><title>2025-04-05 38.6km</title><desc>1743839508000</desc></polyline><polyline fill="none" points="60.66294586547883,188.59844088130922 59.34658684753231,189.88336370730394 59.05478312433115,190.0518769121918 58.91860805352917,190.29060345069593 58.4452375692199,190.59252146580548 57.52443470939761,191.50529113836092 55.579076554771746,193.1974029388657 55.16406681513763,193.61164987297525 55.30024188593961,193.68186104222696 54.87874761913554,193.8924942447411 53.82825421565212,194.88246416384936 55.2029739782447,197.00279124140798 55.767127843078924,197.08002082228631 56.26643643609714,197.67679278139258 56.67496164856129,197.85231324656343 55.780096897418844,198.72289005583298 55.92275649541989,199.8813067503579 55.8708802779729,201.0818330809998 55.981117240095045,201.32755301169527 57.115909496933455,202.4508361922999 56.921373681456316,202.6403889456269 56.480425833084155,202.62634801364766 56.18213758271304,202.8018595172689 56.221044745791005,203.55304516285833 55.65040635378682,203.75663653165975 55.48829317424679,203.6232491314222 55.26781925006071,203.70047343814076 55.0019536355685,204.36038773248583 53.91255306900712,206.07333579271653 53.303007513895864,206.7332339388813 53.28355393232778,207.0 53.354883731371956,206.69111291477748 53.98388286799309,206.00313359800202 55.03437627150561,204.33230636464577 55.248365668492625,203.72855498896388 55.48180864704773,203.616228736857 55.773612370248884,203.8127995926625 55.734705207141815,203.71451421456004 56.23401380018913,203.54602476320724 56.22752927299007,202.7386754125764 56.61660090391524,202.59826614358462 56.99918800764135,202.61932754690497 57.1418476056715,202.471897627649 55.948694604157936,201.27840907536302 55.8708802779729,201.01864785530051 55.90978744105087,199.71983131422166 55.780096897418844,198.7088485564309 56.67496164856129,197.84529243405996 56.25346738169901,197.6416886502193 55.74118973434088,197.01683298796706 55.2029739782447,196.98874949282617 54.66475822211942,196.03390581595158 54.107088884484256,195.24053589939285 53.58832670992706,194.72098039925913 53.55590407398995,194.57353846613842 52.777760812139604,194.34184354656463 51.571638756315224,193.66079769678618 50.845371711911866,193.79419880719797 50.46926913535572,193.16229718510294 50.01535223261453,192.89549304072716 49.71706398224342,192.35486133774975 49.807847362797474,189.99570587645576 49.24369349796325,190.00272725770628 48.037571442109765,190.32571024497156 46.65636715234723,190.99975822831766 46.13760497779003,191.31571660619375 45.69017260221881,192.0529488143511 44.39326716581127,190.4731586420603 44.09497891544015,190.40294514763082 43.80965971943806,189.96762034638232 43.459495251619956,189.63761475809588 43.43355714288191,189.37782233393955 43.355742816696875,189.60952912420908 43.10284625660279,189.4410151498887 42.532207864598604,188.82312806948175 41.49468351545511,187.44691086212697 41.74109554840834,187.63649296514632 41.52062162422226,187.58734208517126 41.5465597329021,187.39775988596375 41.41038466212922,187.3837167453239 41.105611884529935,186.96242157976667 41.07967377582099,187.0466807594712 40.90459154191194,186.83603267277795 40.89162248754292,186.91327035775612 41.39741560773109,186.07067410179297 41.241786955390126,185.53702601506666 40.612787818710785,184.87698352462758 40.58036518280278,184.40652496123948 40.651694981817855,184.31524169167096 40.49606632941868,184.49780814475525 44.19224682316417,180.24953803849348 44.09497891544015,180.08100777747313 42.590568609244656,178.83808804277214 40.995374922436895,177.63728602577612 42.61002219078364,175.2496822083558 42.57111502767657,175.15839030524512 41.53359067856218,174.37187188110693 41.157488101976924,173.91540736468596 40.236685242154635,173.31146638841165 39.73737664913642,172.72858954680123 38.667429664114024,171.98418751204736 36.974968069640454,173.9294524588331 36.73504056385718,174.09799342959013 36.70261792794918,174.25248906159686 36.32003082422307,174.7159744780729 34.63405375689035,176.55584923981223 34.381157196796266,176.72438563751348 32.863777836202644,178.5782666468076 32.6368193848175,178.66955532485008 31.910552340443246,178.12884420758928 31.11295549708302,177.27212690351735 31.035141170897987,177.06847987168294 29.355648630764335,175.81849904981937 28.73961854845402,175.10221062975324 26.10690051256097,173.47298585588578 26.035570713574998,173.27635342502617 25.925333751481958,173.35360192765074 25.79564320782083,173.07269798619382 24.86187129362952,172.4827970552942 24.634912842244375,172.23700393953914 24.576552097598324,171.87182444338396 24.4468615539663,171.8296882590148 24.025367287133122,171.2959616688313 23.63629565620795,171.15550681376772 22.864636921556666,170.62879929155315 22.242122312105494,169.8703354229874 21.509370740503073,169.21720899450156 21.288896816316992,168.7607201635983 20.93873234849889,168.6062157637789 20.36160942929564,167.9881956972531 20.225434358493658,167.37017168303282 20.335671320586698,166.74512065317685 21.85305068118032,164.35022483306966 21.81414351807325,164.10441105652717 21.96328764327336,163.90073631131236 21.775236354995286,163.14924302371946 21.515855267702136,162.60844517608348 20.2513724672026,160.796399178711 19.82987820036942,159.93250483317388 19.473229205381358,158.45052176136232 19.265724335535197,156.259111803236 19.01931230261107,156.26613563243154 18.67563236199203,154.63659358309087 18.494065600883914,154.425874933273 18.29952978543588,154.41182700695208 17.78076761084958,154.71385697294318 17.35278881684644,154.78409636468132 17.1258303654904,155.0439816703729 16.937779077212326,155.0580295048494 15.958615472714882,153.0 16.892387386935297,155.0299338338882 17.417634088691557,156.65244545299356 17.813190246757586,157.24244292743242 18.565395399869885,158.8157519259039 20.193011722556548,161.76563730738417 21.554762430809205,163.92180613243545 21.554762430809205,164.21678314617748 21.347257560963044,164.65222376053862 19.914177053724416,166.7661898547667 19.855816309107468,167.1173425393281 19.816909146029502,166.97688161845144 19.966053271200508,166.71702837722114 19.92066158092348,167.44742490070348 20.043867597414646,168.05842544908228 20.66638220686582,168.78881184614147 26.75535323075019,174.29462419117772 27.948506232263753,176.2117531834374 30.52934805068071,180.74108295765473 31.09350191554404,181.28880149958422 31.43718185616308,181.80842904723977 31.463119964901125,182.11037350346305 32.62385033047758,183.37431682177703 33.13612797783571,183.7183874240145 34.18013685417827,184.82080948793737 34.96476464319858,187.20817731570423 35.37977438283269,188.14906494150637 35.548372089571785,188.3105596598325 35.86611392151099,189.74995721223968 37.312163483089535,193.70292438308388 37.44833855389152,193.63271322908986 37.422400445182575,193.42910059483256 35.930959193297895,189.02675038362213 35.58727925264975,187.61542830535473 35.49649587209569,186.43580004599062 37.73365774989361,185.71256847336917 39.02407865913119,185.36850495575345 39.25103711048723,185.39659181934258 40.07457206261461,184.9823097555709 42.72025915287668,181.8926927111388 45.4243069877557,184.78570069848502 45.85228578178794,184.71548308136698 46.60449093490024,184.13969670065853 48.45906570891384,182.24379052141012 49.47713647651835,181.387109627889 49.548466275504325,181.2326253814681 52.18118431142648,178.7678661126265 52.40165823561256,178.82404366081755 53.86716137875919,180.47424459688773 54.50264504257939,181.0079205830625 55.00843816276756,181.71012134668126 55.994086294434965,182.52466785308934 57.90702181312372,184.6101565602221 59.02884501562221,185.57213453216536 60.96771864304901,187.77692391334858 61.175223512836965,187.69266536885698 63.11409714029287,185.69150339518092 63.84684871186619,186.154934057231 64.04138452728512,186.52005968379672" stroke="#ff9300" stroke-linecap="round" stroke-linejoin="round" stroke-width="0.5"><title>2025-04-04 35.8km</title><desc>1743763192000</desc></polyline><polyline fill="none" points="140.92797783901915,180.3646122366772 143.02216066466644,173.1568689912092 142.79778393311426,176.80123936507152 143.39612188376486,177.85405526007526 142.34903047094122,178.7448987038224 141.4515235456638,178.9068701628712 142.04986149538308,177.12518282292876 144.59279778366908,178.50194147136062 143.69529085839167,177.44912618712988 142.57340720202774,177.36814035481075 145.19113573385403,175.74842247809283 142.27423822693527,176.4772958132089 144.21883656503633,173.23785512865288 144.29362880904227,176.31532400200376 140.92797783901915,177.5301120133954 143.24653739575297,176.39630991063314 138.83379501337186,178.98785588343162 141.9002770083025,177.12518282292876 142.27423822693527,175.74842247809283 141.75069252075627,176.31532400200376 147.58448753412813,173.23785512865288 145.0415512463078,175.1005346699385 148.0332409972325,173.5617996196961 146.08864265913144,178.58292722149054 138.53462603874505,185.54767976293806 143.54570637084544,179.39278439880582 141.52631578966975,178.7448987038224 143.39612188376486,177.7730694572092 144.59279778366908,177.5301120133954 143.77008310239762,177.12518282292876 143.69529085839167,178.7448987038224 146.53739612177014,175.2625066570472 146.0138504151255,174.7765906249988 143.91966758994386,176.5582817099057 144.89196675876155,175.0195486675948 141.75069252075627,176.88222523831064 142.8725761771202,176.88222523831064 141.52631578966975,177.12518282292876 143.09695290820673,176.9632111057872 150.65096952905878,162.70960803510388 146.08864265913144,173.7237718300894 139.05817174492404,176.23433808767004 141.22714681411162,172.42799348995322 156.26038781134412,165.30118575546658 175.70637119095773,167.3258516668575 180.04432132979855,182.38925085082883 171.36842105304822,190.64973837678554 167.32963988929987,186.35753189201932 175.10803324077278,177.7730694572092 173.98614958440885,177.5301120133954 187.0,174.6146185672842 167.4792243768461,164.7342786428635 166.73130193911493,172.02306245046202 168.52631578966975,166.434999117977 172.26592797785997,176.72025348589523 172.78947368403897,176.80123936507152 172.34072022140026,177.36814035481075 170.24653739621863,178.98785588343162 178.24930747924373,177.5301120133954 174.21052631596103,178.50194147136062 172.78947368403897,177.5301120133954 173.6121883657761,177.04419696738478 173.91135734086856,177.5301120133954 173.91135734086856,177.85405526007526 173.46260387822986,176.9632111057872 175.9307479225099,177.44912618712988 175.18282548477873,177.44912618712988 174.21052631596103,177.9350410568877 172.78947368403897,175.58645056124078 175.33240997232497,174.3716604366782 172.56509695295244,176.9632111057872 172.9390581715852,177.61109783378197 173.91135734086856,177.20616867294302 174.28531855950132,178.2589841861045 174.65927977813408,179.55475576373283 177.80055401707068,177.44912618712988 174.9584487536922,177.20616867294302 174.5096952910535,178.9068701628712 173.91135734086856,178.33996995375492 174.43490304704756,178.50194147136062 172.9390581715852,178.7448987038224 175.4819944598712,176.63926760095637 173.91135734086856,178.2589841861045 166.73130193911493,199.23410188267007 177.05263157887384,182.55122178141028 179.74515235470608,188.3821596467169 178.92243767296895,184.73782704689074 175.25761772878468,177.04419696738478 175.0332409972325,177.36814035481075 176.52908587269485,178.9068701628712 177.1274238228798,179.71672710543498 174.28531855950132,179.06884159822948 175.4819944598712,178.58292722149054 174.5096952910535,177.69208364828955 172.11634349031374,175.18152066646144 174.43490304704756,178.7448987038224 176.90304709179327,179.14982730714837 175.9307479225099,179.39278439880582 171.74238227168098,177.9350410568877 175.70637119095773,180.20264098915504 174.5096952910535,177.7730694572092 172.6398891969584,178.50194147136062 173.98614958440885,178.66391296568327 173.01385041559115,175.18152066646144 170.9944598339498,168.70262239070144 168.9002770083025,179.6357414375525 169.57340720202774,177.5301120133954 168.9002770083025,178.42095571552636 166.5817174515687,183.44206148013473 171.66759002767503,174.29067438148195 172.78947368403897,175.5054645939963 176.15512465359643,179.6357414375525 176.30470914114267,181.90333791810554 173.6121883657761,179.79771276732208 174.88365650968626,166.27302585088182 174.43490304704756,184.5758564331336 173.46260387822986,195.6707891880651 173.68698060978204,180.44559785182355 172.56509695295244,184.49487111752387 172.71468144049868,190.082844125689 175.18282548477873,176.07236624124926 173.6121883657761,179.14982730714837 175.18282548477873,184.65684174303897 174.13573407242075,181.90333791810554 172.04155124677345,198.99114910530625 175.18282548477873,185.38570926670218 174.21052631596103,179.95968407363398 173.31301939068362,178.8258844363736 172.34072022140026,176.9632111057872 177.3518005539663,184.08994445146527 176.52908587269485,182.06530891923467 178.39889196725562,179.95968407363398 180.26869806088507,179.2308130103047 177.80055401707068,176.23433808767004 175.70637119095773,176.07236624124926 178.0249307481572,178.66391296568327 177.50138504151255,181.49841031251708 177.95013850415125,180.68855466146488 181.01662049861625,183.0371344325249 177.20221606642008,180.93151141837006 172.86426592804492,181.49841031251708 173.91135734086856,176.9632111057872 172.4155124654062,180.44559785182355 173.23822714714333,180.60756906407187 174.5096952910535,190.0018592090928 176.60387811623514,182.06530891923467 177.27700831042603,186.8434428878827 173.98614958440885,181.8223524086643 175.70637119095773,181.66038137237774 174.36011080350727,181.98432342155138 177.50138504151255,177.85405526007526 175.55678670387715,179.47377008426702 176.82825484778732,174.0477161804447 174.21052631596103,178.17799841269152 177.20221606642008,178.2589841861045 173.1634349031374,177.12518282292876 176.22991689760238,175.6674365226645 177.3518005539663,181.0124969924218 174.88365650968626,180.04066971800057 175.10803324077278,178.8258844363736 173.91135734086856,178.50194147136062 175.40720221633092,180.3646122366772 174.5096952910535,176.72025348589523 175.9307479225099,168.94558175408747 174.13573407242075,184.49487111752387 175.10803324077278,179.2308130103047 175.78116343496367,176.15335216745734 173.98614958440885,187.73427916446235 176.37950138514861,183.11811985372333 174.9584487536922,171.21319993113866 176.37950138514861,194.9419283735333 175.18282548477873,187.24836855614558 176.15512465359643,185.38570926670218 175.63157894741744,195.184882031288 175.63157894741744,178.9068701628712 174.88365650968626,179.95968407363398 178.0249307481572,178.98785588343162 167.62880886392668,176.63926760095637 178.39889196725562,179.8786984233884 174.21052631596103,178.2589841861045 179.14681440452114,171.2941862094449 170.77008310239762,173.80475792643847 160.74792243773118,170.40333682461642 155.9612188367173,170.72728213778464 149.4542936286889,176.5582817099057 146.8365650968626,179.6357414375525 144.9667590027675,181.1744681225391 146.68698060978204,180.8505258387886 148.10803324077278,177.7730694572092 151.24930747924373,175.1005346699385 154.46537396125495,171.78010375628946 157.68144044326618,167.56881132966373 160.29916897509247,166.83993218268733 162.84210526337847,170.40333682461642 176.90304709179327,167.8927574644913 181.31578947370872,175.74842247809283 182.43767313053831,181.49841031251708 175.40720221633092,177.44912618712988 176.67867036024109,177.12518282292876 176.45429362915456,176.9632111057872 176.45429362915456,177.61109783378197 182.21329639898613,177.61109783378197 177.3518005539663,177.36814035481075 175.70637119095773,176.4772958132089 175.70637119095773,176.80123936507152 174.73407202214003,177.36814035481075 178.4736842107959,178.7448987038224 177.20221606642008,177.44912618712988 173.53739612177014,178.66391296568327 176.37950138514861,178.2589841861045 172.6398891969584,186.0335911109578 173.46260387822986,183.19910526910098 175.85595567896962,178.01602684811223 176.00554016651586,176.88222523831064 174.5096952910535,177.04419696738478 173.3878116342239,177.5301120133954 179.74515235470608,181.49841031251708 171.5180055401288,190.16382903623162 175.63157894741744,179.47377008426702 176.30470914114267,178.58292722149054 176.90304709179327,178.58292722149054 178.32409972324967,178.09701263339957 178.24930747924373,177.9350410568877 176.67867036024109,178.01602684811223 176.60387811623514,179.31179870740743 172.9390581715852,185.30472400970757 173.68698060978204,177.28715451684548 173.01385041559115,179.31179870740743 175.85595567896962,177.12518282292876 174.65927977813408,180.76954025303712 176.08033241005614,174.4526464858791 171.5180055401288,174.4526464858791 173.1634349031374,160.11802430276293 174.36011080350727,178.7448987038224 174.43490304704756,179.2308130103047 176.75346260424703,177.85405526007526 177.3518005539663,176.5582817099057 173.3878116342239,180.12165535637178 174.0609418284148,178.09701263339957 166.65650969557464,191.4595868079341 176.82825484778732,175.99138030933682 176.90304709179327,177.85405526007526" stroke="#ffae00" stroke-linecap="round" stroke-linejoin="round" stroke-width="0.5"><title>2025-01-11 29.4km</title><desc>1736530614000</desc></polyline><polyline fill="none" points="66.58654116325488,244.9648089797738 66.54102275922196,244.92783814727954 66.36653554369695,245.09215277355906 66.24894633326039,245.12090778413403 66.06307951672352,244.94426963136357 66.04790671537921,244.98534832071527 65.9644563079637,244.92783814727954 65.76341669009707,244.92783814727954 65.69134588369343,244.80049398393749 65.49409946614469,244.70601264540528 65.48271986514737,244.64439429621052 65.54341107053915,244.59509956856346 65.48271986514737,244.41024395766 65.60789547626337,244.25414319397896 65.7520370890852,244.22949566564057 65.80893509414454,244.14733716032788 65.96824950831069,244.0939340679397 65.99480191065231,243.9953436111973 66.09342511942668,243.9255086004523 66.283085136296,243.94604831843753 66.5448159595544,243.72832692866723 66.76102837876533,243.81870194681323 66.8065467828128,243.69135528874176 67.0,243.6256278692781 66.86723798820458,243.49006482562982 66.85585838720726,243.30931359578244 66.47653835348319,243.3257455496132 66.29446473730786,242.94780940475903 66.20722112953081,242.97245749110516 65.91514470356924,242.86975706047815 65.78617589210626,242.89440518082847 65.5623770722159,242.63970741974117 65.45996066312364,242.60684310903162 65.1565046361502,242.63970741974117 64.95167181793659,242.57808682150426 64.24613655521534,242.06457922755726 64.2082045518473,241.77701294011058 64.26130935658875,241.67020223268264 64.03751053666929,241.2511736647648 64.00716493398068,240.9307379607926 63.768193312731455,240.4747301772004 63.775779713410884,240.28986111011181 63.635431300936034,240.0885585502656 63.27507726890326,239.8708223222784 63.22197246419091,239.57092010834822 63.03610564766859,239.18063402525877 63.02851924698916,238.9300278580231 62.73644282104215,238.27269493264976 62.497471199792926,238.07960193475446 62.44815959541302,238.1247939720488 62.25091317786428,238.11246887454763 62.05745996067708,237.93170046941304 61.77296993539494,237.57427033202111 61.750210733371205,237.4715601047683 61.590896319190506,237.33598231929136 61.450547906715656,236.92924701344964 61.10915987637418,236.65808851833935 60.991570665923064,236.60056988260112 60.54397302614234,236.7772340777774 60.30120820456068,236.69917322235415 59.83464456308866,236.17739526461446 59.29980331554543,235.7418918670628 59.09117729701393,235.66793812691685 58.909103680824046,235.44607632636325 58.87496487778844,235.22421365562332 58.65875245857751,234.95715558295342 58.35908963192196,234.9735899622974 58.23012082045898,234.87909221586597 57.94563079517684,235.11739057785962 57.67631357125356,235.14204207525472 57.501826355728554,235.28173369084834 57.46010115201352,235.45840200477687 57.53217195843172,235.5898757407631 57.51699915707286,235.68848084221463 57.25147513348202,235.82406257605908 57.08836751896888,236.041814377626 56.83042989605747,236.02538030863798 56.76973869065114,235.72134917116637 56.5724922731315,235.68026375698537 56.47766226468957,235.71313209072468 56.39041865692707,235.84460523465168 56.19696543973987,235.84460523465168 56.13248103398655,236.1322016717313 55.832818207360106,236.41568815732535 55.35108176455833,236.44855606375495 55.29797695984598,236.51840030152016 55.31314976117574,236.44855606375495 55.07797134027351,236.75258329296776 54.95279572914296,237.16342830423673 54.421747681932175,237.43047596165707 54.380022478231695,237.70573915083514 54.4141612812673,238.1247939720488 54.35347007587552,238.1782026968649 53.91725203709211,238.22339465540426 53.22688957572973,237.98510937649917 53.07895476259,238.00565125040885 52.961365552138886,237.92348371000844 52.817223939317046,237.91937532984957 52.64273672380659,237.7673650544857 52.38859230122762,237.7303895203513 52.153413880310836,237.6153543707187 51.93720146108535,237.3852833697747 51.66409103682963,237.4510180369398 51.55788142737583,237.52496944621453 51.5351222253521,237.78790700745958 51.34925540882978,238.18231105821906 51.3758078112005,238.3466452679677 51.459258218616014,238.45346224836248 51.37960101153294,238.6753122556329 51.402360213556676,238.89716139310258 51.512363023342914,239.0738184175534 51.51994942400779,239.21350032551345 51.13683618995128,239.26279974012505 51.04200618150935,239.06149352676584 50.746136555229896,238.99576073056596 50.48061253160995,238.7287204608183 50.139224501283024,238.67942058089466 49.88887327902194,238.7410454240853 49.64231525710784,238.59314568769332 49.604383253725246,238.64655397042588 49.649901657772716,238.85607828512002 49.52851924697461,238.9300278580231 49.619556055084104,239.0409520361609 49.566451250371756,239.1436594146362 49.57783085136907,239.50929616891517 49.2174768193363,239.73114203680234 48.82677718460036,239.5585953258269 48.621944366401294,239.38193981476797 48.50814835628262,239.4805383075509 48.35262714246346,239.43534735301728 47.88606350099144,239.56270358696565 47.40053385782812,239.53394575274797 47.305703849415295,239.43945562310546 47.02880022478348,239.35318188868405 46.717757797130616,239.01219393678184 46.69499859510688,238.89716139310258 46.56223658331146,238.83553671994378 46.452233773554326,238.88483646384338 46.20188255129324,238.82321177726408 45.788423714533565,238.83964503357493 45.458415285203955,238.9218112435774 44.73391402080597,238.85607828512002 44.699775217770366,238.9218112435774 44.460803596521146,238.96289430384059 44.23700477663078,239.14776770589015 43.69837032875512,239.19295889008572 43.42525990448485,239.11900966079338 43.05352627142565,239.17652573638043 42.822141050870414,238.97521921610314 42.22281539758842,239.25458317400626 41.91177296995011,239.18063402525877 41.76004495646339,239.2258251831954 41.60831694297667,239.37372326596233 41.65762854734203,239.5134044336337 41.60831694297667,239.6654100184751 41.33520651869185,239.77633275512926 41.08485529643076,239.7640080173478 40.79277887046919,240.01461049130376 40.41345883674512,239.80509046618317 40.04172520371503,239.6941677858922 39.506883956171805,239.7064925388804 39.29446473729331,239.59556966533637 38.78617589212081,239.56270358696565 38.71410508570261,239.65308525653745 38.141331834791345,239.64486874708746 37.87580781118595,240.0105022629723 37.69373419501062,240.0844503272965 37.51166057882074,239.9899611168512 37.19682495084999,240.05569275820744 37.01475133464555,240.21180510047634 36.961646529933205,240.38845802104697 36.51784209048492,240.56921857829002 36.45335768474615,240.56511039020916 36.28266366956814,240.34737599570144 35.827479629122536,240.55278582420942 35.68333801631525,240.5363530653667 35.52781680248154,240.4131072219352 35.39505479068612,240.5610022018518 35.36091598763596,240.74997855820402 35.22056757516111,240.47883837183326 34.95125035123783,240.3391595870562 34.636414723237976,240.41721542104278 34.272267490872764,240.32683497184553 34.04088227030297,240.40489082283239 34.01812306829379,240.53224487491025 33.91949985951942,240.647274094983 33.574318628845504,240.56511039020916 33.566732228166074,240.63905772986982 33.47569542007113,240.68835590263188 33.29741500422824,240.68835590263188 33.03189098062285,240.5733267660653 32.895335768480436,240.62673317997542 32.77016015734989,240.83625016326914 32.614638943530736,240.8896563290764 32.55015453779197,240.9964685095074 32.27325091317471,241.16490269216592 32.20876650745049,241.33744450587983 31.783928069693502,241.86739107359972 31.541163248111843,241.94955288790152 31.434953638672596,242.07279538573857 31.374262433266267,241.92079626646228 30.949423995509278,241.72771571558042 30.881146389438072,241.5058776738224 30.710452374260058,241.38674207032818 30.64976116886828,241.24706552620046 30.429755549310357,241.3086875734407 29.690081483568065,241.18133526851307 29.24248384378734,241.3004713043556 29.13627423433354,241.6414454693222 28.737988198932726,241.78112104022875 28.354874964876217,242.00706608694964 28.11211014330911,242.38090045638455 27.952795729157515,242.52057420262645 27.846586119703716,242.54522247501882 27.736583309917478,242.51646615619393 27.808654116335674,242.49181787128327 27.755549311608775,242.47538567538504 27.78210171396495,242.53700638541704 27.83141331835941,242.49181787128327 27.801067715670797,242.54933051937405 27.527957291385974,242.54522247501882 27.34967687552853,242.64792349443087 27.053807249234524,242.59862702836836 26.621382410798105,242.61916722778187 26.086541163240327,242.79581263505315 25.821017139649484,242.75884038611912 25.22548468671448,242.9683494774581 24.84616465299041,243.19839778265668 24.47822422029276,243.29288163717501 24.034419780844473,243.19428978540236 23.8485529643076,243.3339615247387 23.57164933970489,243.3873653340088 23.52233773532498,243.46541696462737 23.66647934813227,243.70778713168693 23.662686147799832,243.8474576041517 23.943382972749532,244.20484812656287 23.86372576566646,244.28289863015016 23.605788142755046,244.1596609437147 23.264400112384465,243.85567350357087 22.68024726047588,243.99123567176866 22.335066029787413,243.77351445577006 21.671255970795755,243.66259955211353 21.584012363033253,243.85567350357087 21.288142736724694,243.9255086004523 21.011239112107432,243.63384380088246 20.70019668446912,243.56811631464734 20.42708626019885,243.61330396962876 19.69879179545387,243.47363291948568 19.592582186014624,243.3010976170808 19.440854172527906,243.19428978540236 19.406715369492304,243.08337374691473 19.327058162423782,243.05050969378135 19.402922169159865,242.97656550446118 19.357403765112394,242.91494527291434 19.36119696543028,242.7177600812065 19.42188817085116,242.6807877812971 19.36878336610971,242.61095114891214 19.22843495363486,242.75884038611912 19.019808935103356,242.77527249974082 18.61772969935555,243.075157735424 18.405310480491607,243.07104972922025 18.314273672382114,243.1573177967257 18.264962068002205,243.32985353732875 18.166338859242387,243.37914936662855 18.05633604945615,243.3339615247387 18.05254284910916,243.21893776444995 17.707361618435243,243.11623778097783 17.320455184046295,242.84921695198864 17.15734756954771,242.8410009065119 17.05872436077334,242.73830023738628 16.937341949989786,242.73830023738628 16.705956729419995,242.46306152532998 16.186288283235626,242.26176669459528 15.962489463345264,241.9166881764977 15.761449845464085,242.02760650101482 15.401095813431311,241.96187714975895 15.16971059286152,241.68663466233193 15.006602978362935,241.6496616889126 14.433829727451666,241.9084719956627 14.073475695418892,241.7852291400377 13.98623208765639,241.6414454693222 13.842090474863653,241.6414454693222 13.690362461376935,241.49766143335364 13.504495644854615,241.57160755461882 13.451390840127715,241.5058776738224 13.261730823272956,241.59625624022738 13.0,241.55928320778185" stroke="#ffd200" stroke-linecap="round" stroke-linejoin="round" stroke-width="0.5"><title>2024-11-09 21.0km</title><desc>1731113022000</desc></polyline><polyline fill="none" points="187.0,244.56666108972422 186.8034810126701,244.40936082487315 186.48734177215374,244.71470822062838 185.33386075953604,245.20511311438167 185.28259493672522,244.86275517968897 184.8724683544424,244.14102463124436 184.94936708861496,244.23355441696913 185.25696202533436,243.57659148477978 185.56455696205376,243.52107333546883 185.76107594935456,243.28974745315645 185.54746835445985,242.77157595424796 184.2914556962205,242.0498335725497 184.03512658228283,242.1053523622977 184.2401898734679,241.8555176180962 184.01803797471803,242.07759297044686 185.02626582275843,240.7914011889152 185.8806962025119,241.1892892408141 186.1712025316374,241.2448084051939 186.29082278482383,241.14302325206518 186.32500000001164,240.23620648372162 186.0088607594953,239.33863659786584 184.940822784818,238.39479340852995 185.0689873417723,238.14495139492647 185.85506329115015,237.73780039793928 186.81202531646704,236.48857899805444 186.75221518988837,236.29425456919853 185.32531645570998,235.9241119806029 184.3854430380161,236.18321190545248 183.48829113924876,235.64650433400675 183.0268987341551,235.62799713607092 182.51424050633796,235.69277231707383 181.15569620253518,236.2387332494036 180.11329113924876,236.41455067912466 179.35284810126177,236.3775365035399 179.06234177213628,236.82170590138412 178.7547468354751,236.98826902668225 177.6696202531457,236.3775365035399 177.01170886078035,235.8038154079477 176.64430379748228,234.97098986904894 176.08892405065126,234.59158976434264 176.18291139238863,234.04562177868502 176.00348101268173,233.86054735462676 175.38829113924294,233.9438308786921 174.72183544305153,234.44353088063508 174.67911392406677,234.61935078589886 174.95253164556925,235.31337436022295 174.85854430380277,235.73904028336983 174.59367088609724,235.87784408148582 173.4658227848122,235.19307721133373 172.20981012657285,234.81367776751722 171.34683544305153,235.20233084219217 171.12468354430166,235.11904814022273 170.4155063290964,234.39726244421036 168.41613924049307,234.0733829191231 167.47626582279918,233.41636764071154 167.00632911390858,232.3614346177419 166.43386075951275,232.08381921340333 165.58797468355624,232.20411929616967 164.93860759492964,232.04680378048215 164.39177215192467,232.16710389817308 164.2208860759565,232.5835265059286 164.0072784810327,232.7130799286897 163.47753164556343,232.52800357015803 163.33227848101524,232.56501886334445 163.29810126582743,232.76860278383538 162.96487341771717,232.89815601854207 162.16170886074542,232.60203414579155 161.88829113921383,232.65755704932963 161.01677215189557,233.5459202171478 160.3246835443133,233.81427870663174 160.3075949366903,234.18442742039042 159.43607594937203,235.26710623944382 158.76962025318062,235.64650433400675 158.5389240506338,235.94261913555238 158.11170886075706,235.4984466753449 157.4537974683626,235.26710623944382 157.31708860758226,234.7766631271952 156.86424050631467,234.43427719469037 156.81297468356206,234.14741259739094 156.20632911394932,234.2214422326797 154.5487341772241,233.95308460023807 153.95063291140832,234.16592001022946 153.5917721519072,234.12890518185304 153.34398734176648,234.68412647935475 153.34398734176648,234.98949716232164 151.66930379747646,235.69277231707383 151.05411392403767,236.64588903311233 150.61835443036398,236.9605085209041 149.86645569620305,236.9605085209041 149.2427215189673,237.24736678908812 148.66170886077452,237.11781797368894 147.64493670884985,237.16408542286808 146.5170886075939,237.54347787288862 145.8848101265903,237.50646402502753 144.7484177215083,237.84884170786245 143.72310126581579,238.5058341463373 142.93702531643794,238.6909018278311 142.46708860760555,238.56135447899578 142.28765822784044,238.66314169272664 141.9544303797593,238.4410603943761 141.94588607593323,238.60762140439329 141.80063291138504,238.34852640590543 141.8262658227759,238.57060786541842 141.54430379747646,238.7556754528705 140.77531645572162,238.9314894121926 140.68132911389694,239.0795430846556 140.96329113922548,239.54220970322785 141.0658227847889,240.06964760085248 141.58702531646122,240.8099076374565 141.52721518985345,240.9394527020777 140.92911392403767,240.75438828374172 140.19430379744153,240.01412792488554 139.68164556959528,239.96786150978005 139.2287974683568,240.21769995193608 138.7417721519014,240.2824728014748 138.40854430379113,239.98636807782896 137.7848101265845,239.727275880643 136.48607594933128,239.59772958466056 136.5031645569834,239.90308850043948 137.28069620253518,239.90308850043948 137.9984177215083,240.32873910244234 138.57088607596233,241.01347839421942 139.4594936708745,240.8746801862144 139.74145569620305,240.94870591595827 141.04018987339805,242.02207416859892 141.27943037974183,242.52174251508404 142.0227848101058,243.43779606618045 142.0227848101058,243.60435055038397 141.61265822785208,243.80791684688302 141.2281645569601,243.65061564630014 141.12563291139668,243.50256728031673 141.1768987341784,242.81784135225462 140.91202531644376,242.54950181028835 140.13449367086287,242.23489611106925 139.81835443037562,241.7907455674722 139.49367088609142,241.66120136756945 138.53670886074542,242.012821032622 138.15221518988255,242.02207416859892 137.55411392403767,241.901783348374 136.93892405062797,241.5131506922553 136.43481012654956,242.00356789594662 136.04177215188975,241.9387959205269 135.5974683544191,242.2256429905101 134.34999999997672,242.160871127875 133.88860759494128,241.95730220257974 133.98259493667865,242.1053523622977 135.46075949366787,242.93813130846684 136.07594936707756,243.09543338775256 136.12721518985927,243.2157230821831 134.21329113922548,242.99364971155592 133.69208860758226,243.09543338775256 133.11962025315734,242.99364971155592 133.0,243.04916809045972 133.07689873417257,243.19721698274225 133.55537974686013,243.37302481909865 134.35854430380277,243.41928999892116 136.20411392406095,245.3901710748687 137.1525316455518,245.6029873974985 138.4683544303698,246.16741157714569 138.62215189871495,246.52827162910398 138.53670886074542,247.13895554535702 138.22911392405513,247.95319621951057" stroke="#4dd2ff" stroke-linecap="round" stroke-linejoin="round" stroke-width="0.5"><title>2024-10-27 13.8km</title><desc>1729977789000</desc></polyline></svg>