<?xml version="1.0" encoding="utf-8" ?>
<svg baseProfile="full" height="300mm" version="1.1" viewBox="0,0,200,300" width="200mm" xmlns="http://www.w3.org/2000/svg" xmlns:ev="http://www.w3.org/2001/xml-events" xmlns:xlink="http://www.w3.org/1999/xlink"><defs /><rect fill="#222222" height="300" width="200" x="0" y="0" /><text fill="#FFFFFF" style="font-size:12px; font-family:Arial; font-weight:bold;" x="10" y="20">Over 10km Runs</text><text fill="#FFFFFF" style="font-size:4px; font-family:Arial" x="10" y="280">ATHLETE</text><text fill="#FFFFFF" style="font-size:9px; font-family:Arial" x="10" y="290">Zayn</text><text fill="#FFFFFF" style="font-size:4px; font-family:Arial" x="65" y="280">SPECIAL TRACKS</text><rect fill="yellow" height="2.6" width="2.6" x="65" y="283" /><text fill="#FFFFFF" style="font-size:3px; font-family:Arial" x="70" y="285.5">Over 20.0 km</text><rect fill="red" height="2.6" width="2.6" x="65" y="287" /><text fill="#FFFFFF" style="font-size:3px; font-family:Arial" x="70" y="289.5">Over 40.0 km</text><text fill="#FFFFFF" style="font-size:4px; font-family:Arial" x="120" y="280">STATISTICS</text><text fill="#FFFFFF" style="font-size:3px; font-family:Arial" x="120" y="285">Number: 6</text><text fill="#FFFFFF" style="font-size:3px; font-family:Arial" x="120" y="290">Weekly: 1.5</text><text fill="#FFFFFF" style="font-size:3px; font-family:Arial" x="141" y="285">Total: 193.7 km</text><text fill="#FFFFFF" style="font-size:3px; font-family:Arial" x="141" y="290">Avg: 32.3 km</text><text fill="#FFFFFF" style="font-size:3px; font-family:Arial" x="167" y="285">Min: 13.8 km</text><text fill="#FFFFFF" style="font-size:3px; font-family:Arial" x="167" y="290">Max: 55.1 km</text><polyline fill="none" points="19.335077555588214,41.52170845736691 19.752195851237047,41.46342952991108 21.27265931601869,40.13028983541881 21.387030461599352,40.436257886336534 21.29957017378183,41.070045885586296 22.005980190617265,41.01905159672606 22.45673705849913,40.691230550495675 22.685479349660454,40.85149875115167 23.00840964305098,40.71308532018884 23.089142216398614,40.90249312502419 23.290973649767693,40.880638396520226 23.344795365352184,41.13560993322608 23.324612222029828,42.1627744289799 23.755185946531128,42.75284290242416 24.353952532226685,42.825690621859394 24.945991403452354,43.68528972390777 25.168005980172893,43.197213169711176 25.416931414685678,42.92767734037625 26.68174173051375,42.23562257611047 27.892730330786435,41.38329594946117 29.177723789936863,40.756794845285185 29.621752943348838,40.734940085123526 29.91104466453544,40.58195663078368 30.34834610350663,40.5892415624694 30.462717249116395,40.756794845285185 30.563632965786383,41.995223490193894 30.6510932535748,44.96010536515678 31.438235843757866,45.03295148489269 33.56419360867585,44.974674593315285 33.792935899837175,45.076659131387714 33.436367034184514,47.52425700614549 33.36236217527767,52.19346745221992 33.227807886345545,52.353717316524126 32.588675014005275,52.39742178066808 31.485329844872467,52.68878438948741 31.693888992682332,54.750150734551426 31.53242384598707,57.5908337152141 30.523266679112567,61.69875645454158 30.133059241285082,64.22606530058692 29.783218090073206,65.3258254107277 32.99906559518422,67.7656476505872 32.99233788077254,68.98189515482227 32.642496729589766,70.51857009013474 31.714072136033792,72.79804941933253 31.169127265922725,74.42933840682235 30.812558400270063,75.08475957533665 28.908615212101722,80.56100084035279 28.343487198639195,81.76981185367185 27.071949168370338,83.5757193565587 26.392450009356253,84.83546631017816 23.499532797606662,91.14124611787702 23.216968790860847,92.13877560021501 23.122780788631644,94.03187010034162 22.638385348487645,94.47601404557645 21.891609045036603,94.84734600605589 20.660437301412458,96.03414290432556 19.166884694452165,96.79135571062943 18.64885068210424,96.80591743964033 18.238460100925295,97.70145973135368 17.04092692953418,99.15760907779622 16.105774621566525,101.35635474319133 14.0,100.76662965027208 15.244627172476612,101.13793844421889 15.964492618193617,101.46556271530426 15.816482900379924,101.6330147095141 15.971220332634402,101.76406390233751 15.655017753713764,102.14992998122761 15.924126331519801,101.82230793339113 16.058680620451923,101.50924587103509 16.00485890483833,101.35635474319133 16.173051766032586,101.23986610927386 16.455615772749297,100.5118090986507 16.886189497250598,100.6428597484919 16.919828069512732,100.35891645863012 16.886189497250598,100.6064568072834 17.067837787326425,100.75206849324604 17.47150065409369,100.58461503625585 17.794430947484216,99.63085308777227 19.227434124448337,98.52418669628241 19.42253784337663,98.22567591862025 20.673892730323132,97.35926158330403 21.077555597090395,97.71602132890985 23.4322556531406,100.9850467534634 25.046907120151445,99.87111458127765 26.089702859258978,100.22786543981056 26.493365725997137,99.84199200647708 26.399177723767934,99.53620446346031 26.04933657258516,99.32506490447122 25.85423285368597,99.04839860625361 24.824892543430906,98.46594076028123 24.73743225564249,98.28392199341761 24.878714259015396,97.70145973135368 25.524574845825555,97.41750815859996 25.71967856475385,97.06802820203302 25.78022799475002,96.09967116043117 25.504391702474095,95.83755788048438 25.908054569241358,94.97112302225287 25.807138852542266,94.17749128160358 26.37899458044558,93.90809193087625 26.722108017187566,93.5003510035458 27.35451317508705,93.10717069018574 27.785086899646558,93.12901408116159 28.498224630893674,93.60956748508761 28.96243692765711,93.71150276109256 29.366099794424372,93.62412967368437 29.662119230022654,93.43482105781004 30.153242384578334,93.44938327165437 30.26088581571821,93.36200995703985 30.388712390180444,93.00523480305128 30.247430386865744,92.67758303904702 30.03887123899767,92.52467851802794 30.065782096789917,92.21886878012447 29.937955522327684,92.02955752503476 29.689030087844003,89.99807975353906 29.776490375603316,89.73595060681691 31.196038123685867,89.75051335507305 31.942814427195117,90.34758422195591 32.521397869539214,90.3257402281888 32.97215473742108,89.8087643270701 33.81984675760032,90.18011348207801 33.792935899837175,90.79902569982369 35.23939450571197,91.18493374718673 35.23939450571197,91.66549641972233 35.50177536907722,91.66549641972233 35.62287422909867,91.84024591439811 35.29321622126736,92.62661489114544 35.07120164454682,92.91057995839219 34.49261820217362,93.31104215521191 34.32442534103757,93.72606493496278 34.4051579144143,93.98818370493245 37.27116426837165,94.65803968731052 37.950663427385734,94.8691890199625 38.112128574081,95.02208998474816 38.77817230424262,95.05849494218273 38.85217716314946,94.91287503355124 39.195290599862346,94.78181693595252 39.06073631095933,94.11924283433473 39.30966174544301,93.47850769303477 39.390394318819745,92.91786110345129 39.572042608837364,92.78680041205371 40.19099233785528,92.93242339196877 40.31209119790583,91.99315147368179 41.37507008033572,91.63637147448753 41.704728088196134,91.62180899872328 42.16221267048968,92.11693199464207 43.25210241074092,92.76495694690675 44.49672958324663,91.44705912534118 44.42272472433979,91.20677755474026 43.67594842085964,90.3767095396106 43.904690712020965,90.58786784092808 43.99215099980938,90.12914407122298 44.49000186880585,89.4811021716232 44.71201644552639,89.0150919377702 45.10895159782376,88.93499621180672 45.61353018126101,89.24081591389404 46.14501962249051,89.3937254169141 46.76396935147932,89.35731841343659 47.51747336945846,89.14615753385442 48.815922257490456,88.23597626489209 48.86974397307495,88.09034649896785 50.430573724530404,87.10005850926973 50.248925434512785,86.27723829169554 50.57185572790331,85.37431279852899 50.61894972898881,84.68983162946097 50.10764343111077,83.35726452498056 50.00672771441168,82.51984994884697 50.20855914783897,81.5731990019849 51.07643431134056,80.18233416556177 51.36572603249806,79.08273632931378 51.143711455806624,78.15789971558843 50.659316015662625,76.87622233678121 50.834236591268564,75.78387078627566 50.76023173239082,75.33964443320292 50.948607736849226,74.9828054515383 51.50700803587097,74.79346180490393 51.67520089700702,74.61868273816799 51.9241263314907,73.67195752089174 51.72229489815072,72.8563101954278 51.44645860584569,72.44120143013424 50.968790880200686,72.00424298606958 50.82750887682778,71.52358650715905 50.92842459352687,70.94096951666143 51.47336946366704,70.28552137197403 51.73575032703229,69.6810487447583 51.67520089700702,69.19309831367718 51.244627172505716,68.39926345364802 51.30517660250189,68.13707808785693 51.89721547375666,67.56900745243911 52.03176976265968,67.2048579228649 51.96449261822272,66.65863115818502 51.54737432254478,65.65356616547069 51.5877406092186,65.05634887949418 51.88376004481688,64.62664156667597 52.49598205942311,64.45184484665515 53.18893664731877,64.68490707257297 53.505139226297615,64.69219025842176 54.00971780976397,64.17508275232831 54.23846010089619,64.13866663061344 55.32162212667754,64.32803031960066 56.85554102034075,65.12918044558319 57.15156045599724,64.85970338778134 57.52158475047327,64.8305706896499 57.86469818724436,65.23842769588373 60.253036815527594,64.66305751181062 62.42608858156018,64.64849113533273 62.78265744718374,64.7650220880605 63.20650345730246,65.10733098129276 63.54288917957456,65.19472880998364 63.87927490187576,65.11461413658253 64.54531863200828,64.64120794632618 67.48532984490157,64.60479199328256 68.0975518594496,64.73588936253509 68.79050644740346,65.29669284755073 69.22780788637465,65.49333748539357 70.1629601943423,65.60258434039133 70.76845449450775,65.42778931545763 72.14763595588738,64.69947344375396 72.69930854043923,64.56837602708401 75.3634834610275,64.34259674244095 75.96897776116384,64.59022560838639 76.44664548680885,64.6339247567521 76.8570360680169,64.40086241279641 77.28088207810652,63.854620429032366 79.3597458418808,63.11900987234549 81.69426275460864,63.8691869204049 84.52663053633296,62.245010141487 84.5064473929815,61.88084134637029 83.5443842272216,59.97985883765796 84.49971967856982,61.92454167136748 84.5535413941252,62.28142694848066 81.79517847130774,63.854620429032366 81.60680246682023,63.920169623641414 81.22332274340442,63.81820419133874 81.67407961128629,63.920169623641414 84.58045225191745,62.28871030831215 84.60736310968059,62.00465888459439 83.57129508501384,59.84147173524252 84.89665483086719,59.24421995180455 86.0,59.062130288126355 85.06484769200324,59.193234879203374 83.57802279945463,59.83418819827784 84.58045225191745,61.9828087418573 84.58045225191745,62.259576865857525 84.49299196409993,62.397960642396356 81.72790132684167,63.905603139639425 81.29732760231127,63.854620429032366 79.36647355635068,63.133576470208936 77.29433750698809,63.89831989684171 76.8099420669023,64.50282725469151 76.42646234348649,64.6776238861712 75.99588861892698,64.65577432384453 75.35002803214593,64.36444637276873 72.60512053821003,64.6120751849594 72.22164081479423,64.69947344375396 70.59353391890181,65.47877122907812 69.93421790318098,65.60986745983246 69.14707531299791,65.4642049706963 68.56176415624213,65.12189729134116 68.15810128947487,64.75045572634554 67.6131564193347,64.58294241513795 64.60586806203355,64.59022560838639 64.33675948419841,64.66305751181062 63.80527004299802,65.10733098129276 63.421790319582215,65.16559620886255 62.74229116050992,64.74317254470225 62.251168005983345,64.62664156667597 60.1521210988285,64.66305751181062 59.257335077563766,64.81600433743733 57.83105961501133,65.23842769588373 57.723416183900554,64.99080042494461 57.23229302934487,64.85970338778134 57.09773874041275,64.88155290584109 56.85554102034075,65.20201195894333 55.28798355447361,64.34259674244095 54.877592973265564,64.24791495622048 54.103905812022276,64.18236597508803 53.6598766585812,64.61935837607598 53.36385722292471,64.73588936253509 53.04765464400407,64.67034069926012 52.69781349279219,64.51011045373161 52.341244627168635,63.86190367498057 52.765090637258254,55.77717614833091 53.06783778729732,54.88126094577456 52.5027097738639,54.92496431153995 52.28069519714336,55.29644215378357 51.95776490375283,58.85090586539445 50.90824145017541,58.79992059346114 48.620818538591266,58.96015993252513 47.470379368343856,58.88732390094083 47.30891422161949,58.9892943304003 45.88936647353694,58.90917471596185 45.970099046913674,58.45759024126164 45.80190618574852,52.13519471096515 45.56643618014641,52.16433108581259 45.58661932349787,51.37036185194302 45.055129882268375,51.25381538172951 45.055129882268375,51.0425745601533 45.16277331340825,50.95516443519591 45.055129882268375,51.11541627288534 44.60437301438651,51.21739458207594 44.550551298831124,51.12998460911331 45.16950102784904,50.83861748376512 45.19641188561218,50.969732794648735 45.00803588112467,51.18825793286669 44.644739301060326,51.10813210398919 45.60007475237944,49.93537402975926 45.6202578957018,48.697043203726935 45.43188189124339,48.573209282280004 45.60007475237944,47.56796356947598 45.47897589232889,46.70839766924473 45.43860960568418,42.95681638379756 45.29732760231127,42.315755476978666 45.337693888985086,40.866068574898236 45.250233601167565,40.756794845285185 44.987852737802314,40.734940085123526 45.29059988784138,40.77136468276149 45.37133246121812,40.67666070139239 45.3780601756589,40.07929506969231 44.93403102224693,40.15942968991294 43.56157727527898,40.03558524989785 39.06073631095933,40.09386500538676 38.46869743973366,39.656766015330504 37.91702485518181,38.913693368798704 37.54027284620679,38.81898763670324 37.66809942063992,37.90106591580843 37.506634273944655,38.96468872602418 36.49747710709926,39.875315748016874 36.18127452809131,40.0283002780925 32.11100728836027,39.919025637500454 30.987478975876,39.736900972515286 29.44010465333122,39.977305460612115 28.027284619689453,40.560101832583314 25.57839656138094,42.11178069457674 23.997383666603127,42.847544927397394 23.68790880209417,42.74555812757899 23.270790506416233,41.973368999337254 23.324612222029828,41.252168134560634 23.237151934183203,40.8150741825375 22.887310783029534,40.297843883454334 22.227994767337805,39.824320852909295 21.91179218835896,39.40179072644969 21.74359932722291,39.45278583597974 21.541767893824726,39.35808061197895 20.86226873481064,38.67328633611032 20.57970472809393,38.93554852507077 20.694075873674592,39.13952975436405 19.49654270231258,37.85007001877966 17.552233227412216,39.693191003781976 17.458045225183014,39.99916038554511 17.57914408520446,40.21042441496684 17.034199215093395,40.895208216054016 17.32349093625089,41.30316230513563 17.168753504025517,41.78396321272885 17.236030648462474,42.06078693430027" stroke="red" stroke-linecap="round" stroke-linejoin="round" stroke-width="0.5"><title>2025-04-06 55.1km</title><desc>1743890633000</desc></polyline><polyline fill="none" points="155.4990337024501,104.82212537987652 155.63568960956763,104.95826251095423 155.67941949985106,104.656392913952 155.351445322769,104.43146974351112 155.43890510330675,104.29533173406526 152.48713750956813,101.88032409538573 154.06687979583512,100.32355335909233 153.1485520999995,99.31725989762344 152.72765190608334,99.06272487958631 152.42154267415754,99.00945000789943 152.41061020156485,98.59508870773425 153.03922737430548,97.94986478039937 153.28520800714614,97.93802576158487 153.0665585557581,97.59469346917467 151.7655943199643,96.25094802082458 151.53601239601267,95.8839299982501 154.00675119672087,93.5752303885456 154.1160759224149,93.46275361045264 154.05594732327154,93.30291792218486 154.15980581266922,93.17268120391964 153.94115636128117,92.81156921579532 152.92443641234422,91.78150328631455 152.4051439652976,91.100705446559 153.26880929828621,90.1179785439017 154.25819806582876,89.33652460388112 155.58649348301697,88.04592518736172 156.2697730186046,87.73215251809597 157.9533737943275,87.24077025175939 158.48906495020492,86.88555231172359 158.6858494564658,86.571775177581 159.3090003929392,86.04486368899961 159.40739264604053,86.1159081332371 159.62604209745768,86.02710256825958 160.35305152332876,86.13366923461581 162.62153958147974,86.18103215275187 162.93311504970188,86.33496144666424 162.80739161514794,86.0330229422616 164.8462977493764,84.12664029474399 164.4636612094473,83.14382934218156 164.42539755546022,82.49256254537613 165.38745514157927,78.4723550304916 165.84115275321528,77.24671476856747 167.31157031378825,74.83682725897233 167.650476963463,73.68218759350566 167.73793674402987,68.46538078566664 168.03857973968843,68.3528693529588 168.15883693794603,67.95019558329659 168.1151070476626,67.79030985780264 168.21349930076394,67.10338983598194 168.10964081139537,68.15153271701274 168.03857973968843,68.34694769430644 168.02764726709574,68.09823764181783 168.2462967185129,55.282720070841606 168.37202015303774,54.40024649319821 168.26816166364006,54.25810220307176 168.393885098194,53.523686080974585 168.38841886189766,52.70042141732847 168.4048175707576,52.63527062056528 168.4868111150281,52.72411260322406 168.31735779021983,52.21475058611395 168.393885098194,51.66984815301839 168.38295262563042,49.975889015579014 168.3009590813308,49.827813987642 168.05497844851925,49.70935377119167 166.31671530997846,49.14666538673919 165.9778086603328,48.95120430004317 165.72089555492857,48.57805001181987 165.36012396015576,46.52270919541479 165.39838761414285,47.269034922501305 165.021217310481,47.351959580453695 164.90642634851974,47.186110179987736 164.92282505737967,47.00249080633512 164.567519698845,46.76556196956517 163.37041395250708,45.20773767527862 162.7636617248936,44.2481504409152 162.72539807090652,43.53733777988964 162.97684494001442,40.220129843881296 164.20674810407218,34.07108988817345 164.04276101553114,34.0 160.4241125950066,34.171800456570054 159.48938619031105,34.479855537894764 157.8495153049007,35.208519638865255 156.82186288334196,35.35662129928096 155.72861562640173,35.214443710458 152.61286094409297,34.11848311238282 151.4212214340223,34.15402801239543 150.48102879305952,34.42061426681903 149.6665595866507,34.924163694056915 149.52443744323682,34.91823960129841 149.2948555192561,35.1374307459555 148.5514473845251,35.58765935047995 147.17942207705346,36.20968160756456 145.5122200102196,36.55919678627106 143.2819956060266,36.84354700896074 141.78424686400103,37.17528767784097 140.55434369994327,37.34708142049931 140.5324787548161,37.22860301614128 133.7980756519828,46.102157553883444 134.33923304415657,47.517808642674936 134.43762529731612,48.42404933024227 134.5141526052903,52.025219719049346 134.38842917073634,54.287715617341746 134.5141526052903,55.62030810293072 134.73826829297468,56.1000360548569 134.62347733098431,56.55014859835501 134.7000046389585,57.93600579516351 134.15884724678472,59.80746780290792 134.18071219191188,60.63658278450748 133.96752897682018,61.744030335386924 133.32251309521962,63.82859661831026 132.43698281707475,65.49857996096398 131.5131888849719,66.43422941533936 131.5787837203825,66.39277681902604 131.77556822664337,66.62964851372817 132.03794756828574,67.56528497159889 132.3112593825499,68.11600267076574 133.03826880842098,70.62083295775665 137.74469824958942,75.7131582364018 138.29132187805953,76.18684673239477 139.54308998724446,77.64934258822905 138.01254382752813,79.06444517212367 138.05627371781156,79.23615050859371 137.96334770097747,79.34864691220719 139.55402245983714,81.87089393108909 139.8273342740722,82.16100654108595 141.5273337586259,84.70092795755045 141.66398966574343,85.06207585927768 141.69132084716693,85.49426714725269 142.4565939270251,86.17511178948916 142.72443950499292,86.55993450738606 143.46238140342757,87.26445139274438 144.45723640726646,88.38929766839283 144.87813660118263,89.08787859820586 145.6434096810408,88.40113807299349 145.21704325082828,88.78595028649579 145.0585223985545,89.02275690003444 145.0749211074144,89.16484053811291 145.4575576473726,89.37796553112275 146.61093350345618,90.38438158490317 148.09774977288907,92.33797730031074 150.38263653992908,94.83022392130079 150.67234706302406,95.03149467277399 150.9292601683992,95.44587406833307 152.3504816024215,96.87842662280309 154.69549696860486,99.49484199822473 154.25273182953242,99.98023110187205 154.6353683694906,100.32355335909233 154.3948539729172,100.6550355475265 157.35208780298126,103.01088803570747 155.8434065883921,104.56760752595437 155.7778117529815,104.72150213710847 155.87620400611195,104.97010051161487 155.4170401581796,105.53832252541179 155.58649348301697,105.69221530698997 155.60835842814413,106.0" stroke="#ff6600" stroke-linecap="round" stroke-linejoin="round" stroke-width="0.5"><title>2025-04-05 38.6km</title><desc>1743839508000</desc></polyline><polyline fill="none" points="77.55059448728571,161.4645878417432 75.79544913000427,163.17781827640283 75.4063774991082,163.40250254958664 75.22481073802919,163.72080460092548 74.5936500923126,164.1233619544073 73.36591294585378,165.34038818448607 70.7721020730387,167.5965372518258 70.21875575350714,168.14886649730033 70.40032251458615,168.24248138963594 69.83833015881828,168.5233256596548 68.43767228751676,169.843285551804 70.27063197098323,172.67038832187973 71.02283712409553,172.7733610963769 71.68858191475738,173.5690570418592 72.23328219805262,173.8030843287488 71.04012919653906,174.96385340777488 71.23034199391259,176.50840900048206 71.16117370393476,178.1091107746688 71.30815632009762,178.43673734892946 72.82121266255854,179.93444825640472 72.56183157526539,180.1871852608383 71.97390111078857,180.16846401819203 71.57618344359798,180.40247935635853 71.62805966104497,181.40406021714443 70.86720847169636,181.6755153755439 70.65105756564299,181.49766550856293 70.35709233340458,181.60063125084707 70.00260484742466,182.48051697664778 68.55007075864705,184.76444772362447 67.73734335185145,185.644311918506 67.7114052431134,186.0 67.80651164180017,185.5881505530342 68.64517715730472,184.6708447973433 70.04583502866444,182.44307515286346 70.33115422466653,181.63807331862336 70.64241152937757,181.48830498247116 71.03148316030274,181.75039945688331 70.97960694285575,181.6193522860849 71.64535173357581,181.39469968427147 71.63670569731039,180.31823388343764 72.15546787186759,180.1310215247795 72.66558401015936,180.15910339586844 72.855796807562,179.96253017019626 71.26492613885785,178.37121210048645 71.16117370393476,178.0248638070625 71.21304992141086,176.29310841896222 71.04012919653906,174.94513140856725 72.23328219805262,173.79372324541328 71.67128984228475,173.52225153362087 70.98825297912117,172.68911065062275 70.27063197098323,172.65166599043732 69.55301096281619,171.37854108793545 68.8094518459693,170.32071453252138 68.11776894654031,169.627973865674 68.07453876532963,169.43138462151546 67.03701441618614,169.12245806208375 65.42885167506756,168.21439692904823 64.46049561587279,168.39226507626154 63.95902551381732,167.5497295801324 63.353802976809675,167.19399072096712 62.95608530964819,166.47314845032815 63.0771298170439,163.3276078352792 62.3249246639607,163.33696967694414 60.71676192281302,163.76761365996208 58.87515620313934,164.66634430441627 58.18347330371034,165.08762214158924 57.58689680293901,166.07059841912996 55.85768955439562,163.9642115227398 55.45997188723413,163.87059353016957 55.07954629260348,163.29016046184552 54.612660335493274,162.85015301079693 54.57807619048981,162.5037631119194 54.47432375559583,162.81270549894543 54.13712834211765,162.5880201998516 53.376277152769035,161.76417075931386 51.992911353940144,159.92921448283596 52.321460731182015,160.18199062019266 52.02749549894361,160.11645611355925 52.06207964385976,159.86367984795652 51.88051288280985,159.84495566043188 51.47414917938295,159.2832287730198 51.43956503440859,159.39557434595918 51.206122055853484,159.11471023036574 51.18882998335175,159.21769381034392 51.86322081027902,158.09423213572154 51.65571594049106,157.38270135342464 50.817050424957415,156.5026446995107 50.77382024371764,155.87536661498598 50.86892664243351,155.75365558888734 50.66142177255824,155.9970775263355 55.58966243089526,150.33271738466283 55.45997188723413,150.10801036996418 53.45409147898317,148.45078405702952 51.32716656324919,146.84971470103483 53.480029587692115,143.66624294447683 53.42815337024513,143.54452040699834 52.04478757141624,142.49582917480438 51.543317469302565,141.88720981958613 50.31558032284374,141.08195518454886 49.649835532181896,140.30478606239922 48.22323955214233,139.31225001606072 45.966624092834536,141.9059366117799 45.64672075182898,142.13065790612018 45.6034905705892,142.33665208212915 45.09337443229742,142.95463263742568 42.845405009167735,145.4077989864163 42.50820959574776,145.6325141833513 40.48503711493686,148.10435552907438 40.182425846433034,148.2260737664692 39.21406978726736,147.50512561012147 38.15060732944403,146.3628358713613 38.04685489452095,146.0913064955821 35.80753150765668,144.4246653997543 34.98615806459566,143.4696141730019 31.47586735006189,141.29731447451195 31.380760951404227,141.03513790004217 31.233778335270472,141.13813590353675 31.060857610427774,140.76359731492994 29.815828391496325,139.977062740385 29.513217122963397,139.64933858605218 29.435402796778362,139.16243259117618 29.26248207196477,139.1062510120173 28.700489716167795,138.394615558449 28.181727541581495,138.20734241835453 27.15284922873252,137.50506572207814 26.32282974946429,136.49378056398564 25.345827654004097,135.62294532600208 25.051862421736587,135.01429355145956 24.584976464655483,134.80828768503852 23.815479239070555,133.98426092966838 23.633912477991544,133.16022891071043 23.780895094096195,132.326827537574 25.804067574907094,129.13363311075955 25.752191357431002,128.80588140869804 25.951050191011745,128.5343150817498 25.70031513995491,127.53232403162838 25.354473690269515,126.81126023478282 23.668496622907696,124.39519890495285 23.106504267139826,123.24333977756032 22.630972273822408,121.26736234848067 22.354299114027526,118.34548240431468 22.02574973681476,118.354847509916 21.567509815999074,116.18212477744964 21.325420801178552,115.90116657769977 21.066039713885402,115.88243600926944 20.37435681448551,116.28514263058605 19.80371842245222,116.37879515290842 19.5011071539775,116.72530889383052 19.25037210294977,116.7440393397992 17.94482063027681,114.0 19.189849849208258,116.706578445177 19.890178784902673,118.86992727065808 20.41758699566708,119.6565905699099 21.420527199836215,121.75433590119792 23.590682296751766,125.68751640984556 25.406349907716503,128.56240817657817 25.406349907716503,128.95571086156997 25.129676747950725,129.5362983473824 23.21890273829922,132.3549198063556 23.14108841214329,132.82312338577321 23.0892121946963,132.63584215793526 23.288071028277045,132.28937116962334 23.227548774535535,133.2632332009307 23.391823463200126,134.0779005987788 24.221842942468356,135.05174912819348 32.340470974333584,142.39283225490362 33.931341643008636,144.9490042445832 37.37246406756458,150.98811061020388 38.12466922070598,151.7184019994529 38.58290914155077,152.41123872965545 38.61749328652513,152.81383133794589 40.165133773960406,154.49908909570513 40.848170637123985,154.95784989868116 42.240182472218294,156.42774598391406 43.286352857569,159.61090308760322 43.839699177100556,160.86541992201091 44.064496119419346,161.08074621310516 44.48815189531888,162.9999429496529 46.41621797741391,168.27056584411184 46.59778473852202,168.1769509721198 46.56320059354766,167.90546745977917 44.574612257711124,162.03566717816284 44.116372336866334,160.15390440713236 43.995327829470625,158.5810667279875 46.97821033318178,157.6167579644898 48.69877154548885,157.15800660767127 49.00138281399268,157.19545575912343 50.099429416819476,156.64307967409695 53.62701220382587,152.5235902815184 57.2324093170173,156.3809342646491 57.80304770905059,156.2873107751584 58.80598791319062,155.51959560087562 61.27875427855179,152.99172069521592 62.636181968671735,151.84947950385686 62.7312883673294,151.64350050862413 66.24157908189227,148.3571548168402 66.53554431413068,148.43205821442825 68.48954850499285,150.63232612918364 69.33686005676282,151.34389411075244 70.01125088369008,152.28016179557744 71.32544839257025,153.36622380412155 73.87602908414556,156.14687541362946 75.37179335413384,157.42951270955382 77.95695819074172,160.36923188446235 78.23363135044929,160.25688715848082 80.81879618702806,157.58867119356728 81.79579828245915,158.20657874297467 82.05517936972319,158.69341291172168" stroke="#ff7700" stroke-linecap="round" stroke-linejoin="round" stroke-width="0.5"><title>2025-04-04 35.8km</title><desc>1743763192000</desc></polyline><polyline fill="none" points="124.57063711900264,150.48614964890294 127.36288088653237,140.87582532165106 127.06371191097423,145.73498582013417 127.86149584455416,147.13874034688342 126.46537396125495,148.32653160521295 125.26869806041941,148.54249355057254 126.06648199399933,146.1669104306493 129.45706371124834,148.00258862855844 128.26038781134412,146.59883491625078 126.76454293634742,146.49085380649194 130.25484764529392,144.33122997090686 126.3656509690918,145.30306108435616 128.95844875322655,140.98380683828145 129.05817174492404,145.08709866937716 124.57063711900264,146.70681601786055 127.66204986115918,145.195079880883 121.77839335147291,148.65047451131977 125.86703601107001,146.1669104306493 126.3656509690918,144.33122997090686 125.66759002767503,145.08709866937716 133.44598337914795,140.98380683828145 130.05540166143328,143.4673795599956 134.0443213293329,141.41573282633908 131.45152354519814,148.11056962877046 121.37950138514861,157.39690635062288 128.06094182794914,149.19037919840775 125.36842105258256,148.32653160521295 127.86149584455416,147.03075927635655 129.45706371124834,146.70681601786055 128.3601108030416,146.1669104306493 128.26038781134412,148.32653160521295 132.04986149538308,143.68334220943507 131.35180055350065,143.03545416670386 128.5595567864366,145.4110422799131 129.85595567850396,143.35939822345972 125.66759002767503,145.8429669844918 127.16343490267172,145.8429669844918 125.36842105258256,146.1669104306493 127.4626038777642,145.950948141166 137.53462603874505,126.94614404684398 131.45152354519814,141.63169577345252 122.07756232656538,144.97911745030433 124.96952908532694,139.90399131993763 145.0138504151255,130.40158100740518 170.9418282546103,133.1011355558876 176.72576177306473,153.18566780118272 165.1578947370872,164.199651169125 159.77285318542272,158.4767091894755 170.14404432149604,147.03075927635655 168.64819944556803,146.70681601786055 186.0,142.8194914230844 159.9722991688177,129.64570485719014 158.97506925230846,139.3640832673991 161.36842105258256,131.91333215741906 166.3545706369914,145.6270046478603 167.05263157887384,145.73498582013417 166.4542936286889,146.49085380649194 163.66204986162484,148.65047451131977 174.33240997232497,146.70681601786055 168.94736842112616,148.00258862855844 167.05263157887384,146.70681601786055 168.14958448754624,146.05892928992398 168.5484764543362,146.70681601786055 168.5484764543362,147.13874034688342 167.95013850415125,145.950948141166 171.24099722970277,146.59883491625078 170.24376731319353,146.59883491625078 168.94736842112616,147.24672140926123 167.05263157887384,144.11526741506532 170.4432132965885,142.4955472489819 166.75346260378137,145.950948141166 167.25207756226882,146.8147971117869 168.5484764543362,146.27489156392403 169.04709141282365,147.67864558158908 169.54570637084544,149.40634101838805 173.7340720226057,146.59883491625078 169.94459833810106,146.27489156392403 169.34626038791612,148.54249355057254 168.5484764543362,147.78662660508417 169.24653739575297,148.00258862855844 167.25207756226882,148.32653160521295 170.6426592799835,145.51902346801944 168.5484764543362,147.67864558158908 158.97506925230846,175.64546917693224 172.73684210516512,153.40162904188037 176.32686980627477,161.1762128623668 175.22991689760238,156.31710272922646 170.34349030489102,146.05892928992398 170.04432132979855,146.49085380649194 172.03878116374835,148.54249355057254 172.83656509732828,149.62230280728545 169.04709141282365,148.7584554643836 170.6426592799835,148.11056962877046 169.34626038791612,146.92277819779702 166.15512465359643,143.57536088873167 169.24653739575297,148.32653160521295 172.5373961222358,148.86643640964758 171.24099722970277,149.19037919840775 165.65650969557464,147.24672140926123 170.9418282546103,150.27018798550125 169.34626038791612,147.03075927635655 166.85318559594452,148.00258862855844 168.64819944556803,148.21855062094983 167.3518005539663,143.57536088873167 164.65927977859974,134.93682985426858 161.86703601107,149.51432191685308 162.76454293634742,146.70681601786055 161.86703601107,147.89460762077942 158.77562326844782,154.5894153069239 165.5567867034115,142.38756584201474 167.05263157887384,144.0072861254448 171.54016620479524,149.51432191685308 171.73961218819022,152.53778389084619 168.14958448754624,149.73028368980158 169.8448753459379,131.69736780121457 169.24653739575297,156.1011419108836 167.95013850415125,170.8943855841644 168.24930747924373,150.59413046913687 166.75346260378137,155.99316149007063 166.95290858717635,163.44379216770176 170.24376731319353,144.76315498840995 168.14958448754624,148.86643640964758 170.24376731319353,156.20912232412957 168.84764542942867,152.53778389084619 166.05540166189894,175.32153214048594 170.24376731319353,157.18094568897504 168.94736842112616,149.94624543155078 167.75069252122194,148.43451258190908 166.4542936286889,145.950948141166 173.13573407195508,155.45325926865917 172.03878116374835,152.75374522572383 174.5318559561856,149.94624543155078 177.0249307481572,148.97441734711174 173.7340720226057,144.97911745030433 170.9418282546103,144.76315498840995 174.0332409972325,148.21855062094983 173.33518005535007,151.99788041668944 173.93351800600067,150.91807288199198 178.02216066466644,154.0495125767775 172.9362880885601,151.24201522453222 167.152354571037,151.99788041668944 168.5484764543362,145.950948141166 166.55401662085205,150.59413046913687 167.65096952905878,150.81009208550677 169.34626038791612,163.3358122787904 172.13850415498018,152.75374522572383 173.0360110802576,159.12459051725455 168.64819944556803,152.4298032115912 170.9418282546103,152.2138418299146 169.14681440452114,152.6457645620685 173.33518005535007,147.13874034688342 170.74238227168098,149.29836011247244 172.43767313007265,142.06362157396507 168.94736842112616,147.57066455029417 172.9362880885601,147.67864558158908 167.5512465373613,146.1669104306493 171.6398891969584,144.22324869700242 173.13573407195508,151.34999598993454 169.8448753459379,150.05422629066743 170.14404432149604,148.43451258190908 168.5484764543362,148.00258862855844 170.542936288286,150.48614964890294 169.34626038791612,145.6270046478603 171.24099722970277,135.26077567215543 168.84764542942867,155.99316149007063 170.14404432149604,148.97441734711174 171.04155124677345,144.87113622331526 168.64819944556803,160.31237221939955 171.8393351798877,154.15749313833658 169.94459833810106,138.28426657489035 171.8393351798877,169.92257116478868 170.24376731319353,159.66449140827172 171.54016620479524,157.18094568897504 170.8421052629128,170.24650937505066 170.8421052629128,148.54249355057254 169.8448753459379,149.94624543155078 174.0332409972325,148.65047451131977 160.17174515221268,145.51902346801944 174.5318559561856,149.83826456451789 168.94736842112616,147.67864558158908 175.52908587269485,138.39224827929866 164.36011080350727,141.7396772353677 150.9972299169749,137.20444909948856 144.6149584488012,137.63637618371285 135.9390581715852,145.4110422799131 132.4487534626387,149.51432191685308 129.95567867020145,151.56595749675762 132.24930747924373,151.13403445179574 134.14404432149604,147.03075927635655 138.3324099718593,143.4673795599956 142.62049861485139,139.0401383418357 146.9085872573778,133.42508177296259 150.39889196678996,132.4532429103274 153.78947368450463,137.20444909948856 172.5373961222358,133.85700995265506 178.4210526314564,144.33122997090686 179.91689750738442,151.99788041668944 170.542936288286,146.59883491625078 172.23822714714333,146.1669104306493 171.93905817205086,145.950948141166 171.93905817205086,146.8147971117869 179.61772853229195,146.8147971117869 173.13573407195508,146.49085380649194 170.9418282546103,145.30306108435616 170.9418282546103,145.73498582013417 169.6454293630086,146.49085380649194 174.63157894741744,148.32653160521295 172.9362880885601,146.59883491625078 168.04986149584875,148.21855062094983 171.8393351798877,147.67864558158908 166.85318559594452,158.04478814802133 167.95013850415125,154.26547369221225 171.14127423847094,147.35470246418845 171.34072022186592,145.8429669844918 169.34626038791612,146.05892928992398 167.85041551245376,146.70681601786055 176.32686980627477,151.99788041668944 165.35734072048217,163.55177204834763 170.8421052629128,149.29836011247244 171.73961218819022,148.11056962877046 172.5373961222358,148.11056962877046 174.43213296402246,147.46268351119943 174.33240997232497,147.24672140926123 172.23822714714333,147.35470246418845 172.13850415498018,149.08239827654324 167.25207756226882,157.07296534639318 168.24930747924373,146.3828726891661 167.3518005539663,149.08239827654324 171.14127423847094,146.1669104306493 169.54570637084544,151.02605367079377 171.44044321309775,142.6035286479164 165.35734072048217,142.6035286479164 167.5512465373613,123.49069907038938 169.14681440452114,148.32653160521295 169.24653739575297,148.97441734711174 172.33795013884082,147.13874034688342 173.13573407195508,145.4110422799131 167.85041551245376,150.16220714186784 168.74792243773118,147.46268351119943 158.87534626061097,165.27944907732308 172.43767313007265,144.65517374582123 172.5373961222358,147.13874034688342" stroke="#ff9e00" stroke-linecap="round" stroke-linejoin="round" stroke-width="0.5"><title>2025-01-11 29.4km</title><desc>1736530614000</desc></polyline><polyline fill="none" points="85.4487215510162,236.61974530636508 85.38803034563898,236.57045086303697 85.15538072495838,236.78953703140724 84.99859511101386,236.8278770455072 84.7507726889744,236.59235950848233 84.73054228720139,236.64713109428703 84.61927507727523,236.57045086303697 84.35122225349187,236.57045086303697 84.25512784492457,236.40065864524513 83.99213262155536,236.27468352720462 83.9769598202256,236.19252572827827 84.05788142737583,236.12679942474642 83.9769598202256,235.88032527687756 84.14386063502752,235.67219092530286 84.33604945213301,235.639327554185 84.4119134588691,235.52978288043232 84.62433267774759,235.4585787572505 84.65973588087945,235.3271248149249 84.79123349257861,235.23401146726246 85.04411351506133,235.2613977579167 85.39308794608223,234.97110257155146 85.68137117169681,235.09160259574855 85.74206237707403,234.92180705165083 86.0,234.83417049236596 85.82298398428247,234.65341976749914 85.80781118295272,234.4124181277075 85.30205113798729,234.43432739948184 85.05928631642018,233.93041253967385 84.94296150605078,233.96327665480203 84.55352627145476,233.82634274729935 84.38156785615138,233.85920690776402 84.0831694296212,233.51960989298095 83.94661421750789,233.4757908120373 83.542006181553,233.51960989298095 83.26889575726818,233.43744909533416 82.32818207363016,232.75277230340726 82.27760606913944,232.3693505868141 82.34841247546137,232.22693631023867 82.05001404890209,231.66823155301245 82.00955324532697,231.24098394771863 81.69092441699468,230.6329735695981 81.70103961788118,230.3864814801418 81.51390840124805,230.11807806701108 81.03343635855708,229.8277630963712 80.96262995226425,229.42789347779035 80.71480753022479,228.90751203367108 80.70469232933829,228.57337047735928 80.31525709471316,227.69692657686392 79.99662826640997,227.43946924633929 79.93087946056039,227.4997252960602 79.66788423716207,227.4832918327229 79.4099466142361,227.24226729254588 79.03062658052659,226.76569377602573 79.00028097783797,226.62874680635286 78.78786175893038,226.4479764257194 78.60073054229724,225.90566268459224 78.14554650185164,225.5441180244452 77.98876088790712,225.46742651012755 77.39196403487585,225.702978770365 77.06827760610031,225.59889762979583 76.44619275079458,224.9031936861502 75.73307108739391,224.32252248941222 75.45490306269494,224.22391750255338 75.21213824112783,223.92810176847706 75.16661983705126,223.632284874162 74.87833661143668,223.2762074439379 74.47878617592505,223.2981199497226 74.30682776062167,223.17212295448553 73.92750772691215,223.48985410380556 73.56841809500474,223.52272276700387 73.33576847432414,223.70897825445718 73.28013486936106,223.94453600636916 73.37622927789926,224.1198343210126 73.35599887612625,224.25130778961466 73.00196684463299,224.43208343473816 72.78449002531124,224.72241917016072 72.44057319473359,224.70050707817427 72.35965158755425,224.29513222821697 72.09665636418504,224.24035167597322 71.97021635292913,224.28417612096382 71.85389154258883,224.45947364620224 71.59595391966286,224.45947364620224 71.50997471201117,224.84293556230114 71.11042427649954,225.22091754309804 70.46810901942081,225.2647414183375 70.39730261312798,225.35786706869112 70.41753301490098,225.2647414183375 70.10396178704104,225.67011105728307 69.93706097221002,226.21790440564655 69.2289969092526,226.5739679488761 69.17336330431863,226.940985534442 69.2188817083661,227.4997252960602 69.13796010118676,227.57093692915078 68.55633604945615,227.63119287386507 67.63585276764934,227.3134791686607 67.4386063501297,227.34086833387846 67.28182073618518,227.2313116133446 67.0896319191088,227.2258337731255 66.85698229839909,227.02315340597852 66.5181230683229,226.97385269379447 66.20455184043385,226.82047249428433 65.91626861479017,226.51371115969232 65.55212138243951,226.60135738258396 65.41050856985385,226.6999592616121 65.38016296713613,227.05054267661035 65.13234054512577,227.57641474428237 65.16774374825764,227.7955270239545 65.27901095818379,227.9379496644833 65.17280134870089,228.23374967417476 65.2031469514186,228.5295485241295 65.34981736444752,228.76509122340212 65.35993256533402,228.95133376734884 64.84911491995445,229.0170663201643 64.72267490869854,228.74865803568537 64.32818207365926,228.661014307414 63.974150042166,228.30496061441954 63.5189660017204,228.23922744119045 63.18516437202925,228.32139389877557 62.856420342839556,228.1241942502529 62.80584433831973,228.19540529389633 62.86653554372606,228.47477104682184 62.70469232930918,228.57337047735928 62.82607474012184,228.72126938154543 62.75526833382901,228.858212552841 62.77044113515876,229.34572822521295 62.2899690924678,229.64152271573403 61.769036246143514,229.41146043443587 61.495925821887795,229.17591975301912 61.344197808386525,229.30738441006542 61.13683618995128,229.2471298040182 60.514751334674656,229.41693811595178 59.867378477123566,229.37859433699487 59.74093846589676,229.25260749746667 59.37173363304464,229.13757585157146 58.95701039620326,228.68292524903518 58.92666479348554,228.5295485241295 58.749648777768016,228.44738229325594 58.6029783647391,228.51311528511724 58.26917673507705,228.43094903634483 57.717898286064155,228.45286004476657 57.27788704694831,228.56241499142925 56.31188536109403,228.47477104682184 56.26636695704656,228.56241499142925 55.94773812871426,228.61719240511593 55.64933970218408,228.86369027451292 54.93116043834016,228.9239451867761 54.5670132059895,228.82534621439117 54.07136836191057,228.9020343151642 53.762854734493885,228.63362562147086 52.96375386347063,229.00611089867016 52.549030626629246,228.90751203367108 52.346726608637255,228.96776691092236 52.14442259064526,229.16496435461158 52.21017139646574,229.35120591150917 52.14442259064526,229.5538800246286 51.7802753582655,229.70177700683416 51.44647372860345,229.68534402312798 51.057038493978325,230.0194806550644 50.5512784490129,229.74012062157271 50.05563360496308,229.59222371452051 49.34251194156241,229.6086567185048 49.059286316420184,229.46075955377455 48.38156785618048,229.41693811595178 48.285473447613185,229.53744700871175 47.5217757797509,229.52649166277843 47.167743748257635,230.01400301729154 46.92497892669053,230.1126004363905 46.68221410509432,229.98661482246098 46.26243326780968,230.07425701094326 46.01966844621347,230.28240680063027 45.94886203992064,230.51794402806263 45.35712278733263,230.75895810437942 45.27114357968094,230.75348052027402 45.043551559443586,230.4631679942613 44.436639505496714,230.7370477656077 44.24445068842033,230.7151374204841 44.037089069985086,230.55080962923967 43.86007305426756,230.74800293579756 43.814554650190985,230.99997141093627 43.62742343355785,230.63845116244192 43.26833380165044,230.45221278273675 42.848552964336704,230.55628722804977 42.36302332117339,230.43577996245585 42.0545096937567,230.53985443044076 42.02416409106809,230.70965983321366 41.89266647936893,230.86303212663915 41.432424838480074,230.75348052027402 41.42230963756447,230.8520769731549 41.300927226780914,230.91780787017342 41.06322000565706,230.91780787017342 40.7091879741638,230.76443568807736 40.527114357973915,230.83564423995995 40.36021354314289,231.11500021768734 40.15285192470765,231.18620843876852 40.06687271708506,231.32862467933592 39.697667884262046,231.55320358955214 39.611688676610356,231.7832593411731 39.045237426267704,232.4898547647972 38.72155099749216,232.5994038505305 38.579938184906496,232.7637271809799 38.49901657769806,232.56106168861152 37.932565327355405,232.30362095410237 37.841528519260464,232.007836898425 37.61393649902311,231.84898942710424 37.53301489184378,231.6627540349291 37.239674065756844,231.74491676458274 36.253441978100454,231.5751136913459 35.65664512506919,231.7339617391408 35.51503231245442,232.18859395909385 34.98398426527274,232.37482805363106 34.47316661986406,232.676088115928 34.149480191088514,233.17453394184122 33.93706097221002,233.36076560350193 33.79544815962436,233.39362996668933 33.64877774656634,233.35528820825857 33.74487215510453,233.32242382837285 33.6740657488408,233.3005142338443 33.70946895197267,233.38267518055363 33.77521775782225,233.32242382837285 33.73475695421803,233.39910735916055 33.370609721838264,233.39362996668933 33.13290250071441,233.53056465923873 32.738409665675135,233.46483603781962 32.161843214416876,233.4922229703734 31.448721551016206,233.7277501800636 31.09468951955205,233.67845384815155 30.300646248972043,233.95779930327262 29.794886204006616,234.26453037687315 29.304298960400047,234.3905088495667 28.712559707812034,234.25905304720072 28.46473728577257,234.4452820329825 28.095532452949556,234.51648711200687 28.029783647099975,234.62055595283164 28.22197246417636,234.94371617557772 28.21691486373311,235.129943472195 28.591177296999376,235.60646416874806 28.48496768757468,235.71053150686203 28.141050856997026,235.54621459161717 27.68586681652232,235.1408980047563 26.906996347301174,235.3216475623558 26.446754706383217,235.0313526076934 25.561674627737375,234.8834660694847 25.445349817397073,235.1408980047563 25.050856982299592,235.23401146726246 24.681652149476577,234.84512506784085 24.266928912635194,234.75748841952736 23.902781680284534,234.81773862616683 22.931722393957898,234.6315105593094 22.790109581372235,234.4014634894338 22.587805563380243,234.25905304720072 22.542287159332773,234.1111649958766 22.436077549908077,234.0673462583727 22.53722955888952,233.9687540059458 22.476538353512296,233.88659369721427 22.481595953926444,233.6236801082705 22.562517561134882,233.57438370839373 22.49171115484205,233.48126819854951 22.304579938208917,233.67845384815155 22.026411913480842,233.7003633329805 21.490306265826803,234.10021031389624 21.207080640655477,234.09473297229124 21.08569822984282,234.20975706229365 21.01994942399324,234.43980471642863 20.888451812323183,234.50553248883807 20.74178139929427,234.4452820329825 20.736723798821913,234.29191701926175 20.276482157903956,234.15498370796558 19.76060691208113,233.79895593597757 19.54313009273028,233.78800120867527 19.41163248103112,233.65106698317686 19.24978926667245,233.65106698317686 18.941275639255764,233.2840820337733 18.248384377657203,233.01568892611976 17.94998595112702,232.55558423532784 17.681933127285447,232.70347533468157 17.201461084594484,232.61583619967132 16.892947457177797,232.24884621644014 16.675470637826947,232.19954891854286 15.911772969964659,232.5446293275454 15.431300927215489,232.38030552004784 15.314976116875187,232.18859395909385 15.122787299827905,232.18859395909385 14.920483281835914,231.9968819111382 14.672660859796451,232.0954767394869 14.601854453532724,232.007836898425 14.34897443105001,232.12834165363165 14.0,232.0790442770376" stroke="#ffd300" stroke-linecap="round" stroke-linejoin="round" stroke-width="0.5"><title>2024-11-09 21.0km</title><desc>1731113022000</desc></polyline><polyline fill="none" points="186.0,236.08888145297533 185.73797468363773,235.87914776650723 185.3164556962438,236.2862776275142 183.77848101273412,236.94015081918042 183.7101265823585,236.48367357291863 183.16329113929532,235.52136617500219 183.26582278485876,235.6447392226255 183.6759493671707,234.76878864638275 184.0860759494244,234.69476444729662 184.3481012658449,234.38632993753708 184.0632911393186,233.6954346056591 182.38860759499948,232.73311143007595 182.04683544306317,232.80713648306846 182.32025316462386,232.47402349079493 182.02405063301558,232.7701239605958 183.3683544304222,231.05520158522995 184.50759493676014,231.585718987757 184.89493670890806,231.65974454025854 185.05443037982332,231.52403100275842 185.10000000003492,230.31494197830034 184.6784810126992,229.11818213049264 183.25443037983496,227.8597245447163 183.4253164557158,227.5266018599068 184.47341772157233,226.98373386391904 185.74936708866153,225.3181053307344 185.6696202532039,225.05900609226956 183.7670886076521,224.56548264079902 182.51392405072693,224.91094920727483 181.31772151903715,224.1953391120187 180.70253164559836,224.17066284810426 180.01898734184215,224.2570297561033 178.20759493671358,224.9849776658666 176.81772151903715,225.2194009054947 175.80379746836843,225.17004867139622 175.4164556962205,225.76227453518368 175.00632911396679,225.98435870224785 173.55949367088033,225.17004867139622 172.68227848107927,224.40508721060178 172.19240506336791,223.29465315873676 171.45189873425988,222.78878635246656 171.5772151898709,222.06082903825154 171.33797468361445,221.8140631395072 170.5177215190488,221.92510783826583 169.62911392410751,222.59137450752314 169.5721518988139,222.82580104787485 169.9367088607978,223.75116581363545 169.81139240512857,224.31872037783614 169.45822784816846,224.50379210864776 167.9544303797884,223.59076961511164 166.27974683546927,223.08490369003266 165.12911392410751,223.60310778958956 164.83291139244102,223.4920641869685 163.88734177214792,222.529683258952 161.2215189873823,222.09784389217384 159.9683544304571,221.22182352095842 159.3417721519363,219.8152461569989 158.57848101272248,219.44509228454262 157.45063291146653,219.60549239489774 156.58481012663106,219.3957383739762 155.85569620260503,219.55613853089744 155.62784810131416,220.11136867458117 155.34303797472967,220.2841065715911 154.63670886080945,220.0373380935489 154.44303797470639,220.0866918177926 154.39746835449478,220.3581370451284 153.95316455699503,220.53087469139427 152.8822784810327,220.13604552773177 152.51772151899058,220.21007606577768 151.35569620254682,221.3945602895401 150.43291139241774,221.75237160884717 150.41012658231193,222.24590322718723 149.24810126586817,223.6894749859348 148.3594936709269,224.1953391120187 148.0518987342366,224.59015884740802 147.48227848106762,223.99792890046956 146.60506329120835,223.6894749859348 146.4227848101873,223.03555083625542 145.8189873417723,222.57903625958716 145.7506329114549,222.1965501298546 144.94177215197124,222.29525631024444 142.73164556967095,221.9374461336556 141.9341772152693,222.2212266803108 141.45569620258175,222.17187357580406 141.12531645572744,222.9121686391445 141.12531645572744,223.3193295497622 138.89240506332135,224.2570297561033 138.0721518987557,225.52785204414977 137.4911392405047,225.94734469454852 136.4886075949762,225.94734469454852 135.65696202532854,226.32982238546538 134.8822784810327,226.1570906315901 133.52658227848588,226.21878056383866 132.022784810164,226.7246371638612 131.17974683549255,226.67528536671307 129.66455696203047,227.13178894382145 128.29746835445985,228.00777886179276 127.24936708866153,228.25453577043663 126.62278481019894,228.08180597200408 126.38354430382606,228.21752225697855 125.93924050638452,227.92141385917785 125.92784810130252,228.14349520586256 125.73417721519945,227.7980352078739 125.76835443038726,228.09414382056275 125.39240506337956,228.34090060382732 124.36708860762883,228.5753192162665 124.24177215190139,228.77272411287413 124.61772151902551,229.38961293763714 124.75443037977675,230.092863467813 125.44936708867317,231.0798768499517 125.36962025315734,231.25260360277025 124.57215189875569,231.0058510450035 123.59240506333299,230.01883723319042 122.90886075951857,229.95714867970673 122.30506329122,230.2902666025766 121.65569620259339,230.3766304019664 121.21139240509365,229.98182410377194 120.37974683544599,229.63636784085247 118.64810126583325,229.46363944621407 118.67088607599726,229.87078466726234 119.70759493677178,229.87078466726234 120.66455696203047,230.43831880326616 121.42784810130252,231.35130452564044 122.61265822785208,231.1662402482907 122.9886075949762,231.2649412212777 124.72025316453073,232.69609889146523 125.03924050636124,233.36232335345994 126.03037974686595,234.5837280882406 126.03037974686595,234.805800733855 125.48354430386098,235.0772224625107 124.97088607598562,234.86748752840504 124.83417721523438,234.67008970709867 124.90253164561,233.75712180300616 124.54936708864989,233.39933574706083 123.51265822787536,232.9798614814208 123.09113924053963,232.38766075663443 122.6582278481219,232.2149351567641 121.3822784810327,232.68376137682935 120.86962025321554,232.69609889146523 120.07215189875569,232.53571113117505 119.25189873424824,232.01753425634524 118.57974683545763,232.67142386126216 118.05569620255847,232.5850612273789 117.46329113928368,232.9675239873468 115.80000000004657,232.88116150382848 115.18481012660777,232.60973627011117 115.31012658227701,232.80713648306846 117.28101265826263,233.91750841129397 118.10126582277007,234.12724451700342 118.1696202532039,234.287630776249 115.61772151902551,233.99153294875578 114.92278481012909,234.12724451700342 114.15949367091525,233.99153294875578 114.0,234.065557453956 114.10253164562164,234.2629559769848 114.74050632916624,234.49736642546486 115.81139240512857,234.55905333190458 118.27215189876733,237.18689476650616 119.53670886077452,237.47064986333135 121.29113924055127,238.2232154361991 121.49620253167814,238.70436217213864 121.3822784810327,239.51860739380936 120.97215189877898,240.60426162600925" stroke="#4dd2ff" stroke-linecap="round" stroke-linejoin="round" stroke-width="0.5"><title>2024-10-27 13.8km</title><desc>1729977789000</desc></polyline></svg>