<?xml version="1.0" encoding="utf-8" ?>
<svg baseProfile="full" height="300mm" version="1.1" viewBox="0,0,200,300" width="200mm" xmlns="http://www.w3.org/2000/svg" xmlns:ev="http://www.w3.org/2001/xml-events" xmlns:xlink="http://www.w3.org/1999/xlink"><defs /><rect fill="#222222" height="300" width="200" x="0" y="0" /><text fill="#FFFFFF" style="font-size:12px; font-family:Arial; font-weight:bold;" x="10" y="20">Over 10km Runs</text><text fill="#FFFFFF" style="font-size:4px; font-family:Arial" x="10" y="280">ATHLETE</text><text fill="#FFFFFF" style="font-size:9px; font-family:Arial" x="10" y="290">Zayn</text><text fill="#FFFFFF" style="font-size:4px; font-family:Arial" x="65" y="280">SPECIAL TRACKS</text><rect fill="yellow" height="2.6" width="2.6" x="65" y="283" /><text fill="#FFFFFF" style="font-size:3px; font-family:Arial" x="70" y="285.5">Over 20.0 km</text><rect fill="red" height="2.6" width="2.6" x="65" y="287" /><text fill="#FFFFFF" style="font-size:3px; font-family:Arial" x="70" y="289.5">Over 40.0 km</text><text fill="#FFFFFF" style="font-size:4px; font-family:Arial" x="120" y="280">STATISTICS</text><text fill="#FFFFFF" style="font-size:3px; font-family:Arial" x="120" y="285">Number: 13</text><text fill="#FFFFFF" style="font-size:3px; font-family:Arial" x="120" y="290">Weekly: 2.2</text><text fill="#FFFFFF" style="font-size:3px; font-family:Arial" x="141" y="285">Total: 426.8 km</text><text fill="#FFFFFF" style="font-size:3px; font-family:Arial" x="141" y="290">Avg: 32.8 km</text><text fill="#FFFFFF" style="font-size:3px; font-family:Arial" x="167" y="285">Min: 10.2 km</text><text fill="#FFFFFF" style="font-size:3px; font-family:Arial" x="167" y="290">Max: 111.4 km</text><polyline fill="none" points="39.58698435680708,51.715482941224764 39.63497563256533,51.395027315375046 39.31503379397327,51.15251978395099 39.155062874691794,50.44231632469746 39.019087593245786,50.58089294091769 39.05108177711372,50.36436690741539 38.739138484495925,50.26909532837453 38.49918210550095,49.94863582308608 38.87511376591283,49.62817545823782 38.9391021336196,49.75809192595625 39.25904397224076,49.558886617691314 39.307035248028114,49.43763105000835 39.107071598875336,49.29039198096143 38.69914575465373,49.402986579501885 37.1234321994998,50.95331680064555 38.651154478866374,49.524242182327725 36.89147436647909,48.07782804092858 36.65151798748411,47.84397500824707 36.69950926330057,47.59279901876289 36.003635764325736,46.97784867729206 35.65169974183664,46.85659048980597 34.779858231631806,46.18966825849202 34.54790039861109,45.8172295479817 32.25231770655955,43.49595745690749 32.16433370093,43.23611075843655 32.220323522691615,43.06287931204861 33.89201962944935,41.555755126122676 34.33993820351316,41.61638692609995 34.315942565648584,40.888803295005346 35.01181606459431,40.325789109607285 35.33975644921884,39.79741953656776 35.56371573623619,39.95333211275283 37.45137258403702,38.34222567554389 38.643155932892114,37.16419860834867 39.81094364382443,36.24602239319938 39.97891310910927,35.92552525935025 42.650427461543586,33.43947773028049 41.63461212391849,32.400000000001455 28.101072350516915,59.345537390916434 27.261225024150917,59.9604240878034 26.013451853592414,59.570707534308895 25.349572538456414,59.74391504828964 25.429557998111704,59.87382051906752 25.869478026172146,59.98640514617 26.125431497086538,60.27219641571719 26.709325352538144,60.514685441921756 27.141246834682534,61.00832229667867 28.437011281086598,63.11275128240959 29.156880417955108,63.25997332294355 29.804762641142588,63.9960808060423 30.276676853129175,64.17794195660099 30.26867830712581,64.31650264756172 29.204871693771565,65.3037429224205 29.364842613082146,66.6113907369072 29.332848429185105,68.30005384238757 29.47682225657627,68.58582523939549 30.828576524712844,69.93673532595858 30.668605605431367,70.13590667607787 30.180694301525364,70.11858744142228 29.724777181487298,70.30043928034138 29.79676409519743,71.14041799548431 29.70078154359362,71.32226828063722 29.07689495832892,71.53009683936398 28.820941487443633,71.33958734101179 28.540992378635565,71.45216117217933 28.285038907721173,72.24883448758919 26.965278823452536,74.2924504661205 26.16542422689963,75.21033441540203 26.16542422689963,75.59999999999854 26.141428589005955,75.27960838988656 27.453190127329435,73.56506573024672 28.301035999669693,72.21419662769767 28.556989470525878,71.46948021371645 28.828940033359686,71.32226828063722 29.140883326006588,71.49545877132914 29.71677863554214,71.27897061877593 29.82875827906537,71.10577981458482 29.74877281941008,70.23116242192191 30.2126884853933,70.08394896453683 30.660607059457107,70.10992782313406 30.876567800558405,69.90209679640247 29.580803354125237,68.63778360182187 29.31685133726569,68.15283800772158 29.348845521133626,66.49881234858913 29.1968731477682,65.29508295543201 30.30067249102285,64.16062185894407 29.844755370984785,63.97876068201731 29.124886234116275,63.22533285911777 28.461006918980274,63.11275128240959 27.285220662073698,61.094925043478725 28.636974930239376,59.74391504828964 28.197054902120726,59.21563134601456 28.74095602775924,58.964479258836946 29.428830980788916,58.141735966841225 32.42828571778955,55.26642018934217" stroke="#4dd2ff" stroke-linecap="round" stroke-linejoin="round" stroke-width="0.5"><title>2025-04-17 15.2km</title><desc>1744896542000</desc></polyline><polyline fill="none" points="98.72328447163454,32.399999999999636 98.61985775339417,32.54138647817672 98.60239609966084,32.59385955364269 98.62523056992359,32.618638457655834 98.41972033758066,32.971370084906084 98.12421542833181,33.42029216870651 97.87840907199279,33.6651544749584 97.31292013202619,34.086368866417615 97.17322690220317,34.24960525581446 97.10472349141492,34.395350896493255 97.08323222528998,34.5512975456877 97.09532106248662,34.72181724443362 97.4821638527792,35.852748395733215 97.5117143437019,36.10486729837248 97.48350705690973,36.45316502049354 97.34784343947831,37.07979406256527 97.3330681940206,37.12351162939012 97.27665362043626,37.174515335624164 97.31426333615673,37.29109474335746 97.16919728979701,37.89438223714569 96.99055114010844,37.946841152624984 96.52042969357717,37.91769732780631 96.50028163158277,37.892925043070136 96.47073114066006,37.90749697901265 96.43043501667125,38.44956539566556 96.39148209682025,38.64919438967445 96.3981981174802,38.79782197214263 96.26253450004879,39.31800974934413 96.21149274300114,39.40834909490877 96.15373496528628,39.43166240768733 95.17050953995204,39.41563450809008 94.72187935955299,39.43457656986175 94.23295305515057,39.42583408205792 94.184597706364,39.842555053368415 94.13221274518583,39.95766175243443 94.07311176332587,39.98243146120876 93.67015052344505,39.97514625595613 93.67149372757558,40.39331271229821 93.64328644078341,40.55504023526373 93.67552333997446,40.63663199937946 93.66880731931451,41.452531210163215 93.18659703557933,41.54577470084223 92.69498432291584,41.58074089703587 92.74065326343407,41.57491320194276 92.75274210063071,41.64921618634253 92.73125083450577,42.221776923257494 92.70035713945254,42.502952110637125 92.71647558904078,42.57433792400843 92.68961150637915,43.34645380795155 92.71110277251137,44.15641484527441 92.6922979146475,44.32976552899163 92.86825765606773,44.404058216550766 92.9367610668487,44.46378350921259 93.0200397230874,44.49583115327914 93.03615817268292,44.53661898921382 93.01735331482632,44.49146102303894 92.89109212633048,44.42008209316373 92.81452949075174,44.404058216550766 92.81587269488227,44.38803432702298 92.80915667421505,44.404058216550766 92.82661832794838,44.37492386235499 93.29136695794296,44.63858821305803 93.95222339136672,44.90224906815274 94.34443899818143,45.07850658547068 94.39010793869966,45.12803321005049 94.37533269324194,45.60872639471381 94.39413755110581,45.91607261586614 94.30145646593155,46.81477816491861 94.1362423575847,49.143649566194654 94.09325982532755,49.383949121089245 94.09863264185697,49.595119063498714 94.06505253853538,49.857257945979654 94.04356127240317,50.327642957252465 94.015353985611,50.46744564898836 94.00326514841436,50.84752925746761 93.93341853350285,51.34119024550819 93.84073744832858,51.72999427214745 93.83267822353082,51.957157158822156 93.83805104006024,52.12607147291055 93.97640106576,52.944411933609445 93.99789233188494,54.912951036112645 94.08385739639198,55.28421436794997 94.16042003197072,55.456012316264605 94.21146178902563,55.697691671135544 94.19937295182172,55.7413683506129 94.23295305515057,56.135910022212556 94.23429625928111,56.33099416546793 94.21414819729398,56.42271217068446 94.23832587167999,56.591588664876326 94.23698266754946,57.54222019662484 94.25444432128279,57.86685122178096 94.31488850725873,58.02115828848764 94.47607300321397,58.306477647629436 94.79306917859503,58.553945218387526 94.8602293852382,58.690778911248344 94.99454979853908,58.87128149727505 95.41765910042159,59.22937050812652 95.42571832521935,59.2497493644114 95.39616783428937,59.271583830213785 95.35855811856891,59.22354797393746 95.3182619945801,59.21190290047343 95.32363481111679,59.19006836941662 95.40019744668825,59.28031760985323 95.45661202027986,59.25411625948436 95.67018147741328,59.43752499018956 95.82867956510017,59.620932036585145 95.8998693841495,59.76649198576706 95.9253902626806,59.98628549881505 95.96031357013271,60.101275843317126 96.15776457768516,60.49718690325608 96.30148741990706,60.632551752469226 96.53251853077381,61.0910387825661 96.72191031352122,61.288985486775346 96.85488752269157,61.37049238326654 96.91533170866751,61.46364271502898 97.08188902115944,61.83332881310707 97.25113274190517,62.14333589929083 97.22695506751188,62.21756223460943 97.18128612698638,62.27141254064372 97.81930809015466,63.507018900190815 97.89721392985666,63.509929543508406 98.00467026049591,63.442984640007126 98.0194455059609,63.45317192238872 98.51911744342215,63.95816355788338 98.90058741717803,64.55918885496612 98.99058209409122,64.80512378126878 99.18534669336805,65.68988241592706 99.33981516865606,66.15989452678332 99.71322591762146,67.06641921401388 99.79516136972961,67.21046991803632 100.11215754511068,67.90742787516865 100.58630860404082,68.98119035397576 100.58496539990301,69.02483801740345 100.88718632982636,69.61843679638514 101.03359558031661,69.82648318544125 101.38685826728761,70.24256948149923 101.55610198804061,70.40260037119879 101.55610198804061,70.4302419408632 101.60177092855884,70.44624493744959 101.6890791971964,70.52335010546994 101.71728648399585,70.58736171764394 101.89593263367715,70.72847750392975 102.7596128911755,71.30456875423442 102.96646632764168,71.49950497257487 103.15854451865016,71.7249885316869 103.5332984717461,72.0712099619468 103.89999320004426,72.38396787752936 104.63606906490895,72.9163724548489 105.15454586023407,73.38766962776208 105.20021480075229,73.46185428479112 105.24185412887164,73.47058187345283 105.37080172563583,73.57676723130498 105.78719500685838,74.00295759947039 105.8865921126926,74.13823114698243 106.00613728052849,74.23714026018752 106.09613195743441,74.37823035695328 106.15120332688821,74.40004832455088 106.31104461870564,74.55277343323542 106.80803014789853,75.06766665982286 107.0310020339748,75.3352895580665 107.31038849362812,75.60000000000036" stroke="red" stroke-linecap="round" stroke-linejoin="round" stroke-width="0.5"><title>2025-04-13 42.2km</title><desc>1744527409000</desc></polyline><polyline fill="none" points="167.194281440974,75.13708461718579 167.12347601220245,74.95560189255866 167.2014516109739,74.83720007237753 166.95945837340696,75.07594365318437 167.14946787845838,75.15940585193312 167.03743397217477,75.18657947879092 166.8178475158602,75.05265178393438 166.9899315959119,75.2933324789883 167.09479533219564,75.43211010688174 167.2525390722367,75.50198361291314 167.32334450100825,75.60000000000036 167.38966857352352,75.49713129788233 167.42193433853754,75.48354480645412 167.2758421247454,75.43113963895303 167.04729295592915,75.19143190635532 167.15036414970746,75.16425828934462 167.15484550595647,75.12349776042447 167.10286177344824,75.09050105089045 167.17994110096697,75.02353689038773 167.23819873223692,75.10020597390212 167.1790448297179,75.13029119052862 167.15394923471104,75.07982562745383 167.09031397593935,74.93425082204612 166.92540006589115,75.07303217174376 166.20300543818666,74.30340837192944 166.6081200433,73.92100632061829 166.61529021330352,73.8812125860577 166.6556224195665,73.83850698318565 166.76227869834838,73.72980119723525 166.84383938211977,73.70165401943996 168.95724699023413,71.66810637206709 168.72063138016165,71.38076396577799 168.6811954451514,71.20505492410757 168.87030867895737,70.43035436762148 169.20372158405007,69.78182362524603 169.2566015878183,66.99219983909461 169.26287548657274,66.50665057156766 169.28169718282516,66.32213721592052 168.89271546021337,65.9142565298589 168.70808358266004,65.61416491692307 168.70808358266004,65.3733098049097 168.89898935896417,64.97511237508206 169.1123019165243,64.75172812124856 169.13381242653486,64.5739892797219 169.16518192029253,63.75033791179703 169.20372158405007,63.61920947020553 169.17145581904333,63.62892273236048 169.29065989533046,63.104396441139215 169.34802125534407,62.146596990121 169.17683344654506,62.010595539209135 168.9187073264693,61.782304266137544 168.73049036391603,61.3927428832676 168.59336086262556,60.842868757890756 168.55033984261172,60.40567346851549 168.42934322383007,60.223990311686975 168.0609757399725,60.063679583335215 167.61642519984525,59.6332600100086 167.5205241760632,59.44476488573582 167.55727129732622,58.86468838507608 167.84407809740878,58.87440511777277 168.52165916260128,58.29236030097036 171.30637393716097,56.3682243985686 171.38076445092884,55.86187767247975 171.4022749609394,55.61015493643481 171.47308038970732,55.316634367883125 171.46322140595657,55.05712567851333 171.50624242596678,54.8131634450483 171.5107237822158,54.52740118218571 171.49638344221603,53.61467028905827 171.45246615094948,53.12571619598475 171.36015021217827,52.105950749458316 171.21943562588422,51.38652660344815 171.40854885968656,51.29027635744387 172.671395051304,50.73512240523269 173.33822086149667,49.82407505440733 173.50582358529573,49.263025390459916 173.96829955042995,47.96192098224128 174.52129891184086,47.075968771258886 174.50247721558117,46.81338097711523 174.48275924807967,46.4360234630185 174.16189414048858,45.94874950737267 174.16099786923587,45.68808461014305 174.523091454339,45.10156979932708 174.67007993938387,44.74556304264024 175.24996743830343,44.17067942601443 175.45969491085998,43.932353164734195 175.6685261121711,43.70180489429822 175.7267837434374,42.65796426787256 175.65328950091862,42.15401167263008 175.09849759700592,42.14428266877894 174.82871995068126,42.042127695413 174.61182230811391,41.7988983863188 174.54639450684408,41.477828835001674 174.58762298435977,41.13631901218014 174.49530704558128,40.907667894730366 173.2557639064762,40.236286394518174 172.93758761263234,40.109790402309955 172.33081197620777,39.77797591927538 171.94810415234315,39.60184812448006 171.775123801046,39.53859723734877 171.6146912472468,39.432529684108886 171.42109665719545,39.33911168286977 169.6868117879385,38.423385603921815 169.6088361891707,38.328014086820986 169.55237110040252,38.273515767191384 168.00809573620427,36.08561133176045 167.9319126799346,35.667065065919815 168.14074388124573,35.15700465068585 167.86469233616663,34.91170138185771 167.14588279345844,35.74688189221797 166.90478582713695,35.62618308943547 166.53552207203393,35.33319187584766 166.198524081934,35.15213756679077 165.79878710431876,35.039220715222655 165.31300808667584,35.001257073383385 165.06205213660724,34.96231989107582 164.94643314532368,34.9496652820244 164.88548670030286,34.93506379492101 164.78510432027542,34.893206108769846 164.05733206506557,34.67710151809024 163.6800018687063,34.48338312528995 163.33493743735744,34.168949712692665 162.99793944726116,33.77954807374863 162.9244452047351,33.76202472897239 162.04161802323506,34.24390820528606 161.4653156093118,34.23417336024795 161.1050145667141,34.30231712425666 160.84061454788753,34.08522933297809 160.42564095901616,33.06691322241022 160.27506738897137,32.8799862127762 160.14600432893712,32.83325404516927 160.14779687143528,32.830333279178376 159.49800021499323,32.400000000000546 159.42181715872357,32.40584172252966 159.15203951239891,32.47788942029911 159.15741713990064,32.47788942029911 159.1224625611394,32.51391312112173 158.96203000734022,32.64924452067771 158.62413574599486,32.739789211683274 157.91070383079204,32.79236326226601 157.56922448443947,32.97831793971727 157.48407871566815,32.99973663420042 157.48766380066445,33.01336669434113 157.66154042321432,32.90919373319048 157.6561627957126,32.93645402704533 157.50469295441872,33.052309645469904 157.18203530432947,33.129221635153954 156.67205696292876,33.34243100158437 156.69625628668655,33.54298094956448 156.52865356288748,33.720163310847056 156.27321625656623,34.05602442401687 156.5044542391297,34.167002733169284 156.68818984543395,34.3597523083954 156.69177493043753,34.60701278059696 156.90508748799402,34.724800584297554 156.9561749492641,34.93506379492101 156.87371799424,35.07621082501555 157.1022671630526,35.248505492914774 157.57012075568855,35.27673434776443 157.60776414820066,35.443186019580935 157.65437025321444,35.49672265965273 158.35525437091928,35.607688820269686 158.6447499847527,35.655384514167054 158.8768842385689,35.73422803739777 159.04090187736438,35.928901381184005 159.15114324114984,35.881206678180206 159.3411527462049,35.71378716930758 159.450497838734,35.52981792824812 159.52219953875465,35.42177130259006 159.51682191125292,35.219303165567 159.64498870004172,35.13753630431256 159.6225819187821,34.86205611639434 159.48276360374075,34.74232264682996 159.4074768187238,34.55152559865928 159.42271342997628,34.42205459753859 159.40478800497294,34.541790981212216 159.48993377374427,34.752057115932985 159.6485737850453,34.87957799617834 159.66918802379587,34.827012286844365 159.5921086962735,34.68683603544014 159.71131277256063,34.377274857034536 160.20426196020344,34.40647905290916 160.2499717939645,34.24682865739487 160.3700721415007,34.12319561770437 160.47941723403346,34.06478590351162 160.77787556036856,34.074520873885376 161.1587908417241,34.33346844168409 161.39002882429486,34.54957867574649 161.46262679556094,34.88444518086635 161.30129797051995,34.917541989009806 161.25289932300439,34.98276192615231 161.25469186550617,35.189127359245504 161.34342271928108,35.307883358720574 161.34342271928108,35.44026583295454 161.23138881299747,35.583354215994405 161.29143898676193,35.78873686381303 161.45456035431198,35.818911295679754 161.47338205056803,35.81404445650605 161.6902796931281,35.81404445650605 161.85519360317994,35.824751500307684 162.08732785699613,35.81209772033617 162.19398413577437,35.72060079553103 162.1545482007641,35.63007661647589 162.28271498954928,35.62228956124363 162.3687570295806,35.76050910688173 162.45838415460094,35.94544848267378 162.59820246964227,35.99119624327341 162.72099163092935,35.964915634272074 162.7989672297008,36.07587784878251 162.8500546909636,36.08171793943529 162.96925876725436,35.97854262326655 163.1503055598041,35.97172913053146 163.3905062548729,35.99508966236863 163.83684933750192,36.248159434096124 164.61570905397457,36.82922816025439 164.74029075776343,37.21951286243893 164.88548670030286,37.44238846541339 165.0253050153442,37.60200011740562 164.8227477127839,37.76452950782004 164.7367056727635,37.998101168973335 164.43645480392297,38.443822267801806 164.2607856388713,38.57130740806497 164.1819137688508,38.80291847744411 163.7239191599656,39.243746790571095 163.59575237118042,39.466588165760186 163.58141203117702,39.70012967022285 163.6800018687063,40.694580945903 163.4720669386479,41.24139989899686 163.44159371613932,41.5566375390772 163.50433270365465,42.01294041496476 163.35644794736072,42.27173205099825 162.4556953408537,42.55289465759961 162.27016719204767,42.67644864986141 162.167095998273,42.906041974674736 162.18233260952547,43.36813508164596 162.13124514825904,43.51600146135388 161.87401529943236,43.797137578403635 161.8372681781766,43.75238966949655 161.84264580567833,43.77087251981084 161.87401529943236,44.27962714220848 162.05237327823488,44.34382805430596 162.06223226198927,44.37787386596392 162.06402480448742,44.33799162064133 162.40012652333826,44.44693795729563 162.2988478720581,44.654128065539226" stroke="red" stroke-linecap="round" stroke-linejoin="round" stroke-width="0.5"><title>2025-04-13 111.4km</title><desc>1744496877000</desc></polyline><polyline fill="none" points="55.56502968160203,115.6410352755338 55.60000000000582,115.57161380272737 54.772369131154846,114.81428504917858 54.667458175943466,114.48610721009754 55.36103615758475,113.97490465028386 54.99384781435947,113.67827956652764 54.31775499190553,114.2462841607703 53.880626011872664,114.79535174593184 53.12876416623476,115.32548268039682 51.54927145171678,116.84643566072191 50.77992444683332,117.45228505037812 50.49433351322659,117.81200613107649 50.27868321639835,117.76782993805682 49.71915812196676,118.25376682876231 49.602590393973514,118.25376682876231 48.04058283864288,116.99158746096509 46.54268753371434,116.29738101016846 44.96902320563095,115.98183079375303 44.077280086348765,116.00076383898704 42.07231516457978,115.84929936184199 39.21057744201971,112.68741823622258 36.49454937939299,109.87886463741597 35.9350242849614,109.65165184459329 34.874257960065734,109.62640594210097 34.093254182400415,109.50017631982337 33.48710199675406,109.26665103595587 32.67112790068495,108.52820209576021 32.25148407986853,108.28836263039557 28.754452239605598,105.17038942469662 27.052563410659786,107.01341542872979 26.638747976277955,106.5021689770656 25.950998380983947,105.97829604023718 25.78780356180505,105.70689074831898 24.085914732859237,104.38772273693758 23.63130059360992,103.85752517393848 20.909444144635927,101.92606386824627 19.71462493253057,100.65102342847968 18.45569347005221,99.67263814032776 16.194279546674807,97.45702819203143 16.12433890986722,97.01516190698749 16.24673502429505,96.40917020782217 17.546465191611787,94.39547995735484 17.686346465197857,93.94728549998399 17.5406368051772,93.24026982783835 17.220075553137576,92.60268826445827 16.24673502429505,91.22650617843465 15.792120885045733,90.32376939886308 15.489044792222558,89.23163474845933 15.220939017803175,87.06626361980307 15.028602266596863,86.97156685807568 14.952833243383793,86.30868663649017 14.70221262818086,85.4690310966107 14.55067458175472,85.35539288140717 14.323367512144614,85.37433259426325 13.9678359417303,85.60792204671452 13.577334052883089,85.65842779170634 13.355855369678466,85.91726927406125 13.181003777630394,85.95514845069556 12.39999999999418,84.2631957900303 13.495736643264536,86.6369708068014 13.833783054491505,87.62181587688974 16.077711818681564,91.73152965793997 17.359956826781854,93.89047195305466 17.097679438767955,94.65429542268976 17.354128440347267,93.99147378859197 17.354128440347267,93.82734574628557 17.097679438767955,93.39177367017692 17.225903939572163,93.2213318289796 16.637236913113156,92.29336483127554 16.509012412308948,92.1544845644894 16.363302752317395,92.1544845644894 16.27587695629336,91.97141478291451 16.48569886671612,91.99666581019119 16.608094981114846,92.13554632911837 16.940313005936332,92.5269356886929 17.319158121943474,93.21501916178386 17.412412304372992,93.78315737424418 17.29584457637975,94.38285479300248 16.159309228271013,96.08723539992934 15.902860226662597,96.6111679100868 15.856233135447837,97.09091057244223 16.04274150027777,97.68427283581696 16.398273070692085,98.13244803172711 20.326605504582403,101.6230856546681 22.086778197495732,103.29576470675966 23.32822450081585,105.30293711822014 24.208310847287066,106.96923375518236 25.251592012966285,108.60394073697535 25.44975715057808,109.10886332724476 25.55466810578946,109.14042089186842 25.764490016183117,108.92582922676957 28.847706422006013,105.42286104790401 29.628710199671332,106.02878995463107 30.99255261736107,107.32268651544291 33.44047490556841,109.44968441963283 34.03497031840379,109.66427479309641 36.17398812735337,109.840995879822 40.42871019965969,114.39144029586896 41.60021586617222,115.3949043494431 41.88580679977895,115.7861890852655 42.4919589854253,115.7861890852655 42.60269832701306,115.86823243589606 42.585213167825714,116.00707485314342 42.818348623870406,116.08911799563793 44.5901780895947,116.09542900339147 46.566001079336274,116.53719840981648 48.18046411225805,117.28820125690982 49.433567188330926,118.39260544235731 49.62007555316086,118.29794277529436 49.86486778195831,118.43047048037988 50.4593631948228,117.92560195310216 51.53761467890581,118.94795768317272 52.21370750135975,119.73680420997698 54.591689152730396,117.69209926929761" stroke="#ffe400" stroke-linecap="round" stroke-linejoin="round" stroke-width="0.5"><title>2025-04-12 25.3km</title><desc>1744462456000</desc></polyline><polyline fill="none" points="110.56143711257027,80.39999999999418 110.08343215542845,80.61420802764769 109.29225153679727,81.43533534455491 108.74831486147013,81.75664454171783 103.89409210742451,86.3352094178772 103.59739937543054,86.57618179668498 103.27598224912072,86.60295647630846 102.84742608066881,87.34372030210943 102.25404061668087,87.8345854408326 101.58648196968716,87.88813424657565 100.960130646592,88.9948043482218 99.44370112748584,90.34242950055341 100.56454033724731,91.34198299497803 101.99855520855635,92.96624010876258 107.07529751159018,97.16065109111514 107.3637487788219,97.58900842451112 106.84453649783973,98.45464265290502 107.05057311724522,98.61527513912733 107.00936579337576,98.87407148165221 107.1247463002801,98.99900745229388 106.79508770914981,99.35596666980564 107.00112432858441,99.76646849043755 107.28133413105388,99.35596666980564 106.44894618852413,98.40109844425024 107.21540241281036,97.2945129179061 106.86926089215558,96.91077529160248 106.53136083626305,96.8215338117152 104.04243847340695,99.06147539006633 102.8309431511152,100.3375991814246 101.63593075834797,101.32814769139077 99.03986935337889,103.91602961621538 98.00968625617679,104.74592506093904 96.91357144073118,105.87029061283101 96.74874214522424,106.18261255542893 95.83393955489737,106.85187119388866 96.26249572332017,107.40512225576822 94.90265403498779,108.67223629134241 94.84496378156473,108.8953183987469 96.07294203343918,110.85842352225882 96.81467386340955,110.99227045954467 97.44926665129606,111.73288755046815 97.96847893230733,111.97381022260379 97.97672039706958,112.080886814525 96.83115679296316,113.07134087769373 96.9795031589747,114.4722397847363 96.95477876462974,116.16757384677476 98.52065707236761,117.87180720837932 98.28165459385491,118.05918221301545 97.89430574930157,118.00564652647154 97.39157639784389,118.1930213276064 97.4410251865047,119.11204598812037 97.33388614442083,119.2726515359318 96.69105189174297,119.48679194070428 96.38611769495765,119.29049658387521 96.1718396107317,119.37972178484051 95.89162980832043,120.21843551609345 94.5070637256722,122.36872868634964 93.6829172479047,123.29664444146329 93.6829172479047,123.59999999999854 93.70764164222055,123.2787999735956 94.54002958480851,122.34196178204002 95.89987127311178,120.23628042708151 96.1883225403144,119.38864430139074 96.50149820186198,119.28157406022365 96.71577628608793,119.4600244104513 97.4080593274266,119.2012713182994 97.39157639784389,118.17517612071242 97.86958135495661,117.98780129247461 98.33110338248662,118.04133698676742 98.52889853718807,117.81827144043928 97.11960806019488,116.39064238146238 96.96302022942109,116.04265529097029 96.9959860885283,114.32947374614014 96.84763972251676,112.99103408816882 97.97672039706958,111.88457965823181 97.48223251040326,111.688272189087 96.75698360998649,110.92980857357907 96.08118349820143,110.80488470661658 94.7295832746895,108.69008287479664 93.99609290945227,107.97621751927363 94.18564659936237,107.53004957093071 94.1279563458811,107.36050532677473 93.54281234668451,107.19096084922785 92.61976829159539,107.30696499067562 91.4165144340368,106.64663226476114 90.55116063239984,106.78940720818355 90.1967776469537,106.2004594996688 89.62811657731072,105.70966759106523 89.43856288742973,105.70966759106523 90.13908739350154,106.17368908235949 90.56764356195345,106.77156034931977 91.57310226483969,106.67340257924661 93.40270744546433,107.64605339298578 93.905436796922,108.0743742510167 94.25157831757679,108.14576091586059 94.80375645766617,108.6365431166414 96.24601279376657,107.38727548610768 96.13063228686224,107.14634384265082" stroke="#4dd2ff" stroke-linecap="round" stroke-linejoin="round" stroke-width="0.5"><title>2025-04-09 13.2km</title><desc>1744204397000</desc></polyline><polyline fill="none" points="181.08643904456403,81.78010359163454 180.20097441406688,81.21353589881619 179.44967109127901,80.40000000000873 179.16793234524084,80.42905491043348 175.63948995422106,83.93014077637054 168.03254381078295,90.6997018125985 163.45764322014293,95.1012465281965 162.96124638186302,95.81303841099725 161.7940430053277,96.67009058990516 162.4380172820529,97.57071774522774 160.22435570589732,99.54627281879948 159.74137499835342,99.41553815804946 158.68150066799717,98.26797469978919 157.07156497630058,97.65787499718135 154.77740661555436,96.36503853941394 153.0869741392089,96.46672260780178 152.38933533948148,95.24651038300362 151.38312553218566,94.57829577941447 150.91356095543597,93.99723779191845 151.43679005518788,94.63640148553532 152.46983212413033,95.18840485373221 152.99306122394046,96.33598593894567 153.31504836224485,96.59745919141278 154.6834937002277,96.42314372766123 159.3657233369886,98.89259866252542 162.19652692828095,103.19228290878527 163.29664965096163,103.35206669515173 164.4101885043783,104.58675529697211 165.28223700408125,105.00800025710487 163.37714643555228,106.83822670632799 163.68571744312067,109.6852124279103 163.591804527794,111.60254738524964 163.7527980969171,112.11092858001939 165.3493176579359,113.59248928396846 166.1408693730482,114.59471531960298 165.79204997315537,114.85616476624273 165.0541627811035,114.78353995413636 164.27602719678544,115.0159392603091 164.3833562429063,116.61367720167618 164.24919493525522,116.81702475404018 163.14907221251633,117.19466966159234 162.70633989735506,116.8896488299797 162.2770237128716,117.0639465048298 161.8074591360637,118.4437977525231 159.60721369076055,121.84254876796331 158.18510382971726,123.60000000000582 160.4926783212577,120.593441838937 161.86112365918234,118.42927305199555 162.33068823593203,117.09299610259768 162.69292376656085,116.8896488299797 163.2429851279594,117.2091944515123 164.28944332752144,116.78797511634184 164.42360463517252,116.54105302586686 164.31627558910986,115.05951410024136 165.01391438877909,114.8125898821454 165.8457144962158,114.88521468371619 166.20795002684463,114.55114037869498 165.57739188097185,113.72321470302995 164.03453684301348,112.34333098276693 163.60522065853002,111.50087099167285 163.69913357391488,109.16229971294524 163.4308109586127,106.6348690368468 165.26882087334525,104.90632052018191 164.4101885043783,104.52865247441514 163.31006578175584,103.30848931150103 162.1428624052205,103.09060225110443 160.1706911828369,99.95300232937734 160.19752344442531,99.63342921192816 162.4380172820529,97.4980866729893 161.8074591360637,96.59745919141278 162.4648495435831,96.24882811236603 163.33689804322785,95.42082686984213 163.53814000473358,94.91240335960174 168.89117617969168,89.97336501163954" stroke="#4dd2ff" stroke-linecap="round" stroke-linejoin="round" stroke-width="0.5"><title>2025-04-07 10.2km</title><desc>1744033163000</desc></polyline><polyline fill="none" points="43.100725554686505,128.70818480862363 41.2304349715705,130.63066040363628 40.8102972318884,130.80676412550383 40.20041986781871,131.62857946880104 39.726070806907956,131.6139042240975 39.11619344283827,132.4063659174717 38.967112309415825,132.91999683972972 37.46274814475328,134.19673091561708 37.04261040507117,134.95983249616984 35.741538695117924,135.86968062177766 35.21297831292031,135.82565580660594 34.68441793078091,136.8235492666863 33.81703679077327,137.6159905698296 33.24781791761052,137.82143780881597 31.214893370808568,139.94927195350465 26.159687664359808,144.35161644303298 26.037712191522587,144.4983596112288 26.254557476495393,144.63042837165995 25.92928954900708,144.80651991830382 26.579825404041912,145.71632380357187 24.27584425092209,147.8587490675127 24.33005557215074,148.24027447706612 26.3629801190109,151.42451621343207 27.47431220463477,151.57125425744744 28.59919712052215,152.86254446137173 29.425919769564644,153.20003940784954 27.55562918650685,154.94619993331435 27.840238623030018,157.0298339745641 27.799580132123083,160.0378594047943 28.002872586832382,160.56609340716386 29.629212224273942,161.96003763486806 30.306853739835788,162.88443746601115 29.99513864266919,163.1778968480503 29.168415993684903,163.13387796783354 28.46366881742142,163.35397227320937 28.490774478006642,165.15873656047916 27.37944239244098,165.5255566045962 26.86443484056508,165.20275500082062 26.51206125243334,165.3348102644959 25.915736718685366,166.91946671673213 23.787942359689623,170.23546697682468 22.58174046187196,171.60000000000582 23.706625377817545,170.36751896124042 26.0512650218443,166.68470357976912 26.51206125243334,165.3054646577948 26.94575182243716,165.1880821884115 27.325231071270537,165.55490217941406 28.36879900522763,165.08537247194909 28.558538629615214,164.61584167659748 28.477221647743136,163.3686452184047 29.249732975498773,163.08985907805618 30.049349963956047,163.1778968480503 30.361065061122645,162.8697644858039 30.049349963956047,162.31219044874888 28.029978247417603,160.49272765581554 27.78602730180137,160.0231862183864 27.799580132123083,156.66299854974204 27.569182016770355,154.96087348739093 29.453025430208072,153.0679762348591 28.59919712052215,152.74515478294052 27.55562918650685,151.54190665713395 26.349427288747393,151.35114715155214 24.316502741887234,148.18157830699056 24.289397081243806,147.84407499895315 24.58755934808869,147.40385244762 26.634036725270562,145.61360421474092 24.167421608406585,147.78537871407752 21.904098946310114,146.02448225750413 18.881817786663305,144.52770823208266 17.282583809748758,144.71847416411038 16.496519651729614,143.6472477556672 15.439398887334391,142.92820219379792 16.184804554504808,143.3977832581295 17.431664943229407,144.79184562861337 18.651419671310578,144.86521706650092 20.440393272554502,145.3347936396167 21.199351770046633,145.83371755562257 21.890546115930192,145.99513385348837 22.486870649736375,146.5967752851284 23.652414056530688,146.7581909749133 25.563363130553626,144.96793703490403 26.525614082755055,144.48368529915751 26.606931064627133,144.35161644303298 26.295215967460535,144.23422183192451 26.877987670886796,143.66192212833266 43.54796895495383,128.40000000000873 46.89551804214716,130.4839071850438 48.65738598268945,131.95143458383973 49.30792183772428,132.12753715684812 50.41925392328994,131.18832166407083 51.27308223297587,131.92208414009656 51.422163366456516,132.3623403491947 50.744521850778256,132.80259560092236 48.95554824959254,134.6223071518034 49.36213315895293,135.13593245245283 50.08043316547992,134.6663322286331 50.60899354767753,135.2386573562253 50.825838832650334,135.2386573562253 52.5606011126074,133.6097277426743 50.78518034168519,131.67260519663978 45.66221048368607,136.8969235917175 50.88005015393719,131.6872804370796 50.43280675355345,131.10026998823741 44.30692745250417,136.60342613207467 42.138474602485076,134.24075608496787 42.73479913623305,134.57828206539853 43.87323688244214,133.72712851340475 43.84613122185692,133.36025087880262 43.06006706377957,132.56779291912972 44.22561047057388,131.76065662354813 44.41535009496147,132.0688363161753 43.75126140960492,132.56779291912972 44.320480282767676,133.15479911300645" stroke="#4dd2ff" stroke-linecap="round" stroke-linejoin="round" stroke-width="0.5"><title>2025-04-06 15.4km</title><desc>1743942179000</desc></polyline><polyline fill="none" points="81.60104653333838,132.9130250744165 81.85131751073641,132.87805771794228 82.76359558961121,132.07817390124546 82.83221827694797,132.26175473179683 82.77974210426328,132.64202753134668 83.2035881143529,132.61143095803345 83.47404223508784,132.41473833029522 83.6112876097759,132.51089925068663 83.80504578581895,132.42785119211112 83.85348532983335,132.54149587500797 83.9745841898548,132.5283830379085 84.00687721920258,132.681365959932 83.99476733320625,133.2976646573843 84.25311156791577,133.6517057414494 84.61237151932437,133.69541437311273 84.96759484206268,134.2111738343374 85.100803588095,133.9183279018216 85.25015884879394,133.75660640421847 86.00904503829952,133.34137354566337 86.73563819845731,132.82997756967598 87.50663427395921,132.4540769071682 87.77305176599475,132.4409640510712 87.94662679870089,132.34917397846584 88.20900766209525,132.35354493747946 88.2776303494611,132.4540769071682 88.33817977945728,133.1971340941127 88.39065595214197,134.97606321908825 88.86294150624599,135.01977089092907 90.13851616519969,134.98480475598626 90.27576153988775,135.04599547882754 90.06182022049325,136.51455420368438 90.01741730514914,139.31608047132613 89.9366847318015,139.41223038990938 89.5532050083857,139.43845306839648 88.89119790690893,139.61327063368662 89.01633339560067,140.8500904407265 88.91945430758642,142.55450022912555 88.31396000745008,145.01925387272058 88.07983554476232,146.53563918034706 87.8699308540381,147.19549524643298 89.79943935711344,148.6593885903494 89.79540272844315,149.38913709289045 89.58549803774804,150.3111420540772 89.02844328161154,151.67882965159515 88.70147635953617,152.65760304408832 88.48753504015622,153.05085574519762 87.34516912724939,156.33660050420804 87.0060923191777,157.06188711219875 86.24316950100183,158.14543161393158 85.83547000560793,158.90127978610326 84.09971967854653,162.68474767072257 83.93018127451069,163.28326536012537 83.8736684731557,164.4191220602006 83.58303120908386,164.68560842734223 83.13496542701614,164.90840760363062 82.39626238084747,165.62048574259097 81.50013081665384,166.07481342637402 81.18931040925963,166.08355046377983 80.9430760605319,166.6208758388093 80.22455615770014,167.49456544667555 79.66346477292245,168.81381284591043 78.39999999999418,168.45997779016034 79.14677630347433,168.68276306652842 79.57869557090453,168.879337629176 79.48988974021631,168.97980882570118 79.58273219957482,169.05843834139887 79.39301065221662,169.2899579887344 79.55447579889733,169.09338476002813 79.63520837225951,168.90554752261596 79.60291534289718,168.81381284591043 79.70383105961082,168.7439196655614 79.87336946364667,168.30708545918606 80.13171369834163,168.38571584909005 80.15189684169309,168.21534987517225 80.13171369834163,168.3638740843635 80.2407026723813,168.45124109594326 80.48290039243875,168.35076902174842 80.6766585684818,167.778511852659 81.53646047465736,167.11451201776435 81.65352270602307,166.93540555116851 82.40433563818806,166.41555694997805 82.6465333582455,166.62961279734373 84.05935339187272,168.59102805207294 85.02814427208796,167.92266874876077 85.65382171554666,168.1367192638827 85.89601943558955,167.9051952038826 85.83950663424912,167.72172267807036 85.62960194353946,167.59503894267982 85.51253971220285,167.4290391637478 84.89493552605563,167.07956445616583 84.84245935337094,166.97035319604402 84.92722855538887,166.6208758388093 85.31474490747496,166.4505048951578 85.43180713884067,166.240816921214 85.46813679684419,165.65980269625652 85.30263502147864,165.50253472828626 85.54483274153608,164.9826738133488 85.48428331151081,164.5064947689607 85.82739674826735,164.34485515852066 86.03326481030672,164.1002106021224 86.41270790505223,163.86430241410562 86.6710521397763,163.87740844869404 87.0989347785362,164.16574049104747 87.37746215658262,164.22690165665335 87.61965987664007,164.1744778042048 87.7972715380165,164.0608926346831 88.09194543074409,164.06962996298898 88.1565314894251,164.01720597422172 88.23322743410245,163.80314088182786 88.14845823209907,163.60654982342385 88.02332274339278,163.51480711081604 88.0394692580594,163.33132126807322 87.96277331339661,163.21773451501576 87.81341805269767,161.9988478521227 87.86589422535326,161.84157036408578 88.71762287420279,161.85030801303947 89.16568865629961,162.20855053317064 89.51283872171189,162.19544413691256 89.78329284244683,161.8852585962377 90.29190805453982,162.108068089241 90.27576153988775,162.47941541989348 91.1436367034039,162.71096024831058 91.1436367034039,162.99929785182758 91.30106522142887,162.99929785182758 91.37372453743592,163.1041475486345 91.17592973273713,163.57596893468508 91.04272098671936,163.7463479750295 90.69557092129253,163.9866252931206 90.59465520462254,164.23563896097403 90.64309474863694,164.39291022295583 92.36269856100262,164.79482381237904 92.77039805642562,164.92151341197314 92.86727714443987,165.01325399084453 93.26690338253684,165.03509696530818 93.31130629788095,164.9477250201271 93.51717435992032,164.86909016156642 93.43644178655813,164.47154570059865 93.58579704725707,164.0871046158136 93.63423659128603,163.75071666206713 93.74322556528205,163.6720802472264 94.11459540270153,163.75945403517835 94.18725471873768,163.19589088420253 94.8250420481927,162.98182288468888 95.02283685290604,162.97308539923324 95.29732760229672,163.2701591967816 95.95126144644746,163.65897416814187 96.69803774992761,162.8682354752018 96.65363483459805,162.72406653283906 96.20556905250123,162.2260257237649 96.3428144271893,162.3527207045554 96.39529059987399,162.07748644273306 96.69400112127187,161.688661302971 96.82720986730419,161.40905516265775 97.0653709586768,161.36099772707894 97.36811810875952,161.5444895483306 97.68701177347975,161.6362352501419 98.05838161088468,161.6143910480605 98.51048402166634,161.48769452031047 99.28955335447972,160.9415857589338 99.32184638384206,160.8542078993778 100.25834423469496,160.2600351055553 100.14935526069894,159.76634297501369 100.34311343672744,159.22458767911303 100.37136983739038,158.8138989776744 100.06458605866646,158.01435871498688 100.00403662864119,157.51190996930382 100.12513548869174,156.94391940118658 100.6458605867956,156.10940049933197 100.81943561950175,155.44964179758244 100.68622687346942,154.89473982934942 100.39558960939758,154.1257334020629 100.5005419547524,153.4703224717632 100.45613903942285,153.20378665991666 100.56916464210371,152.98968327092007 100.90420482150512,152.87607708293945 101.00512053818966,152.77120964289497 101.1544757988886,152.2031745125314 101.0333769388817,151.71378611725595 100.8678751635016,151.46472085807545 100.58127452810004,151.20254579163884 100.49650532609667,150.9141519042896 100.55705475609284,150.5645817099903 100.88402167818276,150.1713128231786 101.04145019620773,149.80862924685061 101.00512053818966,149.51585898820122 100.7467763034947,149.03955807218517 100.78310596148367,148.88224685271052 101.13832928423653,148.54140447145983 101.21906185758417,148.32291475371676 101.17869557091035,147.99517869490592 100.92842459352687,147.39213969927732 100.95264436553407,147.03380932769142 101.1302560268814,146.77598494000267 101.49758923564514,146.67110690798654 101.91336198837962,146.81094424353796 102.10308353578148,146.81531415505015 102.40583068584965,146.50504965139407 102.54307606052316,146.4831999783637 103.19297327600361,146.59681819175603 104.11332461220445,147.07750826734627 104.29093627358088,146.91582203266807 104.51295085027232,146.89834241378412 104.7188189123408,147.14305661752587 106.15182208931947,146.7978345070842 107.45565314892156,146.78909468119673 107.66959446830151,146.85901325282975 107.92390207436983,147.06439858877275 108.12573350772436,147.11683728598655 108.32756494112255,147.06876848194588 108.72719117920497,146.7847247677928 110.4911979069293,146.76287519596735 110.85853111566394,146.8415336175167 111.27430386842752,147.1780157085268 111.53668473180733,147.29600249123177 112.09777611658501,147.3615506042297 112.46107269669301,147.2566735892724 113.28858157353534,146.81968406624947 113.61958512426645,146.74102561624386 115.21809007661068,146.60555804545947 115.58138665668957,146.75413536503038 115.86798729207658,146.78035485405053 116.11422164078976,146.6405174476713 116.36852924685809,146.3127722574136 117.61584750511975,145.87140592340438 119.01655765276519,146.32151215223712 120.7159783217794,145.34700608488856 120.70386843578308,145.12850480781708 120.12663053632423,143.9879153025904 120.69983180714189,145.15472500281612 120.73212483647512,145.36885616908694 119.07710708276136,146.3127722574136 118.9640814800805,146.35210177418048 118.73399364603392,146.2909225147996 119.00444776675431,146.35210177418048 120.74827135114174,145.37322618498365 120.76441786580835,145.20279533075154 120.1427770510054,143.90488304114115 120.9379928985145,143.54653197107837 121.59999999999127,143.43727817287072 121.03890861519903,143.5159409275184 120.14681367966114,143.90051291896452 120.74827135114174,145.18968524511 120.74827135114174,145.35574611951233 120.69579517845705,145.43877638543563 119.03674079608754,146.34336188378074 118.77839656137803,146.3127722574136 117.61988413380459,145.8801458821181 116.37660250418412,146.33899193810066 116.08596524012682,146.70169635281127 115.8558774060948,146.80657433169836 115.59753317135619,146.79346459430235 115.21001681928465,146.61866782365905 113.56307232292602,146.767245110972 113.3329844888649,146.81968406624947 112.35612035132363,147.28726273744178 111.96053074189695,147.3659204758951 111.48824518779293,147.27852298241487 111.13705849373946,147.07313837479887 110.89486077368201,146.8502734358044 110.56789385159209,146.74976544907986 108.76352083720849,146.75413536503038 108.60205569051323,146.7978345070842 108.28316202577844,147.06439858877275 108.05307419173187,147.09935772531026 107.64537469629431,146.84590352681698 107.35070080358128,146.77598494000267 106.09127265929419,146.7978345070842 105.55440104652371,146.88960260245585 104.69863576898933,147.14305661752587 104.63404971032287,146.99448025496167 104.33937581759528,146.91582203266807 104.2586432442331,146.92893174349956 104.11332461220445,147.12120717536527 103.1727901326667,146.60555804545947 102.92655578393897,146.54874897372792 102.46234348719008,146.50941958505064 102.19592599512544,146.77161502564195 102.018314333749,146.8415336175167 101.8285927863908,146.80220441955316 101.61868809566658,146.70606627223606 101.40474677628663,146.31714220498543 101.6590543823404,141.4663056889949 101.84070267237257,140.92875656746037 101.50162586430088,140.9549785869167 101.36841711826855,141.17786529226578 101.17465894224006,143.31054351923376 100.54494487009651,143.2799523560716 99.17249112314312,143.37609595950926 98.48222762098885,143.33239434056304 98.3853485329746,143.3935765982351 97.53361988412507,143.34550482957638 97.58205942813947,143.07455414475044 97.48114371144038,139.28111682657254 97.33986170808203,139.2985986514832 97.3519715940929,138.82221711115926 97.03307792934356,138.7522892290326 97.03307792934356,138.62554473608907 97.09766398802458,138.5730986611161 97.03307792934356,138.66924976372684 96.76262380862318,138.73043674924338 96.73033077928994,138.67799076546362 97.10170061669487,138.50317049025398 97.11784713136149,138.58183967678633 97.00482152866607,138.7129547597142 96.78684358063038,138.66487926238915 97.36004485141893,137.96122441785337 97.37215473741526,137.21822592223543 97.2591291347344,137.14392556936582 97.36004485141893,136.5407781416834 97.28738553538278,136.0250386015432 97.26316576339013,133.77408983027271 97.17839656138676,133.38945328618138 97.20261633339396,132.51964114493603 97.15014016069472,132.4540769071682 96.99271164266975,132.4409640510712 97.17435993270192,132.46281880965398 97.22279947671632,132.4059964208318 97.22683610538661,132.04757704181247 96.96041861333651,132.09565781394485 96.13694636514992,132.02135114993507 93.43644178655813,132.05631900322987 93.08121846381982,131.79405960919394 92.75021491308871,131.3482160212734 92.52416370771243,131.29139258201758 92.60085965237522,130.7406395494836 92.50398056436097,131.3788132356094 91.89848626423918,131.92518944880794 91.70876471685187,132.0169801668526 89.2666043729987,131.95141538249663 88.59248738551105,131.84214058350335 87.66406279199873,131.9863832763658 86.81637077180494,132.3360610995478 85.34703793680819,133.2670684167424 84.39843019994441,133.70852695643407 84.2127452812565,133.64733487654303 83.96247430384392,133.18402139960017 83.99476733320625,132.75130088073274 83.94229116050701,132.48904450951886 83.7323864698119,132.17870633006896 83.33679686038522,131.89459251174048 83.14707531299791,131.64107443586545 83.04615959631337,131.6716715015864 82.92506073629193,131.61484836718228 82.51736124086892,131.20397180166037 82.34782283684763,131.36132911503955 82.41644552418438,131.4837178526177 81.69792562136718,130.71004201126198 80.5313399364386,131.81591460226628 80.47482713509817,131.99949623132488 80.54748645110521,132.12625464897792 80.2205195290444,132.53712492962586 80.39409456175053,132.78189738307628 80.30125210240658,133.07037792763367 80.34161838906584,133.2364721605736" stroke="red" stroke-linecap="round" stroke-linejoin="round" stroke-width="0.5"><title>2025-04-06 55.1km</title><desc>1743890633000</desc></polyline><polyline fill="none" points="169.29942022146133,170.8932752279252 169.3814137657464,170.9749575065689 169.40765169991937,170.79383574836538 169.21086719367304,170.6588818461023 169.26334306198987,170.57719904043552 167.4922825057438,169.12819445722926 168.44012787750398,168.19413201545103 167.8891312600026,167.5903559385697 167.63659114364418,167.43763492774815 167.4529256044916,167.40567000473675 167.44636612094473,167.15705322464055 167.82353642459202,166.76991886823816 167.97112480428768,166.76281545694656 167.83993513345195,166.5568160815019 167.0593565919844,165.7505688124911 166.92160743760178,165.5303579989486 168.40405071803252,164.14513823312518 168.46964555344312,164.0776521662665 168.43356839397165,163.981750753308 168.49588348761608,163.9036087223467 168.36469381678035,163.686941529475 167.7546618474007,163.06890197178654 167.44308637917857,162.66042326793104 167.96128557897464,162.07078712633665 168.55491883949435,161.6019147623265 169.35189608982182,160.8275551124134 169.7618638111744,160.63929151085176 170.77202427659358,160.34446215105345 171.09343897011422,160.1313313870305 171.2115096738853,159.94306510654496 171.58540023576643,159.6269182133983 171.64443558763014,159.66954487994008 171.77562525848043,159.6162615409521 172.21183091399143,159.6802015407702 173.57292374888493,159.70861929164676 173.75986902983277,159.8009768679949 173.68443496909458,159.6198137653555 174.90777864963457,158.4759841768464 174.67819672566839,157.88629760530603 174.65523853327613,157.49553752722568 175.23247308493592,155.0834130182884 175.50469165192044,154.34802886113903 176.3869421882846,152.90209635538122 176.5902861780778,152.20931255610049 176.64276204642374,149.07922847139707 176.82314784381015,149.01172161177237 176.89530216276762,148.7701173499736 176.86906422859465,148.67418591467867 176.92809958047292,148.2620339015848 176.8657844868285,148.89091963020473 176.82314784381015,149.0081686165795 176.81658836026327,148.8589425850878 176.94777803111356,141.1696320425035 177.02321209182264,140.64014789591602 176.96089699819277,140.5548613218416 177.0363310589164,140.11421164858257 177.0330513171357,139.62025285039635 177.04289054244873,139.5811623723348 177.0920866690285,139.63446756192934 176.9904146741319,139.32885035166328 177.0363310589164,139.00190889180885 177.02977157536952,137.9855334093445 176.9805754488043,137.8966883925823 176.8329870691232,137.8256122627099 175.79002918598417,137.48799923203842 175.5866851962055,137.37072258002445 175.43253733296297,137.14683000708828 175.21607437609055,135.91362551724887 175.2390325684828,136.36142095349715 175.01273038629733,136.41117574826785 174.94385580910603,136.3116661079912 174.95369503441907,136.20149448379743 174.74051181931281,136.05933718173765 174.02224837150425,135.12464260516572 173.65819703493617,134.5488902645484 173.6352388425439,134.12240266793015 173.78610696400574,132.1320779063244 174.5240488624404,128.4426539328997 174.4256566093245,128.39999999999782 172.25446755700978,128.50308027394203 171.69363171419536,128.6879133227376 170.70970918294915,129.1251117833126 170.0931177300081,129.21397277956567 169.43716937584395,129.1286662262719 167.56771656646742,128.47108986742387 166.85273286042502,128.4924168074358 166.28861727584444,128.65236856008778 165.7999357519875,128.95449821642978 165.71466246593627,128.95094376077395 165.57691331155365,129.0824584475704 165.13086843071505,129.3525956102858 164.30765324622917,129.72580896453655 163.30733200613759,129.93551807175754 161.9691973636218,130.10612820537426 161.07054811841226,130.30517260669876 160.33260621996305,130.4082488522945 160.31948725288385,130.33716180968258 156.2788453911926,135.66129453232497 156.6035398265085,136.51068518559987 156.66257517838676,137.05442959814536 156.70849156317126,139.21513183142815 156.63305750244763,140.57262937039923 156.70849156317126,141.37218486175698 156.84296097578772,141.6600216329134 156.7740863985964,141.9300891590101 156.82000278338091,142.76160347709447 156.49530834807956,143.88448068173966 156.50842731515877,144.38194967070376 156.3805173860892,145.04641820122924 155.9935078571434,146.29715797098106 155.46218969025358,147.29914797657693 154.90791333098605,147.86053764920143 154.94727023222367,147.83566609141417 155.0653409359802,147.977789108234 155.22276854097436,148.53917098295642 155.38675562952994,148.86960160245508 155.8229612850555,150.372499774654 158.64681894975365,153.4278949418367 158.97479312685027,153.71210803943177 159.72585399234958,154.5896055529338 158.80752629651397,155.43866710326984 158.8337642307015,155.5416903051555 158.7780086205894,155.60918814732213 159.73241347591102,157.12253635864909 159.8964005644375,157.29660392464575 160.91640025518427,158.82055677452445 160.99839379944024,159.0372455155666 161.01479250830016,159.2965602883487 161.47395635621797,159.7050670736935 161.63466370299284,159.935960704428 162.07742884206527,160.35867083564153 162.67434184435115,161.0335786010328 162.92688196070958,161.45272715892133 163.38604580864194,161.04068284379173 163.1302259505028,161.2715701718953 163.0351134391385,161.41365414001848 163.04495266445156,161.49890432286702 163.2745345884323,161.62677931867074 163.96656010208244,162.23062895093972 164.85864986373053,163.40278638018572 166.22958192396618,164.89813435277756 166.4034082378057,165.01889680366367 166.55755610104825,165.2675244409984 167.41028896145872,166.1270559736804 168.81729818116582,167.69690519893265 168.55163909771363,167.9881386611196 168.78122102169436,168.19413201545103 168.63691238376487,168.39302132850935 170.41125268179167,169.80653282142157 169.50604395303526,170.7405645155668 169.46668705179763,170.83290128226145 169.52572240366135,170.98206030696747 169.25022409491066,171.3229935152449 169.35189608982182,171.41532918419034 169.36501505688648,171.59999999999854" stroke="#ffcc00" stroke-linecap="round" stroke-linejoin="round" stroke-width="0.5"><title>2025-04-05 38.6km</title><desc>1743839508000</desc></polyline><polyline fill="none" points="50.530356692383066,204.87875270504446 49.477269478025846,205.90669096584315 49.24382649947074,206.0415015297549 49.134886442829156,206.23248276055529 48.7561900553992,206.47401717264438 48.01954776752973,207.20423291069164 46.46326124382904,208.55792235109402 46.13125345209846,208.88931989838602 46.24019350876915,208.94548883378593 45.90299809529097,209.11399539579725 45.06260337252752,209.9059713310853 46.16237918258412,211.6022329931293 46.6137022744515,211.66401665782905 47.01314914887189,212.14143422511552 47.339969318854855,212.28185059725365 46.624077517946716,212.97831204466638 46.73820519633591,213.90504540028633 46.69670422235504,214.86546646479837 46.784893792064395,215.06204240935767 47.692727597546764,215.96066895384138 47.537098945176695,216.11231115650298 47.184340666484786,216.10107841091667 46.94571006618207,216.24148761381366 46.976835796638625,216.84243613028957 46.520325083023636,217.00530922532926 46.39063453939161,216.89859930513921 46.21425540003111,216.96037875051115 46.00156290846644,217.48831018598867 45.13004245518823,218.85866863417323 44.64240601111669,219.38658715110796 44.62684314587386,219.59999999999854 44.683906985097565,219.35289033182198 45.18710629438283,218.80250687840453 46.027501017204486,217.46584509171953 46.19869253478828,216.98284399117256 46.3854469176149,216.89298298948415 46.61888989619911,217.05023967412853 46.58776416571345,216.9716113716495 46.98721104016295,216.83681981056725 46.982023418386234,216.19094033006695 47.29328072312637,216.07861291486915 47.5993504061189,216.0954620375269 47.7134780845372,215.97751810211776 46.75895568332635,215.02272726029332 46.69670422235504,214.81491828423896 46.72782995284069,213.7758650513788 46.624077517946716,212.96707884514763 47.339969318854855,212.2762339472538 47.00277390537667,212.11335092017544 46.592951787490165,211.6134663903722 46.16237918258412,211.59099959426385 45.731806577707175,210.82712465275836 45.285671107587405,210.19242871951428 44.870661367924185,209.77678431940876 44.84472325918614,209.65883077291073 44.22220864970586,209.47347483725025 43.257311005058,208.92863815742749 42.67629736952949,209.03535904575983 42.37541530828457,208.52983774807944 42.01228178609745,208.3163944325861 41.77365118579473,207.8838890702027 41.84627789023216,205.99656470117043 41.39495479836478,206.00218180616503 40.43005715368781,206.2605681959758 39.325093721883604,206.79980658265413 38.910083982220385,207.05257328495645 38.55213808178087,207.64235905148234 37.51461373263737,206.3785269136497 37.27598313233466,206.32235611810756 37.04772777555627,205.97409627711022 36.767596201301785,205.71009180648252 36.74684571431135,205.502257867156 36.68459425336914,205.68762329937454 36.48227700527059,205.55281211991678 36.025766291684704,205.05850245559122 35.195746812358266,203.95752868970158 35.39287643870921,204.1091943721185 35.21649729937781,204.069873668137 35.23724778633914,203.91820790877682 35.12830772969755,203.90697339626058 34.88448950761813,203.56993726381916 34.863739020656794,203.63734460758133 34.72367323352955,203.46882613822527 34.713297990034334,203.53061628620344 35.11793248617323,202.85653928143438 34.99342956428882,202.4296208120577 34.49023025497445,201.90158681970934 34.4642921462364,201.52521996899304 34.521355985460104,201.45219335333968 34.39685306354659,201.5982465158013 37.3537974585488,198.1996304307977 37.27598313233466,198.06480622198433 36.07245488738408,197.07047043422062 34.79629993796698,196.10982882061944 36.08801775262691,194.19974576668756 36.056892022141255,194.12671224420046 35.22687254284392,193.4974975048899 34.925990481599,193.1323258917546 34.18934819372953,192.64917311073077 33.78990131930914,192.1828716374439 32.93394373127376,191.58735000964225 31.57997445570072,193.1435619670665 31.388032451097388,193.2783947436692 31.36209434235934,193.4019912492804 31.056024659366813,193.77277958246123 29.707243005512282,195.2446793918498 29.504925757442834,195.3795085100137 28.291022268967936,196.86261331744754 28.10945550785982,196.93564425988006 27.528441872360418,196.5030753660758 26.890364397666417,195.81770152281388 26.82811293672421,195.65478389734926 25.48451890461729,194.6547992398555 24.991694838769035,194.0817685038055 22.885520410054596,192.77838868471008 22.82845657086,192.6210827400282 22.740267001179745,192.68288154212496 22.636514566256665,192.45815838895942 21.889497034891974,191.98623764423246 21.70793027378386,191.78960315163567 21.661241678055376,191.49745955471008 21.557489243190503,191.46375060721766 21.22029382971232,191.03676933507086 20.90903652497218,190.92440545102 20.291709537239512,190.5030394332498 19.793697849672753,189.8962683383943 19.207496592396637,189.37376719560416 19.031117453065235,189.0085761308801 18.75098587878165,188.88497261102748 18.289287543448154,188.39055655780248 18.180347486777464,187.89613734642626 18.268537056457717,187.39609652254148 19.482440544932615,185.48017986645573 19.451314814476063,185.2835288452261 19.570630114612868,185.1205890490528 19.420189083990408,184.5193944189814 19.21268421417335,184.08675614086678 18.201097973738797,182.63711934297316 17.863902560289716,181.94600386654201 17.578583364287624,180.7604174090884 17.412579468422337,179.00728944259026 17.215449842100497,179.0129085059525 16.940505889593624,177.7092748664727 16.795252480718773,177.54069994662132 16.639623828348704,177.52946160556166 16.224614088685485,177.7710855783589 15.88223105345969,177.8272770917465 15.70066429238068,178.03518533630267 15.550223261787323,178.04642360388243 14.766892378160264,176.40000000000146 15.513909909524955,178.02394706710766 15.934107270935783,179.32195636240067 16.250552197394427,179.79395434194885 16.85231631991337,181.05260154072312 18.154409378039418,183.4125098459117 19.243809944629902,185.13744490595127 19.243809944629902,185.37342651694053 19.077806048764614,185.72177900843235 17.931341642979532,187.41295188381628 17.884653047280153,187.69387403146538 17.8535273168236,187.58150529476552 17.972842616960406,187.37362270177982 17.93652926472714,187.95793992056133 18.035094077931717,188.44674035927164 18.533105765498476,189.03104947691463 23.404282584611792,193.43569935294363 24.35880498579354,194.969402546747 26.423478440527106,198.59286636612524 26.87480153242359,199.03104119966883 27.149745484930463,199.44674323779327 27.1704959719209,199.6882988027719 28.099080264393706,200.699453457426 28.508902382280212,200.9747099392116 29.344109483325155,201.8566475903499 29.97181171455304,203.76654185256484 30.303819506254513,204.51925195320655 30.43869767166325,204.64844772786455 30.69289113720879,205.79996576979465 31.849730786459986,208.96233950647002 31.958670843101572,208.9061705832719 31.93792035614024,208.7432804758646 30.744767354626674,205.22140030690207 30.4698234021198,204.09234264428233 30.397196697682375,203.14864003679395 32.18692619990907,202.57005477869825 33.21926292730495,202.29480396460713 33.400829688383965,202.31727345547552 34.059657650097506,201.98584780446254 36.176207322307164,199.5141541689154 38.3394455902162,201.828560558788 38.68182862541289,201.77238646509795 39.283592747931834,201.31175736052683 40.76725256713689,199.79503241713246 41.5817091811914,199.10968770231557 41.638773020386,198.9861003051774 43.74494744912954,197.01429289010412 43.92132658849005,197.05923492865986 45.093729103013175,198.37939567751164 45.60211603407515,198.80633646645583 46.00675053021405,199.36809707734938 46.79526903553051,200.01973428247584 48.325617450493155,201.68812524817622 49.223076012480306,202.45770762573375 50.77417491443339,204.22153913068178 50.94017881026957,204.15413229508704 52.491277712222654,202.5532027161462 53.07747896949877,202.9239472457848 53.233107621839736,203.21604774703883" stroke="#ffd200" stroke-linecap="round" stroke-linejoin="round" stroke-width="0.5"><title>2025-04-04 35.8km</title><desc>1743763192000</desc></polyline><polyline fill="none" points="84.74238227121532,198.29168978933012 86.41772853164002,192.52549519296736 86.23822714644484,195.44099149206886 86.7168975067325,196.2832442080835 85.87922437652014,196.9959189631045 85.16121883620508,197.12549613032024 85.6398891962599,195.70014625840122 87.67423822684214,196.80155317712342 86.9562326867599,195.9593009497621 86.05872576171532,195.8945122838486 88.15290858689696,194.5987379825092 85.81939058145508,195.1818366505904 87.37506925174966,192.5902841029456 87.43490304704756,195.05225920159137 84.74238227121532,196.02408961072797 86.59722991660237,195.1170479285065 83.06703601055779,197.19028470676858 85.52022160636261,195.70014625840122 85.81939058145508,194.5987379825092 85.40055401646532,195.05225920159137 90.06759002734907,192.5902841029456 88.03324099676684,194.08042773598572 90.4265927975066,192.84943969576852 88.87091412697919,196.86634177720407 82.8277008307632,202.43814381037373 86.83656509662978,197.51422751904465 85.22105263150297,196.9959189631045 86.7168975067325,196.2184555658023 87.67423822684214,196.02408961072797 87.01606648159213,195.70014625840122 86.9562326867599,196.9959189631045 89.22991689713672,194.21000532567268 88.81108033214696,193.82127250003396 87.13573407172225,195.2466253679595 87.91357340710238,194.01563893409912 85.40055401646532,195.50578019069508 86.29806094127707,195.50578019069508 85.22105263150297,195.70014625840122 86.47756232647225,195.57056888466468 92.5207756231539,184.16768642805982 88.87091412697919,192.9790174640948 83.24653739575297,194.98747047013603 84.98171745124273,191.94239479198586 97.0083102490753,186.24094860441983 112.56509695271961,187.86068133352092 116.03545706369914,199.91140068066306 109.09473684220575,206.5197907014517 105.86371191125363,203.08602551365038 112.0864265926648,196.2184555658023 111.18891966738738,196.02408961072797 121.5999999998603,193.69169485382736 105.98337950138375,185.7874229142908 105.38504155119881,191.61844996036962 106.82105263136327,187.14799929439323 109.81274238228798,195.37620278872782 110.23157894727774,195.44099149206886 109.87257617712021,195.8945122838486 108.19722991692834,197.19028470676858 114.59944598330185,196.02408961072797 111.36842105258256,196.80155317712342 110.23157894727774,196.02408961072797 110.88975069229491,195.63535757391946 111.12908587255515,196.02408961072797 111.12908587255515,196.2832442080835 110.77008310239762,195.57056888466468 112.74459833768196,195.9593009497621 112.14626038772985,195.9593009497621 111.36842105258256,196.34803284553345 110.23157894727774,194.46916044905083 112.26592797762714,193.49732834933093 110.05207756208256,195.57056888466468 110.35124653717503,196.08887826703722 111.12908587255515,195.76493493834278 111.42825484764762,196.6071873489418 111.72742382250726,197.6438046109979 114.24044321337715,195.9593009497621 111.9667590027675,195.76493493834278 111.60775623260997,197.12549613032024 111.12908587255515,196.6719759629923 111.54792243754491,196.80155317712342 110.35124653717503,196.9959189631045 112.38559556775726,195.31141408078838 111.12908587255515,196.6071873489418 105.38504155119881,213.3872815061477 113.6421052631922,200.04097742511658 115.79612188367173,204.70572771743173 115.13795013842173,201.79026163753588 112.20609418279491,195.63535757391946 112.02659279759973,195.8945122838486 113.22326869796962,197.12549613032024 113.70193905825727,197.7733816843829 111.42825484764762,197.2550732785603 112.38559556775726,196.86634177720407 111.60775623260997,196.15366691868985 109.69307479215786,194.14521653321572 111.54792243754491,196.9959189631045 113.52243767329492,197.31986184575362 112.74459833768196,197.51422751904465 109.39390581706539,196.34803284553345 112.56509695271961,198.16211279132403 111.60775623260997,196.2184555658023 110.11191135738045,196.80155317712342 111.18891966738738,196.9311303725699 110.41108033224009,194.14521653321572 108.79556786688045,188.96209791256115 107.12022160645574,197.70859315007692 107.65872576157562,196.02408961072797 107.12022160645574,196.73676457244437 105.26537396106869,200.75364918413106 109.33407202200033,193.43253950518556 110.23157894727774,194.40437167522032 112.92409972287714,197.70859315007692 113.04376731300727,199.52267033449607 110.88975069229491,197.83817021385767 111.90692520746961,187.0184206807171 111.54792243754491,201.66068514651852 110.77008310239762,210.53663135046372 110.9495844875928,198.35647828149376 110.05207756208256,201.59589689405402 110.17174515197985,206.0662753005745 112.14626038772985,194.8578929930227 110.88975069229491,197.31986184575362 112.14626038772985,201.72547339444282 111.30858725775033,199.52267033449607 109.6332409970928,213.19291928427992 112.14626038772985,202.30856741336174 111.36842105258256,197.96774725895375 110.65041551250033,197.06070754909888 109.87257617712021,195.57056888466468 113.88144044298679,201.27195556118386 113.22326869796962,199.65224713541102 114.71911357343197,197.96774725895375 116.21495844866149,197.38465040829033 114.24044321337715,194.98747047013603 112.56509695271961,194.8578929930227 114.4199445983395,196.9311303725699 114.0011080331169,199.1987282500486 114.36011080327444,198.5508437292301 116.8132963986136,200.42970754601993 113.76177285285667,198.7452091347077 110.2914127423428,199.1987282500486 111.12908587255515,195.57056888466468 109.9324099724181,198.35647828149376 110.59058171743527,198.48605525126914 111.60775623260997,206.0014873672626 113.28310249303468,199.65224713541102 113.82160664815456,203.47475431032944 111.18891966738738,199.45788192696637 112.56509695271961,199.32830509793712 111.48808864247985,199.58745873725275 114.0011080331169,196.2832442080835 112.44542936282232,197.5790160674369 113.46260387799703,193.23817294440232 111.36842105258256,196.5423987301765 113.76177285285667,196.6071873489418 110.53074792213738,195.70014625840122 112.9839335179422,194.53394921816653 113.88144044298679,198.809997593984 111.90692520746961,198.03253577440046 112.0864265926648,197.06070754909888 111.12908587255515,196.80155317712342 112.32576177292503,198.29168978933012 111.60775623260997,195.37620278872782 112.74459833768196,189.15646540326998 111.30858725775033,201.59589689405402 112.0864265926648,197.38465040829033 112.62493074778467,194.92268173396587 111.18891966738738,204.1874233316048 113.1036011078395,200.49449588300195 111.9667590027675,190.97055994492257 113.1036011078395,209.9535426988732 112.14626038772985,203.79869484493975 112.92409972287714,202.30856741336174 112.50526315765455,210.14790562505368 112.50526315765455,197.12549613032024 111.90692520746961,197.96774725895375 114.4199445983395,197.19028470676858 106.10304709128104,195.31141408078838 114.71911357343197,197.9029587386758 111.36842105258256,196.6071873489418 115.31745152338408,191.03534896759083 108.6160664819181,193.0438063411857 100.59833794995211,190.3226694596815 96.76897506904788,190.581825710251 91.56343490281142,195.2466253679595 89.46925207739696,197.70859315007692 87.9734072019346,198.93957449804293 89.34958448749967,198.6804206710076 90.48642659257166,196.2184555658023 92.99944598320872,194.08042773598572 95.572299168678,191.42408300505485 98.14515235438012,188.05504906375427 100.23933518002741,187.4719457461615 102.27368421060964,190.3226694596815 113.52243767329492,188.31420597160468 117.05263157887384,194.5987379825092 117.95013850415125,199.1987282500486 112.32576177292503,195.9593009497621 113.34293628809974,195.70014625840122 113.16343490313739,195.57056888466468 113.16343490313739,196.08887826703722 117.7706371191889,196.08887826703722 113.88144044298679,195.8945122838486 112.56509695271961,195.1818366505904 112.56509695271961,195.44099149206886 111.78725761780515,195.8945122838486 114.77894736849703,196.9959189631045 113.76177285285667,195.9593009497621 110.82991689746268,196.9311303725699 113.1036011078395,196.6071873489418 110.11191135738045,202.82687288877787 110.77008310239762,200.55928421532735 112.68476454308257,196.41282147850143 112.80443213297985,195.50578019069508 111.60775623260997,195.63535757391946 110.71024930733256,196.02408961072797 115.79612188367173,199.1987282500486 109.21440443210304,206.13106322899694 112.50526315765455,197.5790160674369 113.04376731300727,196.86634177720407 113.52243767329492,196.86634177720407 114.65927977836691,196.47761010669637 114.59944598330185,196.34803284553345 113.34293628809974,196.41282147850143 113.28310249303468,197.4494389659376 110.35124653717503,202.24377920781262 110.9495844875928,195.8297236135113 110.41108033224009,197.4494389659376 112.68476454308257,195.70014625840122 111.72742382250726,198.61563220247626 112.86426592781208,193.56211718870327 109.21440443210304,193.56211718870327 110.53074792213738,182.09441944223363 111.48808864247985,196.9959189631045 111.54792243754491,197.38465040829033 113.4027700831648,196.2832442080835 113.88144044298679,195.2466253679595 110.71024930733256,198.09732428513234 111.24875346245244,196.47761010669637 105.32520775613375,207.1676694463822 113.46260387799703,194.7931042474811 113.52243767329492,196.2832442080835" stroke="#ffdd00" stroke-linecap="round" stroke-linejoin="round" stroke-width="0.5"><title>2025-01-11 29.4km</title><desc>1736530614000</desc></polyline><polyline fill="none" points="187.269232930601,201.9718471838205 187.23281820736884,201.94227051782582 187.09322843495465,202.07372221884725 186.9991570666025,202.09672622730795 186.850463613373,201.95541570509158 186.83832537230046,201.98827865657222 186.77156504636514,201.94227051782582 186.61073335207766,201.94227051782582 186.5530767069431,201.84039518715144 186.39527957291284,201.76481011632495 186.38617589211208,201.71551543696842 186.43472885641677,201.6760796548515 186.38617589211208,201.5281951661309 186.48631638100778,201.4033145551839 186.60162967126234,201.38359653251246 186.64714807530981,201.31786972826376 186.7745996066369,201.27514725434958 186.7958415285102,201.1962748889564 186.87474009553262,201.1404068803604 187.02646810903389,201.15683865475148 187.2358527676406,200.98266154293378 187.40882270301518,201.05496155744913 187.44523742623278,200.9530842309905 187.59999999999127,200.90050229542248 187.49379039055202,200.7920518605024 187.4846867097658,200.64745087662595 187.18123068277782,200.6605964396913 187.03557178983465,200.35824752380722 186.96577690362756,200.37796599288413 186.73211576284666,200.29580564838034 186.62894071367919,200.31552414466205 186.44990165776107,200.11176593579148 186.367968530496,200.0854744872231 186.12520370891434,200.11176593579148 185.9613374543551,200.0624694572034 185.39690924416936,199.65166338204654 185.3665636414662,199.42161035208846 185.40904748525645,199.3361617861483 185.2300084293238,199.0009389318111 185.20573194717872,198.74459036863482 185.01455465017352,198.37978414176177 185.02062377071707,198.2318888880909 184.90834504074883,198.07084684021174 184.6200618151197,197.89665785782563 184.577577971344,197.6567360866793 184.42888451812905,197.34450722020483 184.4228153975855,197.14402228641848 184.18915425681917,196.61815594611835 183.99797695982852,196.4636815478043 183.9585276763246,196.49983517763758 183.80073054229433,196.48997509963738 183.64596796853584,196.3453603755297 183.41837594831304,196.05941626561616 183.4001685866824,195.97724808381463 183.27271705535532,195.8687858554331 183.16043832537252,195.5433976107597 182.8873279010877,195.32647081467076 182.79325653273554,195.28045590608235 182.43517842091387,195.42178726222483 182.24096656365145,195.3593385778804 181.86771565047093,194.9419162116901 181.43984265242761,194.5935134936517 181.2729418375966,194.53435050153348 181.12728294465342,194.35686106108915 181.09997190222202,194.17937092449938 180.92700196684746,193.96572446636492 180.68727170553757,193.9788719698372 180.5840966563701,193.90327377269568 180.3565046361473,194.09391246228552 180.14105085699703,194.11363366020305 180.00146108458284,194.2253869526794 179.9680809216079,194.36672160382295 180.0257375667279,194.47190059260902 180.01359932565538,194.55078467377098 179.80118010677688,194.6592500608458 179.67069401517801,194.83345150210152 179.4643439168285,194.82030424691038 179.41579095250927,194.57707933693382 179.25799381849356,194.5442110055883 179.18212981174293,194.5705056725783 179.11233492553583,194.67568418772134 178.9575723517919,194.67568418772134 178.90598482718633,194.90576133738432 178.666254565891,195.132550525861 178.28086541163793,195.1588448510047 178.23838156786223,195.21472024121613 178.25051980893477,195.1588448510047 178.0623770722159,195.4020666343713 177.96223658330564,195.7307426433872 177.53739814554865,195.94438076932784 177.5040179825737,196.16459132066666 177.5313290250051,196.49983517763758 177.48277606068586,196.54256215749047 177.13380162966496,196.57871572432123 176.58151166058087,196.38808750120006 176.4631638100691,196.4045210003278 176.36909244170238,196.3387869680082 176.25377915144782,196.3355002638782 176.11418937903363,196.21389204358638 175.91087384097045,196.18431161628178 175.72273110425158,196.09228349657496 175.54976116886246,195.90822669581758 175.33127282945497,195.96081442955256 175.24630514188902,196.01997555697017 175.22809778027295,196.23032560596766 175.079404327058,196.5458488465738 175.10064624894585,196.6773162143727 175.16740657489572,196.76276979869 175.10368080921762,196.94024980450558 175.1218881708337,197.11772911448134 175.20989041865687,197.25905473404418 175.2159595392004,197.37080026041076 174.9094689519552,197.4102397921015 174.83360494520457,197.24919482141195 174.596909244181,197.1966085844506 174.38449002528796,196.9829763686539 174.1113796010177,196.94353646471427 173.91109862321173,196.99283633926825 173.71385220567754,196.8745165501532 173.68350660297438,196.91724317633998 173.71992132622108,197.08486262809674 173.6228153975826,197.14402228641848 173.69564484406146,197.23276162892944 173.65316100028576,197.31492753170824 173.66226468108653,197.60743693512995 173.37398145547195,197.7849136294426 173.0614217476832,197.6468762606637 172.8975554931094,197.50555185181292 172.806518685029,197.58443064603853 172.68210171395913,197.54827788241528 172.3088508007786,197.65016286957325 171.92042708625377,197.62715660219692 171.84456307951768,197.55156449848437 171.62304017980932,197.48254551094578 171.37420623769867,197.2097551494262 171.3559988760826,197.11772911448134 171.24978926664335,197.06842937595502 171.16178701883473,197.10786917107544 170.96150604102877,197.0585694218098 170.63073897162394,197.0717160268614 170.36673222816898,197.1374489948612 169.78713121663895,197.08486262809674 169.75982017420756,197.1374489948612 169.56864287721692,197.17031544307247 169.3896038212988,197.31821416471212 168.95869626299827,197.3543671120715 168.74020792357624,197.29520772863543 168.4428210171318,197.3412205891036 168.2577128406847,197.18017537288324 167.77825231806492,197.403666539205 167.52941837595426,197.34450722020483 167.4080359651707,197.3806601465585 167.2866535543726,197.49897861276986 167.32610283787653,197.61072354690623 167.2866535543726,197.73232801477934 167.06816521495057,197.82106620410195 166.8678842371446,197.81120641388043 166.63422309637826,198.01168839304228 166.33076706939028,197.84407237294727 166.03338016296038,197.75533422871376 165.60550716493162,197.76519403110433 165.43557178982883,197.67645573226764 165.02894071368792,197.65016286957325 164.97128406855336,197.72246820522923 164.513065467836,197.71589499766924 164.30064624894294,198.0084018103771 164.15498735599976,198.0675602618394 164.00932846304204,197.99196889347877 163.75745996067417,198.04455420656814 163.61180106771644,198.16944408038034 163.56931722394074,198.3107664168383 163.2142736723763,198.4553748626313 163.16268614779983,198.4520883121695 163.02613093564287,198.27790079656188 162.6619837032922,198.44222865936536 162.54667041303765,198.4290824522941 162.42225344196777,198.33048577754744 162.31604383254307,198.44880176148217 162.28873279011168,198.59998284656103 162.1764540601289,198.38307069746588 161.96100028097862,198.27132766964496 161.70913177858165,198.33377233683495 161.4178139926953,198.26146797747424 161.23270581623365,198.32391265826664 161.21449845463212,198.42579589992965 161.13559988760971,198.51781927598495 160.85945490306767,198.4520883121695 160.85338578252413,198.5112461838944 160.78055633604527,198.55068472210405 160.63793200337386,198.55068472210405 160.42551278449537,198.45866141284932 160.3162686147698,198.5013865439796 160.2161281258741,198.66900013061604 160.09171115481877,198.71172506326184 160.04012363022775,198.7971748076052 159.81860073053394,198.93192215373347 159.76701320595748,199.06995560470386 159.4271424557519,199.4939128588776 159.23293059848947,199.5596423103234 159.14796291093808,199.65823630859086 159.09940994660428,199.53663701317055 158.7595391963987,199.38217257246288 158.70491711155046,199.2047021390572 158.56836189940805,199.10939365626473 158.5198089350888,198.99765242095964 158.34380443944247,199.04695005875328 157.75206518685445,198.945068214809 157.39398707501823,199.04037704348593 157.30901938746683,199.31315637545777 156.9903905591491,199.42489683218082 156.68389997190388,199.60565286956262 156.48968811464147,199.90472036510982 156.36223658331437,200.01645936210116 156.27726889574842,200.03617798001505 156.18926664792525,200.01317292495514 156.2469232930598,199.9934542970259 156.2044394492841,199.9803085403073 156.22568137117196,200.02960510833145 156.2651306546759,199.9934542970259 156.24085417253082,200.03946441549851 156.02236583309423,200.03617798001505 155.87974150042282,200.11833879554615 155.6430457993847,200.0789016226954 155.29710592863557,200.09533378222477 154.86923293059226,200.2366501080396 154.65681371171377,200.20707230889457 154.18038774936576,200.37467958196794 153.87693172239233,200.55871822612608 153.58257937621966,200.63430530974074 153.22753582466976,200.55543182832116 153.07884237144026,200.6671692197924 152.857319471761,200.7098922672085 152.81787018825707,200.7723335717019 152.93318347849709,200.966229705351 152.93014891823987,201.07796608332137 153.1547063781909,201.3638785012481 153.09098061252735,201.4263189041194 152.8846305141924,201.32772875497176 152.61152008990757,201.08453880285742 152.14419780837488,201.19298853741566 151.8680528238183,201.01881156461604 151.33700477662205,200.9300796416901 151.2672098904295,201.08453880285742 151.03051418937685,201.1404068803604 150.80899128968304,200.9070750407045 150.56015734757239,200.85449305171642 150.34166900815035,200.89064317570228 149.75903343634855,200.77890633558854 149.6740657488117,200.64087809366174 149.5526833380136,200.55543182832116 149.5253722955822,200.46669899753033 149.4616465299332,200.440407755028 149.52233773532498,200.38125240357112 149.48592301209283,200.33195621833147 149.4889575723355,200.17420806496375 149.5375105366693,200.14463022503696 149.4950266928936,200.08876091913044 149.3827479629108,200.20707230889457 149.21584714807977,200.2202179997912 148.8941837594757,200.46012618833993 148.72424838438747,200.45683978337547 148.65141893789405,200.52585423738128 148.61196965439012,200.66388282986009 148.53307108738227,200.70331949330284 148.4450688395591,200.6671692197924 148.44203427928733,200.57515021155996 148.16588929473073,200.49299022478226 147.8563641472283,200.27937356158873 147.72587805562944,200.27280072520807 147.64697948860703,200.19064018990684 147.5498735599831,200.19064018990684 147.364765383536,199.97044922026544 146.94903062657977,199.80941335567695 146.7699915706762,199.53335054119816 146.60915987635963,199.62208520081185 146.32087665074505,199.5695017198086 146.1357684742834,199.34930772986627 146.00528238268453,199.31972935112935 145.5470637819526,199.52677759652943 145.25878055632347,199.42818331202943 145.18898567011638,199.31315637545777 145.07367237989092,199.31315637545777 144.95228996909282,199.19812914668364 144.80359651587787,199.25728604369579 144.76111267210217,199.2047021390572 144.60938465861545,199.2770049921819 144.39999999999418,199.24742656622766" stroke="#ffec00" stroke-linecap="round" stroke-linejoin="round" stroke-width="0.5"><title>2024-11-09 21.0km</title><desc>1731113022000</desc></polyline><polyline fill="none" points="55.60000000000582,249.65332887178374 55.442784810147714,249.52748865990725 55.18987341772299,249.77176657650853 54.26708860762301,250.16409049151116 54.22607594940928,249.8902041437541 53.89797468355391,249.31281970500277 53.95949367090361,249.38684353358258 54.20556962027331,248.8612731878311 54.45164556967211,248.81685866838234 54.60886075950111,248.63179796253098 54.43797468356206,248.21726076340565 53.43316455697641,247.63986685804412 53.228101265849546,247.684281889844 53.39215189879178,247.48441409448424 53.214430379797705,247.6620743763633 54.02101265822421,246.63312095114088 54.70455696203862,246.95143139266293 54.936962025327375,246.9958467241595 55.032658227864886,246.9144186016565 55.060000000026776,246.18896518698602 54.80708860763116,245.47090927829413 53.95265822787769,244.71583472683415 54.05518987344112,244.515961115947 54.68405063293176,244.1902403183558 55.449620253173634,243.19086319844791 55.40177215193398,243.03540365536173 54.260253164567985,242.7392895844896 53.50835443043616,242.94656952436344 52.79063291140483,242.51720346720685 52.42151898733573,242.502397708864 52.011392405082006,242.5542178536707 50.92455696203979,242.9909865995287 50.09063291142229,243.13164054330264 49.482278481009416,243.10202920284064 49.249873417720664,243.45736472111457 49.00379746838007,243.59061522135016 48.135696202516556,243.10202920284064 47.60936708864756,242.64305232636252 47.31544303800911,241.97679189524206 46.87113924053847,241.67327181147994 46.946329113910906,241.23649742294947 46.80278481016285,241.08843788370723 46.31063291139435,241.15506470295804 45.777468354441226,241.55482470451534 45.74329113928252,241.6954806287249 45.962025316490326,242.25069948818418 45.88683544305968,242.59123222670314 45.6749367089069,242.7022752651974 44.77265822785557,242.15446176907426 43.76784810126992,241.8509422140196 43.07746835445869,242.16186467376247 42.89974683546461,242.09523851218546 42.33240506329457,241.5178099553741 40.732911392406095,241.25870633530576 39.98101265824516,240.7330941125765 39.605063291150145,239.8891476942008 39.147088607627666,239.66705537072994 38.470379746868275,239.7632954369401 37.95088607596699,239.6374430243959 37.51341772155138,239.73368311854574 37.37670886077103,240.0668212047458 37.20582278483198,240.17046394295903 36.78202531646821,240.02240285613516 36.66582278482383,240.05201509068138 36.63848101266194,240.21488222707558 36.37189873418538,240.31852481483656 35.7293670886138,240.08162731664197 35.51063291137689,240.1260456394739 34.813417721539736,240.8367361737255 34.25974683545064,241.05142296531267 34.2460759493697,241.3475419363167 33.54886075950344,242.21368499156233 33.015696202550316,242.51720346720685 32.83113924053032,242.75409530844627 32.48936708862311,242.39875734028465 31.963037974695908,242.21368499156233 31.853670886077452,241.82133050176344 31.49139240506338,241.54742175575666 31.45037974684965,241.31793007791566 30.96506329116528,241.37715378614666 29.638987341808388,241.16246768019482 29.16050632914994,241.33273600818939 28.873417721537407,241.30312414548825 28.675189873407362,241.74730118348816 28.675189873407362,241.99159772985877 27.33544303799863,242.5542178536707 26.843291139230132,243.31671122649277 26.494683544297004,243.56840681673202 25.89316455696826,243.56840681673202 25.394177215202944,243.79789343127777 24.92936708862544,243.6942543789628 24.115949367085705,243.7312683383061 23.213670886092586,244.0347822983167 22.707848101272248,244.0051712200293 21.798734177224105,244.2790733662987 20.97848101265845,244.80466731707565 20.349620253167814,244.9527214622649 19.9736708861019,244.84908358320536 19.83012658226653,244.93051335418568 19.56354430381907,244.7528483155038 19.556708860764047,244.886097123519 19.44050632911967,244.67882112473308 19.461012658226537,244.85648629234493 19.23544303799281,245.00454036230076 18.62025316458312,245.14519152975845 18.545063291152474,245.2636344677303 18.7706329113862,245.63376776259247 18.852658227842767,246.05571808068635 19.26962025318062,246.64792610997392 19.22177215188276,246.75156216166943 18.743291139253415,246.6035106269992 18.15544303797651,246.01130233991717 17.745316455693683,245.9742892078284 17.383037974708714,246.17415996155614 16.99341772153275,246.22597824118566 16.72683544305619,245.98909446226753 16.22784810126177,245.78182070452021 15.188860759488307,245.6781836677328 15.202531645598356,245.92247080036032 15.824556962033967,245.92247080036032 16.398734177200822,246.26299128196115 16.85670886078151,246.81078271538718 17.567594936699606,246.69974414898024 17.79316455699154,246.75896473276953 18.8321518987359,247.6176593348864 19.023544303810922,248.01739401207305 19.618227848113747,248.7502368529531 19.618227848113747,248.8834804403159 19.290126582287485,249.04633347751223 18.982531645568088,248.92049251704884 18.900506329140626,248.80205382426357 18.941518987354357,248.25427308180952 18.72962025317247,248.0396014482394 18.107594936707756,247.78791688886122 17.854683544312138,247.43259645398211 17.5949367088906,247.32896109406283 16.82936708861962,247.6102568261049 16.521772151900223,247.6176593348864 16.043291139241774,247.52142667870794 15.551139240531484,247.21052055381006 15.147848101245472,247.6028543167631 14.833417721529258,247.55103673643316 14.47797468357021,247.78051439241244 13.480000000010477,247.72869690230436 13.110886075970484,247.56584176207252 13.186075949372025,247.684281889844 14.368607594951754,248.3505050467793 14.860759493662044,248.47634671020933 14.90177215190488,248.5725784657552 13.370632911392022,248.39491976925638 12.953670886083273,248.47634671020933 12.49569620253169,248.39491976925638 12.39999999999418,248.43933447237214 12.46151898734388,248.55777358619525 12.844303797493922,248.69841985528183 13.486835443065502,248.73543199914275 14.96329113925458,250.31213685990224 15.722025316470535,250.48238991800463 16.774683544324944,250.93392926172237 16.89772151899524,251.22261730329046 16.82936708861962,251.7111644362958 16.583291139249923,252.36255697561137" stroke="#4dd2ff" stroke-linecap="round" stroke-linejoin="round" stroke-width="0.5"><title>2024-10-27 13.8km</title><desc>1729977789000</desc></polyline></svg>