<?xml version="1.0" encoding="utf-8" ?>
<svg baseProfile="full" height="300mm" version="1.1" viewBox="0,0,200,300" width="200mm" xmlns="http://www.w3.org/2000/svg" xmlns:ev="http://www.w3.org/2001/xml-events" xmlns:xlink="http://www.w3.org/1999/xlink"><defs /><rect fill="#222222" height="300" width="200" x="0" y="0" /><text fill="#FFFFFF" style="font-size:12px; font-family:Arial; font-weight:bold;" x="10" y="20">Over 10km Runs</text><text fill="#FFFFFF" style="font-size:4px; font-family:Arial" x="10" y="280">ATHLETE</text><text fill="#FFFFFF" style="font-size:9px; font-family:Arial" x="10" y="290">Zayn</text><text fill="#FFFFFF" style="font-size:4px; font-family:Arial" x="65" y="280">SPECIAL TRACKS</text><rect fill="yellow" height="2.6" width="2.6" x="65" y="283" /><text fill="#FFFFFF" style="font-size:3px; font-family:Arial" x="70" y="285.5">Over 20.0 km</text><rect fill="red" height="2.6" width="2.6" x="65" y="287" /><text fill="#FFFFFF" style="font-size:3px; font-family:Arial" x="70" y="289.5">Over 40.0 km</text><text fill="#FFFFFF" style="font-size:4px; font-family:Arial" x="120" y="280">STATISTICS</text><text fill="#FFFFFF" style="font-size:3px; font-family:Arial" x="120" y="285">Number: 10</text><text fill="#FFFFFF" style="font-size:3px; font-family:Arial" x="120" y="290">Weekly: 2.0</text><text fill="#FFFFFF" style="font-size:3px; font-family:Arial" x="141" y="285">Total: 257.9 km</text><text fill="#FFFFFF" style="font-size:3px; font-family:Arial" x="141" y="290">Avg: 25.8 km</text><text fill="#FFFFFF" style="font-size:3px; font-family:Arial" x="167" y="285">Min: 10.2 km</text><text fill="#FFFFFF" style="font-size:3px; font-family:Arial" x="167" y="290">Max: 55.1 km</text><polyline fill="none" points="66.95628710198798,77.05129409440997 67.0,76.9645172534074 65.965461413929,76.01785631146777 65.83432271989295,75.60763401262375 66.70129519698094,74.96863081285846 66.24230976792751,74.59784945815773 65.39719373986009,75.30785520096106 64.85078251484083,75.99418968240934 63.91095520777162,76.65685335049056 61.93658931463142,78.55804457589693 60.97490555854165,79.3153563129672 60.61791689149686,79.76500766383833 60.34835402047611,79.70978742256557 59.648947652458446,80.3172085359547 59.50323799243779,80.3172085359547 57.550728548289044,78.73948432620818 55.67835941712838,77.87172626271058 53.71127900702413,77.47728849219129 52.59660010790685,77.50095479872834 50.090393955732,77.31162420230248 46.51322180251009,73.35927279527095 43.11818672422669,69.84858079676633 42.41878035617992,69.56456480573979 41.092822450067615,69.53300742762076 40.11656772799324,69.37522039977193 39.358877495949855,69.08331379493757 38.338909875863465,68.1602526196948 37.81435509980656,67.86045328799082 33.443065299507,63.962986780861684 31.31570426331018,66.26676928591041 30.79843497031834,65.62771122133563 29.93874797623721,64.9728700502892 29.73475445221993,64.63361343539145 27.607393416081322,62.98465342116833 27.039125742012402,62.32190646741947 23.636805180780357,59.90757983530784 22.143281165655935,58.313779285599594 20.569616837543435,57.0907976754097 17.742849433328956,54.32128524003201 17.655423637334025,53.76895238373254 17.808418780361535,53.01146275977226 19.433081489492906,50.49434994668991 19.607933081453666,49.93410687497817 19.42579600645695,49.050337284796115 19.025094441429246,48.25336033056374 17.808418780361535,46.53313272303785 17.240151106292615,45.40471174857521 16.86130599025637,44.039543435566884 16.52617377223214,41.33282952474838 16.2857528332097,41.21445857259096 16.191041554207914,40.38585829560907 15.877765785204247,39.33628887075611 15.688343227200676,39.194241101751686 15.404209390166216,39.217915742825426 14.959794927126495,39.50990255839133 14.47166756610386,39.57303473963111 14.194819212076254,39.89658659257111 13.976254722045269,39.94393556336581 13.0,37.82899473753059 14.369670804066118,40.796213508496294 14.792228818114381,42.027269846112176 17.597139773337403,47.16441207242315 19.199946033448214,49.863089941311046 18.87209929843084,50.81786927835492 19.19266055044136,49.98934223573451 19.19266055044136,49.78418218284787 18.87209929843084,49.239717087722966 19.0323799244361,49.02666478622268 18.29654614138417,47.86670603908715 18.13626551537891,47.693105705606285 17.954128440353088,47.693105705606285 17.844846195337595,47.464268478644954 18.1071235833806,47.49583226272807 18.260118726379005,47.66943291138887 18.67539125739131,48.15866961086431 19.148947652429342,49.01877395222982 19.26551538045169,49.72894671779795 19.119805720460135,50.478568491242186 17.69913653531694,52.6090442499044 17.378575283306418,53.26395988760487 17.320291419280693,53.86363821555278 17.553426875325385,54.60534104476392 17.997841338336002,55.16556003965525 22.908256880706176,59.52885706833331 25.108472746855114,61.61970588345139 26.66028062600526,64.1286713977679 27.76038855907973,66.21154219397431 29.06449001620058,68.25492592121736 29.312196438200772,68.88607915905595 29.44333513220772,68.92552611483552 29.70561252022162,68.65728653346014 33.55963302750024,64.27857630987273 34.53588774957461,65.03598744329065 36.24069077169406,66.6533581443 39.300593631953234,69.31210552454286 40.043712897982914,69.58034349136142 42.71748515916988,69.80124484976841 48.03588774957461,75.48930036983074 49.50026983267162,76.74363043679477 49.85725849971641,77.23273635657824 50.6149487317889,77.23273635657824 50.7533729087736,77.3352905448628 50.73151645975304,77.50884356642928 51.022935779823456,77.61139749454742 53.2377226119861,77.61928625423752 55.70750134915579,78.1714980122706 57.72558014030801,79.11025157113181 59.29195898541366,80.49075680294482 59.525094441429246,80.37242846911249 59.83108472745516,80.53808810046758 60.57420399351395,79.90700244137406 61.92201834861771,81.18494710396772 62.767134376685135,82.17100526246941 65.73961144089117,79.61512408662384" stroke="#ffbf00" stroke-linecap="round" stroke-linejoin="round" stroke-width="0.5"><title>2025-04-12 25.3km</title><desc>1744462456000</desc></polyline><polyline fill="none" points="113.2017963907565,33.0 112.60429019434378,33.26776003456325 111.61531442106934,34.294169180706376 110.9353935768595,34.69580567715457 104.86761513433885,40.41901177234831 104.49674921931,40.720227245867136 104.09497781144455,40.75369559539831 103.55928260087967,41.6796503776568 102.81755077088019,42.293231801042566 101.98310246213805,42.36016780823411 101.20016330829822,43.743505435282714 99.30462640943006,45.428036875702674 100.70567542157369,46.677478743731626 102.49819401075365,48.707800135962316 108.84412188956048,53.95081386390666 109.20468597358558,54.48626053065527 108.55567062232876,55.5683033161331 108.81321639660746,55.76909392392554 108.76170724176336,56.092589352076175 108.90593287535012,56.248759315378265 108.49385963648092,56.694958337262506 108.75140541075962,57.208085613063304 109.10166766383918,56.694958337262506 108.06118273566244,55.501373055318254 109.01925301604206,54.11814114739536 108.58657611522358,53.638469114506734 108.16420104535064,53.526917264651274 105.05304809182417,56.32684423759929 103.53867893893039,57.92199897678802 102.04491344798589,59.16018461424392 98.79983669175999,62.39503702028014 97.5121078202501,63.432406326173805 96.14196430094307,64.83786326604604 95.93592768156668,65.2282656942989 94.79242444364354,66.06483899237355 95.32811965420842,66.75640281972301 93.62831754377112,68.34029536417802 93.55620472703595,68.6191479984409 95.0911775418208,71.07302940283262 96.0183423293056,71.2403380744363 96.81158331414917,72.16610943809792 97.460598665406,72.46726277825655 97.47090049635153,72.60110851816717 96.03894599125488,73.83917609712807 96.2243789487402,75.59029973093129 96.19347345584538,77.70946730847936 98.15082134050317,79.83975901048689 97.85206824232591,80.07397776626749 97.36788218666334,80.00705815809488 96.7394704973558,80.24127665952255 96.80128148314543,81.39005748515774 96.66735768056242,81.5908144199202 95.8638148647151,81.8584899258858 95.48264711874072,81.61312072984583 95.21479951345827,81.72465223105974 94.86453726043692,82.77304439512955 93.1338296571048,85.46091085794615 92.1036465599318,86.62080555183638 92.1036465599318,87.0 92.13455205282662,86.59849996700359 93.17503698106157,85.42745222756639 94.87483909144066,82.79535053385189 95.23540317540755,81.73580537675298 95.62687275232747,81.60196757529047 95.89472035760991,81.82503051306412 96.76007415930508,81.50158914788335 96.7394704973558,80.21897015090508 97.33697669371031,79.98475161560054 97.91387922811555,80.05167123346473 98.16112317150692,79.77283930055273 96.39951007527998,77.9883029768389 96.20377528679091,77.55331911372195 96.24498261068948,75.41184218268609 96.05954965320416,73.73879261022375 97.47090049635153,72.35572457280068 96.85279063804774,72.11034023636603 95.94622951251222,71.16226071698475 95.10147937276633,71.00610588327982 93.41197909339098,68.36260359350126 92.49511613685172,67.47027189910295 92.73205824923934,66.91256196367613 92.65994543238776,66.70063165847387 91.92851543339202,66.48870106154936 90.77471036452334,66.63370623835362 89.2706430425751,65.80829033095506 88.18895079055801,65.98675901023671 87.74597205873579,65.250574374586 87.03514572168933,64.63708448884427 86.79820360930171,64.63708448884427 87.67385924194241,65.21711135296209 88.20955445250729,65.96445043665881 89.46637783106416,65.841753224071 91.75338430685224,67.05756674124859 92.38179599621799,67.59296781377634 92.81447289697826,67.68220114483847 93.50469557213364,68.29567889581085 95.30751599220093,66.73409435764188 95.16329035861418,66.43292980332626" stroke="#4dd2ff" stroke-linecap="round" stroke-linejoin="round" stroke-width="0.5"><title>2025-04-09 13.2km</title><desc>1744204397000</desc></polyline><polyline fill="none" points="178.85804880573414,34.72512948955409 177.75121801765636,34.01691987350932 176.81208886415698,33.0 176.4599154315656,33.03631863804185 172.04936244280543,37.412675970452256 162.5406797635369,45.87462726574449 156.8220540251932,51.37655816024926 156.20155797735788,52.26629801375384 154.74255375674693,53.33761323738145 155.54752160265343,54.463397181534674 152.78044463240076,56.93284102350299 152.17671874799998,56.769422697558184 150.85187583504012,55.33496837473649 148.83945622039028,54.57234374647669 145.97175826947205,52.95629817426379 143.85871767409844,53.08340325974859 142.9866691744537,51.558137978761806 141.72890691529028,50.722869724268094 141.14195119432406,49.99654723989079 141.7959875690285,50.795501856919145 143.08729015517747,51.48550606715435 143.74132652994012,52.919982423685724 144.14381045283517,53.24682398927689 145.85436712531373,53.028929659572896 151.7071541712503,56.11574832815677 155.24565866036573,61.490353635977954 156.6208120637457,61.690083368928754 158.012735630502,63.23344412121514 159.10279625520343,63.76000032138836 156.72143304446945,66.0477833829209 157.10714680392994,69.60651553489151 156.98975565977162,72.00318423156568 157.19099762116093,72.63866072503151 159.18664707249263,74.4906116049533 160.17608671629569,75.743394149511 159.74006246647332,76.07020595780341 158.8177034764085,75.97942494266317 157.84503399604,76.26992407538637 157.97919530363288,78.26709650209523 157.81149366911268,78.52128094254294 156.43634026573272,78.99333707698679 155.88292487175204,78.61206103747827 155.3462796411477,78.82993313104089 154.7593239201815,80.55474719066115 152.009017113538,84.80318595995777 150.2313797872048,87.0 153.11584790161578,83.24180229868216 154.82640457403613,80.53659131500171 155.41336029494414,78.86624512824346 155.86615470825927,78.61206103747827 156.55373140994925,79.01149306437583 157.86180415941635,78.4849688954273 158.02950579405297,78.17631628233357 157.89534448640188,76.32439262530534 158.7673929859884,76.01573735267448 159.80714312032796,76.10651835464523 160.2599375335849,75.68892547336873 159.47173985122936,74.65401837877289 157.5431710538105,72.9291637284623 157.00652582320618,71.87608873959107 157.1239169674227,68.95287464118155 156.7885136983241,65.79358629605849 159.08602609176887,63.63290065023466 158.012735630502,63.160815593015286 156.63758222718025,61.635611639372655 155.1785780065693,61.36325281388417 152.71336397860432,57.441252911725314 152.74690430553164,57.04178651490656 155.54752160265343,54.37260834123299 154.7593239201815,53.24682398927689 155.58106192952255,52.81103514046117 156.67112255410757,51.77603358730266 156.92267500597518,51.140504199502175 163.61397022468736,44.966706264560344" stroke="#4dd2ff" stroke-linecap="round" stroke-linejoin="round" stroke-width="0.5"><title>2025-04-07 10.2km</title><desc>1744033163000</desc></polyline><polyline fill="none" points="51.37590694334358,93.3852310107759 49.03804371453589,95.7883255045308 48.512871539918706,96.00845515687251 47.750524834846146,97.03572433600493 47.1575885086786,97.0173802801146 46.39524180360604,98.00795739682508 46.208890386798885,98.64999604965851 44.328435180999804,100.24591364452499 43.80326300638262,101.19979062020138 42.17692336894106,102.33710077722208 41.516222891164944,102.28206975825015 40.85552241350524,103.5294365833397 39.7712959885248,104.51998821228335 39.05977239710046,104.77679726101633 36.51861671358347,107.43658994186262 30.199609580507968,112.93952055378759 30.04714023944689,113.12294951402873 30.318196845648345,113.28803546457493 29.911611936287954,113.50814989786886 30.724781755066942,114.64540475446847 27.844805313739926,117.32343633437995 27.91256946523208,117.80034309632902 30.45372514880728,121.78064526678645 31.84289025585167,121.96406782179838 33.24899640074,123.57818057670374 34.28239971201401,124.00004925980465 31.944536483148113,126.1827499166393 32.30029827886028,128.78729246818693 32.249475165153854,132.54732425598195 32.50359073356958,133.20761675894028 34.53651528042974,134.95004704357416 35.38356717483839,136.10554683250666 34.99392330338014,136.47237106005196 33.960519992164336,136.41734745977737 33.079586021834984,136.69246534150443 33.11346809758106,138.94842070058803 31.72430299059488,139.40694575573434 31.08054355077911,139.0034437510185 30.640076565614436,139.1685128306126 29.89467089844402,141.14933339589334 27.234927949670237,145.2943337210163 25.727175577369053,147.0 27.13328172225738,145.4593987015396 30.064081277349032,140.8558794746932 30.640076565614436,139.1318308222253 31.182189778075553,138.98510273550346 31.656538839102723,139.44362772426393 32.96099875657819,138.8567155899218 33.19817328703357,138.2698020957323 33.09652705973713,136.7108065229986 34.06216621946078,136.36232384757022 35.061687454988714,136.47237106005196 35.45133132650517,136.08720560725487 35.061687454988714,135.3902380609361 32.53747280931566,133.1159095697658 32.23253412730992,132.52898277297209 32.249475165153854,128.32874818716664 31.961477521050256,126.20109185922774 34.3162817878183,123.83497029355203 33.24899640074,123.43144347867928 31.944536483148113,121.92738332142471 30.436784110963345,121.68893393944018 27.895628427388147,117.72697288374184 27.86174635158386,117.30509374868416 28.234449185139965,116.7548155595141 30.792545906617306,114.51700526842615 27.709277010522783,117.23172339258599 24.880123682902195,115.03060282187653 21.102272233343683,113.15963529009605 19.103229762229603,113.39809270511614 18.120649564662017,112.059059694584 16.79924860916799,111.16025274223648 17.73100569320377,111.74722907265823 19.289581179094967,113.48980703575944 20.814274589181878,113.58152133312251 23.050491590693127,114.16849204951723 23.999189712572843,114.79214694451366 24.86318264500005,114.99391731685319 25.608588312228676,115.74596910639957 27.065517570765223,115.94773871863435 29.454203913279343,113.70992129361548 30.65701760345837,113.10460662395053 30.75866383081302,112.93952055378759 30.369019959354773,112.79277728989837 31.097484588623047,112.07740266040491 51.93496119376505,93.0 56.11939755268395,95.6048839813011 58.32173247839091,97.43929322979238 59.1349022971699,97.65942144604924 60.524067404156085,96.48540208007034 61.591352791234385,97.40260517512797 61.77770420809975,97.9529254364752 60.930652313516475,98.50324450114567 58.694435312005226,100.77788393975061 59.202666448720265,101.41991556556604 60.10054145689355,100.83291528579139 60.76124193466967,101.54832169527072 61.032298540871125,101.54832169527072 63.20075139083201,99.51215967832832 60.981475427164696,97.09075649578881 54.577763104694895,103.62115448963596 61.100062692479696,97.10910054635315 60.54100844200002,96.37533748528222 52.88365931564476,103.2542826650897 50.17309325316455,100.30094510619529 50.91849892033497,100.7228525817336 52.34154610312544,99.6589106417523 52.30766402737936,99.20031359849963 51.32508382975357,98.20974114889395 52.782013088290114,97.20082077942789 53.01918761874549,97.58604539520456 52.18907676206436,98.20974114889395 52.9006003534887,98.94349889125442" stroke="#4dd2ff" stroke-linecap="round" stroke-linejoin="round" stroke-width="0.5"><title>2025-04-06 15.4km</title><desc>1743942179000</desc></polyline><polyline fill="none" points="77.00130816668388,98.64128134302882 77.31414688844234,98.59757214743149 78.45449448702857,97.59771737655683 78.54027284620679,97.82719341474876 78.47467763035093,98.30253441418608 79.00448514297022,98.26428869754454 79.34255279388162,98.01842291287176 79.51410951223806,98.1386240633583 79.75630723228096,98.03481399013981 79.81685666230624,98.17686984376633 79.96823023734032,98.16047879739199 80.00859652401414,98.35170744991774 79.99345916652237,99.1220808217331 80.3163894599129,99.56463217681448 80.76546439918457,99.61926796639455 81.20949355259654,100.26396729292901 81.3760044851515,99.89790987728338 81.5626985609997,99.69575800527673 82.51130629787804,99.17671693208104 83.41954774808255,98.53747196209588 84.38329284245265,98.06759613395843 84.71631470750435,98.05120506384264 84.9332834983943,97.93646747308958 85.26125957764452,97.94193117185205 85.34703793682274,98.06759613395843 85.42272472433979,98.9964176176436 85.48831994019565,101.22007902386395 86.07867688281112,101.2747136136677 87.67314520649961,101.23100594498828 87.84470192488516,101.30749434854079 87.57727527563111,103.1431927546073 87.52177163146553,106.64510058916494 87.42085591476643,106.7652879873931 86.94150626051123,106.79806633549742 86.11399738365435,107.01658829211374 86.27041674451903,108.56261305091175 86.14931788449758,110.69312528640876 85.39245000932715,113.77406734090619 85.09979443094926,115.66954897543474 84.8374135675549,116.4943690580476 87.24929919640999,118.32423573793494 87.2442534105794,119.23642136611306 86.98187254718505,120.38892756759742 86.2855541020399,122.09853706449212 85.87684544944204,123.32200380511495 85.6094188002171,123.81356968150067 84.18146140908357,127.92075063026277 83.75761539899395,128.82735889025207 82.80396187628503,130.1817895174172 82.29433750701719,131.12659973263362 80.124649598205,135.85593458840594 79.91272659314563,136.6040817001558 79.84208559145918,138.02390257525258 79.47878901136573,138.3570105341787 78.918706783792,138.63550950453646 77.99532797606662,139.52560717824235 76.87516352083185,140.0935167829739 76.48663801158546,140.1044380797248 76.1788450756867,140.77609479851526 75.28069519714336,141.8682068083508 74.57933096616762,143.51726605738804 73.0,143.0749722377077 73.93347037935746,143.353453833166 74.47336946363794,143.59917203647638 74.36236217527767,143.7247610321283 74.47841524946853,143.82304792675131 74.24126331528532,144.11244748591707 74.4430947486544,143.8667309500379 74.5440104653535,143.6319344032745 74.50364417865057,143.51726605738804 74.62978882453172,143.4298995819554 74.84171182956197,142.88385682398803 75.1646421229525,142.9821448113653 75.18987105213455,142.76918734396895 75.1646421229525,142.95484260546073 75.30087834049482,143.0640513699327 75.60362549056299,142.93846127719007 75.84582321060589,142.22313981582556 76.92057559333625,141.39314002220635 77.06690338253975,141.16925693896337 78.0054195477569,140.51944618747802 78.30816669782507,140.7870159966842 80.07419173987,143.2387850650921 81.28518034011358,142.40333593595278 82.06727714446606,142.67089907985792 82.37002429450513,142.38149400485418 82.29938329281867,142.15215334758977 82.03700242945342,141.99379867835523 81.89067464024993,141.78629895468475 81.11866940758773,141.34945557021274 81.05307419173187,141.2129414950614 81.15903569426155,140.77609479851526 81.64343113437644,140.56313111894997 81.78975892357994,140.30102115152113 81.83517099605524,139.5747533703252 81.62829377685557,139.37816841035965 81.93104092692374,138.72834226668783 81.8553541394067,138.13311846119905 82.28424593532691,137.9310689481572 82.54158101289067,137.62526325265935 83.01588488131529,137.33037801763567 83.33881517473492,137.34676056086755 83.87366847318481,137.70717561381025 84.22182769575738,137.78362707082124 84.52457484582555,137.71809725525964 84.74658942251699,137.57611579335935 85.11493178844103,137.58703745374078 85.19566436178866,137.52150746777625 85.29153429262806,137.253926102283 85.18557279015658,137.0081872792798 85.0291534292628,136.89350888851914 85.04933657258516,136.66415158509335 84.95346664174576,136.52216814377607 84.76677256586845,134.9985598151543 84.83236778172432,134.80196295511269 85.8970285927644,134.8128850163048 86.45711082039634,135.26068816646875 86.89104840217624,135.24430517114524 87.22911605305853,134.85657324529893 87.86488506820751,135.1350851115567 87.84470192488516,135.59926927486958 88.9295458792767,135.88870031038823 88.9295458792767,136.2491223147881 89.12633152681519,136.2491223147881 89.217155671824,136.38018443579494 88.96991216595052,136.9699611683609 88.80340123339556,137.1829349687905 88.36946365164476,137.4832816164053 88.24331900579273,137.79454870121845 88.303868435818,137.99113777869934 90.45337320127874,138.49352976548107 90.96299757054658,138.65189176496642 91.08409643056802,138.76656748855748 91.58362922817469,138.79387120663887 91.63913287236937,138.6846562751598 91.89646794990404,138.5863627019644 91.79555223323405,138.08943212575105 91.98224630908226,137.60888076977426 92.04279573910753,137.18839582758665 92.17903195662075,137.090100309033 92.64324425341329,137.1993175439784 92.7340683984221,136.4948636052577 93.53130256023724,136.22727860586747 93.77854606613982,136.21635674904246 94.12165950288181,136.58769899597974 94.93907680807752,137.07371771017642 95.87254718743498,136.08529434400407 95.81704354326939,135.90508316604974 95.25696131563745,135.28253215470613 95.428518034023,135.44090088069788 95.49411324984976,135.09685805341724 95.86750140160439,134.61082662871922 96.03401233415934,134.26131895332946 96.33171369836782,134.20124715885322 96.71014763595304,134.43061193541507 97.1087647168606,134.5452940626783 97.57297701362404,134.51798881007562 98.13810502708657,134.359618150389 99.11194169311784,133.67698219866725 99.15230797982076,133.56775987422589 100.32293029339053,132.82504388194502 100.18669407587731,132.2079287187662 100.42889179592021,131.53073459889129 100.46421229676344,131.01737372209027 100.08073257334763,130.01794839373179 100.00504578583059,129.38988746162795 100.15641936086467,128.67989925148868 100.80732573350542,127.63675062416587 101.02429452439537,126.81205224698351 100.85778359184042,126.11842478668405 100.49448701174697,125.15716675257863 100.6256774434587,124.33790308970492 100.57017379929312,124.00473332490219 100.71145580263692,123.73710408865009 101.13025602689595,123.59509635367431 101.25640067274799,123.46401205362054 101.4430947486253,122.75396814066335 101.29172117362032,122.14223264656903 101.08484395439154,121.83090107260068 100.72659316015779,121.50318223955401 100.62063165762811,121.14268988036201 100.69631844514515,120.70572713749425 101.105027097743,120.21414102897688 101.3018127452815,119.7607865585669 101.25640067274799,119.39482373525243 100.93347037938656,118.79944759023783 100.97888245186186,118.60280856589088 101.42291160530294,118.17675558932388 101.52382732200203,117.9036434421505 101.47336946366704,117.4939733686333 101.16053074190859,116.7401746241012 101.19080545692123,116.29226165961882 101.41282003361266,115.96998117501062 101.87198654457461,115.83888363498409 102.39170248550363,116.01368030442245 102.62885441974504,116.01914269381814 103.00728835733025,115.63131206424441 103.1788450756867,115.6039999729619 103.9912165950227,115.74602273970231 105.14165576527012,116.34688533418375 105.36367034199066,116.14477754083782 105.64118856287678,116.12292801723379 105.89852364044054,116.42882077190734 107.68977761166752,115.99729313385615 109.31956643617013,115.98636835149955 109.58699308539508,116.07376656604174 109.90487759298412,116.33049823596957 110.1571668846882,116.39604660748591 110.40945617642137,116.33596060243144 110.90898897402803,115.98090595973918 113.11399738368345,115.95359399496374 113.5731638945872,116.05191702189768 114.09287983554532,116.47251963566669 114.42085591476643,116.62000311403972 115.12222014574218,116.70193825528986 115.57634087087354,116.5708419865914 116.61072696693009,116.02460508281365 117.02448140532942,115.92628202030755 119.02261259578518,115.75694755683071 119.47673332088743,115.94266920629161 119.83498411512119,115.97544356756407 120.14277705101995,115.80064680959185 120.46066155857989,115.39096532177064 122.01980938142515,114.83925740425911 123.77069706597831,115.4018901902964 125.894972902257,114.18375760610797 125.87983554473612,113.91063100977044 125.15828817040892,112.48489412823983 125.87478975893464,113.94340625352197 125.91515604560846,114.21107021136413 123.84638385346625,115.39096532177064 123.70510185012245,115.44012721772742 123.41749205754604,115.36365314350405 123.75555970845744,115.44012721772742 125.93533918893081,114.21653273123229 125.95552233228227,114.00349416344397 125.17847131376038,112.38110380142462 126.17249112314312,111.93316496384796 127.0,111.79659771609295 126.29863576899515,111.89492615940253 125.18351709959097,112.37564114870474 125.93533918893081,113.98710655639297 125.93533918893081,114.19468264939496 125.86974397307495,114.29847048179363 123.79592599513126,115.42920235473139 123.47299570174073,115.39096532177064 122.02485516725574,114.85018235265306 120.47075313024106,115.42373992262583 120.10745655017672,115.877120441015 119.81984675762942,116.00821791462658 119.49691646420979,115.99183074288158 119.012521024124,115.77333477958018 116.95384040367207,115.95905638871773 116.66623061109567,116.02460508281365 115.44515043919091,116.60907842180313 114.95066342738573,116.70740059487434 114.36030648477026,116.59815372801677 113.92132311718888,116.34142296850041 113.6185759671207,116.06284179475915 113.20986731452285,115.93720681135164 110.95440104653244,115.94266920629161 110.75256961316336,115.99729313385615 110.35395253225579,116.33049823596957 110.06634273967938,116.37419715664146 109.55671837038244,116.05737940852123 109.18837600448751,115.96998117501062 107.61409082412138,115.99729313385615 106.94300130815827,116.11200325307436 105.8732947112585,116.42882077190734 105.79256213791086,116.24310031870846 105.42421977201593,116.14477754083782 105.32330405531684,116.16116467937536 105.14165576527012,116.40150896921114 103.96598766586976,115.75694755683071 103.6581947299419,115.6859362171599 103.07792935901671,115.63677448131784 102.7449074939359,115.96451878205698 102.52289291718625,116.05191702189768 102.28574098300305,116.00275552444509 102.0233601196087,115.88258284029871 101.75593347038375,115.3964277562336 102.07381797794369,109.33288211124454 102.30087834049482,108.6609457093291 101.8770323304052,108.69372323364951 101.71052139785024,108.97233161533222 101.46832367780735,111.63817939904402 100.68118108762428,111.59994044509222 98.96561390394345,111.72011994938657 98.10278452624334,111.66549292570562 97.98168566622189,111.74197074779659 96.9170248551527,111.68188103697321 96.97757428517798,111.3431926809426 96.85142963932594,106.60139603322023 96.67482713510981,106.62324831435399 96.68996449263068,106.0277713889518 96.291347411694,105.94036153629713 96.291347411694,105.78193092011497 96.37207998504164,105.71637332639511 96.291347411694,105.83656220466219 95.9532797607826,105.91304593655514 95.91291347410879,105.8474884568277 96.37712577087223,105.62896311281656 96.39730891422369,105.72729959598655 96.25602691085078,105.89119344964274 95.98355447579524,105.83109907799371 96.70005606429186,104.95153052231763 96.71519342178362,104.02278240279702 96.57391141843982,103.92990696170455 96.70005606429186,103.17597267710516 96.60923191925394,102.53129825193173 96.57895720427041,99.71761228784453 96.47299570174073,99.23681660772854 96.50327041675337,98.14955143116822 96.4376752008684,98.06759613395843 96.24088955335901,98.05120506384264 96.46794991588104,98.07852351207111 96.52849934590631,98.00749552604248 96.5335451317369,97.55947130226559 96.2005232666852,97.61957226743107 95.17118295645923,97.52668893741793 91.79555223323405,97.57039875404007 91.35152307979297,97.24257451149606 90.93776864139363,96.68527002659539 90.65520463464782,96.61424072752561 90.75107456548722,95.92579943685269 90.62997570546577,96.72351654451631 89.87310783032444,97.40648681101447 89.63595589608303,97.52122520856938 86.58325546627748,97.43926922812534 85.74060923189973,97.30267572938465 84.58007849002024,97.4829790954609 83.52046346478164,97.92007637443749 81.68379742102115,99.0838355209271 80.49803774995962,99.63565869554441 80.2659316015779,99.55916859568242 79.95309287981945,98.98002674950112 79.99345916652237,98.43912610091502 79.9278639506665,98.11130563689949 79.66548308727215,97.72338291259075 79.17099607549608,97.36824063967651 78.93384414125467,97.05134304483363 78.80769949540263,97.0895893769848 78.65632592036854,97.01856045897875 78.1467015511007,96.5049647520791 77.93477854607045,96.70166139380308 78.02055690524867,96.85464731577667 77.12240702673444,95.88755251408293 75.66417492055916,97.26989325283648 75.59353391890181,97.49937028915883 75.68435806391062,97.65781831122149 75.27564941131277,98.17140616203687 75.49261820220272,98.47737172884808 75.37656512801186,98.837972409543 75.42702298634686,99.04559020072338" stroke="red" stroke-linecap="round" stroke-linejoin="round" stroke-width="0.5"><title>2025-04-06 55.1km</title><desc>1743890633000</desc></polyline><polyline fill="none" points="164.1242752768303,146.1165940349092 164.22676720717573,146.21869688321385 164.25956462489557,145.992294685464 164.01358399208402,145.82360230763516 164.07917882748006,145.72149880055076 161.8653531321761,143.9102430715393 163.05015984686906,142.74266501931925 162.36141407499963,141.98794492321758 162.04573892954795,141.79704365969155 161.81615700561088,141.75708750592457 161.80795765116636,141.44631653080432 162.2794205307291,140.96239858529952 162.46390600534505,140.95351932118865 162.29991891680402,140.696020101881 161.32419573997322,139.68821101561844 161.15200929700222,139.4129474986912 163.00506339753338,137.68142279141102 163.0870569418039,137.59706520783948 163.04196049245365,137.47718844164046 163.1198543595092,137.3795109029379 162.95586727096816,137.1086769118483 162.1933273092436,136.33612746473955 161.80385797396593,135.82552908491925 162.4516069737001,135.08848390792627 163.1936485493643,134.50239345290902 164.18987011227,133.53444389051947 164.70232976395346,133.29911438857016 165.96503034573107,132.93057768882136 166.36679871263914,132.6641642337927 166.51438709234935,132.42883138318575 166.98175029469712,132.03364776675153 167.05554448453768,132.08693109992964 167.21953157309326,132.02032692619468 167.76478864249657,132.10025192596368 169.46615468610253,132.13577411456208 169.6998362872837,132.251221085 169.60554371136823,132.02476720669802 171.1347233120323,130.5949802210598 170.84774590708548,129.85787200663617 170.81904816659517,129.36942190903574 171.5405913561699,126.3542662728687 171.8808645648969,125.4350360764256 172.98367773534846,123.62762044422925 173.23785772258998,122.76164069513106 173.30345255801512,118.84903558924998 173.52893480475177,118.76465201472092 173.61912770345225,118.46264668747244 173.58633028574695,118.3427323933538 173.66012447557296,117.82754237698464 173.58223060853197,118.61364953776138 173.52893480475177,118.76021077072801 173.5207354503218,118.5736782313652 173.6847225388774,108.96204005313484 173.7790151147783,108.30018486989866 173.70112124773732,108.19357665230564 173.79541382363823,107.64276456073276 173.79131414642325,107.02531606299817 173.8036131780682,106.97645296542396 173.86510833627835,107.04308445241986 173.7380183426576,106.66106293958364 173.79541382363823,106.25238611476743 173.78721446920827,104.98191676168426 173.7257193109981,104.87086049073332 173.5412338363967,104.78201532839375 172.23753648248385,104.35999904005439 171.98335649524233,104.21340322503602 171.79067166619643,103.93353750886308 171.52009297010954,102.39203189656473 171.54879071059986,102.95177619187598 171.26591298285348,103.01396968534027 171.17981976138253,102.88958263499444 171.19211879302748,102.75186810475134 170.92563977412647,102.5741714771757 170.02781046436576,101.40580325646079 169.57274629366293,100.68611283068822 169.54404855317262,100.15300333491905 169.73263370500354,97.66509738290915 170.65506107803958,93.0533174161319 170.5320707616338,93.0 167.81808444624767,93.12885034242936 167.1170396427333,93.35989165342471 165.88713647867553,93.90638972914894 165.11639716250647,94.01746597446254 164.2964617198013,93.91083278284714 161.959645708077,93.08886233428711 161.06591607551672,93.11552100929839 160.36077159478737,93.31546070011609 159.74991968997347,93.69312277054269 159.64332808241306,93.68867970097563 159.47114163944207,93.85307305946844 158.91358553839382,94.1907445128636 157.88456655778282,94.65726120567706 156.6341650076647,94.9193975897033 154.96149670451996,95.1326602567242 153.83818514800805,95.38146575837891 152.91575777495746,95.51031106537266 152.89935906609753,95.42145226210778 147.8485567389871,102.07661816541076 148.2544247831247,103.1383564820062 148.3282189729798,103.81803699768352 148.38561445396044,106.51891478928883 148.29132187804498,108.21578671300449 148.38561445396044,109.21523107719986 148.553701219731,109.5750270411445 148.46760799823096,109.91261144876626 148.52500347922614,110.95200434637081 148.11913543508854,112.35560085218094 148.1355341439339,112.97743708838243 147.97564673260786,113.80802275154201 147.49188482141471,115.37144746373451 146.82773711280606,116.6239349707248 146.13489166372165,117.3256720615027 146.18408779028687,117.29458261427135 146.33167616996798,117.47223638529613 146.5284606762143,118.17396372869916 146.7334445368906,118.5870020030743 147.27870160630846,120.4656247183193 150.8085236871848,124.28486867729953 151.21849140855193,124.64013504929608 152.15731749043334,125.7370069411736 151.0094078706461,126.79833387909457 151.04220528836595,126.9271128814471 150.97251077572582,127.01148518415721 152.16551684487786,128.9031704483168 152.3705007055396,129.12075490581265 153.64550031896215,131.02569596816102 153.74799224929302,131.29655689446008 153.76849063536793,131.6207003604395 154.34244544526155,132.1313338421205 154.5433296287374,132.41995088053955 155.09678605257068,132.94833854455646 155.8429273054353,133.79197325129644 156.15860245088697,134.3159089486544 156.7325572607806,133.80085355474512 156.41278243811394,134.08946271487366 156.29389179892314,134.26706767502765 156.30619083055353,134.37363040358832 156.59316823552945,134.53347414834207 157.45820012758486,135.2882861886792 158.5733123296668,136.7534829752367 160.2869774049468,138.6226679409774 160.5042602972535,138.77362100458413 160.6969451262994,139.08440555125344 161.76286120181612,140.15881996710232 163.52162272644637,142.12113149866855 163.18954887213476,142.48517332640404 163.47652627709613,142.74266501931925 163.29614047969517,142.99127666064305 165.51406585224322,144.75816602678242 164.3825549412868,145.92570564446578 164.33335881473613,146.04112660283135 164.40715300457668,146.22757538371297 164.0627801186347,146.65374189406066 164.18987011227,146.7691614802461 164.20626882110082,147.0" stroke="#ff8700" stroke-linecap="round" stroke-linejoin="round" stroke-width="0.5"><title>2025-04-05 38.6km</title><desc>1743839508000</desc></polyline><polyline fill="none" points="60.66294586547883,188.59844088130922 59.34658684753231,189.88336370730394 59.05478312433115,190.0518769121918 58.91860805352917,190.29060345069593 58.4452375692199,190.59252146580548 57.52443470939761,191.50529113836092 55.579076554771746,193.1974029388657 55.16406681513763,193.61164987297525 55.30024188593961,193.68186104222696 54.87874761913554,193.8924942447411 53.82825421565212,194.88246416384936 55.2029739782447,197.00279124140798 55.767127843078924,197.08002082228631 56.26643643609714,197.67679278139258 56.67496164856129,197.85231324656343 55.780096897418844,198.72289005583298 55.92275649541989,199.8813067503579 55.8708802779729,201.0818330809998 55.981117240095045,201.32755301169527 57.115909496933455,202.4508361922999 56.921373681456316,202.6403889456269 56.480425833084155,202.62634801364766 56.18213758271304,202.8018595172689 56.221044745791005,203.55304516285833 55.65040635378682,203.75663653165975 55.48829317424679,203.6232491314222 55.26781925006071,203.70047343814076 55.0019536355685,204.36038773248583 53.91255306900712,206.07333579271653 53.303007513895864,206.7332339388813 53.28355393232778,207.0 53.354883731371956,206.69111291477748 53.98388286799309,206.00313359800202 55.03437627150561,204.33230636464577 55.248365668492625,203.72855498896388 55.48180864704773,203.616228736857 55.773612370248884,203.8127995926625 55.734705207141815,203.71451421456004 56.23401380018913,203.54602476320724 56.22752927299007,202.7386754125764 56.61660090391524,202.59826614358462 56.99918800764135,202.61932754690497 57.1418476056715,202.471897627649 55.948694604157936,201.27840907536302 55.8708802779729,201.01864785530051 55.90978744105087,199.71983131422166 55.780096897418844,198.7088485564309 56.67496164856129,197.84529243405996 56.25346738169901,197.6416886502193 55.74118973434088,197.01683298796706 55.2029739782447,196.98874949282617 54.66475822211942,196.03390581595158 54.107088884484256,195.24053589939285 53.58832670992706,194.72098039925913 53.55590407398995,194.57353846613842 52.777760812139604,194.34184354656463 51.571638756315224,193.66079769678618 50.845371711911866,193.79419880719797 50.46926913535572,193.16229718510294 50.01535223261453,192.89549304072716 49.71706398224342,192.35486133774975 49.807847362797474,189.99570587645576 49.24369349796325,190.00272725770628 48.037571442109765,190.32571024497156 46.65636715234723,190.99975822831766 46.13760497779003,191.31571660619375 45.69017260221881,192.0529488143511 44.39326716581127,190.4731586420603 44.09497891544015,190.40294514763082 43.80965971943806,189.96762034638232 43.459495251619956,189.63761475809588 43.43355714288191,189.37782233393955 43.355742816696875,189.60952912420908 43.10284625660279,189.4410151498887 42.532207864598604,188.82312806948175 41.49468351545511,187.44691086212697 41.74109554840834,187.63649296514632 41.52062162422226,187.58734208517126 41.5465597329021,187.39775988596375 41.41038466212922,187.3837167453239 41.105611884529935,186.96242157976667 41.07967377582099,187.0466807594712 40.90459154191194,186.83603267277795 40.89162248754292,186.91327035775612 41.39741560773109,186.07067410179297 41.241786955390126,185.53702601506666 40.612787818710785,184.87698352462758 40.58036518280278,184.40652496123948 40.651694981817855,184.31524169167096 40.49606632941868,184.49780814475525 44.19224682316417,180.24953803849348 44.09497891544015,180.08100777747313 42.590568609244656,178.83808804277214 40.995374922436895,177.63728602577612 42.61002219078364,175.2496822083558 42.57111502767657,175.15839030524512 41.53359067856218,174.37187188110693 41.157488101976924,173.91540736468596 40.236685242154635,173.31146638841165 39.73737664913642,172.72858954680123 38.667429664114024,171.98418751204736 36.974968069640454,173.9294524588331 36.73504056385718,174.09799342959013 36.70261792794918,174.25248906159686 36.32003082422307,174.7159744780729 34.63405375689035,176.55584923981223 34.381157196796266,176.72438563751348 32.863777836202644,178.5782666468076 32.6368193848175,178.66955532485008 31.910552340443246,178.12884420758928 31.11295549708302,177.27212690351735 31.035141170897987,177.06847987168294 29.355648630764335,175.81849904981937 28.73961854845402,175.10221062975324 26.10690051256097,173.47298585588578 26.035570713574998,173.27635342502617 25.925333751481958,173.35360192765074 25.79564320782083,173.07269798619382 24.86187129362952,172.4827970552942 24.634912842244375,172.23700393953914 24.576552097598324,171.87182444338396 24.4468615539663,171.8296882590148 24.025367287133122,171.2959616688313 23.63629565620795,171.15550681376772 22.864636921556666,170.62879929155315 22.242122312105494,169.8703354229874 21.509370740503073,169.21720899450156 21.288896816316992,168.7607201635983 20.93873234849889,168.6062157637789 20.36160942929564,167.9881956972531 20.225434358493658,167.37017168303282 20.335671320586698,166.74512065317685 21.85305068118032,164.35022483306966 21.81414351807325,164.10441105652717 21.96328764327336,163.90073631131236 21.775236354995286,163.14924302371946 21.515855267702136,162.60844517608348 20.2513724672026,160.796399178711 19.82987820036942,159.93250483317388 19.473229205381358,158.45052176136232 19.265724335535197,156.259111803236 19.01931230261107,156.26613563243154 18.67563236199203,154.63659358309087 18.494065600883914,154.425874933273 18.29952978543588,154.41182700695208 17.78076761084958,154.71385697294318 17.35278881684644,154.78409636468132 17.1258303654904,155.0439816703729 16.937779077212326,155.0580295048494 15.958615472714882,153.0 16.892387386935297,155.0299338338882 17.417634088691557,156.65244545299356 17.813190246757586,157.24244292743242 18.565395399869885,158.8157519259039 20.193011722556548,161.76563730738417 21.554762430809205,163.92180613243545 21.554762430809205,164.21678314617748 21.347257560963044,164.65222376053862 19.914177053724416,166.7661898547667 19.855816309107468,167.1173425393281 19.816909146029502,166.97688161845144 19.966053271200508,166.71702837722114 19.92066158092348,167.44742490070348 20.043867597414646,168.05842544908228 20.66638220686582,168.78881184614147 26.75535323075019,174.29462419117772 27.948506232263753,176.2117531834374 30.52934805068071,180.74108295765473 31.09350191554404,181.28880149958422 31.43718185616308,181.80842904723977 31.463119964901125,182.11037350346305 32.62385033047758,183.37431682177703 33.13612797783571,183.7183874240145 34.18013685417827,184.82080948793737 34.96476464319858,187.20817731570423 35.37977438283269,188.14906494150637 35.548372089571785,188.3105596598325 35.86611392151099,189.74995721223968 37.312163483089535,193.70292438308388 37.44833855389152,193.63271322908986 37.422400445182575,193.42910059483256 35.930959193297895,189.02675038362213 35.58727925264975,187.61542830535473 35.49649587209569,186.43580004599062 37.73365774989361,185.71256847336917 39.02407865913119,185.36850495575345 39.25103711048723,185.39659181934258 40.07457206261461,184.9823097555709 42.72025915287668,181.8926927111388 45.4243069877557,184.78570069848502 45.85228578178794,184.71548308136698 46.60449093490024,184.13969670065853 48.45906570891384,182.24379052141012 49.47713647651835,181.387109627889 49.548466275504325,181.2326253814681 52.18118431142648,178.7678661126265 52.40165823561256,178.82404366081755 53.86716137875919,180.47424459688773 54.50264504257939,181.0079205830625 55.00843816276756,181.71012134668126 55.994086294434965,182.52466785308934 57.90702181312372,184.6101565602221 59.02884501562221,185.57213453216536 60.96771864304901,187.77692391334858 61.175223512836965,187.69266536885698 63.11409714029287,185.69150339518092 63.84684871186619,186.154934057231 64.04138452728512,186.52005968379672" stroke="#ff9300" stroke-linecap="round" stroke-linejoin="round" stroke-width="0.5"><title>2025-04-04 35.8km</title><desc>1743763192000</desc></polyline><polyline fill="none" points="80.92797783901915,180.3646122366772 83.02216066466644,173.1568689912092 82.79778393311426,176.80123936507152 83.39612188376486,177.85405526007526 82.34903047094122,178.7448987038224 81.4515235456638,178.9068701628712 82.04986149538308,177.12518282292876 84.59279778366908,178.50194147136062 83.69529085839167,177.44912618712988 82.57340720202774,177.36814035481075 85.19113573385403,175.74842247809283 82.27423822693527,176.4772958132089 84.21883656503633,173.23785512865288 84.29362880904227,176.31532400200376 80.92797783901915,177.5301120133954 83.24653739575297,176.39630991063314 78.83379501337186,178.98785588343162 81.90027700830251,177.12518282292876 82.27423822693527,175.74842247809283 81.75069252075627,176.31532400200376 87.58448753412813,173.23785512865288 85.04155124630779,175.1005346699385 88.0332409972325,173.5617996196961 86.08864265913144,178.58292722149054 78.53462603874505,185.54767976293806 83.54570637084544,179.39278439880582 81.52631578966975,178.7448987038224 83.39612188376486,177.7730694572092 84.59279778366908,177.5301120133954 83.77008310239762,177.12518282292876 83.69529085839167,178.7448987038224 86.53739612177014,175.2625066570472 86.01385041512549,174.7765906249988 83.91966758994386,176.5582817099057 84.89196675876155,175.0195486675948 81.75069252075627,176.88222523831064 82.87257617712021,176.88222523831064 81.52631578966975,177.12518282292876 83.09695290820673,176.9632111057872 90.65096952905878,162.70960803510388 86.08864265913144,173.7237718300894 79.05817174492404,176.23433808767004 81.22714681411162,172.42799348995322 96.26038781134412,165.30118575546658 115.70637119095773,167.3258516668575 120.04432132979855,182.38925085082883 111.36842105304822,190.64973837678554 107.32963988929987,186.35753189201932 115.10803324077278,177.7730694572092 113.98614958440885,177.5301120133954 127.0,174.6146185672842 107.4792243768461,164.7342786428635 106.73130193911493,172.02306245046202 108.52631578966975,166.434999117977 112.26592797785997,176.72025348589523 112.78947368403897,176.80123936507152 112.34072022140026,177.36814035481075 110.24653739621863,178.98785588343162 118.24930747924373,177.5301120133954 114.21052631596103,178.50194147136062 112.78947368403897,177.5301120133954 113.61218836577609,177.04419696738478 113.91135734086856,177.5301120133954 113.91135734086856,177.85405526007526 113.46260387822986,176.9632111057872 115.93074792250991,177.44912618712988 115.18282548477873,177.44912618712988 114.21052631596103,177.9350410568877 112.78947368403897,175.58645056124078 115.33240997232497,174.3716604366782 112.56509695295244,176.9632111057872 112.9390581715852,177.61109783378197 113.91135734086856,177.20616867294302 114.28531855950132,178.2589841861045 114.65927977813408,179.55475576373283 117.80055401707068,177.44912618712988 114.95844875369221,177.20616867294302 114.5096952910535,178.9068701628712 113.91135734086856,178.33996995375492 114.43490304704756,178.50194147136062 112.9390581715852,178.7448987038224 115.4819944598712,176.63926760095637 113.91135734086856,178.2589841861045 106.73130193911493,199.23410188267007 117.05263157887384,182.55122178141028 119.74515235470608,188.3821596467169 118.92243767296895,184.73782704689074 115.25761772878468,177.04419696738478 115.0332409972325,177.36814035481075 116.52908587269485,178.9068701628712 117.12742382287979,179.71672710543498 114.28531855950132,179.06884159822948 115.4819944598712,178.58292722149054 114.5096952910535,177.69208364828955 112.11634349031374,175.18152066646144 114.43490304704756,178.7448987038224 116.90304709179327,179.14982730714837 115.93074792250991,179.39278439880582 111.74238227168098,177.9350410568877 115.70637119095773,180.20264098915504 114.5096952910535,177.7730694572092 112.63988919695839,178.50194147136062 113.98614958440885,178.66391296568327 113.01385041559115,175.18152066646144 110.9944598339498,168.70262239070144 108.90027700830251,179.6357414375525 109.57340720202774,177.5301120133954 108.90027700830251,178.42095571552636 106.5817174515687,183.44206148013473 111.66759002767503,174.29067438148195 112.78947368403897,175.5054645939963 116.15512465359643,179.6357414375525 116.30470914114267,181.90333791810554 113.61218836577609,179.79771276732208 114.88365650968626,166.27302585088182 114.43490304704756,184.5758564331336 113.46260387822986,195.6707891880651 113.68698060978204,180.44559785182355 112.56509695295244,184.49487111752387 112.71468144049868,190.082844125689 115.18282548477873,176.07236624124926 113.61218836577609,179.14982730714837 115.18282548477873,184.65684174303897 114.13573407242075,181.90333791810554 112.04155124677345,198.99114910530625 115.18282548477873,185.38570926670218 114.21052631596103,179.95968407363398 113.31301939068362,178.8258844363736 112.34072022140026,176.9632111057872 117.35180055396631,184.08994445146527 116.52908587269485,182.06530891923467 118.39889196725562,179.95968407363398 120.26869806088507,179.2308130103047 117.80055401707068,176.23433808767004 115.70637119095773,176.07236624124926 118.0249307481572,178.66391296568327 117.50138504151255,181.49841031251708 117.95013850415125,180.68855466146488 121.01662049861625,183.0371344325249 117.20221606642008,180.93151141837006 112.86426592804492,181.49841031251708 113.91135734086856,176.9632111057872 112.41551246540621,180.44559785182355 113.23822714714333,180.60756906407187 114.5096952910535,190.0018592090928 116.60387811623514,182.06530891923467 117.27700831042603,186.8434428878827 113.98614958440885,181.8223524086643 115.70637119095773,181.66038137237774 114.36011080350727,181.98432342155138 117.50138504151255,177.85405526007526 115.55678670387715,179.47377008426702 116.82825484778732,174.0477161804447 114.21052631596103,178.17799841269152 117.20221606642008,178.2589841861045 113.16343490313739,177.12518282292876 116.22991689760238,175.6674365226645 117.35180055396631,181.0124969924218 114.88365650968626,180.04066971800057 115.10803324077278,178.8258844363736 113.91135734086856,178.50194147136062 115.40720221633092,180.3646122366772 114.5096952910535,176.72025348589523 115.93074792250991,168.94558175408747 114.13573407242075,184.49487111752387 115.10803324077278,179.2308130103047 115.78116343496367,176.15335216745734 113.98614958440885,187.73427916446235 116.37950138514861,183.11811985372333 114.95844875369221,171.21319993113866 116.37950138514861,194.9419283735333 115.18282548477873,187.24836855614558 116.15512465359643,185.38570926670218 115.63157894741744,195.184882031288 115.63157894741744,178.9068701628712 114.88365650968626,179.95968407363398 118.0249307481572,178.98785588343162 107.62880886392668,176.63926760095637 118.39889196725562,179.8786984233884 114.21052631596103,178.2589841861045 119.14681440452114,171.2941862094449 110.77008310239762,173.80475792643847 100.74792243773118,170.40333682461642 95.96121883671731,170.72728213778464 89.4542936286889,176.5582817099057 86.83656509686261,179.6357414375525 84.9667590027675,181.1744681225391 86.68698060978204,180.8505258387886 88.10803324077278,177.7730694572092 91.24930747924373,175.1005346699385 94.46537396125495,171.78010375628946 97.68144044326618,167.56881132966373 100.29916897509247,166.83993218268733 102.84210526337847,170.40333682461642 116.90304709179327,167.8927574644913 121.31578947370872,175.74842247809283 122.43767313053831,181.49841031251708 115.40720221633092,177.44912618712988 116.67867036024109,177.12518282292876 116.45429362915456,176.9632111057872 116.45429362915456,177.61109783378197 122.21329639898613,177.61109783378197 117.35180055396631,177.36814035481075 115.70637119095773,176.4772958132089 115.70637119095773,176.80123936507152 114.73407202214003,177.36814035481075 118.47368421079591,178.7448987038224 117.20221606642008,177.44912618712988 113.53739612177014,178.66391296568327 116.37950138514861,178.2589841861045 112.63988919695839,186.0335911109578 113.46260387822986,183.19910526910098 115.85595567896962,178.01602684811223 116.00554016651586,176.88222523831064 114.5096952910535,177.04419696738478 113.38781163422391,177.5301120133954 119.74515235470608,181.49841031251708 111.5180055401288,190.16382903623162 115.63157894741744,179.47377008426702 116.30470914114267,178.58292722149054 116.90304709179327,178.58292722149054 118.32409972324967,178.09701263339957 118.24930747924373,177.9350410568877 116.67867036024109,178.01602684811223 116.60387811623514,179.31179870740743 112.9390581715852,185.30472400970757 113.68698060978204,177.28715451684548 113.01385041559115,179.31179870740743 115.85595567896962,177.12518282292876 114.65927977813408,180.76954025303712 116.08033241005614,174.4526464858791 111.5180055401288,174.4526464858791 113.16343490313739,160.11802430276293 114.36011080350727,178.7448987038224 114.43490304704756,179.2308130103047 116.75346260424703,177.85405526007526 117.35180055396631,176.5582817099057 113.38781163422391,180.12165535637178 114.0609418284148,178.09701263339957 106.65650969557464,191.4595868079341 116.82825484778732,175.99138030933682 116.90304709179327,177.85405526007526" stroke="#ffae00" stroke-linecap="round" stroke-linejoin="round" stroke-width="0.5"><title>2025-01-11 29.4km</title><desc>1736530614000</desc></polyline><polyline fill="none" points="186.58654116325488,184.9648089797738 186.54102275922196,184.92783814727954 186.36653554369695,185.09215277355906 186.2489463332604,185.12090778413403 186.06307951672352,184.94426963136357 186.0479067153792,184.98534832071527 185.9644563079637,184.92783814727954 185.76341669009707,184.92783814727954 185.69134588369343,184.80049398393749 185.4940994661447,184.70601264540528 185.48271986514737,184.64439429621052 185.54341107053915,184.59509956856346 185.48271986514737,184.41024395766 185.60789547626337,184.25414319397896 185.7520370890852,184.22949566564057 185.80893509414454,184.14733716032788 185.9682495083107,184.0939340679397 185.9948019106523,183.9953436111973 186.09342511942668,183.9255086004523 186.283085136296,183.94604831843753 186.5448159595544,183.72832692866723 186.76102837876533,183.81870194681323 186.8065467828128,183.69135528874176 187.0,183.6256278692781 186.86723798820458,183.49006482562982 186.85585838720726,183.30931359578244 186.4765383534832,183.3257455496132 186.29446473730786,182.94780940475903 186.2072211295308,182.97245749110516 185.91514470356924,182.86975706047815 185.78617589210626,182.89440518082847 185.5623770722159,182.63970741974117 185.45996066312364,182.60684310903162 185.1565046361502,182.63970741974117 184.95167181793659,182.57808682150426 184.24613655521534,182.06457922755726 184.2082045518473,181.77701294011058 184.26130935658875,181.67020223268264 184.0375105366693,181.2511736647648 184.00716493398068,180.9307379607926 183.76819331273146,180.4747301772004 183.77577971341088,180.28986111011181 183.63543130093603,180.0885585502656 183.27507726890326,179.8708223222784 183.2219724641909,179.57092010834822 183.0361056476686,179.18063402525877 183.02851924698916,178.9300278580231 182.73644282104215,178.27269493264976 182.49747119979293,178.07960193475446 182.44815959541302,178.1247939720488 182.25091317786428,178.11246887454763 182.05745996067708,177.93170046941304 181.77296993539494,177.57427033202111 181.7502107333712,177.4715601047683 181.5908963191905,177.33598231929136 181.45054790671566,176.92924701344964 181.10915987637418,176.65808851833935 180.99157066592306,176.60056988260112 180.54397302614234,176.7772340777774 180.30120820456068,176.69917322235415 179.83464456308866,176.17739526461446 179.29980331554543,175.7418918670628 179.09117729701393,175.66793812691685 178.90910368082405,175.44607632636325 178.87496487778844,175.22421365562332 178.6587524585775,174.95715558295342 178.35908963192196,174.9735899622974 178.23012082045898,174.87909221586597 177.94563079517684,175.11739057785962 177.67631357125356,175.14204207525472 177.50182635572855,175.28173369084834 177.46010115201352,175.45840200477687 177.53217195843172,175.5898757407631 177.51699915707286,175.68848084221463 177.25147513348202,175.82406257605908 177.08836751896888,176.041814377626 176.83042989605747,176.02538030863798 176.76973869065114,175.72134917116637 176.5724922731315,175.68026375698537 176.47766226468957,175.71313209072468 176.39041865692707,175.84460523465168 176.19696543973987,175.84460523465168 176.13248103398655,176.1322016717313 175.8328182073601,176.41568815732535 175.35108176455833,176.44855606375495 175.29797695984598,176.51840030152016 175.31314976117574,176.44855606375495 175.0779713402735,176.75258329296776 174.95279572914296,177.16342830423673 174.42174768193217,177.43047596165707 174.3800224782317,177.70573915083514 174.4141612812673,178.1247939720488 174.35347007587552,178.1782026968649 173.9172520370921,178.22339465540426 173.22688957572973,177.98510937649917 173.07895476259,178.00565125040885 172.9613655521389,177.92348371000844 172.81722393931705,177.91937532984957 172.6427367238066,177.7673650544857 172.38859230122762,177.7303895203513 172.15341388031084,177.6153543707187 171.93720146108535,177.3852833697747 171.66409103682963,177.4510180369398 171.55788142737583,177.52496944621453 171.5351222253521,177.78790700745958 171.34925540882978,178.18231105821906 171.3758078112005,178.3466452679677 171.45925821861601,178.45346224836248 171.37960101153294,178.6753122556329 171.40236021355668,178.89716139310258 171.5123630233429,179.0738184175534 171.5199494240078,179.21350032551345 171.13683618995128,179.26279974012505 171.04200618150935,179.06149352676584 170.7461365552299,178.99576073056596 170.48061253160995,178.7287204608183 170.13922450128302,178.67942058089466 169.88887327902194,178.7410454240853 169.64231525710784,178.59314568769332 169.60438325372525,178.64655397042588 169.64990165777272,178.85607828512002 169.5285192469746,178.9300278580231 169.6195560550841,179.0409520361609 169.56645125037176,179.1436594146362 169.57783085136907,179.50929616891517 169.2174768193363,179.73114203680234 168.82677718460036,179.5585953258269 168.6219443664013,179.38193981476797 168.50814835628262,179.4805383075509 168.35262714246346,179.43534735301728 167.88606350099144,179.56270358696565 167.40053385782812,179.53394575274797 167.3057038494153,179.43945562310546 167.02880022478348,179.35318188868405 166.71775779713062,179.01219393678184 166.69499859510688,178.89716139310258 166.56223658331146,178.83553671994378 166.45223377355433,178.88483646384338 166.20188255129324,178.82321177726408 165.78842371453356,178.83964503357493 165.45841528520396,178.9218112435774 164.73391402080597,178.85607828512002 164.69977521777037,178.9218112435774 164.46080359652115,178.96289430384059 164.23700477663078,179.14776770589015 163.69837032875512,179.19295889008572 163.42525990448485,179.11900966079338 163.05352627142565,179.17652573638043 162.8221410508704,178.97521921610314 162.22281539758842,179.25458317400626 161.9117729699501,179.18063402525877 161.7600449564634,179.2258251831954 161.60831694297667,179.37372326596233 161.65762854734203,179.5134044336337 161.60831694297667,179.6654100184751 161.33520651869185,179.77633275512926 161.08485529643076,179.7640080173478 160.7927788704692,180.01461049130376 160.41345883674512,179.80509046618317 160.04172520371503,179.6941677858922 159.5068839561718,179.7064925388804 159.2944647372933,179.59556966533637 158.7861758921208,179.56270358696565 158.7141050857026,179.65308525653745 158.14133183479134,179.64486874708746 157.87580781118595,180.0105022629723 157.69373419501062,180.0844503272965 157.51166057882074,179.9899611168512 157.19682495085,180.05569275820744 157.01475133464555,180.21180510047634 156.9616465299332,180.38845802104697 156.51784209048492,180.56921857829002 156.45335768474615,180.56511039020916 156.28266366956814,180.34737599570144 155.82747962912254,180.55278582420942 155.68333801631525,180.5363530653667 155.52781680248154,180.4131072219352 155.39505479068612,180.5610022018518 155.36091598763596,180.74997855820402 155.2205675751611,180.47883837183326 154.95125035123783,180.3391595870562 154.63641472323798,180.41721542104278 154.27226749087276,180.32683497184553 154.04088227030297,180.40489082283239 154.0181230682938,180.53224487491025 153.91949985951942,180.647274094983 153.5743186288455,180.56511039020916 153.56673222816607,180.63905772986982 153.47569542007113,180.68835590263188 153.29741500422824,180.68835590263188 153.03189098062285,180.5733267660653 152.89533576848044,180.62673317997542 152.7701601573499,180.83625016326914 152.61463894353074,180.8896563290764 152.55015453779197,180.9964685095074 152.2732509131747,181.16490269216592 152.2087665074505,181.33744450587983 151.7839280696935,181.86739107359972 151.54116324811184,181.94955288790152 151.4349536386726,182.07279538573857 151.37426243326627,181.92079626646228 150.94942399550928,181.72771571558042 150.88114638943807,181.5058776738224 150.71045237426006,181.38674207032818 150.64976116886828,181.24706552620046 150.42975554931036,181.3086875734407 149.69008148356806,181.18133526851307 149.24248384378734,181.3004713043556 149.13627423433354,181.6414454693222 148.73798819893273,181.78112104022875 148.35487496487622,182.00706608694964 148.1121101433091,182.38090045638455 147.95279572915751,182.52057420262645 147.84658611970372,182.54522247501882 147.73658330991748,182.51646615619393 147.80865411633567,182.49181787128327 147.75554931160877,182.47538567538504 147.78210171396495,182.53700638541704 147.8314133183594,182.49181787128327 147.8010677156708,182.54933051937405 147.52795729138597,182.54522247501882 147.34967687552853,182.64792349443087 147.05380724923452,182.59862702836836 146.6213824107981,182.61916722778187 146.08654116324033,182.79581263505315 145.82101713964948,182.75884038611912 145.22548468671448,182.9683494774581 144.8461646529904,183.19839778265668 144.47822422029276,183.29288163717501 144.03441978084447,183.19428978540236 143.8485529643076,183.3339615247387 143.5716493397049,183.3873653340088 143.52233773532498,183.46541696462737 143.66647934813227,183.70778713168693 143.66268614779983,183.8474576041517 143.94338297274953,184.20484812656287 143.86372576566646,184.28289863015016 143.60578814275505,184.1596609437147 143.26440011238446,183.85567350357087 142.68024726047588,183.99123567176866 142.3350660297874,183.77351445577006 141.67125597079576,183.66259955211353 141.58401236303325,183.85567350357087 141.2881427367247,183.9255086004523 141.01123911210743,183.63384380088246 140.70019668446912,183.56811631464734 140.42708626019885,183.61330396962876 139.69879179545387,183.47363291948568 139.59258218601462,183.3010976170808 139.4408541725279,183.19428978540236 139.4067153694923,183.08337374691473 139.32705816242378,183.05050969378135 139.40292216915987,182.97656550446118 139.3574037651124,182.91494527291434 139.36119696543028,182.7177600812065 139.42188817085116,182.6807877812971 139.3687833661097,182.61095114891214 139.22843495363486,182.75884038611912 139.01980893510336,182.77527249974082 138.61772969935555,183.075157735424 138.4053104804916,183.07104972922025 138.31427367238211,183.1573177967257 138.2649620680022,183.32985353732875 138.1663388592424,183.37914936662855 138.05633604945615,183.3339615247387 138.05254284910916,183.21893776444995 137.70736161843524,183.11623778097783 137.3204551840463,182.84921695198864 137.1573475695477,182.8410009065119 137.05872436077334,182.73830023738628 136.9373419499898,182.73830023738628 136.70595672942,182.46306152532998 136.18628828323563,182.26176669459528 135.96248946334526,181.9166881764977 135.76144984546409,182.02760650101482 135.4010958134313,181.96187714975895 135.16971059286152,181.68663466233193 135.00660297836293,181.6496616889126 134.43382972745167,181.9084719956627 134.0734756954189,181.7852291400377 133.9862320876564,181.6414454693222 133.84209047486365,181.6414454693222 133.69036246137694,181.49766143335364 133.50449564485461,181.57160755461882 133.45139084012771,181.5058776738224 133.26173082327296,181.59625624022738 133.0,181.55928320778185" stroke="#ffd200" stroke-linecap="round" stroke-linejoin="round" stroke-width="0.5"><title>2024-11-09 21.0km</title><desc>1731113022000</desc></polyline><polyline fill="none" points="67.0,244.56666108972422 66.80348101267009,244.40936082487315 66.48734177215374,244.71470822062838 65.33386075953604,245.20511311438167 65.28259493672522,244.86275517968897 64.87246835444239,244.14102463124436 64.94936708861496,244.23355441696913 65.25696202533436,243.57659148477978 65.56455696205376,243.52107333546883 65.76107594935456,243.28974745315645 65.54746835445985,242.77157595424796 64.29145569622051,242.0498335725497 64.03512658228283,242.1053523622977 64.2401898734679,241.8555176180962 64.01803797471803,242.07759297044686 65.02626582275843,240.7914011889152 65.8806962025119,241.1892892408141 66.17120253163739,241.2448084051939 66.29082278482383,241.14302325206518 66.32500000001164,240.23620648372162 66.00886075949529,239.33863659786584 64.94082278481801,238.39479340852995 65.0689873417723,238.14495139492647 65.85506329115015,237.73780039793928 66.81202531646704,236.48857899805444 66.75221518988837,236.29425456919853 65.32531645570998,235.9241119806029 64.38544303801609,236.18321190545248 63.48829113924876,235.64650433400675 63.02689873415511,235.62799713607092 62.514240506337956,235.69277231707383 61.15569620253518,236.2387332494036 60.11329113924876,236.41455067912466 59.35284810126177,236.3775365035399 59.06234177213628,236.82170590138412 58.75474683547509,236.98826902668225 57.669620253145695,236.3775365035399 57.011708860780345,235.8038154079477 56.64430379748228,234.97098986904894 56.08892405065126,234.59158976434264 56.18291139238863,234.04562177868502 56.00348101268173,233.86054735462676 55.38829113924294,233.9438308786921 54.72183544305153,234.44353088063508 54.67911392406677,234.61935078589886 54.95253164556925,235.31337436022295 54.85854430380277,235.73904028336983 54.59367088609724,235.87784408148582 53.46582278481219,235.19307721133373 52.20981012657285,234.81367776751722 51.34683544305153,235.20233084219217 51.12468354430166,235.11904814022273 50.41550632909639,234.39726244421036 48.41613924049307,234.0733829191231 47.47626582279918,233.41636764071154 47.00632911390858,232.3614346177419 46.433860759512754,232.08381921340333 45.58797468355624,232.20411929616967 44.938607594929636,232.04680378048215 44.39177215192467,232.16710389817308 44.220886075956514,232.5835265059286 44.0072784810327,232.7130799286897 43.47753164556343,232.52800357015803 43.33227848101524,232.56501886334445 43.29810126582743,232.76860278383538 42.96487341771717,232.89815601854207 42.16170886074542,232.60203414579155 41.888291139213834,232.65755704932963 41.016772151895566,233.5459202171478 40.3246835443133,233.81427870663174 40.30759493669029,234.18442742039042 39.436075949372025,235.26710623944382 38.76962025318062,235.64650433400675 38.538924050633796,235.94261913555238 38.11170886075706,235.4984466753449 37.45379746836261,235.26710623944382 37.317088607582264,234.7766631271952 36.86424050631467,234.43427719469037 36.81297468356206,234.14741259739094 36.20632911394932,234.2214422326797 34.548734177224105,233.95308460023807 33.95063291140832,234.16592001022946 33.59177215190721,234.12890518185304 33.34398734176648,234.68412647935475 33.34398734176648,234.98949716232164 31.66930379747646,235.69277231707383 31.054113924037665,236.64588903311233 30.61835443036398,236.9605085209041 29.866455696203047,236.9605085209041 29.2427215189673,237.24736678908812 28.661708860774525,237.11781797368894 27.644936708849855,237.16408542286808 26.517088607593905,237.54347787288862 25.88481012659031,237.50646402502753 24.748417721508304,237.84884170786245 23.723101265815785,238.5058341463373 22.93702531643794,238.6909018278311 22.467088607605547,238.56135447899578 22.28765822784044,238.66314169272664 21.954430379759287,238.4410603943761 21.94588607593323,238.60762140439329 21.800632911385037,238.34852640590543 21.826265822775895,238.57060786541842 21.54430379747646,238.7556754528705 20.775316455721622,238.9314894121926 20.681329113896936,239.0795430846556 20.963291139225475,239.54220970322785 21.065822784788907,240.06964760085248 21.587025316461222,240.8099076374565 21.52721518985345,240.9394527020777 20.929113924037665,240.75438828374172 20.194303797441535,240.01412792488554 19.681645569595275,239.96786150978005 19.228797468356788,240.21769995193608 18.741772151901387,240.2824728014748 18.408544303791132,239.98636807782896 17.78481012658449,239.727275880643 16.48607594933128,239.59772958466056 16.503164556983393,239.90308850043948 17.280696202535182,239.90308850043948 17.998417721508304,240.32873910244234 18.570886075962335,241.01347839421942 19.459493670874508,240.8746801862144 19.741455696203047,240.94870591595827 21.04018987339805,242.02207416859892 21.279430379741825,242.52174251508404 22.022784810105804,243.43779606618045 22.022784810105804,243.60435055038397 21.61265822785208,243.80791684688302 21.22816455696011,243.65061564630014 21.12563291139668,243.50256728031673 21.176898734178394,242.81784135225462 20.91202531644376,242.54950181028835 20.134493670862867,242.23489611106925 19.81835443037562,241.7907455674722 19.493670886091422,241.66120136756945 18.53670886074542,242.012821032622 18.152215189882554,242.02207416859892 17.554113924037665,241.901783348374 16.938924050627975,241.5131506922553 16.434810126549564,242.00356789594662 16.041772151889745,241.9387959205269 15.597468354419107,242.2256429905101 14.349999999976717,242.160871127875 13.888607594941277,241.95730220257974 13.982594936678652,242.1053523622977 15.460759493667865,242.93813130846684 16.075949367077556,243.09543338775256 16.12721518985927,243.2157230821831 14.213291139225475,242.99364971155592 13.692088607582264,243.09543338775256 13.119620253157336,242.99364971155592 13.0,243.04916809045972 13.076898734172573,243.19721698274225 13.555379746860126,243.37302481909865 14.358544303802773,243.41928999892116 16.204113924060948,245.3901710748687 17.15253164555179,245.6029873974985 18.4683544303698,246.16741157714569 18.622151898714947,246.52827162910398 18.53670886074542,247.13895554535702 18.229113924055127,247.95319621951057" stroke="#4dd2ff" stroke-linecap="round" stroke-linejoin="round" stroke-width="0.5"><title>2024-10-27 13.8km</title><desc>1729977789000</desc></polyline></svg>