<?xml version="1.0" encoding="utf-8" ?>
<svg baseProfile="full" height="300mm" version="1.1" viewBox="0,0,200,300" width="200mm" xmlns="http://www.w3.org/2000/svg" xmlns:ev="http://www.w3.org/2001/xml-events" xmlns:xlink="http://www.w3.org/1999/xlink"><defs /><rect fill="#222222" height="300" width="200" x="0" y="0" /><text fill="#FFFFFF" style="font-size:12px; font-family:Arial; font-weight:bold;" x="10" y="20">Over 10km Runs</text><text fill="#FFFFFF" style="font-size:4px; font-family:Arial" x="10" y="280">ATHLETE</text><text fill="#FFFFFF" style="font-size:9px; font-family:Arial" x="10" y="290">Zayn</text><text fill="#FFFFFF" style="font-size:4px; font-family:Arial" x="65" y="280">SPECIAL TRACKS</text><rect fill="yellow" height="2.6" width="2.6" x="65" y="283" /><text fill="#FFFFFF" style="font-size:3px; font-family:Arial" x="70" y="285.5">Over 20.0 km</text><rect fill="red" height="2.6" width="2.6" x="65" y="287" /><text fill="#FFFFFF" style="font-size:3px; font-family:Arial" x="70" y="289.5">Over 40.0 km</text><text fill="#FFFFFF" style="font-size:4px; font-family:Arial" x="120" y="280">STATISTICS</text><text fill="#FFFFFF" style="font-size:3px; font-family:Arial" x="120" y="285">Number: 3</text><text fill="#FFFFFF" style="font-size:3px; font-family:Arial" x="120" y="290">Weekly: 1.0</text><text fill="#FFFFFF" style="font-size:3px; font-family:Arial" x="141" y="285">Total: 64.2 km</text><text fill="#FFFFFF" style="font-size:3px; font-family:Arial" x="141" y="290">Avg: 21.4 km</text><text fill="#FFFFFF" style="font-size:3px; font-family:Arial" x="167" y="285">Min: 13.8 km</text><text fill="#FFFFFF" style="font-size:3px; font-family:Arial" x="167" y="290">Max: 29.4 km</text><polyline fill="none" points="26.391966758761555,75.54691835504491 29.533240997232497,64.73530348681379 29.19667589990422,70.20185904763639 30.094182825181633,71.7810828902293 28.523545706178993,73.11734805582091 27.177285318262875,73.3603052443359 28.074792243074626,70.68777423445135 31.889196675270796,72.75291220704094 30.54293628782034,71.17368928075302 28.860110803041607,71.05221053224523 32.78670360101387,68.62263371713925 28.4113573404029,69.71594371984247 31.32825484732166,64.85678269306663 31.44044321309775,69.47298600303475 26.391966758761555,71.29516802006401 29.86980609362945,69.59446486597881 23.250692520290613,73.48178382520564 27.850415511988103,70.68777423445135 28.4113573404029,68.62263371713925 27.626038781367242,69.47298600303475 36.376731301657856,64.85678269306663 32.562326869461685,67.65080200496595 37.049861495383084,65.34269942960236 34.132963988464326,72.87439083226491 22.80193905811757,83.3215196444653 30.318559556268156,74.08917659823783 27.289473684038967,73.11734805582091 30.094182825181633,71.65960418584291 31.889196675270796,71.29516802006401 30.65512465313077,70.68777423445135 30.54293628782034,73.11734805582091 34.806094182189554,67.8937599855708 34.020775622688234,67.1648859375855 30.879501384682953,69.83742256497499 32.33795013837516,67.52932300139219 27.626038781367242,70.32333785749506 29.308864265214652,70.32333785749506 27.289473684038967,70.68777423445135 29.645429362077266,70.444816658739 40.976454293355346,49.06441205262672 34.132963988464326,65.58565774513409 23.587257617153227,69.35150713147596 26.84072022140026,63.64199023495894 49.390581717249006,52.95177863328718 78.55955678643659,55.98877750034444 85.066481994465,78.58387627627235 72.0526315793395,90.9746075652074 65.99445983348414,84.5362978380872 77.66204986162484,71.65960418584291 75.97922437638044,71.29516802006401 95.5,66.9219278509263 66.21883656503633,52.101417964324355 65.09695290867239,63.03459367575124 67.78947368403897,54.65249867702369 73.39889196678996,70.08038022881374 74.18421052629128,70.20185904763639 73.51108033210039,71.05221053224523 70.36980609409511,73.48178382520564 82.37396121909842,71.29516802006401 76.31578947370872,72.75291220704094 74.18421052629128,71.29516802006401 75.4182825484313,70.56629545101896 75.86703601153567,71.29516802006401 75.86703601153567,71.7810828902293 75.19390581734478,70.444816658739 78.8961218832992,71.17368928075302 77.77423822740093,71.17368928075302 76.31578947370872,71.90256158530246 74.18421052629128,68.37967584189028 77.99861495848745,66.55749065498821 73.84764542942867,70.444816658739 74.4085872573778,71.41664675064385 75.86703601153567,70.80925300938543 76.42797783948481,72.38847627921496 76.98891966743395,74.33213364565745 81.70083102537319,71.17368928075302 77.43767313053831,70.80925300938543 76.76454293634742,73.3603052443359 75.86703601153567,72.50995493063238 76.65235457057133,72.75291220704094 74.4085872573778,73.11734805582091 78.22299169003963,69.95890140137635 75.86703601153567,72.38847627921496 65.09695290867239,103.85115282400511 80.5789473685436,78.82683267211542 84.61772853182629,87.57323947013356 83.38365650968626,82.10674057039432 77.88642659271136,70.56629545101896 77.54986149584875,71.05221053224523 79.79362880904227,73.3603052443359 80.69113573431969,74.57509065815248 76.42797783948481,73.60326239734422 78.22299169003963,72.87439083226491 76.76454293634742,71.53812547249254 73.17451523523778,67.77228099969216 76.65235457057133,73.11734805582091 80.35457063745707,73.72474096075166 78.8961218832992,74.08917659823783 72.61357340728864,71.90256158530246 78.55955678643659,75.30396148376167 76.76454293634742,71.65960418584291 73.95983379520476,72.75291220704094 75.97922437638044,72.9958694485249 74.5207756231539,67.77228099969216 71.4916897509247,58.05393358611036 68.3504155119881,74.45361215632875 69.36011080304161,71.29516802006401 68.3504155119881,72.63143357331865 64.87257617712021,80.1630922203185 72.50138504151255,66.43601157225203 74.18421052629128,68.25819689105265 79.23268698062748,74.45361215632875 79.457063711714,77.8550068771001 75.4182825484313,74.69656915101223 77.32548476429656,54.40953877638094 76.65235457057133,81.8637846497586 75.19390581734478,98.50618378212675 75.5304709142074,75.66839677782264 73.84764542942867,81.74230667634401 74.07202216051519,90.12426618859172 77.77423822740093,69.10854936181568 75.4182825484313,73.72474096075166 77.77423822740093,81.98526261455845 76.20360110839829,77.8550068771001 73.06232686992735,103.48672365793027 77.77423822740093,83.07856390008237 76.31578947370872,74.93952611053828 74.96952908625826,73.23882665450219 73.51108033210039,70.444816658739 81.0277008311823,81.13491667725611 79.79362880904227,78.0979633788811 82.5983379506506,74.93952611053828 85.40304709179327,73.84621951554436 81.70083102537319,69.35150713147596 78.55955678643659,69.10854936181568 82.03739612177014,72.9958694485249 81.25207756226882,77.24761546880472 81.92520775645971,76.03283199225552 86.52493074769154,79.55570164881647 80.80332409963012,76.39726712752599 74.29639889206737,77.24761546880472 75.86703601153567,70.444816658739 73.62326869834214,75.66839677782264 74.85734072048217,75.9113535961369 76.76454293634742,90.0027888136683 79.9058171743527,78.0979633788811 80.91551246540621,85.26516433176585 75.97922437638044,77.73352861299645 78.55955678643659,77.49057205859572 76.54016620479524,77.97648513235617 81.25207756226882,71.7810828902293 78.33518005535007,74.21065512648784 80.24238227168098,66.07157427072525 76.31578947370872,72.26699761906639 80.80332409963012,72.38847627921496 74.74515235424042,70.68777423445135 79.34487534640357,68.50115478399675 81.0277008311823,76.51874548872001 77.32548476429656,75.06100457697175 77.66204986162484,73.23882665450219 75.86703601153567,72.75291220704094 78.11080332426354,75.54691835504491 76.76454293634742,70.08038022881374 78.8961218832992,58.41837263118941 76.20360110839829,81.74230667634401 77.66204986162484,73.84621951554436 78.67174515221268,69.23002825118601 75.97922437638044,86.60141874675173 79.56925207749009,79.67717978055589 77.43767313053831,61.8197998967953 79.56925207749009,97.41289256035816 77.77423822740093,85.87255283421837 79.23268698062748,83.07856390008237 78.44736842112616,97.777323046932 78.44736842112616,73.3603052443359 77.32548476429656,74.93952611053828 82.03739612177014,73.48178382520564 66.44321329612285,69.95890140137635 82.5983379506506,74.81804763502441 76.31578947370872,72.38847627921496 83.72022160654888,61.94127931422554 71.15512465359643,65.70713688968681 56.121883656363934,60.605005236924626 48.9418282546103,61.09092320664786 39.18144044280052,69.83742256497499 35.25484764529392,74.45361215632875 32.450138503685594,76.76170218386687 35.0304709142074,76.2757887581829 37.16204986162484,71.65960418584291 41.87396121863276,67.65080200496595 46.69806094188243,62.67015563452151 51.522160664666444,56.35321699443739 55.448753462638706,55.25989827408921 59.263157894834876,60.605005236924626 80.35457063745707,56.83913619676605 86.97368421079591,68.62263371713925 88.65650969557464,77.24761546880472 78.11080332426354,71.17368928075302 80.01800554059446,70.68777423445135 79.68144044326618,70.444816658739 79.68144044326618,71.41664675064385 88.31994459871203,71.41664675064385 81.0277008311823,71.05221053224523 78.55955678643659,69.71594371984247 78.55955678643659,70.20185904763639 77.10110803321004,71.05221053224523 82.71052631596103,73.11734805582091 80.80332409963012,71.17368928075302 75.30609418265522,72.9958694485249 79.56925207749009,72.38847627921496 73.95983379520476,84.05038666643668 75.19390581734478,79.79865790368058 78.78393351845443,72.02404027222656 79.00831024954095,70.32333785749506 76.76454293634742,70.56629545101896 75.0817174515687,71.29516802006401 84.61772853182629,77.24761546880472 72.27700831042603,90.24574355443474 78.44736842112616,74.21065512648784 79.457063711714,72.87439083226491 80.35457063745707,72.87439083226491 82.48614958440885,72.14551895007025 82.37396121909842,71.90256158530246 80.01800554059446,72.02404027222656 79.9058171743527,73.96769806114025 74.4085872573778,82.95708601456136 75.5304709142074,70.93073177535553 74.5207756231539,73.96769806114025 78.78393351845443,70.68777423445135 76.98891966743395,76.154310379643 79.12049861485139,66.67896972887684 72.27700831042603,66.67896972887684 74.74515235424042,45.17703645420261 76.54016620479524,73.11734805582091 76.65235457057133,73.84621951554436 80.13019390590489,71.7810828902293 81.0277008311823,69.83742256497499 75.0817174515687,75.18248303455766 76.09141274215654,72.14551895007025 64.9847645428963,92.18938021187205 80.24238227168098,68.98707046406344 80.35457063745707,71.7810828902293" stroke="yellow" stroke-linecap="round" stroke-linejoin="round" stroke-width="0.5"><title>2025-01-11 29.4km</title><desc>1736530614000</desc></polyline><polyline fill="none" points="184.87981174487504,82.44721346966253 184.81153413883294,82.39175722092477 184.54980331554543,82.63822916034405 184.37341949986876,82.68136167620105 184.09461927509983,82.41640444704535 184.0718600730761,82.47802248107473 183.946684461931,82.39175722092477 183.64512503513834,82.39175722092477 183.53701882553287,82.20074097590987 183.2411491992243,82.05901896810974 183.22407979771378,81.9665914443176 183.31511660580873,81.89264935284882 183.22407979771378,81.61536593649362 183.41184321438777,81.38121479097026 183.6280556336278,81.34424349846086 183.71340264120954,81.22100574049546 183.9523742624442,81.14090110191319 183.99220286597847,80.99301541679597 184.1401376791182,80.88826290067664 184.42462770442944,80.91907247766358 184.81722393931705,80.59249039299903 185.14154256816255,80.72805292021803 185.20982017420465,80.53703293311264 185.5,80.43844180391898 185.3008569822996,80.23509723844472 185.28378758081817,79.9639703936773 184.7148075302248,79.98861832442344 184.44169710596907,79.42171410714218 184.31083169431076,79.4586862366632 183.87271705534658,79.30463559072086 183.6792638381594,79.34160777124634 183.34356560831657,78.95956112960994 183.18994099469273,78.91026466355106 182.73475695421803,78.95956112960994 182.42750772691215,78.86713023225457 181.36920483282302,78.09686884134135 181.31230682777823,77.66551941016951 181.39196403487585,77.50530334902578 181.05626580500393,76.87676049715083 181.01074740095646,76.39610694118892 180.6522899690899,75.7120952658006 180.66366957011633,75.43479166516772 180.4531469513895,75.13283782539656 179.91261590336217,74.80623348342488 179.83295869629364,74.35638016252051 179.5541584714956,73.77095103789179 179.5427788704692,73.39504178703646 179.10466423156322,72.40904239897645 178.74620679969667,72.11940290213533 178.67223939311225,72.18719095807319 178.3763697668037,72.16870331182145 178.08618994100834,71.89755070412502 177.65945490307058,71.36140549803531 177.62531610004953,71.20734015715425 177.38634447878576,71.00397347893886 177.17582186008804,70.39387052017264 176.66373981456854,69.98713277751085 176.48735599889187,69.90085482390714 175.81595953920623,70.16585111666791 175.45181230685557,70.04875983353122 174.751966844633,69.26609289691987 173.94970497331815,68.61283780059603 173.63676594549906,68.50190719037346 173.36365552124334,68.16911448954488 173.31244731668266,67.83632048343861 172.98812868786626,67.43573337443377 172.53863444787567,67.46038494344975 172.34518123068847,67.31863832380623 171.9184461927798,67.67608586679125 171.5144703568658,67.71306311288208 171.25273953360738,67.92260053627251 171.19015172802028,68.18760300717258 171.29825793762575,68.38481361114827 171.275498735602,68.5327212633274 170.8772127002012,68.73609386409225 170.63255127845332,69.06272156644263 170.24564484407892,69.03807046295697 170.15460803598398,68.58202375675319 169.85873840967542,68.52039563548169 169.7164933970198,68.56969813608885 169.5856279853906,68.76690785198298 169.29544815959525,68.76690785198298 169.1987215509871,69.19830250759696 168.7492273110547,69.62353223599348 168.0266226468375,69.67283409563242 167.94696543976897,69.77760045228206 167.9697246417636,69.67283409563242 167.61695701041026,70.12887493945163 167.42919359370717,70.7451424563551 166.63262152290554,71.14571394248924 166.57003371734754,71.55860872625635 166.62124192190822,72.18719095807319 166.53020511381328,72.26730404530099 165.87587805563817,72.3350919831064 164.84033436357277,71.97766406474693 164.61843214387773,72.00847687562054 164.44204832820105,71.88522556501994 164.22583590896102,71.87906299477618 163.9641050857026,71.65104758172674 163.58288845184143,71.59558428052696 163.23012082045898,71.42303155607806 162.90580219161347,71.07792505466205 162.49613655524445,71.17652705541695 162.3368221410492,71.28745416932361 162.30268333802815,71.68186051119119 162.02388311325922,72.27346658732858 162.06371171679348,72.51996790195699 162.18888732793857,72.680193372551 162.06940151727758,73.01296838345297 162.10354032032774,73.34574208965205 162.2685445350071,73.61072762633557 162.2799241360044,73.820250488272 161.70525428492692,73.89419961019303 161.5630092722713,73.59224029014877 161.11920483285212,73.49364109584712 160.7209187974222,73.09308069122926 160.2088367519027,73.01913087134017 159.83330991852563,73.11156813613343 159.46347288566176,72.88971853154362 159.40657488058787,72.96983095564065 159.47485248665907,73.28411742768367 159.2927788704692,73.39504178703646 159.4293340826116,73.56142805424315 159.34967687554308,73.7154891219543 159.3667462770536,74.2639442533764 158.82621522899717,74.59671305520897 158.24016577689326,74.33789298874763 157.9329165495874,74.0729097221556 157.76222253442393,74.22080746132997 157.52894071370247,74.15302102953137 156.82909525147988,74.34405538045394 156.10080078674946,74.30091862912377 155.95855577412294,74.15918343466183 155.5432003371534,74.02977283302607 155.07663669571048,73.51829090517276 155.04249789266032,73.34574208965205 154.8433548749599,73.25330507991748 154.67835066030966,73.3272546957669 154.30282382693258,73.23481766589975 153.68263557177852,73.2594675503642 153.18762292779866,73.38271686536609 152.10087103120168,73.28411742768367 152.049662826641,73.38271686536609 151.69120539477444,73.44434145576088 151.35550716493162,73.72165155883704 150.54755549313268,73.7894383351304 150.13788985673455,73.67851449119189 149.58028940713848,73.76478860457428 149.23321157629834,73.46282882415835 148.33422309637535,73.88187476101302 147.86765945493244,73.77095103789179 147.64006743469508,73.83873777479312 147.41247541445773,74.06058489894349 147.48644282101304,74.27010665045236 147.41247541445773,74.49811502771627 147.0028097780305,74.66449913269753 146.62728294465342,74.64601202602353 146.18916830568924,75.02191573695745 145.62018825512496,74.70763569927658 145.062587805558,74.54125167884195 144.26032593424316,74.55973880832607 143.94169710593997,74.39335449800274 143.1792638381594,74.34405538045394 143.07115762855392,74.479627884808 142.2119977521943,74.467303120633 141.81371171679348,75.01575339445844 141.54060129250865,75.12667549094476 141.26749086822383,74.98494167527679 140.7952374262677,75.08353913731844 140.52212700195378,75.31770765071997 140.44246979488526,75.58268703157228 139.77676313571283,75.85382786743867 139.68003652713378,75.84766558531555 139.42399550435948,75.52106399355398 138.74121944367653,75.82917873631231 138.5250070244656,75.80452959805552 138.29172520371503,75.61966083290463 138.09258218601462,75.84150330277771 138.04137398145394,76.12496783730603 137.83085136275622,75.71825755775353 137.4268755268422,75.50873938058794 136.95462208485696,75.625823131566 136.40840123628732,75.49025245777011 136.06132340544718,75.6073362342504 136.02718460242613,75.79836731236719 135.8792497892864,75.9709111424745 135.3614779432537,75.84766558531555 135.35009834222728,75.95858659480291 135.21354313011398,76.03253385394783 134.94612250634236,76.03253385394783 134.54783647091244,75.85999014909612 134.34300365269883,75.94009976996313 134.15524023602484,76.25437524490553 133.92195841527428,76.33448449362186 133.82523180669523,76.49470276426291 133.40987636975478,76.74735403825616 133.31314976117574,77.00616675882338 132.67589210454025,77.8010866104014 132.3117448721605,77.92432933185773 132.15243045802345,78.10919307861332 132.0613936498994,77.88119439969887 131.42413599326392,77.59157357337244 131.32171958417166,77.25881651073723 131.06567856139736,77.08011310549773 130.97464175330242,76.87059828930069 130.6446333239728,76.9630313601665 129.5351222253521,76.7720029027696 128.86372576566646,76.95070695653703 128.7044113515003,77.46216820398695 128.1069822983991,77.67168156034313 127.5323124473216,78.01059913042991 127.16816521494184,78.57135068457865 126.92919359373627,78.78086130394513 126.76987917954102,78.81783371252823 126.60487496486166,78.77469923429453 126.71298117449624,78.73772680692491 126.63332396739861,78.71307851307938 126.67315257096197,78.80550957812375 126.74711997751729,78.73772680692491 126.70160157349892,78.82399577906472 126.29193593707168,78.81783371252823 126.02451531330007,78.97188524164812 125.58071087385179,78.89794054255617 124.93207361618988,78.92875084167463 124.12981174487504,79.19371895257791 123.73152570947423,79.1382605791805 122.83822703006444,79.4525242161908 122.26924697950017,79.79759667399048 121.71733633041731,79.93932245576434 121.05162967124488,79.79143467810354 120.77282944647595,80.00094228710805 120.35747400956461,80.08104800101864 120.2835066029802,80.19812544694287 120.49971902219113,80.56168069753039 120.49402922170702,80.77118640622939 120.91507445913157,81.30727218984248 120.79558864849969,81.42434794522705 120.40868221412529,81.23949141557387 119.8966001685767,80.78351025535812 119.02037089070654,80.986853507653 118.50259904467384,80.6602716836569 117.5068839561718,80.49389932817576 117.3760185445426,80.78351025535812 116.93221410509432,80.88826290067664 116.51685866815387,80.45076570132369 116.05029502671096,80.35217447196919 115.64062939028372,80.41995595444314 114.54818769317353,80.21044937922852 114.38887327900738,79.95164642562304 114.16128125879914,79.79143467810354 114.11007305423846,79.62506062037573 113.99058724363567,79.57576454067748 114.10438325372525,79.46484825669904 114.03610564768314,79.37241790936969 114.04179544813815,79.0766401218134 114.13283225626219,79.02118167194567 114.05317504916457,78.91642672337184 113.84265243046684,79.1382605791805 113.52971340264776,79.16290874961123 112.92659454903333,79.612736603136 112.60796572073014,79.60657459383219 112.47141050855862,79.73597669509036 112.3974431019742,79.9947803059913 112.24950828886358,80.06872404994647 112.08450407418422,80.00094228710805 112.07881427367101,79.8284066466731 111.56104242763831,79.6743566714722 110.98068277604762,79.27382542798296 110.73602135429974,79.26150135976786 110.58808654116001,79.10745035608124 110.40601292497013,79.10745035608124 110.05893509412999,78.69459228799678 109.27943242483889,78.39265004189656 108.94373419502517,77.87503226474655 108.6421747681743,78.04140975152404 108.10164372014697,77.94281572464388 107.75456588930683,77.52995199349971 107.50990446755895,77.47449253337254 106.65074459117022,77.86270799349586 106.11021354311379,77.67784371005837 105.97934813148458,77.46216820398695 105.76313571230276,77.46216820398695 105.5355436920654,77.24649215003592 105.25674346726737,77.35741133193369 105.17708626019885,77.25881651073723 104.8925962348876,77.39438436034106 104.5,77.33892481168004" stroke="yellow" stroke-linecap="round" stroke-linejoin="round" stroke-width="0.5"><title>2024-11-09 21.0km</title><desc>1731113022000</desc></polyline><polyline fill="none" points="95.5,231.84999163458997 95.20522151899058,231.61404123730608 94.73101265821606,232.0720623309462 93.0007911392604,232.8076696715725 92.92389240511693,232.29413276952982 92.30870253161993,231.21153694686654 92.42405063292244,231.35033162545005 92.88544303801609,230.3648872271733 93.34683544305153,230.28161000320688 93.64161392406095,229.93462117972376 93.32120253163157,229.15736393137195 91.43718354433076,228.0747503588209 91.0526898734388,228.15802854344656 91.3602848101873,227.7832764271443 91.02705696207704,228.11638945566665 92.53939873416675,226.18710178336187 93.82104430376785,226.7839338612248 94.25680379744153,226.86721260778722 94.43623417720664,226.7145348780905 94.48749999998836,225.3543097255897 94.01329113927204,224.0079548967915 92.41123417724157,222.5921901128022 92.60348101262935,222.21742709238606 93.78259493672522,221.60670059690892 95.21803797467146,219.73286849707074 95.12832278484711,219.44138185380143 92.98797468352132,218.88616797089344 91.57816455699503,219.2748178581678 90.23243670887314,218.4697565009992 89.54034810123267,218.44199570409546 88.77136075950693,218.53915847561439 86.73354430380277,219.35809987409448 85.16993670887314,219.621826018687 84.0292721518781,219.56630475530983 83.59351265820442,220.23255885207618 83.13212025316898,220.48240354002337 81.50443037971854,219.56630475530983 80.51756329112686,218.70572311191063 79.96645569620887,217.45648480356613 79.13338607596233,216.88738464651396 79.2743670885684,216.06843266802025 79.00522151903715,215.79082103194378 78.08243670884985,215.91574631803087 77.0827531645773,216.66529632094898 77.0186708861147,216.929026178841 77.42879746836843,217.9700615403417 77.28781645570416,218.60856042505475 76.89050632913131,218.8167661222251 75.19873417721828,217.78961581700423 73.31471518985927,217.2205166512722 72.0202531645773,217.80349626328098 71.68702531646704,217.67857221033773 70.62325949361548,216.59589366630826 67.6242088607396,216.11007437868102 66.21439873415511,215.12455146106367 65.50949367083376,213.54215192660922 64.65079113928368,213.12572882010136 63.381962025305256,213.30617894425814 62.40791139239445,213.07020567072323 61.587658227887005,213.25065584725235 61.33132911392022,213.87528975888563 61.01091772154905,214.06961989302363 60.21629746834515,213.79200535523705 59.9984177214792,213.8475282950094 59.94715189875569,214.15290417576034 59.447310126561206,214.34723402780946 58.24256329110358,213.90305121868732 57.83243670879165,213.98633557399444 56.5251582278288,215.3188803257217 55.4870253164554,215.72141805994033 55.46139240503544,216.27664113057835 54.15411392401438,217.9006593591621 53.154430379741825,218.4697565009992 52.80838607595069,218.91392870331765 52.167563291150145,218.24767001302098 51.18069620250026,217.9006593591621 50.975632911373395,217.16499469078553 50.29636075947201,216.6514157920319 50.21946202532854,216.22111889607913 49.30949367093854,216.33216334901226 46.823101265821606,215.92962690035347 45.92594936711248,216.2488800153369 45.387658227817155,216.19335777277593 45.01598101260606,217.0261897190212 45.01598101260606,217.48424574347155 42.503955696185585,218.53915847561439 41.5811708860565,219.9688335496612 40.92753164557507,220.44076278136345 39.79968354431912,220.44076278136345 38.86408227845095,220.87105018363218 37.99256329110358,220.67672696053341 36.46740506327478,220.7461281342985 34.775632911361754,221.31521680933656 33.82721518987091,221.25969603753765 32.12262658227701,221.77326256179367 30.584651898709126,222.7587512195023 29.40553797467146,223.03635274173575 28.70063291140832,222.84203171849367 28.431487341760658,222.99471253908996 27.93164556962438,222.66159059155325 27.918829113885295,222.9114321065863 27.700949367077556,222.52278960886179 27.739398734178394,222.85591179812036 27.316455696243793,223.1335131793021 26.16297468356788,223.39723411829618 26.021993670845404,223.61931462697976 26.444936708838213,224.31331455484906 26.59873417718336,225.1044714012678 27.380537974648178,226.21486145618837 27.290822784765624,226.40917905310926 26.393670886056498,226.13158242561622 25.291455696162302,225.02119188732468 24.52246835437836,224.9517922646628 23.843196202535182,225.3265499278932 23.11265822785208,225.42370920220856 22.612816455657594,224.9795521167398 21.67721518984763,224.59091382095357 19.729113923967816,224.3965943769872 19.754746835445985,224.85463275066286 20.921044303802773,224.85463275066286 21.9976265822188,225.49310865366715 22.856329113943502,226.52021759132913 24.189240506268106,226.3120202793216 24.612183544319123,226.42305887393013 26.56028481008252,228.03311125289474 26.919145569612738,228.78261377262243 28.03417721518781,230.1566940992634 28.03417721518781,230.40652582557232 27.418987341749016,230.71187527032453 26.84224683541106,230.4759234694502 26.688449367065914,230.2538509204751 26.76534810126759,229.22676202838193 26.368037974636536,228.82425271543616 25.201740506279748,228.35234416660387 24.72753164556343,227.68611835120828 24.24050632910803,227.4918020513578 22.80506329110358,228.01923154892575 22.22832278482383,228.03311125289474 21.331170886056498,227.85267502255738 20.40838607592741,227.26972603838658 19.652215189824346,228.005351843909 19.062658227805514,227.908193880794 18.396202531643212,228.33846448575787 16.524999999965075,228.24130669180886 15.832911392382812,227.93595330386597 15.973892405047081,228.15802854344656 18.19113924051635,229.40719696269662 19.11392405058723,229.6431500816252 19.190822784788907,229.82358462327102 16.319936708838213,229.49047456734115 15.538132911373395,229.6431500816252 14.6794303797069,229.49047456734115 14.5,229.5737521356932 14.615348101244308,229.79582547410973 15.333069620246533,230.05953722864797 16.53781645570416,230.12893499838538 19.306170886033215,233.0852566123067 20.728797468356788,233.40448109623685 22.702531645540148,234.25111736571125 22.933227848086972,234.7924074436596 22.80506329110358,235.70843331803917 22.34367088606814,236.92979432926222" stroke="#4DD2FF" stroke-linecap="round" stroke-linejoin="round" stroke-width="0.5"><title>2024-10-27 13.8km</title><desc>1729977789000</desc></polyline></svg>