<?xml version="1.0" encoding="utf-8" ?>
<svg baseProfile="full" height="200mm" version="1.1" viewBox="0,0,200,200" width="200mm" xmlns="http://www.w3.org/2000/svg" xmlns:ev="http://www.w3.org/2001/xml-events" xmlns:xlink="http://www.w3.org/1999/xlink"><defs /><rect fill="#1a1a1a" height="200" width="200" x="0" y="0" /><text alignment-baseline="middle" fill="#e1ed5e" style="dominant-baseline: central; font-size:9.0px; font-family:Arial;" text-anchor="middle" x="100.0" y="100.0">2025</text><line stroke="#e1ed5e" stroke-width="0.3" x1="100.0" x2="100.0" y1="15.0" y2="10.0" /><path d="M 100.0 14.0 a86.0,86.0 0 0,1 42.46469731375804,11.215312516191453" fill="none" id="id13" stroke="none" /><text fill="#e1ed5e" style="font-size:6.75px; font-family:Arial;" text-anchor="middle"><textPath startOffset="22.20632615414155" xlink:href="#id13">January</textPath></text><path d="M 103.59715602781102 79.31037775812273 l 0.7552861472497459 -4.344149920188297 a25.40931918705137,25.40931918705137 0 0,0 0.4302703748747209,0.07862916078933224 l -0.8299516432273677 4.330505278048227" fill="#ff3b05" stroke="none" /><line stroke="#e1ed5e" stroke-width="0.3" x1="143.23703022742887" x2="145.7803849466894" y1="26.81831364943548" y2="22.513508569990506" /><path d="M 143.74570117128098 25.957352633546492 a86.0,86.0 0 0,1 28.547481713284135,27.462654790039103" fill="none" id="id14" stroke="none" /><text fill="#e1ed5e" style="font-size:6.75px; font-family:Arial;" text-anchor="middle"><textPath startOffset="19.985693538727396" xlink:href="#id14">February</textPath></text><path d="M 114.68862486808459 84.99185889309783 l 0.15285753958707574 -0.15618259326380854 a21.218537021685624,21.218537021685624 0 0,0 0.25882997894191145,0.25771848075643844 l -0.15552331869630975 0.15352826185725138" fill="#ff0000" stroke="none" /><line stroke="#e1ed5e" stroke-width="0.3" x1="172.23445277983987" x2="176.4835382374775" y1="55.19839476539836" y2="52.563006222186495" /><path d="M 173.08426987136738 54.67131705675599 a86.0,86.0 0 0,1 12.851231095245387,41.99856678651699" fill="none" id="id15" stroke="none" /><text fill="#e1ed5e" style="font-size:6.75px; font-family:Arial;" text-anchor="middle"><textPath startOffset="22.20632615414155" xlink:href="#id15">March</textPath></text><path d="M 117.84615892207809 88.93136811851018 l 0.697802709328074 -0.4327946057850811 a21.821121058031192,21.821121058031192 0 0,0 0.19523066240418377,0.32090787654617237 l -0.7051491700184818 0.42071895603182724" fill="#ff0901" stroke="none" /><line stroke="#e1ed5e" stroke-width="0.3" x1="184.98032266829074" x2="189.97916517819016" y1="98.17113171792111" y2="98.06355123074" /><path d="M 185.9800911702706 98.14961562048488 a86.0,86.0 0 0,1 -9.607161424134198,41.387399972396054" fill="none" id="id16" stroke="none" /><text fill="#e1ed5e" style="font-size:6.75px; font-family:Arial;" text-anchor="middle"><textPath startOffset="21.466115282336823" xlink:href="#id16">April</textPath></text><path d="M 120.99980553446 99.90962569577887 l 0.49573400885742164 -0.0021334300479936836 a21.495738599527634,21.495738599527634 0 0,0 -0.0015924275620676114,0.37002408394002095 l -0.495697284005851 -0.006400132095711983" fill="#ff0400" stroke="none" /><path d="M 120.99824983174949 100.27111621757518 l 0.8345463386151205 0.010775138334359943 a21.834615896626723,21.834615896626723 0 0,0 -0.008087060654328685,0.37577393111199764 l -0.8342372152757844 -0.02513888523647243" fill="#ff0901" stroke="none" /><path d="M 120.9904718944345 100.63252640178507 l 5.899332908384628 0.17777036344105077 a26.902010764651976,26.902010764651976 0 0,0 -0.01793194155805238,0.4627437328222108 l -5.8953988339753725 -0.2792913432772678" fill="#ff5007" stroke="none" /><path d="M 120.9764740272857 100.99374915477107 l 5.781778528473218 0.27390864252352215 a26.788263029334708,26.788263029334708 0 0,0 -0.025785169009883008,0.46041151416823856 l -5.776207008575806 -0.373391873027184" fill="#ff4e07" stroke="none" /><path d="M 120.95626037817324 101.35467743843564 l 10.547516413318617 0.6818240591978115 a31.569531046216127,31.569531046216127 0 0,0 -0.03972265007590772,0.5419840004933397 l -10.53421720457837 -0.8632811961879217" fill="#ff8f0d" stroke="none" /><path d="M 120.92983693683757 101.71520430193887 l 1.5247258053015635 0.12495158315961542 a22.529837141491406,22.529837141491406 0 0,0 -0.03500214440728095,0.3862457468526942 l -1.5223490646172073 -0.1511787185608802" fill="#ff1302" stroke="none" /><path d="M 120.89721153311464 102.0752229133903 l 1.4252977745829152 0.14154092260259654 a22.43230847899543,22.43230847899543 0 0,0 -0.041465266055859144,0.3839168655221875 l -1.422650207026004 -0.16605411000957548" fill="#ff1101" stroke="none" /><path d="M 120.8583938346157 102.4346265915055 l 1.9677762564089472 0.22968213362793913 a22.981135350700374,22.981135350700374 0 0,0 -0.04924363840835345,0.39252024936259744 l -1.9635311087537455 -0.26352013727793144" fill="#ff1902" stroke="none" /><path d="M 120.70491114924044 103.5080841355445 l 11.490561162007545 1.9468741029792445 a32.65432600327824,32.65432600327824 0 0,0 -0.09866824561542598,0.5533839205719722 l -11.45534647405293 -2.144376774284435" fill="#ff9d0e" stroke="none" /><path d="M 120.64145759157962 103.86396538481128 l 61.924372774738885 11.591896154433844 a84.0,84.0 0 0,0 -0.2782802680973435,1.4189450917282203 l -61.715662573665874 -12.656104973230008" fill="#4dd2ff" stroke="none" /><path d="M 120.41448212921028 104.9243191809786 l 2.0864475031819385 0.5032865097921142 a23.14628993718763,23.14628993718763 0 0,0 -0.09676106535862668,0.38651235724799515 l -2.077475123528251 -0.5391267064375053" fill="#ff1c02" stroke="none" /><path d="M 120.32669344350535 105.2749913415812 l 3.1252590667938427 0.8110376910713477 a24.228780941921496,24.228780941921496 0 0,0 -0.10823564514549248,0.4027851002346797 l -3.110835345306573 -0.8647137244815757" fill="#ff2b04" stroke="none" /><path d="M 120.13307415673323 105.97154293290107 l 4.7887682003876035 1.420366044534851 a25.99497152919925,25.99497152919925 0 0,0 -0.1309320017740284,0.42789335747244694 l -4.763609426107442 -1.502586374559355" fill="#ff4406" stroke="none" /><path d="M 120.02730092923936 106.31721596034902 l 3.750665221997908 1.1830731602848632 a24.93282998743793,24.93282998743793 0 0,0 -0.1326281101757765,0.40818735125465594 l -3.729744860805885 -1.2474594115173143" fill="#ff3505" stroke="none" /><path d="M 119.79798401119884 107.00284435728193 l 1.7075981973761416 0.6040031345735084 a22.811273416758738,22.811273416758738 0 0,0 -0.13412565916886246,0.36905620935425043 l -1.6969482772020523 -0.63330714093389" fill="#ff1702" stroke="none" /><path d="M 119.26925614724726 108.34839909993367 l 3.4558704457507683 1.4972547719707712 a24.76627301055073,24.76627301055073 0 0,0 -0.1728437194131175,0.38971695786727334 l -3.429585641606378 -1.5565200663307321" fill="#ff3204" stroke="none" /><path d="M 118.81262510543309 109.33194174019688 l 2.829830794478076 1.403728398385926 a24.158859880053488,24.158859880053488 0 0,0 -0.18800347704978465,0.3709486961137142 l -2.805248647642022 -1.4522313062023344" fill="#ff2a04" stroke="none" /><path d="M 118.64920377521936 109.65438752849418 l 4.5811522399612805 2.371587526454338 a26.158622223165413,26.158622223165413 0 0,0 -0.2104492196617318,0.39809061374084903 l -4.5396505120746555 -2.4500931552813214" fill="#ff4606" stroke="none" /><line stroke="#e1ed5e" stroke-width="0.3" x1="174.80103733775053" x2="179.2010983576182" y1="140.37084112569926" y2="142.7455964860345" /><path d="M 175.68104954172406 140.8457921977663 a86.0,86.0 0 0,1 -30.038265399797805,32.042727171017184" fill="none" id="id17" stroke="none" /><text fill="#e1ed5e" style="font-size:6.75px; font-family:Arial;" text-anchor="middle"><textPath startOffset="22.206326154141568" xlink:href="#id17">May</textPath></text><path d="M 118.48025628344425 109.97397251340804 l 5.900599450202682 3.184610420239453 a27.705133660146522,27.705133660146522 0 0,0 -0.23011566141088557,0.4177267670729388 l -5.844907379340286 -3.2857077057101973" fill="#ff5b08" stroke="none" /><path d="M 118.30583269289576 110.29060199501025 l 0.6316978171822775 0.3551081738151324 a21.724668163605365,21.724668163605365 0 0,0 -0.18605420016554167,0.324401180543825 l -0.6254916208643562 -0.3659292002172725" fill="#ff0701" stroke="none" /><path d="M 118.12598468904814 110.60418214915192 l 3.4345985022791377 2.009331286116461 a24.97918070577657,24.97918070577657 0 0,0 -0.22031533219522262,0.3692611692734241 l -3.399502294385688 -2.0681545492759894" fill="#ff3505" stroke="none" /><path d="M 117.94076556474637 110.91462005526583 l 9.557111881752267 5.8142582956418725 a32.186777330794186,32.186777330794186 0 0,0 -0.2920342484119007,0.4708521941690011 l -9.455612993672403 -5.977906821176147" fill="#ff970d" stroke="none" /><path d="M 117.14729908036423 112.12312394758627 l 3.058950472035876 2.1626750398541907 a24.746243627739236,24.746243627739236 0 0,0 -0.24890031985595226,0.3457007748427514 l -3.021270359804321 -2.2150094201480734" fill="#ff3204" stroke="none" /><path d="M 116.498646956653 112.99209946851258 l 4.235877783638227 3.335603558648102 a26.39155930120274,26.39155930120274 0 0,0 -0.284126610997336,0.35449163368277786 l -4.177833260586037 -3.40802302590913" fill="#ff4906" stroke="none" /><path d="M 116.27256486870786 113.27417163493432 l 3.5053114220633734 2.8594204924536712 a25.52365932827749,25.52365932827749 0 0,0 -0.2806435731549404,0.33805326282968984 l -3.4555718490148895 -2.9193350123971316" fill="#ff3d05" stroke="none" /><path d="M 115.32070863581623 114.36230785411682 l 3.3684691964730145 3.157751560117538 a25.617139768624327,25.617139768624327 0 0,0 -0.30434802593719806,0.31910768842777926 l -3.313614619156852 -3.215266365127824" fill="#ff3e05" stroke="none" /><path d="M 115.07121518719521 114.62390073753431 l 4.803275243995926 4.660713785238222 a27.692810026998654,27.692810026998654 0 0,0 -0.3348975583291607,0.3392494584682367 l -4.722337060611229 -4.742703737687124" fill="#ff5b08" stroke="none" /><path d="M 114.81725581225074 114.88116024355365 l 6.669945145448794 6.6987115416521394 a30.45308968335536,30.45308968335536 0 0,0 -0.37464557952376504,0.36666955200600415 l -6.553649613549235 -6.812531196580716" fill="#ff800b" stroke="none" /><path d="M 113.75828350139079 115.86535959552629 l 3.1090612426687136 3.5852128366497658 a25.745525565703232,25.745525565703232 0 0,0 -0.33730870984729544,0.2874618002880465 l -3.046887056244371 -3.638199027160759" fill="#ff4006" stroke="none" /><path d="M 113.20401910651253 116.32954008644616 l 4.587895301860484 5.6738951708421395 a28.29670266014309,28.29670266014309 0 0,0 -0.38138903184564293,0.30299851303557696 l -4.48954877729749 -5.752027597882843" fill="#ff6309" stroke="none" /><path d="M 112.92097659922987 116.55440617244103 l 13.922690180342892 17.83780556279235 a43.62804916809671,43.62804916809671 0 0,0 -0.5959825684857274,0.4569740195143977 l -13.61357888336367 -18.07481892413412" fill="#daff1b" stroke="none" /><path d="M 111.45004920935366 117.60387380957326 l 2.9044913896633147 4.465509184262385 a26.326991881668306,26.326991881668306 0 0,0 -0.38201492970033607,0.2438200025455813 l -2.827194657916048 -4.514843615631775" fill="#ff4806" stroke="none" /><path d="M 111.1453310114006 117.79835938074945 l 2.582922787810688 4.12475753148625 a25.866735540518334,25.866735540518334 0 0,0 -0.3794044083966592,0.23306117570315976 l -2.5115391794817206 -4.168607174017788" fill="#ff4206" stroke="none" /><line stroke="#e1ed5e" stroke-width="0.3" x1="143.8653032363475" x2="146.44561519142675" y1="172.8068346515853" y2="177.08958963109032" /><path d="M 144.38136562736335 173.6633856474863 a86.0,86.0 0 0,1 -40.68145358897372,12.25698825130547" fill="none" id="id18" stroke="none" /><text fill="#e1ed5e" style="font-size:6.75px; font-family:Arial;" text-anchor="middle"><textPath startOffset="21.466115282336833" xlink:href="#id18">June</textPath></text><path d="M 110.8373102113329 117.98757091392108 l 2.413177055699012 4.0053475051254885 a25.676134315753465,25.676134315753465 0 0,0 -0.3805351403263413,0.22482686837896182 l -2.3438740443442887 -4.0462929457982" fill="#ff3f05" stroke="none" /><path d="M 110.5260780823613 118.17145234162733 l 4.4394472149669815 7.663937399925298 a29.856897201867696,29.856897201867696 0 0,0 -0.44693106911019576,0.25377912522517143 l -4.3068673789355865 -7.739219690945098" fill="#ff780b" stroke="none" /><path d="M 109.89434966115114 118.52300852407294 l 1.9218728256993134 3.5978985938193357 a25.079028003038054,25.079028003038054 0 0,0 -0.3825257535793268,0.20011939498908599 l -1.859656169593491 -3.6304474077531386" fill="#ff3705" stroke="none" /><path d="M 109.57404056367764 118.69057910512821 l 1.8906159482677638 3.6908875310782983 a25.1469361498477,25.1469361498477 0 0,0 -0.386958769074972,0.19402915994646405 l -1.8268032715100313 -3.7228845319340644" fill="#ff3805" stroke="none" /><path d="M 108.92500713936063 119.00905698771935 l 2.5798957564444436 5.494828708914733 a27.070338100504255,27.070338100504255 0 0,0 -0.4234986872101072,0.19440747599924643 l -2.4849290734669167 -5.538423255248055" fill="#ff5207" stroke="none" /><path d="M 108.59647513512805 119.15986991738527 l 2.3616119599554763 5.26357341082616 a26.769091444981687,26.769091444981687 0 0,0 -0.4220329874109253,0.18500685927471489 l -2.2706582978867975 -5.3034448233953295" fill="#ff4e07" stroke="none" /><path d="M 107.93186726928326 119.44442032107085 l 1.16272970677494 2.8503509162187917 a24.078382808652336,24.078382808652336 0 0,0 -0.38511530040105585,0.15324532590357362 l -1.113493330332018 -2.869943086528434" fill="#ff2904" stroke="none" /><path d="M 105.53697534728816 120.25689768951611 l 0.9357938361657545 3.423580350050448 a24.549170680181128,24.549170680181128 0 0,0 -0.4085795130369084,0.10790956291445417 l -0.8767238803173487 -3.439181262268486" fill="#ff2f04" stroke="none" /><path d="M 105.18746579009965 120.34920634021253 l 1.0277897617862135 4.031777130340122 a25.16071852246294,25.16071852246294 0 0,0 -0.42059940908625054,0.10337310162061819 l -0.9582370679567518 -4.048871490274769" fill="#ff3805" stroke="none" /><path d="M 104.83641907484287 120.43548508189849 l 0.9292970222802057 3.92659013654164 a25.035059238227483,25.035059238227483 0 0,0 -0.4202073304872034,0.09563782034127506 l -0.8615695424001403 -3.942004690460599" fill="#ff3605" stroke="none" /><path d="M 104.48393922423573 120.51570834832081 l 1.0313225535442105 4.718688560094135 a25.830077425529762,25.830077425529762 0 0,0 -0.43518580690917613,0.09119741707016249 l -0.9499452852056565 -4.735741957890839" fill="#ff4106" stroke="none" /><path d="M 103.7750983002368 120.6578951692458 l 1.2157578743759996 6.652806555651559 a27.762980280617978,27.762980280617978 0 0,0 -0.4708482848544423,0.08186300968900666 l -1.1010606180495075 -6.672748143861573" fill="#ff5c08" stroke="none" /><path d="M 103.41894727170886 120.7198165907248 l 0.7873363162807531 4.7714874702938275 a25.836009838090234,25.836009838090234 0 0,0 -0.4394141019820645,0.06862744572216672 l -0.7050863506901714 -4.7843332233631" fill="#ff4106" stroke="none" /><path d="M 102.70371172650421 120.8252237178851 l 0.5116931330047159 3.9412944306406086 a24.974371856201035,24.974371856201035 0 0,0 -0.42679129455752135,0.05167848211560439 l -0.44377441539581425 -3.949518441481564" fill="#ff3505" stroke="none" /><path d="M 101.62511606390274 120.93702456842531 l 0.32274618644166136 4.1580690665667355 a25.170575915050797,25.170575915050797 0 0,0 -0.43225938131467945,0.029811137737420657 l -0.2511240443480516 -4.163008548820441" fill="#ff3805" stroke="none" /><path d="M 101.26447882468166 120.96189622390904 l 0.4600900919840669 7.62714295689908 a28.64100730124747,28.64100730124747 0 0,0 -0.4923688270669992,0.025449844322212582 l -0.3287331965035881 -7.633932607983494" fill="#ff6809" stroke="none" /><line stroke="#e1ed5e" stroke-width="0.3" x1="102.19456741930631" x2="102.32365962044197" y1="184.97166512339345" y2="189.96999836594603" /><path d="M 102.22038585953345 185.97133177190398 a86.0,86.0 0 0,1 -42.740103519485714,-10.115201625700543" fill="none" id="id19" stroke="none" /><text fill="#e1ed5e" style="font-size:6.75px; font-family:Arial;" text-anchor="middle"><textPath startOffset="22.20632615414155" xlink:href="#id19">July</textPath></text><path d="M 100.54218724476979 120.99299961872073 l 0.10100268265347552 3.9107324985752006 a24.912036581796677,24.912036581796677 0 0,0 -0.4287721060728472,0.007381700650125502 l -0.033670886687960366 -3.911891676504486" fill="#ff3405" stroke="none" /><path d="M 99.81925306533755 120.99922214144158 l -0.035441362398362805 4.117585968406345 a25.117738493079116,25.117738493079116 0 0,0 -0.43231253286349464,-0.0074426523080624194 l 0.10631358515452537 -4.1163658388191235" fill="#ff3705" stroke="none" /><path d="M 99.45781275523022 120.99299961872073 l -0.11248043603769338 4.355140726070527 a25.35659300283712,25.35659300283712 0 0,0 -0.4362295715616286,-0.015024628474371532 l 0.18743035927396506 -4.3525592991700615" fill="#ff3b05" stroke="none" /><path d="M 99.09653310690486 120.98055641714683 l -0.3277309847279965 7.610658970775103 a28.617712095359757,28.617712095359757 0 0,0 -0.49196835814916606,-0.025429144653480246 l 0.4586874112906515 -7.6038900193594205" fill="#ff6709" stroke="none" /><path d="M 98.73552117531835 120.96189622390904 l -0.4585791658352115 7.6020955804496095 a28.615914394583857,28.615914394583857 0 0,0 -0.49142687452615225,-0.03389167448445552 l 0.5893688011402939 -7.5930755614488685" fill="#ff6709" stroke="none" /><path d="M 98.01472825383883 120.90594882070398 l -0.5006549685146153 5.272158418028463 a26.295876677405428,26.295876677405428 0 0,0 -0.4502447665178194,-0.046669710989349154 l 0.5913323316380281 -5.262759338583352" fill="#ff4806" stroke="none" /><path d="M 96.93821686468263 120.77559828337769 l -0.6609699919585184 4.48498356134364 a25.53342683582655,25.53342683582655 0 0,0 -0.4342678259491954,-0.06782370324434468 l 0.7380736815162308 -4.472941550752189" fill="#ff3d05" stroke="none" /><path d="M 96.22490169976321 120.6578951692458 l -0.9539687470679108 5.220257806380706 a26.30670782458023,26.30670782458023 0 0,0 -0.4447492015107702,-0.08523724298155781 l 1.043685563150376 -5.203063365050681" fill="#ff4806" stroke="none" /><path d="M 95.51606077576429 120.51570834832081 l -0.9601317827359683 4.392964008989648 a25.49666385495938,25.49666385495938 0 0,0 -0.42795525078935626,-0.09740122177697956 l 1.0356071829181872 -4.3757860536349815" fill="#ff3d05" stroke="none" /><path d="M 94.81253420990036 120.34920634021253 l -0.9828089722792277 3.855328088734842 a24.978626414704,24.978626414704 0 0,0 -0.41572707892287775,-0.1097973000281543 l 1.0490264940135947 -3.837839439403106" fill="#ff3505" stroke="none" /><path d="M 94.11515582081647 120.15858648285463 l -2.4151826575945363 8.273229841365985 a29.618552040662866,29.618552040662866 0 0,0 -0.48817724200558776,-0.14708379843730407 l 2.55723487404037 -8.230430673822955" fill="#ff750a" stroke="none" /><path d="M 93.08242187328487 119.8279376855182 l -2.0392879142333764 5.845235564466348 a27.19075714280899,27.19075714280899 0 0,0 -0.4405944184459734,-0.1579814828561646 l 2.1396018933090764 -5.809266540570226" fill="#ff5407" stroke="none" /><path d="M 92.7421414339146 119.70592522655815 l -1.3346979977172866 3.623859393727438 a24.86183578762965,24.86183578762965 0 0,0 -0.4003108117316815,-0.15136329576238008 l 1.396879030209251 -3.600347847858425" fill="#ff3404" stroke="none" /><path d="M 92.40401165467489 119.57807347666478 l -1.2909907390778081 3.327428953062368 a24.569095197114024,24.569095197114024 0 0,0 -0.3929638694015148,-0.15636843348485918 l 1.348075684521181 -3.3047136751714423" fill="#ff3004" stroke="none" /><path d="M 92.06813273071674 119.44442032107085 l -0.7931241607258311 1.9442886554181038 a23.099834352970394,23.099834352970394 0 0,0 -0.3668787636950761,-0.1533553529792911 l 0.8264743839183695 -1.9303482594188395" fill="#ff1b02" stroke="none" /><path d="M 91.7346041902142 119.30500536409082 l -5.65424565208168 13.206293461964634 a35.365816402057156,35.365816402057156 0 0,0 -0.5575662206938666,-0.24442064579137876 l 5.88073254743329 -13.107008262878802" fill="#ffc011" stroke="none" /><path d="M 90.7491055286396 118.85261126421891 l -1.3512745327984017 2.753793544716661 a24.067461776438737,24.067461776438737 0 0,0 -0.370347915478605,-0.18570013311758155 l 1.3984763559597673 -2.7301255706897773" fill="#ff2903" stroke="none" /><path d="M 90.42595943632237 118.69057910512821 l -1.1622040013474078 2.2688712961893063 a23.54921460442617,23.54921460442617 0 0,0 -0.3591917941025531,-0.18791217022186926 l 1.2010866979764565 -2.2485297070227204" fill="#ff2103" stroke="none" /><path d="M 90.10565033884886 118.52300852407294 l -1.3656524803836563 2.5566099239841096 a23.898492884343874,23.898492884343874 0 0,0 -0.3611826891528743,-0.1969456001184964 l 1.409457981405171 -2.5327236721058477" fill="#ff2603" stroke="none" /><line stroke="#e1ed5e" stroke-width="0.3" x1="58.666819895761336" x2="56.23545636021788" y1="174.27360380694188" y2="178.64263932499728" /><path d="M 58.180547188652646 175.14741091055294 a86.0,86.0 0 0,1 -31.652253787137756,-30.449443065178592" fill="none" id="id20" stroke="none" /><text fill="#e1ed5e" style="font-size:6.75px; font-family:Arial;" text-anchor="middle"><textPath startOffset="22.20632615414155" xlink:href="#id20">August</textPath></text><path d="M 89.7882731507175 118.34994917583269 l -1.6939429570607145 3.0439285761945243 a24.48352464018115,24.48352464018115 0 0,0 -0.36649648384552147,-0.20810626849816333 l 1.7460882078274433 -3.0143191419017277" fill="#ff2e04" stroke="none" /><path d="M 89.1626897886671 117.98757091392108 l -2.256855265013922 3.7458874324223266 a25.373221735014198,25.373221735014198 0 0,0 -0.372165717100667,-0.2286145802850265 l 2.321000182046898 -3.7064843853089218" fill="#ff3b05" stroke="none" /><path d="M 88.8546689885994 117.79835938074946 l -1.8650387457678186 2.978344009903605 a24.514100534211263,24.514100534211263 0 0,0 -0.35570916853454315,-0.22703042115556019 l 1.9160297163492852 -2.9457991599242406" fill="#ff2f04" stroke="none" /><path d="M 88.24862548938628 117.40417183066458 l -1.648053755646118 2.4408217714047793 a23.945113257798898,23.945113257798898 0 0,0 -0.33961367289335986,-0.23358938097885398 l 1.689824313162368 -2.412091601060824" fill="#ff2703" stroke="none" /><path d="M 87.95078237400918 117.19931262002967 l -2.5332752193710135 3.6160515813534797 a25.415123143932483,25.415123143932483 0 0,0 -0.35614172383879095,-0.25409766380973386 l 2.5951442710586914 -3.5719096556995265" fill="#ff3b05" stroke="none" /><path d="M 87.65650970185807 116.9893568818739 l -5.088100520803328 7.003169566373666 a29.656393641995574,29.656393641995574 0 0,0 -0.41040922454986883,-0.30361093282315643 l 5.207894715771761 -6.914548684810742" fill="#ff750a" stroke="none" /><path d="M 87.36589467227662 116.77436683061367 l -3.65839031859523 4.857263701848541 a27.080857702042263,27.080857702042263 0 0,0 -0.369939051546277,-0.28365348971526855 l 3.7414580986349937 -4.7935708703059055" fill="#ff5207" stroke="none" /><path d="M 87.07902340077011 116.55440617244103 l -5.541309335316029 7.0995473724043645 a30.00609138542766,30.00609138542766 0 0,0 -0.40442853997540607,-0.3213024917069278 l 5.6626953680087935 -7.003110966692306" fill="#ff7a0b" stroke="none" /><path d="M 86.51685102203217 116.09983520530335 l -2.5657783643221186 3.0637211608667445 a24.996198939788428,24.996198939788428 0 0,0 -0.32749129917541775,-0.27909518992930027 l 2.618135140074593 -3.0191015807144925" fill="#ff3605" stroke="none" /><path d="M 85.70375840098266 115.38237550388516 l -2.3753561995429573 2.5558200568856395 a24.489202378465038,24.489202378465038 0 0,0 -0.3063064718654257,-0.2896318878347564 l 2.4189985057992 -2.5145535323049524" fill="#ff2f04" stroke="none" /><path d="M 85.44109423537348 115.13401014063109 l -1.617474358435841 1.6813676617273403 a23.33307104780371,23.33307104780371 0 0,0 -0.2870523817342412,-0.28094117204464464 l 1.6461766925458765 -1.6532763867601261" fill="#ff1e03" stroke="none" /><path d="M 85.18274418774928 114.88116024355367 l -7.903364730388742 7.937450666062309 a32.20117391784119,32.20117391784119 0 0,0 -0.3894185714596673,-0.3944789569212633 l 8.038823926903943 -7.800231215160381" fill="#ff970d" stroke="none" /><path d="M 84.67929136418377 114.36230785411682 l -4.023773252832389 3.772062478705375 a26.515360961303102,26.515360961303102 0 0,0 -0.30928728146481027,-0.33567025905008835 l 4.088106942292928 -3.7022409648539423" fill="#ff4b06" stroke="none" /><path d="M 84.19399662182784 113.82643327865904 l -4.39346254761436 3.8432180054299114 a26.837194342708724,26.837194342708724 0 0,0 -0.3011612318554301,-0.3503185506470992 l 4.458966289040569 -3.767022355621282" fill="#ff4f07" stroke="none" /><path d="M 83.72743513129214 113.27417163493432 l -13.105922269060754 10.691016630584476 a37.913398094945215,37.913398094945215 0 0,0 -0.40816858106668913,-0.5092530636690991 l 13.288008762182304 -10.463835733337119" fill="#ffdf14" stroke="none" /><path d="M 83.50135304334701 112.99209946851258 l -6.684586288131178 5.263874679507284 a29.508352983100153,29.508352983100153 0 0,0 -0.3108117388087918,-0.4017660702543895 l 6.774204844158038 -5.148030615139642" fill="#ff730a" stroke="none" /><path d="M 83.28015986056508 112.70617746262583 l -3.4528526993106405 2.6239819749395283 a25.336758370943016,25.336758370943016 0 0,0 -0.2608946921993056,-0.3495110750022342 l 3.497508658205031 -2.5641580204279864" fill="#ff3a05" stroke="none" /><path d="M 82.85270091963577 112.12312394758628 l -3.922204988837412 2.7729951524533165 a25.80345647320663,25.80345647320663 0 0,0 -0.25329052902229426,-0.3648838983569429 l 3.9693564250218403 -2.7050699919093613" fill="#ff4106" stroke="none" /><path d="M 82.6465618267979 111.8261652097733 l -3.5989500078777605 2.452642349606718 a25.355214765575596,25.355214765575596 0 0,0 -0.24268187759641383,-0.3627764794970942 l 3.6406349908849047 -2.3903289559038026" fill="#ff3b05" stroke="none" /><path d="M 82.24976979558568 111.22182372390057 l -9.84917742174744 6.2267210948500535 a32.65239681259226,32.65239681259226 0 0,0 -0.2962588663043883,-0.4776636233593093 l 9.954900927719784 -6.05626114012548" fill="#ff9d0e" stroke="none" /><path d="M 82.05923443525364 110.91462005526583 l -15.377366768090628 9.355125628194063 a38.999493999545415,38.999493999545415 0 0,0 -0.34397391080037437,-0.576520059843812 l 15.536121554589235 -9.089043474464141" fill="#ffed16" stroke="none" /><line stroke="#e1ed5e" stroke-width="0.3" x1="26.63291911575756" x2="22.317208475507996" y1="142.92168965132927" y2="145.44649492493687" /><path d="M 25.769776987707644 143.4266507060508 a86.0,86.0 0 0,1 -11.730757126820373,-40.83630448921669" fill="none" id="id21" stroke="none" /><text fill="#e1ed5e" style="font-size:6.75px; font-family:Arial;" text-anchor="middle"><textPath startOffset="21.46611528233685" xlink:href="#id21">September</textPath></text><path d="M 81.69416730710424 110.29060199501025 l -5.516872874219962 3.101303500260782 a27.328820562398164,27.328820562398164 0 0,0 -0.22699004799755773,-0.4120528708319552 l 5.569439331669037 -3.0058801110310043" fill="#ff5607" stroke="none" /><path d="M 81.51974371655577 109.97397251340807 l -5.303281246858683 2.8622320262099077 a27.02637238769267,27.02637238769267 0 0,0 -0.2174303726990892,-0.4112963243713095 l 5.351764127782658 -2.770520686752472" fill="#ff5207" stroke="none" /><path d="M 81.35079622478065 109.6543875284942 l -6.469287064337384 3.3490440184464685 a28.28476293082315,28.28476293082315 0 0,0 -0.22011112299691488,-0.4343001276205688 l 6.525976857120566 -3.237189679123215" fill="#ff6309" stroke="none" /><path d="M 81.18737489456691 109.33194174019688 l -7.739491937880744 3.8391499037616037 a29.639375407983714,29.639375407983714 0 0,0 -0.22278470876781023,-0.4590024867127261 l 7.804429903263273 -3.705358461083593" fill="#ff750a" stroke="none" /><path d="M 81.02952815118164 109.00673069616217 l -7.992850259852347 3.7948159834371205 a29.847953640507594,29.847953640507594 0 0,0 -0.21636267521301705,-0.46602595388163415 l 8.056987551905191 -3.656669962276659" fill="#ff780b" stroke="none" /><path d="M 80.87730276802145 108.67885076344099 l -5.867725473404447 2.663071693639389 a27.443768546177214,27.443768546177214 0 0,0 -0.1915299499530263,-0.43184947471398527 l 5.912696508088754 -2.561673882432708" fill="#ff5708" stroke="none" /><path d="M 80.45479744820244 107.68017299344265 l -10.395794778991178 4.084966737765384 a32.169579326704735,32.169579326704735 0 0,0 -0.1980814585720625,-0.5171281831231794 l 10.46457051715675 -3.9054149878090474" fill="#ff960d" stroke="none" /><path d="M 80.32549172779594 107.34259656027581 l -7.076695093307953 2.6410478133094744 a28.553459273461108,28.553459273461108 0 0,0 -0.16788854688799232,-0.461957175774025 l 7.12110790120117 -2.518842840529332" fill="#ff6609" stroke="none" /><path d="M 80.0844068197444 106.66101706037122 l -8.745501839781637 2.9250415204326727 a30.221695631817344,30.221695631817344 0 0,0 -0.16076178997630317,-0.49477391441689605 l 8.79455588077419 -2.774068706037973" fill="#ff7d0b" stroke="none" /><path d="M 79.97269907076064 106.31721596034903 l -8.582394788658158 2.7071466858408475 a29.999230160799634,29.999230160799634 0 0,0 -0.15110073316377215,-0.49380593860912037 l 8.627722294328061 -2.5590137746796793" fill="#ff7a0b" stroke="none" /><path d="M 79.76711848015287 105.62410040840567 l -8.248440382338744 2.2928052476121894 a29.561175424232033,29.561175424232033 0 0,0 -0.13205670153073598,-0.4914321126946589 l 8.286685160211256 -2.150482201741992" fill="#ff740a" stroke="none" /><path d="M 79.58551787078972 104.9243191809786 l -3.5277912850532624 0.850963065412277 a24.628973613791317,24.628973613791317 0 0,0 -0.09586468404298057,-0.4129825498452797 l 3.541916535026798 -0.790111858218423" fill="#ff3104" stroke="none" /><path d="M 79.29508885075956 103.50808413554451 l -5.200293927793219 0.8810986193934519 a26.274409133973215,26.274409133973215 0 0,0 -0.0717144303215725,-0.4465658260692087 l 5.214690112476083 -0.7914535636310296" fill="#ff4706" stroke="none" /><path d="M 79.1416061653843 102.43462659150553 l -8.936091824761311 1.0430355737455526 a29.996758322232772,29.996758322232772 0 0,0 -0.05544786288086879,-0.5133783463116063 l 8.952721989143232 -0.8890609055491643" fill="#ff7a0b" stroke="none" /><path d="M 79.10278846688536 102.07522291339032 l -0.32752402908374695 0.032525170583809604 a21.32913504272374,21.32913504272374 0 0,0 -0.03313674484903057,-0.3656612181686438 l 0.32803537020985285 -0.026882563866599672" fill="#ff0200" stroke="none" /><path d="M 79.0235259727143 100.99374915477108 l -31.068824060588508 1.4718687997696946 a52.10366901623567,52.10366901623567 0 0,0 -0.03473048746925089,-0.8962395601293413 l 31.08955668090896 -0.9368519926263567" fill="#7dff26" stroke="none" /><path d="M 79.0095281055655 100.63252640178507 l -36.437985253507875 1.0980214173655627 a57.45452537570406,57.45452537570406 0 0,0 -0.02127989032547022,-0.9887928857011391 l 36.45148720651836 -0.47063871587429473" fill="#46ff2c" stroke="none" /><line stroke="#e1ed5e" stroke-width="0.3" x1="15.007084014347285" x2="10.007500721073583" y1="101.09737516637583" y2="101.16192664675087" /><path d="M 14.007167355692545 101.11028546245083 a86.0,86.0 0 0,1 10.666146001902534,-42.60595125391555" fill="none" id="id22" stroke="none" /><text fill="#e1ed5e" style="font-size:6.75px; font-family:Arial;" text-anchor="middle"><textPath startOffset="22.20632615414155" xlink:href="#id22">October</textPath></text><path d="M 79.00175016825051 100.2711162175752 l -20.909112686455053 0.26996533472204676 a41.91085542527678,41.91085542527678 0 0,0 -0.0031048014944928775,-0.7214465236482679 l 20.91066178523905 0.08999066712989649" fill="#eeff19" stroke="none" /><path d="M 79.00486145842228 99.54816195383935 l -23.13449774847498 -0.49787936578166264 a44.13985457899563,44.13985457899563 0 0,0 0.022886105873309467,-0.7594784356052703 l 23.122499948146025 0.8960279488119274" fill="#d4ff1c" stroke="none" /><path d="M 79.01574976396665 99.18683210126434 l -0.32597810405781824 -0.012632089635270925 a21.326222767466778,21.326222767466778 0 0,0 0.017372129598093523,-0.36669819900075085 l 0.32571236622622596 0.01824139525903084" fill="#ff0200" stroke="none" /><path d="M 79.08570108090925 98.10471618934814 l -9.59181733760696 -0.869224265418818 a30.63112198352873,30.63112198352873 0 0,0 0.05210627242047234,-0.5247030523548919 l 9.57543393950426 1.0342028484781403" fill="#ff820c" stroke="none" /><path d="M 79.16333360222342 97.38593545837743 l -8.954594566480495 -1.1233989014356207 a30.02478747349702,30.02478747349702 0 0,0 0.06874818615066518,-0.51225383976956 l 8.933930381271995 1.27737108326984" fill="#ff7a0b" stroke="none" /><path d="M 79.26566170972629 96.67025291283419 l -8.369522671613904 -1.3440695982975939 a29.4767583919637,29.4767583919637 0 0,0 0.08476412227184914,-0.5002826478703116 l 8.345146687821831 1.4879380344837334" fill="#ff730a" stroke="none" /><path d="M 79.32604984820605 96.31383870115002 l -3.322897479746504 -0.5924719755999243 a24.37530305347193,24.37530305347193 0 0,0 0.07720503033711548,-0.4124323592091461 l 3.312206725499527 0.649582412271643" fill="#ff2d04" stroke="none" /><path d="M 79.3925641242962 95.95851677861259 l -5.485337049279601 -1.075771764232706 a26.589830715944785,26.589830715944785 0 0,0 0.09195105848061973,-0.4483860169052454 l 5.466006694883987 1.170033437301354" fill="#ff4c07" stroke="none" /><path d="M 79.62865764111835 94.90015583598534 l -6.545947205095842 -1.638738874628031 a27.747954498299407,27.747954498299407 0 0,0 0.11998171674006627,-0.4623384982220212 l 6.516769156485467 1.751173798398916" fill="#ff5c08" stroke="none" /><path d="M 79.71946130924805 94.55025226153421 l -6.672729833751231 -1.7930832546110562 a27.909447951334485,27.909447951334485 0 0,0 0.1286668470418456,-0.4628831071079596 l 6.640876216143025 1.9076776651379586" fill="#ff5e08" stroke="none" /><path d="M 79.81627453868168 94.20196356495316 l -13.512964048196984 -3.8817738601864056 a35.05945822816408,35.05945822816408 0 0,0 0.1716145503006529,-0.5785989494509008 l 13.444143600784626 4.113802196383846" fill="#ffbc11" stroke="none" /><path d="M 79.91906864156998 93.8553929516997 l -10.482952703854437 -3.2077010732901954 a31.96273887159756,31.96273887159756 0 0,0 0.16551297981119537,-0.5247213765018681 l 10.426184240275038 3.3876726162184783" fill="#ff940d" stroke="none" /><path d="M 80.38941819471856 92.48833698450439 l -3.3507907923306344 -1.2834913067512665 a24.588195767857968,24.588195767857968 0 0,0 0.15479609891821564,-0.3939391873292187 l 3.3282011435307277 1.3409794989762485" fill="#ff3004" stroke="none" /><path d="M 80.65960295795068 91.81776055985345 l -7.354629336219788 -3.111484117499787 a28.985731405866225,28.985731405866225 0 0,0 0.19835804214417863,-0.45783770962423337 l 7.299980584232929 3.2376209717106197" fill="#ff6c0a" stroke="none" /><path d="M 80.95270993114464 91.15688171328213 l -3.063579780988119 -1.4223334808332255 a24.377655045320402,24.377655045320402 0 0,0 0.17997884133948636,-0.37908134018801065 l 3.038642745806881 1.4748572366617683" fill="#ff2d04" stroke="none" /><line stroke="#e1ed5e" stroke-width="0.3" x1="26.266209847984243" x2="21.928928074336255" y1="57.711370442889674" y2="55.22380399835377" /><path d="M 25.398753493254645 57.213857153982495 a86.0,86.0 0 0,1 29.58750427330803,-30.492523968695096" fill="none" id="id23" stroke="none" /><text fill="#e1ed5e" style="font-size:6.75px; font-family:Arial;" text-anchor="middle"><textPath startOffset="21.46611528233685" xlink:href="#id23">November</textPath></text><path d="M 81.78341655067845 89.55222093294921 l -7.789584584246077 -4.467569837489956 a29.97980001158011,29.97980001158011 0 0,0 0.2605963073061137,-0.445443562720287 l 7.711528602469638 4.600992812564135" fill="#ff7a0b" stroke="none" /><path d="M 81.96595687620814 89.24020034530311 l -12.880700590679727 -7.685118462703823 a35.99911642372737,35.99911642372737 0 0,0 0.32207929769874066,-0.5294136803675001 l 12.746505494694768 7.905699916278398" fill="#ffc812" stroke="none" /><path d="M 82.34701348167596 88.62581576622439 l -4.189974225280153 -2.6996870316327763 a25.984395056301036,25.984395056301036 0 0,0 0.24549482892186422,-0.37390546688010406 l 4.142882761000368 2.7714105624905474" fill="#ff4306" stroke="none" /><path d="M 82.7489923806493 88.02491185347247 l -6.81730735795389 -4.732352934671139 a29.298845938508727,29.298845938508727 0 0,0 0.29115711436557945,-0.4118210900909264 l 6.734837623784433 4.849000525093851" fill="#ff710a" stroke="none" /><line stroke="#e1ed5e" stroke-width="0.3" x1="56.762969772571076" x2="54.21961505331055" y1="26.818313649435495" y2="22.513508569990535" /><path d="M 56.25429882871897 25.957352633546506 a86.0,86.0 0 0,1 42.265352541879196,-11.944610805530505" fill="none" id="id24" stroke="none" /><text fill="#e1ed5e" style="font-size:6.75px; font-family:Arial;" text-anchor="middle"><textPath startOffset="22.20632615414155" xlink:href="#id24">December</textPath></text></svg>