<?xml version="1.0" encoding="utf-8" ?>
<svg baseProfile="full" height="200mm" version="1.1" viewBox="0,0,200,200" width="200mm" xmlns="http://www.w3.org/2000/svg" xmlns:ev="http://www.w3.org/2001/xml-events" xmlns:xlink="http://www.w3.org/1999/xlink"><defs /><rect fill="#1a1a1a" height="200" width="200" x="0" y="0" /><rect fill="#1a1a1a" height="200" width="180" x="10" y="0" /><text alignment-baseline="middle" fill="#e1ed5e" style="dominant-baseline: central; font-size:9.0px; font-family:Arial;" text-anchor="middle" x="100.0" y="100.0">2026</text><line stroke="#e1ed5e" stroke-width="0.3" x1="100.0" x2="100.0" y1="15.0" y2="10.0" /><path d="M 100.0 14.0 a86.0,86.0 0 0,1 42.46469731375804,11.215312516191453" fill="none" id="id25" stroke="none" /><text fill="#e1ed5e" style="font-size:6.75px; font-family:Arial;" text-anchor="middle"><textPath startOffset="22.20632615414155" xlink:href="#id25">January</textPath></text><path d="M 100.36148047927253 79.00311137660856 l 0.7330203133736659 -42.57808308090302 a63.584392418163,63.584392418163 0 0,0 1.0941764684400714,0.028259350044785088 l -1.465823417008605 42.55915693871587" fill="#3bff2e" stroke="none" /><path d="M 102.52436894288641 79.15227682838746 l 2.253019562091438 -18.606760419498485 a39.74266871221337,39.74266871221337 0 0,0 0.6784362563390733,0.08808049732374335 l -2.5729705469383575 18.565221599010602" fill="#ff6c0a" stroke="none" /><path d="M 103.2404852339499 79.25152402106235 l 6.273382674013412 -40.1677897972681 a61.65472503131865,61.65472503131865 0 0,0 1.047163796295704,0.17279099883442708 l -6.963875676447992 40.05385253549405" fill="#52ff2b" stroke="none" /><path d="M 104.307194497241 79.44645832069477 l 4.153773322489516 -19.821429741531677 a41.25198533016213,41.25198533016213 0 0,0 0.6937351791646993,0.15162364020169902 l -4.494351225807743 19.746992603234105" fill="#ff850c" stroke="none" /><path d="M 105.01212808612495 79.60689891045804 l 4.828628816245852 -19.646488254394967 a41.23116795875016,41.23116795875016 0 0,0 0.6877576973849991,0.1753247506273603 l -5.166095402315877 19.56046050759874" fill="#ff850c" stroke="none" /><path d="M 105.71112130821622 79.79150937346287 l 10.760853106446366 -38.07669061806093 a60.56804680549756,60.56804680549756 0 0,0 1.0008430826139516,0.292173540739385 l -11.414686406783744 37.88581874840284" fill="#60ff29" stroke="none" /><path d="M 106.40334571778207 80.00007090966166 l 5.5475220947285155 -17.32688713238575 a39.1932959930282,39.1932959930282 0 0,0 0.6407491317782862,0.2112449146407744 l -5.844954048749219 17.22882849348574" fill="#ff6309" stroke="none" /><path d="M 108.09893153111575 80.62456947434976 l 15.320602573456954 -36.652152155213855 a60.725320902703395,60.725320902703395 0 0,0 0.9609528785411244,0.41142987250703067 l -15.949239209788395 36.38300275474403" fill="#5eff2a" stroke="none" /><path d="M 108.76106565485865 80.91482961587045 l 7.52954731538967 -16.402421701963107 a39.04808910837161,39.04808910837161 0 0,0 0.6084469315892402,0.28567399276378025 l -7.8107724582785085 16.270382726559323" fill="#ff6108" stroke="none" /><path d="M 109.73455568895987 81.39251694778311 l 8.125823994931222 -15.532412274600267 a38.529542112238786,38.529542112238786 0 0,0 0.5850159694039702,0.31249527046956216 l -8.391985010863502 15.390238277628951" fill="#ff5808" stroke="none" /><line stroke="#e1ed5e" stroke-width="0.3" x1="143.23703022742887" x2="145.7803849466894" y1="26.81831364943548" y2="22.513508569990506" /><path d="M 143.74570117128098 25.957352633546492 a86.0,86.0 0 0,1 28.547481713284135,27.462654790039103" fill="none" id="id26" stroke="none" /><text fill="#e1ed5e" style="font-size:6.75px; font-family:Arial;" text-anchor="middle"><textPath startOffset="19.985693538727396" xlink:href="#id26">February</textPath></text><path d="M 110.68208982089419 81.91981866633111 l 20.28295720217465 -34.330318350353 a60.87441674685452,60.87441674685452 0 0,0 0.8975727915096419,0.5407775638740479 l -20.870892059901927 33.976094177020336" fill="#5cff2a" stroke="none" /><path d="M 113.34407831869373 83.78471172551755 l 11.538549103020513 -14.021268124051605 a39.15858131048131,39.15858131048131 0 0,0 0.5167859844558792,0.4327934000125109 l -11.778192624435508 13.820573566645276" fill="#ff6209" stroke="none" /><path d="M 113.89432698308785 84.25364557470407 l 12.04249842864514 -13.647688632513661 a39.20113110259808,39.20113110259808 0 0,0 0.5021273114479989,0.45081485803057914 l -12.275636727689129 13.438374765713785" fill="#ff6309" stroke="none" /><path d="M 114.42810811169701 84.74124197986012 l 25.70132003663952 -27.180987292389275 a58.40807294976307,58.40807294976307 0 0,0 0.7245848434153109,0.6970500452777101 l -26.16538812366725 26.734554160349266" fill="#7cff26" stroke="none" /><path d="M 114.94478906791727 85.2469230424477 l 44.8343672037518 -44.25923087265689 a84.0,84.0 0 0,0 1.0069429451875638,1.0377432177995427 l -45.58957441264248 43.480923459307235" fill="#4dd2ff" stroke="none" /><path d="M 115.9244219780498 86.31012108654704 l 30.584118897533173 -26.29250122604155 a61.33217015559468,61.33217015559468 0 0,0 0.6813402071001153,0.8064918994424894 l -31.032169718120404 25.762150376969956" fill="#57ff2a" stroke="none" /><path d="M 116.82858285166822 87.43820079747576 l 14.489342923039471 -10.81565916631505 a39.08091650175203,39.08091650175203 0 0,0 0.39776442826940883,0.5425502331428183 l -14.673369963822507 10.564646489500738" fill="#ff6109" stroke="none" /><line stroke="#e1ed5e" stroke-width="0.3" x1="172.23445277983987" x2="176.4835382374775" y1="55.19839476539836" y2="52.563006222186495" /><path d="M 173.08426987136738 54.67131705675599 a86.0,86.0 0 0,1 12.851231095245387,41.99856678651699" fill="none" id="id27" stroke="none" /><text fill="#e1ed5e" style="font-size:6.75px; font-family:Arial;" text-anchor="middle"><textPath startOffset="22.20632615414155" xlink:href="#id27">March</textPath></text><path d="M 119.34039704204932 91.81776055985345 l 14.121432387351039 -5.974279678950336 a36.333195047114145,36.333195047114145 0 0,0 0.23872347441121797,0.5780878286629016 l -14.222177548648453 5.730317279834131" fill="#ff3204" stroke="none" /><path d="M 119.85752413597 93.16781622104841 l 11.823088174901763 -4.067854113764233 a33.503313604095936,33.503313604095936 0 0,0 0.1829324097837482,0.5469446211768016 l -11.891357878457281 3.863736389665118" fill="#ff0000" stroke="none" /><path d="M 120.28053869075195 94.5502522615342 l 17.60020401972561 -4.72949330960202 a39.22457924072695,39.22457924072695 0 0,0 0.16960646075723737,0.6535628801272724 l -17.67900681235315 4.425834003925898" fill="#ff6309" stroke="none" /><path d="M 120.37134235888165 94.90015583598534 l 17.351350678513878 -4.343807243365601 a38.88681167050963,38.88681167050963 0 0,0 0.15696791105209465,0.6507333292712593 l -17.423551389826795 4.044488682434936" fill="#ff5e08" stroke="none" /><path d="M 120.53481517161879 95.60439243477599 l 17.70097414110854 -3.7890059002833376 a39.10196263548721,39.10196263548721 0 0,0 0.13521962179497926,0.659378898143557 l -17.763573058818515 3.4837513459763687" fill="#ff6109" stroke="none" /><path d="M 120.6074358757038 95.95851677861258 l 42.18433302465747 -8.273094971780434 a63.98792915630277,63.98792915630277 0 0,0 0.20267194220660414,1.0826816193812778 l -42.32049069077394 7.545735274936594" fill="#36ff2e" stroke="none" /><path d="M 120.83666639777658 97.38593545837742 l 18.292507879557164 -2.2948870665033287 a39.435898436790794,39.435898436790794 0 0,0 0.07870212297486771,0.6742717270721375 l -18.329300355535622 1.9796716011063387" fill="#ff6709" stroke="none" /><path d="M 120.91429891909075 98.10471618934814 l 27.316324576887055 -2.475444572030457 a48.428259409212224,48.428259409212224 0 0,0 0.06808901698954291,0.830858470428147 l -27.354888077696092 2.0048721843945416" fill="#fff617" stroke="none" /><line stroke="#e1ed5e" stroke-width="0.3" x1="184.98032266829074" x2="189.97916517819016" y1="98.17113171792111" y2="98.06355123074" /><path d="M 185.9800911702706 98.14961562048488 a86.0,86.0 0 0,1 -9.607161424134198,41.387399972396054" fill="none" id="id28" stroke="none" /><text fill="#e1ed5e" style="font-size:6.75px; font-family:Arial;" text-anchor="middle"><textPath startOffset="21.466115282336823" xlink:href="#id28">April</textPath></text><path d="M 120.99513854157772 99.54816195383933 l 17.473109613319345 -0.37604018151147217 a38.47715554022405,38.47715554022405 0 0,0 0.008551076716037012,0.6622903152742372 l -17.476993697153098 0.07521360817677222" fill="#ff5708" stroke="none" /><path d="M 120.99824983174949 100.27111621757518 l 18.329997852820476 0.23666542334894725 a39.331525626826924,39.331525626826924 0 0,0 -0.014567530515642031,0.6768959010498732 l -18.32320825961983 -0.5521511401889353" fill="#ff6509" stroke="none" /><path d="M 120.9904718944345 100.63252640178507 l 17.751504771676398 0.534923440309891 a38.75956262822491,38.75956262822491 0 0,0 -0.025835771829302946,0.6667064722428784 l -17.739666866995893 -0.8404071595667756" fill="#ff5c08" stroke="none" /><path d="M 120.9764740272857 100.99374915477107 l 39.854767471072705 1.8880981349133183 a60.899466221245845,60.899466221245845 0 0,0 -0.05861906863490597,1.0466828485391964 l -39.81636205155027 -2.5738526997879383" fill="#5cff2a" stroke="none" /><path d="M 120.95626037817324 101.35467743843564 l 17.0664160101528 1.1032258765018332 a38.102036801684854,38.102036801684854 0 0,0 -0.047942234961836507,0.6541337057712415 l -17.04489721652663 -1.396832718769845" fill="#ff5007" stroke="none" /><path d="M 120.92983693683757 101.71520430193887 l 15.16222078338696 1.2425470104279623 a36.21304907496505,36.21304907496505 0 0,0 -0.05626025457661039,0.6208272211614947 l -15.138585932533275 -1.5033556201380276" fill="#ff3004" stroke="none" /><path d="M 120.8583938346157 102.4346265915055 l 24.60420599563247 2.8718440477634086 a45.7712422157265,45.7712422157265 0 0,0 -0.09807794379069733,0.7817777117615418 l -24.551126542594922 -3.294939513812345" fill="#ffcd13" stroke="none" /><line stroke="#e1ed5e" stroke-width="0.3" x1="174.80103733775053" x2="179.2010983576182" y1="140.37084112569926" y2="142.7455964860345" /><path d="M 175.68104954172406 140.8457921977663 a86.0,86.0 0 0,1 -30.038265399797805,32.042727171017184" fill="none" id="id29" stroke="none" /><text fill="#e1ed5e" style="font-size:6.75px; font-family:Arial;" text-anchor="middle"><textPath startOffset="22.206326154141568" xlink:href="#id29">May</textPath></text><line stroke="#e1ed5e" stroke-width="0.3" x1="143.8653032363475" x2="146.44561519142675" y1="172.8068346515853" y2="177.08958963109032" /><path d="M 144.38136562736335 173.6633856474863 a86.0,86.0 0 0,1 -40.68145358897372,12.25698825130547" fill="none" id="id30" stroke="none" /><text fill="#e1ed5e" style="font-size:6.75px; font-family:Arial;" text-anchor="middle"><textPath startOffset="21.466115282336833" xlink:href="#id30">June</textPath></text><line stroke="#e1ed5e" stroke-width="0.3" x1="102.19456741930631" x2="102.32365962044197" y1="184.97166512339345" y2="189.96999836594603" /><path d="M 102.22038585953345 185.97133177190398 a86.0,86.0 0 0,1 -42.740103519485714,-10.115201625700543" fill="none" id="id31" stroke="none" /><text fill="#e1ed5e" style="font-size:6.75px; font-family:Arial;" text-anchor="middle"><textPath startOffset="22.20632615414155" xlink:href="#id31">July</textPath></text><line stroke="#e1ed5e" stroke-width="0.3" x1="58.666819895761336" x2="56.23545636021788" y1="174.27360380694188" y2="178.64263932499728" /><path d="M 58.180547188652646 175.14741091055294 a86.0,86.0 0 0,1 -31.652253787137756,-30.449443065178592" fill="none" id="id32" stroke="none" /><text fill="#e1ed5e" style="font-size:6.75px; font-family:Arial;" text-anchor="middle"><textPath startOffset="22.20632615414155" xlink:href="#id32">August</textPath></text><line stroke="#e1ed5e" stroke-width="0.3" x1="26.63291911575756" x2="22.317208475507996" y1="142.92168965132927" y2="145.44649492493687" /><path d="M 25.769776987707644 143.4266507060508 a86.0,86.0 0 0,1 -11.730757126820373,-40.83630448921669" fill="none" id="id33" stroke="none" /><text fill="#e1ed5e" style="font-size:6.75px; font-family:Arial;" text-anchor="middle"><textPath startOffset="21.46611528233685" xlink:href="#id33">September</textPath></text><line stroke="#e1ed5e" stroke-width="0.3" x1="15.007084014347285" x2="10.007500721073583" y1="101.09737516637583" y2="101.16192664675087" /><path d="M 14.007167355692545 101.11028546245083 a86.0,86.0 0 0,1 10.666146001902534,-42.60595125391555" fill="none" id="id34" stroke="none" /><text fill="#e1ed5e" style="font-size:6.75px; font-family:Arial;" text-anchor="middle"><textPath startOffset="22.20632615414155" xlink:href="#id34">October</textPath></text><line stroke="#e1ed5e" stroke-width="0.3" x1="26.266209847984243" x2="21.928928074336255" y1="57.711370442889674" y2="55.22380399835377" /><path d="M 25.398753493254645 57.213857153982495 a86.0,86.0 0 0,1 29.58750427330803,-30.492523968695096" fill="none" id="id35" stroke="none" /><text fill="#e1ed5e" style="font-size:6.75px; font-family:Arial;" text-anchor="middle"><textPath startOffset="21.46611528233685" xlink:href="#id35">November</textPath></text><line stroke="#e1ed5e" stroke-width="0.3" x1="56.762969772571076" x2="54.21961505331055" y1="26.818313649435495" y2="22.513508569990535" /><path d="M 56.25429882871897 25.957352633546506 a86.0,86.0 0 0,1 42.265352541879196,-11.944610805530505" fill="none" id="id36" stroke="none" /><text fill="#e1ed5e" style="font-size:6.75px; font-family:Arial;" text-anchor="middle"><textPath startOffset="22.20632615414155" xlink:href="#id36">December</textPath></text></svg>