<?xml version="1.0" encoding="utf-8" ?>
<svg baseProfile="full" height="200mm" version="1.1" viewBox="0,0,200,200" width="200mm" xmlns="http://www.w3.org/2000/svg" xmlns:ev="http://www.w3.org/2001/xml-events" xmlns:xlink="http://www.w3.org/1999/xlink"><defs /><rect fill="#1a1a1a" height="200" width="200" x="0" y="0" /><text alignment-baseline="middle" fill="#e1ed5e" style="dominant-baseline: central; font-size:9.0px; font-family:Arial;" text-anchor="middle" x="100.0" y="100.0">2026</text><line stroke="#e1ed5e" stroke-width="0.3" x1="100.0" x2="100.0" y1="15.0" y2="10.0" /><path d="M 100.0 14.0 a86.0,86.0 0 0,1 42.46469731375804,11.215312516191453" fill="none" id="id25" stroke="none" /><text fill="#e1ed5e" style="font-size:6.75px; font-family:Arial;" text-anchor="middle"><textPath startOffset="22.20632615414155" xlink:href="#id25">January</textPath></text><path d="M 100.36148047927253 79.00311137660856 l 0.7330203133736659 -42.57808308090302 a63.584392418163,63.584392418163 0 0,0 1.0941764684400714,0.028259350044785088 l -1.465823417008605 42.55915693871587" fill="#57ff2a" stroke="none" /><path d="M 102.52436894288641 79.15227682838746 l 2.253019562091438 -18.606760419498485 a39.74266871221337,39.74266871221337 0 0,0 0.6784362563390733,0.08808049732374335 l -2.5729705469383575 18.565221599010602" fill="#ff1802" stroke="none" /><path d="M 103.2404852339499 79.25152402106235 l 6.273382674013412 -40.1677897972681 a61.65472503131865,61.65472503131865 0 0,0 1.047163796295704,0.17279099883442708 l -6.963875676447992 40.05385253549405" fill="#72ff27" stroke="none" /><path d="M 104.307194497241 79.44645832069477 l 4.153773322489516 -19.821429741531677 a41.25198533016213,41.25198533016213 0 0,0 0.6937351791646993,0.15162364020169902 l -4.494351225807743 19.746992603234105" fill="#ff3505" stroke="none" /><path d="M 105.01212808612495 79.60689891045804 l 4.828628816245852 -19.646488254394967 a41.23116795875016,41.23116795875016 0 0,0 0.6877576973849991,0.1753247506273603 l -5.166095402315877 19.56046050759874" fill="#ff3505" stroke="none" /><path d="M 105.71112130821622 79.79150937346287 l 10.760853106446366 -38.07669061806093 a60.56804680549756,60.56804680549756 0 0,0 1.0008430826139516,0.292173540739385 l -11.414686406783744 37.88581874840284" fill="#81ff25" stroke="none" /><path d="M 106.40334571778207 80.00007090966166 l 5.5475220947285155 -17.32688713238575 a39.1932959930282,39.1932959930282 0 0,0 0.6407491317782862,0.2112449146407744 l -5.844954048749219 17.22882849348574" fill="#ff0d01" stroke="none" /><path d="M 108.09893153111575 80.62456947434976 l 15.320602573456954 -36.652152155213855 a60.725320902703395,60.725320902703395 0 0,0 0.9609528785411244,0.41142987250703067 l -15.949239209788395 36.38300275474403" fill="#7fff26" stroke="none" /><path d="M 108.76106565485865 80.91482961587045 l 7.52954731538967 -16.402421701963107 a39.04808910837161,39.04808910837161 0 0,0 0.6084469315892402,0.28567399276378025 l -7.8107724582785085 16.270382726559323" fill="#ff0a01" stroke="none" /><path d="M 109.73455568895987 81.39251694778311 l 8.125823994931222 -15.532412274600267 a38.529542112238786,38.529542112238786 0 0,0 0.5850159694039702,0.31249527046956216 l -8.391985010863502 15.390238277628951" fill="#ff0000" stroke="none" /><line stroke="#e1ed5e" stroke-width="0.3" x1="143.23703022742887" x2="145.7803849466894" y1="26.81831364943548" y2="22.513508569990506" /><path d="M 143.74570117128098 25.957352633546492 a86.0,86.0 0 0,1 28.547481713284135,27.462654790039103" fill="none" id="id26" stroke="none" /><text fill="#e1ed5e" style="font-size:6.75px; font-family:Arial;" text-anchor="middle"><textPath startOffset="19.985693538727396" xlink:href="#id26">February</textPath></text><path d="M 110.68208982089419 81.91981866633111 l 20.28295720217465 -34.330318350353 a60.87441674685452,60.87441674685452 0 0,0 0.8975727915096419,0.5407775638740479 l -20.870892059901927 33.976094177020336" fill="#7dff26" stroke="none" /><path d="M 113.34407831869373 83.78471172551755 l 11.538549103020513 -14.021268124051605 a39.15858131048131,39.15858131048131 0 0,0 0.5167859844558792,0.4327934000125109 l -11.778192624435508 13.820573566645276" fill="#ff0c01" stroke="none" /><path d="M 113.89432698308785 84.25364557470407 l 12.04249842864514 -13.647688632513661 a39.20113110259808,39.20113110259808 0 0,0 0.5021273114479989,0.45081485803057914 l -12.275636727689129 13.438374765713785" fill="#ff0d01" stroke="none" /><path d="M 114.42810811169701 84.74124197986012 l 25.70132003663952 -27.180987292389275 a58.40807294976307,58.40807294976307 0 0,0 0.7245848434153109,0.6970500452777101 l -26.16538812366725 26.734554160349266" fill="#a2ff22" stroke="none" /><path d="M 114.94478906791727 85.2469230424477 l 44.8343672037518 -44.25923087265689 a84.0,84.0 0 0,0 1.0069429451875638,1.0377432177995427 l -45.58957441264248 43.480923459307235" fill="#4dd2ff" stroke="none" /><line stroke="#e1ed5e" stroke-width="0.3" x1="172.23445277983987" x2="176.4835382374775" y1="55.19839476539836" y2="52.563006222186495" /><path d="M 173.08426987136738 54.67131705675599 a86.0,86.0 0 0,1 12.851231095245387,41.99856678651699" fill="none" id="id27" stroke="none" /><text fill="#e1ed5e" style="font-size:6.75px; font-family:Arial;" text-anchor="middle"><textPath startOffset="22.20632615414155" xlink:href="#id27">March</textPath></text><line stroke="#e1ed5e" stroke-width="0.3" x1="184.98032266829074" x2="189.97916517819016" y1="98.17113171792111" y2="98.06355123074" /><path d="M 185.9800911702706 98.14961562048488 a86.0,86.0 0 0,1 -9.607161424134198,41.387399972396054" fill="none" id="id28" stroke="none" /><text fill="#e1ed5e" style="font-size:6.75px; font-family:Arial;" text-anchor="middle"><textPath startOffset="21.466115282336823" xlink:href="#id28">April</textPath></text><line stroke="#e1ed5e" stroke-width="0.3" x1="174.80103733775053" x2="179.2010983576182" y1="140.37084112569926" y2="142.7455964860345" /><path d="M 175.68104954172406 140.8457921977663 a86.0,86.0 0 0,1 -30.038265399797805,32.042727171017184" fill="none" id="id29" stroke="none" /><text fill="#e1ed5e" style="font-size:6.75px; font-family:Arial;" text-anchor="middle"><textPath startOffset="22.206326154141568" xlink:href="#id29">May</textPath></text><line stroke="#e1ed5e" stroke-width="0.3" x1="143.8653032363475" x2="146.44561519142675" y1="172.8068346515853" y2="177.08958963109032" /><path d="M 144.38136562736335 173.6633856474863 a86.0,86.0 0 0,1 -40.68145358897372,12.25698825130547" fill="none" id="id30" stroke="none" /><text fill="#e1ed5e" style="font-size:6.75px; font-family:Arial;" text-anchor="middle"><textPath startOffset="21.466115282336833" xlink:href="#id30">June</textPath></text><line stroke="#e1ed5e" stroke-width="0.3" x1="102.19456741930631" x2="102.32365962044197" y1="184.97166512339345" y2="189.96999836594603" /><path d="M 102.22038585953345 185.97133177190398 a86.0,86.0 0 0,1 -42.740103519485714,-10.115201625700543" fill="none" id="id31" stroke="none" /><text fill="#e1ed5e" style="font-size:6.75px; font-family:Arial;" text-anchor="middle"><textPath startOffset="22.20632615414155" xlink:href="#id31">July</textPath></text><line stroke="#e1ed5e" stroke-width="0.3" x1="58.666819895761336" x2="56.23545636021788" y1="174.27360380694188" y2="178.64263932499728" /><path d="M 58.180547188652646 175.14741091055294 a86.0,86.0 0 0,1 -31.652253787137756,-30.449443065178592" fill="none" id="id32" stroke="none" /><text fill="#e1ed5e" style="font-size:6.75px; font-family:Arial;" text-anchor="middle"><textPath startOffset="22.20632615414155" xlink:href="#id32">August</textPath></text><line stroke="#e1ed5e" stroke-width="0.3" x1="26.63291911575756" x2="22.317208475507996" y1="142.92168965132927" y2="145.44649492493687" /><path d="M 25.769776987707644 143.4266507060508 a86.0,86.0 0 0,1 -11.730757126820373,-40.83630448921669" fill="none" id="id33" stroke="none" /><text fill="#e1ed5e" style="font-size:6.75px; font-family:Arial;" text-anchor="middle"><textPath startOffset="21.46611528233685" xlink:href="#id33">September</textPath></text><line stroke="#e1ed5e" stroke-width="0.3" x1="15.007084014347285" x2="10.007500721073583" y1="101.09737516637583" y2="101.16192664675087" /><path d="M 14.007167355692545 101.11028546245083 a86.0,86.0 0 0,1 10.666146001902534,-42.60595125391555" fill="none" id="id34" stroke="none" /><text fill="#e1ed5e" style="font-size:6.75px; font-family:Arial;" text-anchor="middle"><textPath startOffset="22.20632615414155" xlink:href="#id34">October</textPath></text><line stroke="#e1ed5e" stroke-width="0.3" x1="26.266209847984243" x2="21.928928074336255" y1="57.711370442889674" y2="55.22380399835377" /><path d="M 25.398753493254645 57.213857153982495 a86.0,86.0 0 0,1 29.58750427330803,-30.492523968695096" fill="none" id="id35" stroke="none" /><text fill="#e1ed5e" style="font-size:6.75px; font-family:Arial;" text-anchor="middle"><textPath startOffset="21.46611528233685" xlink:href="#id35">November</textPath></text><line stroke="#e1ed5e" stroke-width="0.3" x1="56.762969772571076" x2="54.21961505331055" y1="26.818313649435495" y2="22.513508569990535" /><path d="M 56.25429882871897 25.957352633546506 a86.0,86.0 0 0,1 42.265352541879196,-11.944610805530505" fill="none" id="id36" stroke="none" /><text fill="#e1ed5e" style="font-size:6.75px; font-family:Arial;" text-anchor="middle"><textPath startOffset="22.20632615414155" xlink:href="#id36">December</textPath></text></svg>