<?xml version="1.0" encoding="utf-8" ?>
<svg baseProfile="full" height="200mm" version="1.1" viewBox="0,0,200,200" width="200mm" xmlns="http://www.w3.org/2000/svg" xmlns:ev="http://www.w3.org/2001/xml-events" xmlns:xlink="http://www.w3.org/1999/xlink"><defs /><rect fill="#1a1a1a" height="200" width="200" x="0" y="0" /><rect fill="#1a1a1a" height="200" width="180" x="10" y="0" /><text alignment-baseline="middle" fill="#e1ed5e" style="dominant-baseline: central; font-size:9.0px; font-family:Arial;" text-anchor="middle" x="100.0" y="100.0">2025</text><line stroke="#e1ed5e" stroke-width="0.3" x1="100.0" x2="100.0" y1="15.0" y2="10.0" /><path d="M 100.0 14.0 a86.0,86.0 0 0,1 42.46469731375804,11.215312516191453" fill="none" id="id13" stroke="none" /><text fill="#e1ed5e" style="font-size:6.75px; font-family:Arial;" text-anchor="middle"><textPath startOffset="22.20632615414155" xlink:href="#id13">January</textPath></text><path d="M 103.59715602781102 79.31037775812273 l 0.8712420480465622 -5.011088959155321 a26.08626338905613,26.08626338905613 0 0,0 0.4417334539687207,0.08072396522360308 l -0.9573706231181839 4.99534951258098" fill="#ff4406" stroke="none" /><line stroke="#e1ed5e" stroke-width="0.3" x1="143.23703022742887" x2="145.7803849466894" y1="26.81831364943548" y2="22.513508569990506" /><path d="M 143.74570117128098 25.957352633546492 a86.0,86.0 0 0,1 28.547481713284135,27.462654790039103" fill="none" id="id14" stroke="none" /><text fill="#e1ed5e" style="font-size:6.75px; font-family:Arial;" text-anchor="middle"><textPath startOffset="19.985693538727396" xlink:href="#id14">February</textPath></text><path d="M 114.68862486808459 84.99185889309783 l 0.2071741258125113 -0.2116807081545905 a21.29619223590602,21.29619223590602 0 0,0 0.2597772401711307,0.25866167414490077 l -0.2107871661509645 0.20808318335957107" fill="#ff0000" stroke="none" /><line stroke="#e1ed5e" stroke-width="0.3" x1="172.23445277983987" x2="176.4835382374775" y1="55.19839476539836" y2="52.563006222186495" /><path d="M 173.08426987136738 54.67131705675599 a86.0,86.0 0 0,1 12.851231095245387,41.99856678651699" fill="none" id="id15" stroke="none" /><text fill="#e1ed5e" style="font-size:6.75px; font-family:Arial;" text-anchor="middle"><textPath startOffset="22.20632615414155" xlink:href="#id15">March</textPath></text><path d="M 117.84615892207809 88.93136811851018 l 0.8159618631162955 -0.5060798534633458 a21.9601617468644,21.9601617468644 0 0,0 0.19647464091976286,0.3229526501436572 l -0.8245523023222823 0.4919594301126072" fill="#ff0a01" stroke="none" /><line stroke="#e1ed5e" stroke-width="0.3" x1="184.98032266829074" x2="189.97916517819016" y1="98.17113171792111" y2="98.06355123074" /><path d="M 185.9800911702706 98.14961562048488 a86.0,86.0 0 0,1 -9.607161424134198,41.387399972396054" fill="none" id="id16" stroke="none" /><text fill="#e1ed5e" style="font-size:6.75px; font-family:Arial;" text-anchor="middle"><textPath startOffset="21.466115282336823" xlink:href="#id16">April</textPath></text><path d="M 120.99980553446 99.90962569577887 l 0.5173242150536366 -0.0022263451876016103 a21.517329005656705,21.517329005656705 0 0,0 -0.001594027002702646,0.3703957376151349 l -0.5172858907614309 -0.006678870631217981" fill="#ff0300" stroke="none" /><path d="M 120.99824983174949 100.27111621757518 l 0.8949870206599858 0.011555510471798362 a21.89506161629918,21.89506161629918 0 0,0 -0.008109448417117828,0.3768142024777844 l -0.8946555095578606 -0.026959528739697623" fill="#ff0901" stroke="none" /><path d="M 120.9904718944345 100.63252640178507 l 6.0144426796276225 0.1812390786648347 a27.01717278712865,27.01717278712865 0 0,0 -0.018008704543348342,0.4647246443840422 l -6.0104318422330705 -0.2847409700628831" fill="#ff5107" stroke="none" /><path d="M 120.9764740272857 100.99374915477107 l 5.8078486610608175 0.2751437010080891 a26.814362400641222,26.814362400641222 0 0,0 -0.02581029108291377,0.46086008565825687 l -5.802252019090375 -0.3750755030017693" fill="#ff4e07" stroke="none" /><path d="M 120.95626037817324 101.35467743843564 l 10.62989539327249 0.6871492910631823 a31.652081966457278,31.652081966457278 0 0,0 -0.03982652052344091,0.5434012302244754 l -10.616492314084711 -0.8700236577844279" fill="#ff8f0d" stroke="none" /><path d="M 120.92983693683757 101.71520430193887 l 1.5351702687540902 0.12580750901796203 a22.540316617904192,22.540316617904192 0 0,0 -0.03501842522388915,0.38642540430730704 l -1.5327772472531258 -0.1522143018738396" fill="#ff1202" stroke="none" /><path d="M 120.89721153311464 102.0752229133903 l 1.444539371107865 0.14345173266141759 a22.45164472040657,22.45164472040657 0 0,0 -0.041501008360106784,0.3842477948690488 l -1.4418560612467062 -0.16829584941525783" fill="#ff1101" stroke="none" /><path d="M 120.8583938346157 102.4346265915055 l 0.5391342064466387 0.0629286456959542 a21.542794350569324,21.542794350569324 0 0,0 -0.0461615824943403,0.3679532312660489 l -0.5379711147054502 -0.07219963124939802" fill="#ff0400" stroke="none" /><path d="M 120.70491114924044 103.5080841355445 l 11.491374700016678 1.9470119427295787 a32.655151135927625,32.655151135927625 0 0,0 -0.09867073883457575,0.5533979038690232 l -11.456157518842913 -2.14452859733182" fill="#ff9c0e" stroke="none" /><path d="M 120.64145759157962 103.86396538481128 l 61.924372774738885 11.591896154433844 a84.0,84.0 0 0,0 -0.2782802680973435,1.4189450917282203 l -61.715662573665874 -12.656104973230008" fill="#4dd2ff" stroke="none" /><path d="M 120.41448212921028 104.9243191809786 l 2.076556844192695 0.5009007151652909 a23.13611559931026,23.13611559931026 0 0,0 -0.09671853241814228,0.3863424592934162 l -2.0676269974794916 -0.536571013856103" fill="#ff1a02" stroke="none" /><path d="M 120.32669344350535 105.2749913415812 l 3.141832033505503 0.815338550734101 a24.24590287579196,24.24590287579196 0 0,0 -0.10831213283849901,0.4030697393944772 l -3.127331824325227 -0.8692992233041265" fill="#ff2a04" stroke="none" /><path d="M 120.13307415673323 105.97154293290107 l 4.766067378451595 1.4136328982826836 a25.971293214752833,25.971293214752833 0 0,0 -0.13081273835780877,0.42750359772770613 l -4.741027867587654 -1.4954634685624468" fill="#ff4206" stroke="none" /><path d="M 120.02730092923936 106.31721596034902 l 3.732885454888014 1.1774648844141025 a24.9141866809521,24.9141866809521 0 0,0 -0.1325289386614362,0.40788213271761403 l -3.712064265210331 -1.2415459171095118" fill="#ff3304" stroke="none" /><path d="M 119.79798401119884 107.00284435728193 l 1.699503447119957 0.6011398998056117 a22.80268720134995,22.80268720134995 0 0,0 -0.13407517396444493,0.36891729575422594 l -1.6889040121502854 -0.6303049925659686" fill="#ff1602" stroke="none" /><path d="M 119.26925614724726 108.34839909993367 l 3.439488132734125 1.4901571400643876 a24.748419255806873,24.748419255806873 0 0,0 -0.17271911813079685,0.38943601486941815 l -3.413327929872055 -1.5491414914264934" fill="#ff3104" stroke="none" /><path d="M 118.81262510543309 109.33194174019688 l 2.8164161788010684 1.3970741217358897 a24.14388552492557,24.14388552492557 0 0,0 -0.18788694709578002,0.37071877145926346 l -2.7919505619190197 -1.4453471048978477" fill="#ff2903" stroke="none" /><path d="M 118.64920377521936 109.65438752849418 l 4.559435607017405 2.360345181055505 a26.134168134008675,26.134168134008675 0 0,0 -0.2102524836128425,0.39771846327826627 l -4.518130615179669 -2.4384786594199057" fill="#ff4406" stroke="none" /><line stroke="#e1ed5e" stroke-width="0.3" x1="174.80103733775053" x2="179.2010983576182" y1="140.37084112569926" y2="142.7455964860345" /><path d="M 175.68104954172406 140.8457921977663 a86.0,86.0 0 0,1 -30.038265399797805,32.042727171017184" fill="none" id="id17" stroke="none" /><text fill="#e1ed5e" style="font-size:6.75px; font-family:Arial;" text-anchor="middle"><textPath startOffset="22.206326154141568" xlink:href="#id17">May</textPath></text><path d="M 118.48025628344425 109.97397251340804 l 5.886376558295608 3.176934188331922 a27.688971507118584,27.688971507118584 0 0,0 -0.22998142042221287,0.41748308068556683 l -5.830818728421885 -3.2777877874152943" fill="#ff5a08" stroke="none" /><path d="M 118.30583269289576 110.29060199501025 l 0.628703297701452 0.3534248082638107 a21.721232924676205,21.721232924676205 0 0,0 -0.18602478012439172,0.32434988422225736 l -0.6225265214246807 -0.36419453834438315" fill="#ff0601" stroke="none" /><path d="M 118.12598468904814 110.60418214915192 l 3.418317027428128 1.99980619118017 a24.960317676940527,24.960317676940527 0 0,0 -0.22014896106747542,0.3689823216936704 l -3.383387190662425 -2.0583506067599444" fill="#ff3404" stroke="none" /><path d="M 117.94076556474637 110.91462005526583 l 9.511807058889337 5.786696209373288 a32.1337471924376,32.1337471924376 0 0,0 -0.29155310000617546,0.47007642973798447 l -9.4107893192152 -5.9495689704765455" fill="#ff950d" stroke="none" /><path d="M 117.14729908036423 112.12312394758627 l 3.044449730494215 2.1524230295394715 a24.7284848208888,24.7284848208888 0 0,0 -0.2487216999097565,0.3454526873600275 l -3.0069482382088557 -2.2045093223506305" fill="#ff3104" stroke="none" /><path d="M 116.498646956653 112.99209946851258 l 4.215797900193196 3.3197913624286546 a26.366000990060407,26.366000990060407 0 0,0 -0.2838514549807926,0.3541483342449684 l -4.158028533157549 -3.3918675302518735" fill="#ff4806" stroke="none" /><path d="M 116.27256486870786 113.27417163493432 l 3.488694737543945 2.845865608875447 a25.50221523647491,25.50221523647491 0 0,0 -0.28040778617513723,0.33776924222319904 l -3.4391909514752648 -2.905496108212416" fill="#ff3c05" stroke="none" /><path d="M 115.32070863581623 114.36230785411682 l 3.352501202987783 3.1427824589030364 a25.59525253930871,25.59525253930871 0 0,0 -0.3040879916361165,0.31883504350269865 l -3.297906659972702 -3.200024618988242" fill="#ff3d05" stroke="none" /><path d="M 115.07121518719521 114.62390073753431 l 4.780505652430654 4.6386199963334205 a27.661083227471767,27.661083227471767 0 0,0 -0.3345138765112161,0.3388607908123385 l -4.699951150863902 -4.720221281126424" fill="#ff5908" stroke="none" /><path d="M 114.81725581225074 114.88116024355365 l 6.638326735299497 6.666956766406304 a30.408277970474877,30.408277970474877 0 0,0 -0.3740942886591558,0.3661299978636378 l -6.522582494264547 -6.780236867192514" fill="#ff7e0b" stroke="none" /><path d="M 113.75828350139079 115.86535959552629 l 3.094322954510965 3.5682173850426286 a25.723029732463466,25.723029732463466 0 0,0 -0.3370139774493228,0.28721062294441146 l -3.032443500484595 -3.6209523982099867" fill="#ff3f05" stroke="none" /><path d="M 113.20401910651253 116.32954008644616 l 4.566146703901587 5.646998466185098 a28.262113149672633,28.262113149672633 0 0,0 -0.38092282699948876,0.30262813171005454 l -4.468266384184747 -5.724760511900278" fill="#ff6209" stroke="none" /><path d="M 112.92097659922987 116.55440617244103 l 13.856690637782325 17.753246688596413 a43.52078247791057,43.52078247791057 0 0,0 -0.5945172479236326,0.4558504741918576 l -13.549044661365198 -17.989136504615644" fill="#dcff1b" stroke="none" /><path d="M 111.45004920935366 117.60387380957326 l 2.890722850637751 4.444340749165162 a26.301739647878723,26.301739647878723 0 0,0 -0.38164850993011457,0.24358613611167457 l -2.813792538660706 -4.493441314100646" fill="#ff4706" stroke="none" /><path d="M 111.1453310114006 117.79835938074945 l 2.570678622332853 4.105204405852838 a25.843665119839798,25.843665119839798 0 0,0 -0.37906601937593054,0.2328533095285169 l -2.4996334030246135 -4.148846182209733" fill="#ff4006" stroke="none" /><line stroke="#e1ed5e" stroke-width="0.3" x1="143.8653032363475" x2="146.44561519142675" y1="172.8068346515853" y2="177.08958963109032" /><path d="M 144.38136562736335 173.6633856474863 a86.0,86.0 0 0,1 -40.68145358897372,12.25698825130547" fill="none" id="id18" stroke="none" /><text fill="#e1ed5e" style="font-size:6.75px; font-family:Arial;" text-anchor="middle"><textPath startOffset="21.466115282336833" xlink:href="#id18">June</textPath></text><path d="M 110.8373102113329 117.98757091392108 l 2.401737558035072 3.986360434400635 a25.653967426898376,25.653967426898376 0 0,0 -0.3802066142305771,0.22463276937084375 l -2.332763072776113 -4.027111776065229" fill="#ff3e05" stroke="none" /><path d="M 110.5260780823613 118.17145234162733 l 4.418402324819006 7.627607038762622 a29.81491169789846,29.81491169789846 0 0,0 -0.44630258363666414,0.25342225477083685 l -4.286450974261143 -7.702532459328087" fill="#ff770a" stroke="none" /><path d="M 109.89434966115114 118.52300852407294 l 1.9127623214998573 3.580843006264378 a25.059691655047466,25.059691655047466 0 0,0 -0.38223081985678875,0.19996509960488265 l -1.8508405991165728 -3.6132375248139774" fill="#ff3605" stroke="none" /><path d="M 109.57404056367764 118.69057910512821 l 1.8816536151175547 3.673391135946445 a25.12727788801952,25.12727788801952 0 0,0 -0.3866562695277565,0.1938774803937026 l -1.8181434379070376 -3.705236457249449" fill="#ff3605" stroke="none" /><path d="M 108.92500713936063 119.00905698771935 l 2.5678577047239144 5.469189288396237 a27.042013295584354,27.042013295584354 0 0,0 -0.4230555631658295,0.19420405948438044 l -2.4733341457906652 -5.512580418214692" fill="#ff5107" stroke="none" /><path d="M 108.59647513512805 119.15986991738527 l 2.3504169030344593 5.238621807878119 a26.74174346902109,26.74174346902109 0 0,0 -0.42160182791423434,0.18481785162197517 l -2.2598944004624713 -5.278304212794549" fill="#ff4d07" stroke="none" /><path d="M 107.93186726928326 119.44442032107085 l 1.1572178676278553 2.836839026334667 a24.063789949473133,24.063789949473133 0 0,0 -0.3848818987896947,0.15315245058555277 l -1.1082148927962945 -2.8563383213262887" fill="#ff2803" stroke="none" /><path d="M 105.53697534728816 120.25689768951611 l 0.9313577706986691 3.407351105982248 a24.532346083905036,24.532346083905036 0 0,0 -0.4082994960276545,0.10783560787727522 l -0.8725678318595171 -3.4228780631631075" fill="#ff2e04" stroke="none" /><path d="M 105.18746579009965 120.34920634021253 l 1.0229175960447041 4.012664771818759 a25.14099492625784,25.14099492625784 0 0,0 -0.42026969938811476,0.10329206699861351 l -0.9536946119133781 -4.029678097131402" fill="#ff3705" stroke="none" /><path d="M 104.83641907484287 120.43548508189849 l 0.924891754506598 3.9079764096341436 a25.0159313211024,25.0159313211024 0 0,0 -0.4198862730885998,0.09556474872262605 l -0.857485332025136 -3.9233178919344542" fill="#ff3505" stroke="none" /><path d="M 104.48393922423573 120.51570834832081 l 1.0264336408495631 4.696319945809251 a25.807180780090707,25.807180780090707 0 0,0 -0.4348000436396065,0.09111657662631815 l -0.9454421357805787 -4.713292503162111" fill="#ff4006" stroke="none" /><path d="M 103.7750983002368 120.6578951692458 l 1.2099946588958106 6.621269389792845 a27.730920843893806,27.730920843893806 0 0,0 -0.47030457050380703,0.08176847797977921 l -1.0958411169199536 -6.64111644629363" fill="#ff5a08" stroke="none" /><path d="M 103.41894727170886 120.7198165907248 l 0.7836040033410296 4.748868566454576 a25.813085070462854,25.813085070462854 0 0,0 -0.43902420175198786,0.06856655132493199 l -0.7017439379805247 -4.761653425126613" fill="#ff4006" stroke="none" /><path d="M 102.70371172650421 120.8252237178851 l 0.5092674873663909 3.922610999051642 a24.955531623381287,24.955531623381287 0 0,0 -0.4264693306097911,0.0516394967653247 l -0.4416707337052196 -3.930796024542318" fill="#ff3404" stroke="none" /><path d="M 101.62511606390274 120.93702456842531 l 0.32121623063625276 4.138358029922671 a25.150805590563067,25.150805590563067 0 0,0 -0.43191986154126233,0.029787722466017796 l -0.2499336083160601 -4.143274096904974" fill="#ff3705" stroke="none" /><path d="M 101.26447882468166 120.96189622390904 l 0.4579090669656067 7.590987017229452 a28.60478563861963,28.60478563861963 0 0,0 -0.49174613885792534,0.02541765845440164 l -0.32717485969420174 -7.597744482446055" fill="#ff6609" stroke="none" /><line stroke="#e1ed5e" stroke-width="0.3" x1="102.19456741930631" x2="102.32365962044197" y1="184.97166512339345" y2="189.96999836594603" /><path d="M 102.22038585953345 185.97133177190398 a86.0,86.0 0 0,1 -42.740103519485714,-10.115201625700543" fill="none" id="id19" stroke="none" /><text fill="#e1ed5e" style="font-size:6.75px; font-family:Arial;" text-anchor="middle"><textPath startOffset="22.20632615414155" xlink:href="#id19">July</textPath></text><path d="M 100.54218724476979 120.99299961872073 l 0.10052388647499479 3.8921939436954034 a24.893491845001247,24.893491845001247 0 0,0 -0.4284529243862663,0.007376205647932094 l -0.03351127219606055 -3.893347626622495" fill="#ff3304" stroke="none" /><path d="M 99.81925306533755 120.99922214144158 l -0.03527335508973807 4.098066839067941 a25.09821864070813,25.09821864070813 0 0,0 -0.4319765680304366,-0.007436868368782138 l 0.1058096130128426 -4.096852493419998" fill="#ff3605" stroke="none" /><path d="M 99.45781275523022 120.99299961872073 l -0.1119472303691522 4.334495484958045 a25.33594087730783,25.33594087730783 0 0,0 -0.43587427667360995,-0.01501239140004341 l 0.1865418587174052 -4.3319262951319075" fill="#ff3905" stroke="none" /><path d="M 99.09653310690486 120.98055641714683 l -0.3261773988336905 7.574581172292965 a28.58160086203204,28.58160086203204 0 0,0 -0.49134756833508936,-0.025397056911006417 l 0.45651303558226886 -7.567844308619756" fill="#ff6609" stroke="none" /><path d="M 98.73552117531835 120.96189622390904 l -0.4564053032568671 7.566058376122547 a28.579811683131393,28.579811683131393 0 0,0 -0.49080687537440887,-0.0338489157129663 l 0.586574939410206 -7.557081115893296" fill="#ff6609" stroke="none" /><path d="M 98.01472825383883 120.90594882070398 l -0.4982816485258324 5.247166118452048 a26.270771943073306,26.270771943073306 0 0,0 -0.44981491679702384,-0.04662515530823923 l 0.5885291619284495 -5.237811594688049" fill="#ff4606" stroke="none" /><path d="M 96.93821686468263 120.77559828337769 l -0.6578367097730744 4.463722809318987 a25.511936441835108,25.511936441835108 0 0,0 -0.4339023212820208,-0.06776661893231514 l 0.7345748946636123 -4.4517378830395655" fill="#ff3c05" stroke="none" /><path d="M 96.22490169976321 120.6578951692458 l -0.9494465247022611 5.195511538036978 a26.281551745949724,26.281551745949724 0 0,0 -0.44432390519628395,-0.08515573393067277 l 1.03873804447024 -5.178398605757837" fill="#ff4606" stroke="none" /><path d="M 95.51606077576429 120.51570834832081 l -0.9555803449292214 4.372139469240303 a25.475347733316813,25.475347733316813 0 0,0 -0.4275974649144945,-0.09731979087671185 l 1.0306979592365786 -4.355042944785905" fill="#ff3b05" stroke="none" /><path d="M 94.81253420990036 120.34920634021253 l -0.9781500348357709 3.8370521745988904 a24.95976601344616,24.95976601344616 0 0,0 -0.41541317937563843,-0.10971439630473982 l 1.0440536570228987 -3.819646428990569" fill="#ff3404" stroke="none" /><path d="M 94.11515582081647 120.15858648285463 l -2.4037336525145756 8.234011171844806 a29.577696395320608,29.577696395320608 0 0,0 -0.4875038533728092,-0.1468809119661391 l 2.545112480327631 -8.191414890772942" fill="#ff730a" stroke="none" /><path d="M 93.08242187328487 119.8279376855182 l -2.029620811989104 5.817526632613636 a27.161410289992727,27.161410289992727 0 0,0 -0.440118887018809,-0.15781097420498122 l 2.1294592596376396 -5.781728117368696" fill="#ff5307" stroke="none" /><path d="M 92.7421414339146 119.70592522655815 l -1.3283709548710545 3.6066807408096637 a24.843529024200596,24.843529024200596 0 0,0 -0.4000160468804024,-0.15125184091765206 l 1.39025722251174 -3.5832806497853786" fill="#ff3204" stroke="none" /><path d="M 92.40401165467489 119.57807347666478 l -1.2848708874453019 3.311655507991032 a24.55217615005391,24.55217615005391 0 0,0 -0.39269326219575534,-0.15626075329299127 l 1.3416852256829153 -3.2890479102919743" fill="#ff2e04" stroke="none" /><path d="M 92.06813273071674 119.44442032107085 l -0.7893644109128571 1.935071890539972 a23.089880234552627,23.089880234552627 0 0,0 -0.36672066928613006,-0.1532892695035298 l 0.8225565396964495 -1.921197578016469" fill="#ff1a02" stroke="none" /><path d="M 91.7346041902142 119.30500536409082 l -5.627442094598994 13.143689948123548 a35.297716250522974,35.297716250522974 0 0,0 -0.5564925753497885,-0.2439499912240631 l 5.8528553446065255 -13.044875403605033" fill="#ffbe11" stroke="none" /><path d="M 90.7491055286396 118.85261126421891 l -1.344868910042797 2.7407393783232905 a24.052920687651685,24.052920687651685 0 0,0 -0.37012415852529196,-0.1855879367360722 l 1.3918469762508494 -2.717183600677916" fill="#ff2703" stroke="none" /><path d="M 90.42595943632237 118.69057910512821 l -1.1566946542702674 2.258115869921993 a23.53713023024262,23.53713023024262 0 0,0 -0.3590074733888262,-0.18781574233598228 l 1.1953930301855893 -2.237870708641294" fill="#ff2003" stroke="none" /><path d="M 90.10565033884886 118.52300852407294 l -1.3591786999694884 2.5444904928035608 a23.884752780814754,23.884752780814754 0 0,0 -0.36097503222798355,-0.1968323690060439 l 1.4027765440661124 -2.520717472037751" fill="#ff2503" stroke="none" /><line stroke="#e1ed5e" stroke-width="0.3" x1="58.666819895761336" x2="56.23545636021788" y1="174.27360380694188" y2="178.64263932499728" /><path d="M 58.180547188652646 175.14741091055294 a86.0,86.0 0 0,1 -31.652253787137756,-30.449443065178592" fill="none" id="id20" stroke="none" /><text fill="#e1ed5e" style="font-size:6.75px; font-family:Arial;" text-anchor="middle"><textPath startOffset="22.20632615414155" xlink:href="#id20">August</textPath></text><path d="M 89.7882731507175 118.34994917583269 l -1.6859129385196463 3.029499044903257 a24.467011234382966,24.467011234382966 0 0,0 -0.36624929291814096,-0.20796590703830978 l 1.7378109983589947 -3.000029972070314" fill="#ff2d04" stroke="none" /><path d="M 89.1626897886671 117.98757091392108 l -2.2461567999050303 3.7281303140909654 a25.352490782138844,25.352490782138844 0 0,0 -0.3718616425915798,-0.22842779288609055 l 2.3099976424289186 -3.6889140543764967" fill="#ff3a05" stroke="none" /><path d="M 88.8546689885994 117.79835938074946 l -1.8561976595636451 2.964225377678406 a24.49744218551819,24.49744218551819 0 0,0 -0.35546744939194186,-0.22687614456220664 l 1.9069469110025103 -2.9318348042923956" fill="#ff2e04" stroke="none" /><path d="M 88.24862548938628 117.40417183066458 l -1.640241271666446 2.4292512258925316 a23.93115215363828,23.93115215363828 0 0,0 -0.3394156624763454,-0.2334531876084761 l 1.6818138187656817 -2.400657248918954" fill="#ff2603" stroke="none" /><path d="M 87.95078237400918 117.19931262002967 l -2.5212664047315454 3.5989099408261582 a25.394193560348164,25.394193560348164 0 0,0 -0.3558484379107734,-0.2538884120873177 l 2.582842170491206 -3.554977266894621" fill="#ff3a05" stroke="none" /><path d="M 87.65650970185807 116.9893568818739 l -5.063980734862151 6.9699715290785935 a29.615358611179293,29.615358611179293 0 0,0 -0.4098413485167951,-0.30319083170988703 l 5.18320705379751 -6.88177074862894" fill="#ff740a" stroke="none" /><path d="M 87.36589467227662 116.77436683061367 l -3.641047974234498 4.834238181761147 a27.052031819866322,27.052031819866322 0 0,0 -0.3695452745237956,-0.2833515582859435 l 3.7237219772517802 -4.7708472816478364" fill="#ff5107" stroke="none" /><path d="M 87.07902340077011 116.55440617244103 l -5.515041144572704 7.065892462836144 a29.963398636828245,29.963398636828245 0 0,0 -0.4038531179465315,-0.3208453416460748 l 5.635851755236594 -6.969913207184939" fill="#ff790b" stroke="none" /><path d="M 86.51685102203217 116.09983520530335 l -2.553615470789077 3.0491978042071386 a24.977255237200016,24.977255237200016 0 0,0 -0.32724310552858304,-0.2788836739190215 l 2.6057240528947165 -3.0047897400651657" fill="#ff3405" stroke="none" /><path d="M 85.70375840098266 115.38237550388516 l -2.364095989011979 2.5437043700150275 a24.472662057744184,24.472662057744184 0 0,0 -0.3060995885539471,-0.2894362667507482 l 2.4075314119567426 -2.5026334665183483" fill="#ff2d04" stroke="none" /><path d="M 85.44109423537348 115.13401014063109 l -1.6098068339576368 1.6733972554974557 a23.322011287087797,23.322011287087797 0 0,0 -0.2869163203195903,-0.28080800731327704 l 1.6383731066530214 -1.645439145261609" fill="#ff1d02" stroke="none" /><path d="M 85.18274418774928 114.88116024355367 l -7.865899380651129 7.899823734322004 a32.14807553346698,32.14807553346698 0 0,0 -0.38877643657841804,-0.3938284776767617 l 8.00071644228508 -7.763254762664578" fill="#ff950d" stroke="none" /><path d="M 84.67929136418377 114.36230785411682 l -4.004698836134577 3.7541812793911835 a26.489215777018504,26.489215777018504 0 0,0 -0.3089823120931852,-0.3353392750293718 l 4.068727556223491 -3.6846907495604677" fill="#ff4906" stroke="none" /><path d="M 84.19399662182784 113.82643327865904 l -4.372635644577407 3.8249994982999436 a26.80952352970738,26.80952352970738 0 0,0 -0.3008507159339999,-0.349957350479076 l 4.4378288700821855 -3.7491650486593375" fill="#ff4e07" stroke="none" /><path d="M 83.72743513129214 113.27417163493432 l -13.043794557864993 10.640336611278853 a37.833221309930835,37.833221309930835 0 0,0 -0.40730541273522347,-0.5081761284573973 l 13.225017882655079 -10.414232649243196" fill="#ffde14" stroke="none" /><path d="M 83.50135304334701 112.99209946851258 l -6.652898472665302 5.238921648416057 a29.468019728710765,29.468019728710765 0 0,0 -0.3103869082892517,-0.4012169195401536 l 6.742092198172623 -5.123626734762651" fill="#ff720a" stroke="none" /><path d="M 83.28015986056508 112.70617746262583 l -3.4364846917106937 2.611543171246423 a25.31620027010399,25.31620027010399 0 0,0 -0.2606830037381349,-0.3492274837148621 l 3.4809289621439135 -2.552002808022253" fill="#ff3905" stroke="none" /><path d="M 82.85270091963577 112.12312394758628 l -3.9036120494170183 2.759849962176586 a25.780686022536916,25.780686022536916 0 0,0 -0.25306701092493405,-0.36456190386692805 l 3.950539967504086 -2.692246796122645" fill="#ff4006" stroke="none" /><path d="M 82.6465618267979 111.8261652097733 l -3.581889436167728 2.4410157694672505 a25.334569173484,25.334569173484 0 0,0 -0.24248427283939633,-0.3624810871967185 l 3.6233768144178544 -2.378997768064711" fill="#ff3905" stroke="none" /><path d="M 82.24976979558568 111.22182372390057 l -9.802488082545526 6.197203757425383 a32.59715943753014,32.59715943753014 0 0,0 -0.29575769139194746,-0.47685556982288857 l 9.907710413605429 -6.02755185623723" fill="#ff9b0e" stroke="none" /><path d="M 82.05923443525364 110.91462005526583 l -15.304471432538811 9.310778307090187 a38.91416865258273,38.91416865258273 0 0,0 -0.3432213447982233,-0.5752587159366912 l 15.462473653035266 -9.045957497267384" fill="#ffeb16" stroke="none" /><line stroke="#e1ed5e" stroke-width="0.3" x1="26.63291911575756" x2="22.317208475507996" y1="142.92168965132927" y2="145.44649492493687" /><path d="M 25.769776987707644 143.4266507060508 a86.0,86.0 0 0,1 -11.730757126820373,-40.83630448921669" fill="none" id="id21" stroke="none" /><text fill="#e1ed5e" style="font-size:6.75px; font-family:Arial;" text-anchor="middle"><textPath startOffset="21.46611528233685" xlink:href="#id21">September</textPath></text><path d="M 81.69416730710424 110.29060199501025 l -5.4907205228175435 3.0866019871403005 a27.29881922956265,27.29881922956265 0 0,0 -0.22674086036925248,-0.4116005229051417 l 5.543037792638312 -2.9916309458373362" fill="#ff5407" stroke="none" /><path d="M 81.51974371655577 109.97397251340807 l -5.278141411681075 2.848663814751839 a26.99780478935245,26.99780478935245 0 0,0 -0.2172005429807264,-0.4108615731577578 l 5.326394462886688 -2.757387226507955" fill="#ff5007" stroke="none" /><path d="M 81.35079622478065 109.6543875284942 l -6.438619859838209 3.33316810866398 a28.250230019807482,28.250230019807482 0 0,0 -0.2198423889848038,-0.43376988991987125 l 6.495040918609279 -3.221844007041424" fill="#ff6109" stroke="none" /><path d="M 81.18737489456691 109.33194174019688 l -7.70280341569611 3.820950681184099 a29.598421050919807,29.598421050919807 0 0,0 -0.22247687486828757,-0.4583682577023202 l 7.767433547179117 -3.687793467516494" fill="#ff740a" stroke="none" /><path d="M 81.02952815118164 109.00673069616217 l -7.954960710198349 3.776826922719388 a29.80601053286773,29.80601053286773 0 0,0 -0.21605863684961676,-0.4653710822953925 l 8.018793963887791 -3.6393357731451683" fill="#ff760a" stroke="none" /><path d="M 80.87730276802145 108.67885076344099 l -5.839909929705683 2.650447587858859 a27.41322231043505,27.41322231043505 0 0,0 -0.1913167678970304,-0.4313688054561336 l 5.8846677823339935 -2.5495304459100296" fill="#ff5608" stroke="none" /><path d="M 80.45479744820244 107.68017299344265 l -10.34651423829972 4.0656022376166785 a32.11663071428806,32.11663071428806 0 0,0 -0.19775543197810713,-0.5162770305650483 l 10.414963949871337 -3.8869016402184724" fill="#ff950d" stroke="none" /><path d="M 80.32549172779594 107.34259656027581 l -7.043148513376268 2.6285281101988556 a28.517652626157975,28.517652626157975 0 0,0 -0.16767801106719804,-0.46137787161673627 l 7.087350785448691 -2.506902441576002" fill="#ff6509" stroke="none" /><path d="M 80.0844068197444 106.66101706037122 l -8.70404439776349 2.911175564944286 a30.17798082631287,30.17798082631287 0 0,0 -0.16052925271343804,-0.4940582383111963 l 8.752865901493177 -2.7609184266552864" fill="#ff7b0b" stroke="none" /><path d="M 79.97269907076064 106.31721596034903 l -8.54171054424932 2.694313645631269 a29.95656993735743,29.95656993735743 0 0,0 -0.15088586128191064,-0.49310372486679305 l 8.58682317803736 -2.546882948212428" fill="#ff780b" stroke="none" /><path d="M 79.76711848015287 105.62410040840567 l -8.20933922552057 2.281936364116059 a29.52059176874153,29.52059176874153 0 0,0 -0.13187540482641946,-0.4907574402138677 l 8.247402706688764 -2.1402879907266525" fill="#ff730a" stroke="none" /><path d="M 79.58551787078972 104.9243191809786 l -3.511068036309896 0.8469291343022929 a24.611770717269724,24.611770717269724 0 0,0 -0.09579772427983628,-0.4126940889381539 l 3.525126326520287 -0.7863663880155647" fill="#ff2f04" stroke="none" /><path d="M 79.29508885075956 103.50808413554451 l -5.175642296824697 0.8769218327898957 a26.24940616503471,26.24940616503471 0 0,0 -0.07164618621131943,-0.4461408699295188 l 5.189970237397308 -0.7877017331671632" fill="#ff4606" stroke="none" /><path d="M 79.1416061653843 102.43462659150553 l -8.893730904201131 1.0380911362948937 a29.954109816369034,29.954109816369034 0 0,0 -0.05536902874553311,-0.5126484401271517 l 8.910282234447717 -0.88484637428296" fill="#ff780b" stroke="none" /><path d="M 79.10278846688536 102.07522291339032 l -0.3259714242482494 0.03237098727925917 a21.327574800990348,21.327574800990348 0 0,0 -0.033134320872056415,-0.3656344697847207 l 0.32648034139738114 -0.026755128945972272" fill="#ff0000" stroke="none" /><path d="M 79.0235259727143 100.99374915477108 l -30.921544465242146 1.4648915082954417 a51.95622424080533,51.95622424080533 0 0,0 -0.034632205927429056,-0.893703350239134 l 30.942178804020774 -0.9324109110423108" fill="#7fff26" stroke="none" /><path d="M 79.0095281055655 100.63252640178507 l -36.26525352369063 1.0928163233550567 a57.28171523859018,57.28171523859018 0 0,0 -0.021215885258143222,-0.9858188217255363 l 36.27869147163378 -0.4684076858393916" fill="#48ff2c" stroke="none" /><line stroke="#e1ed5e" stroke-width="0.3" x1="15.007084014347285" x2="10.007500721073583" y1="101.09737516637583" y2="101.16192664675087" /><path d="M 14.007167355692545 101.11028546245083 a86.0,86.0 0 0,1 10.666146001902534,-42.60595125391555" fill="none" id="id22" stroke="none" /><text fill="#e1ed5e" style="font-size:6.75px; font-family:Arial;" text-anchor="middle"><textPath startOffset="22.20632615414155" xlink:href="#id22">October</textPath></text><path d="M 79.00175016825051 100.2711162175752 l -20.80999449487152 0.2686855828660425 a41.81172897236131,41.81172897236131 0 0,0 -0.003097458099660375,-0.7197401773059711 l 20.811536250260684 0.08956407264360396" fill="#f0ff19" stroke="none" /><path d="M 79.00486145842228 99.54816195383935 l -23.024830274086767 -0.4955192033442101 a44.03016171092564,44.03016171092564 0 0,0 0.022829231136948385,-0.7575910399934485 l 23.012889348494173 0.891780390762653" fill="#d6ff1c" stroke="none" /><path d="M 79.01574976396665 99.18683210126434 l -0.32443282757217395 -0.012572208094655323 a21.324676331171293,21.324676331171293 0 0,0 0.0173708698864215,-0.3666716084783406 l 0.32416834945225365 0.018154923196005025" fill="#ff0000" stroke="none" /><path d="M 79.08570108090925 98.10471618934814 l -9.546347995949098 -0.8651037683627831 a30.58546632093592,30.58546632093592 0 0,0 0.05202860806348675,-0.5239209828788665 l 9.530042262203382 1.02930028194608" fill="#ff810b" stroke="none" /><path d="M 79.16333360222342 97.38593545837743 l -8.912145934962608 -1.1180735072303774 a29.982006097395,29.982006097395 0 0,0 0.06865022902072249,-0.511523945371532 l 8.891579706884052 1.2713157946665687" fill="#ff790b" stroke="none" /><path d="M 79.26566170972629 96.67025291283419 l -8.329847532641358 -1.3376981300318955 a29.43657490953184,29.43657490953184 0 0,0 0.08464856961938748,-0.4996006495744223 l 8.305587101501747 1.4808845679221458" fill="#ff710a" stroke="none" /><path d="M 79.32604984820605 96.31383870115002 l -3.307145515808632 -0.5896634034875635 a24.359302664563835,24.359302664563835 0 0,0 0.07715435156162107,-0.4121616311639951 l 3.296505440337149 0.6465031121141314" fill="#ff2c04" stroke="none" /><path d="M 79.3925641242962 95.95851677861259 l -5.459334191257659 -1.0706721431523512 a26.563332512977933,26.563332512977933 0 0,0 0.091859424282694,-0.44793917601293654 l 5.44009547105997 1.1644869753286902" fill="#ff4a06" stroke="none" /><path d="M 79.62865764111835 94.90015583598534 l -6.514916598541661 -1.6309705471926925 a27.715966290249206,27.715966290249206 0 0,0 0.11984340023397798,-0.4618055083012092 l 6.485876866437376 1.7428724810427656" fill="#ff5a08" stroke="none" /><path d="M 79.71946130924805 94.55025226153421 l -6.641098222981094 -1.784583268398304 a27.87669419482427,27.87669419482427 0 0,0 0.12851584718737719,-0.46233988029067025 l 6.609395605227357 1.8986344521079168" fill="#ff5c08" stroke="none" /><path d="M 79.81627453868168 94.20196356495316 l -13.44890678381301 -3.863372581713831 a34.99281034620386,34.99281034620386 0 0,0 0.1712883117656288,-0.5774990352926628 l 13.380412574935674 4.094301003753033" fill="#ffba11" stroke="none" /><path d="M 79.91906864156998 93.8553929516997 l -10.433258997093995 -3.1924951898893643 a31.910770771944094,31.910770771944094 0 0,0 0.16524387286565717,-0.5238682339444077 l 10.376759640460135 3.3716135902601865" fill="#ff920d" stroke="none" /><path d="M 80.38941819471856 92.48833698450439 l -3.334906602088277 -1.2774070056550861 a24.571186175873315,24.571186175873315 0 0,0 0.1546890142622989,-0.39366666856019233 l 3.3124240379442873 1.3346226791110418" fill="#ff2f04" stroke="none" /><path d="M 80.65960295795068 91.81776055985345 l -7.319765228378161 -3.0967343438727477 a28.94787560264345,28.94787560264345 0 0,0 0.19809898354372718,-0.457239766657026 l 7.265375534991753 3.222273255116373" fill="#ff6b09" stroke="none" /><path d="M 80.95270993114464 91.15688171328213 l -3.049057094529971 -1.4155910080863903 a24.36164350695885,24.36164350695885 0 0,0 0.1798606290620127,-0.37883235498376167 l 3.0242382716262064 1.4678657787106841" fill="#ff2c04" stroke="none" /><line stroke="#e1ed5e" stroke-width="0.3" x1="26.266209847984243" x2="21.928928074336255" y1="57.711370442889674" y2="55.22380399835377" /><path d="M 25.398753493254645 57.213857153982495 a86.0,86.0 0 0,1 29.58750427330803,-30.492523968695096" fill="none" id="id23" stroke="none" /><text fill="#e1ed5e" style="font-size:6.75px; font-family:Arial;" text-anchor="middle"><textPath startOffset="21.46611528233685" xlink:href="#id23">November</textPath></text><path d="M 81.78341655067845 89.55222093294921 l -7.752658601362181 -4.446391634009709 a29.937231895406235,29.937231895406235 0 0,0 0.26022628836403927,-0.4448110804048794 l 7.674972638527817 4.57918212676848" fill="#ff780b" stroke="none" /><path d="M 81.96595687620814 89.24020034530311 l -12.819640527155164 -7.648687694189102 a35.928014157573635,35.928014157573635 0 0,0 0.3214431551979628,-0.5283680293586296 l 12.686081573670984 7.868223496754806" fill="#ffc612" stroke="none" /><path d="M 82.34701348167596 88.62581576622439 l -4.170111944454604 -2.686889353394124 a25.96076687888734,25.96076687888734 0 0,0 0.24527159511713864,-0.373565466480316 l 4.123243713979545 2.7582728838521073" fill="#ff4206" stroke="none" /><path d="M 82.7489923806493 88.02491185347247 l -6.784990387505536 -4.709919545370814 a29.25950583766417,29.25950583766417 0 0,0 0.2907661723378699,-0.4112681303174222 l 6.702911595363788 4.826014176020022" fill="#ff6f0a" stroke="none" /><path d="M 82.95767976084542 87.72973835380427 l -4.848722202418494 -3.491020544063238 a26.974724381534067,26.974724381534067 0 0,0 0.274547957974947,-0.3744831061346301 l 4.787911631929914 3.5739660938693687" fill="#ff5007" stroke="none" /><path d="M 83.17141714833178 87.43820079747576 l -6.696103342655997 -4.998347535927996 a29.355912760760866,29.355912760760866 0 0,0 0.3057544960695479,-0.40233707668835333 l 6.60907290636234 5.112869388497376" fill="#ff700a" stroke="none" /><path d="M 83.39014120810768 87.1503855733568 l -5.103855755920221 -3.948412769456589 a27.452852623084446,27.452852623084446 0 0,0 0.2923675459622826,-0.3712770929829528 l 5.035134129363968 4.035682256392589" fill="#ff5708" stroke="none" /><path d="M 84.07557802195018 86.31012108654704 l -5.353025115848618 -4.60187916130659 a28.059190442690575,28.059190442690575 0 0,0 0.318015029846627,-0.36354615357119807 l 5.273018222424148 4.693340871080731" fill="#ff5f08" stroke="none" /><path d="M 84.5562425177563 85.77008943001954 l -2.988241796102099 -2.7533722650656975 a25.063329652145455,25.063329652145455 0 0,0 0.2950701957255811,-0.31476031162561796 l 2.9404042784060618 2.804401993569366" fill="#ff3605" stroke="none" /><path d="M 84.80347519578584 85.50635884689758 l -7.073426269251225 -6.746259647536351 a30.774731628976348,30.774731628976348 0 0,0 0.3689095107599663,-0.3801936788996444 l 6.95625249478814 6.867017521986119" fill="#ff830c" stroke="none" /><path d="M 85.05521093208273 85.24692304244772 l -6.334488154743914 -6.253229189715429 a29.90104575214059,29.90104575214059 0 0,0 0.36474178377417393,-0.3631754666400905 l 6.2259105708024265 6.361340507005629" fill="#ff780b" stroke="none" /><path d="M 86.37877921826538 84.01681056812374 l -0.7455337442479573 -0.8748119756013252 a22.149398345425933,22.149398345425933 0 0,0 0.29231137201548324,-0.24480236763794125 l 0.7303648352733636 0.8875155006330788" fill="#ff0c01" stroke="none" /><path d="M 86.65592168130627 83.78471172551755 l -7.544576848790211 -9.16792344816629 a32.87314028295541,32.87314028295541 0 0,0 0.4400251434310086,-0.3558030642903112 l 7.385648306794701 9.296432609720735" fill="#ff9f0e" stroke="none" /><path d="M 87.51073957382395 83.11751280151077 l -8.54453716198986 -11.550166649737855 a35.36716621151653,35.36716621151653 0 0,0 0.49253778123106134,-0.3578496447137678 l 8.344454064405017 11.695535529268291" fill="#ffbf11" stroke="none" /><path d="M 88.09926311788651 82.69761687909137 l -4.240410801101132 -6.165098262189375 a28.48261453935358,28.48261453935358 0 0,0 0.4063456003342084,-0.27436636323333635 l 4.133660506360384 6.237176537721377" fill="#ff6509" stroke="none" /><path d="M 88.70189139769569 82.29822771554957 l -3.8425690897917706 -6.02050178566072 a28.142253073153253,28.142253073153253 0 0,0 0.41058320717655067,-0.25710716666698136 l 3.7383667302429777 6.085753293650631" fill="#ff6008" stroke="none" /><line stroke="#e1ed5e" stroke-width="0.3" x1="56.762969772571076" x2="54.21961505331055" y1="26.818313649435495" y2="22.513508569990535" /><path d="M 56.25429882871897 25.957352633546506 a86.0,86.0 0 0,1 42.265352541879196,-11.944610805530505" fill="none" id="id24" stroke="none" /><text fill="#e1ed5e" style="font-size:6.75px; font-family:Arial;" text-anchor="middle"><textPath startOffset="22.20632615414155" xlink:href="#id24">December</textPath></text><path d="M 89.3179101791058 81.91981866633112 l -3.847105328647925 -6.511493829196773 a28.56305304076197,28.56305304076197 0 0,0 0.42545792009127226,-0.24645268872541143 l 3.734450676091332 6.576750675312232" fill="#ff6609" stroke="none" /><path d="M 89.94658935756843 81.56283822128135 l -2.338334112619047 -4.288320238814648 a25.884413669302102,25.884413669302102 0 0,0 0.39301778648416286,-0.20993649047195515 l 2.264171279606579 4.327935455788352" fill="#ff4106" stroke="none" /><path d="M 90.91171255644093 81.06846463323043 l -4.2698197597358805 -8.894331775174996 a30.866128851151224,30.866128851151224 0 0,0 0.480955709187165,-0.22581515437535146 l 4.1160858392491075 8.966511912190356" fill="#ff850c" stroke="none" /><path d="M 91.56875222667455 80.76684994638697 l -1.5906784534176146 -3.6286156218088825 a24.961957757599457,24.961957757599457 0 0,0 0.395012571438215,-0.16912376822496392 l 1.5279821241890914 3.6554589179966324" fill="#ff3405" stroke="none" /><path d="M 92.57280143429618 80.3572730644239 l -2.935454133750037 -7.763401432057458 a29.299836912049656,29.299836912049656 0 0,0 0.4732867872642145,-0.17431551798091324 l 2.8013850207132527 7.8127802178446935" fill="#ff700a" stroke="none" /><path d="M 93.94186890950719 79.89281104454417 l -2.226768618438952 -7.390737622250612 a28.718905432832763,28.718905432832763 0 0,0 0.47455910102233095,-0.13853681485580085 l 2.0992192996931998 7.427972766025111" fill="#ff6809" stroke="none" /><path d="M 94.63758080256005 79.69619591428918 l -1.9051592750650592 -7.213531663369925 a28.46087601571068,28.46087601571068 0 0,0 0.47474247088294,-0.12102242641011556 l 1.7807079154971197 7.245257085948904" fill="#ff6409" stroke="none" /><path d="M 95.692805502759 79.44645832069477 l -2.2231480301128 -10.608660863923832 a31.839099247148887,31.839099247148887 0 0,0 0.5373736316904368,-0.10779209516844507 l 2.0402079889552267 10.645356915169488" fill="#ff910d" stroke="none" /><path d="M 96.40284397218896 79.31037775812273 l -1.3441084779061934 -7.730856389041976 a28.84683172422924,28.84683172422924 0 0,0 0.48994392245042,-0.08084494520583876 l 1.2108353493168877 7.752847597187441" fill="#ff6a09" stroke="none" /><path d="M 98.19473922651362 79.07773832637324 l -0.9075372508301539 -10.517999459857856 a31.557079922933923,31.557079922933923 0 0,0 0.541594342823919,-0.042038144616277154 l 0.7263527186439007 10.532062866662596" fill="#ff8e0d" stroke="none" /><path d="M 98.91598698831166 79.02799685794201 l -0.39771001449528487 -7.694350144960329 a28.704621821275907,28.704621821275907 0 0,0 0.49366368207386907,-0.021258196599243634 l 0.2652055000320917 7.700056068083764" fill="#ff6809" stroke="none" /></svg>