<?xml version="1.0" encoding="utf-8" ?>
<svg baseProfile="full" height="200mm" version="1.1" viewBox="0,0,200,200" width="200mm" xmlns="http://www.w3.org/2000/svg" xmlns:ev="http://www.w3.org/2001/xml-events" xmlns:xlink="http://www.w3.org/1999/xlink"><defs /><rect fill="#1a1a1a" height="200" width="200" x="0" y="0" /><text alignment-baseline="middle" fill="#e1ed5e" style="dominant-baseline: central; font-size:9.0px; font-family:Arial;" text-anchor="middle" x="100.0" y="100.0">2025</text><line stroke="#e1ed5e" stroke-width="0.3" x1="100.0" x2="100.0" y1="15.0" y2="10.0" /><path d="M 100.0 14.0 a86.0,86.0 0 0,1 42.46469731375804,11.215312516191453" fill="none" id="id13" stroke="none" /><text fill="#e1ed5e" style="font-size:6.75px; font-family:Arial;" text-anchor="middle"><textPath startOffset="22.20632615414155" xlink:href="#id13">January</textPath></text><path d="M 103.59715602781102 79.31037775812273 l 2.0667497717756005 -11.887244177324183 a33.065572044062485,33.065572044062485 0 0,0 0.559918035352007,0.10232144205456559 l -2.271062928230508 11.849907253918879" fill="#ff9e0e" stroke="none" /><line stroke="#e1ed5e" stroke-width="0.3" x1="143.23703022742887" x2="145.7803849466894" y1="26.81831364943548" y2="22.513508569990506" /><path d="M 143.74570117128098 25.957352633546492 a86.0,86.0 0 0,1 28.547481713284135,27.462654790039103" fill="none" id="id14" stroke="none" /><text fill="#e1ed5e" style="font-size:6.75px; font-family:Arial;" text-anchor="middle"><textPath startOffset="19.985693538727396" xlink:href="#id14">February</textPath></text><path d="M 114.68862486808459 84.99185889309783 l 0.4182762866843687 -0.4273748964663071 a21.59800029609696,21.59800029609696 0 0,0 0.2634587839921718,0.2623274082467836 l -0.42557087084386314 0.42011163756940484" fill="#ff0000" stroke="none" /><line stroke="#e1ed5e" stroke-width="0.3" x1="172.23445277983987" x2="176.4835382374775" y1="55.19839476539836" y2="52.563006222186495" /><path d="M 173.08426987136738 54.67131705675599 a86.0,86.0 0 0,1 12.851231095245387,41.99856678651699" fill="none" id="id15" stroke="none" /><text fill="#e1ed5e" style="font-size:6.75px; font-family:Arial;" text-anchor="middle"><textPath startOffset="22.20632615414155" xlink:href="#id15">March</textPath></text><path d="M 117.84615892207809 88.93136811851018 l 1.9094532522536967 -1.1842904255415334 a23.246899093099547,23.246899093099547 0 0,0 0.20798690849655777,0.34187579109296246 l -1.9295559590364784 1.1512468612414894" fill="#ff1802" stroke="none" /><line stroke="#e1ed5e" stroke-width="0.3" x1="184.98032266829074" x2="189.97916517819016" y1="98.17113171792111" y2="98.06355123074" /><path d="M 185.9800911702706 98.14961562048488 a86.0,86.0 0 0,1 -9.607161424134198,41.387399972396054" fill="none" id="id16" stroke="none" /><text fill="#e1ed5e" style="font-size:6.75px; font-family:Arial;" text-anchor="middle"><textPath startOffset="21.466115282336823" xlink:href="#id16">April</textPath></text><path d="M 120.99980553446 99.90962569577887 l 1.3565165380011897 -0.005837874931038791 a22.35652909981852,22.35652909981852 0 0,0 -0.0016561958532329728,0.38484158904037635 l -1.3564160448584537 -0.017513192313022286" fill="#ff0b01" stroke="none" /><path d="M 120.99824983174949 100.27111621757518 l 2.2836357599693096 0.029484871097503706 a23.283826097108587,23.283826097108587 0 0,0 -0.008623816182690387,0.4007148513746165 l -2.282789881101612 -0.06878953826223502" fill="#ff1802" stroke="none" /><path d="M 120.9904718944345 100.63252640178507 l 16.142815522870453 0.4864472351414238 a37.1501431547217,37.1501431547217 0 0,0 -0.02476298897326559,0.6390227135320165 l -16.132050401045987 -0.7642471956874464" fill="#ffd213" stroke="none" /><path d="M 120.9764740272857 100.99374915477107 l 15.821142089910236 0.7495180819669729 a36.83888614721138,36.83888614721138 0 0,0 -0.035459443727332784,0.6331521880584645 l -15.805896295295373 -1.0217419863608606" fill="#ffce13" stroke="none" /><path d="M 120.95626037817324 101.35467743843564 l 28.862011066141637 1.8657295964839562 a49.92225146335047,49.92225146335047 0 0,0 -0.06281512775647732,0.8570625113857746 l -28.82561937972082 -2.362265244366501" fill="#96ff23" stroke="none" /><path d="M 120.92983693683757 101.71520430193887 l 4.172228924894308 0.34191499065418846 a25.186215482098213,25.186215482098213 0 0,0 -0.039129068969334754,0.4317860155038806 l -4.165725259647899 -0.41368239470663964" fill="#ff3304" stroke="none" /><path d="M 120.89721153311464 102.0752229133903 l 3.900156068078215 0.3873097243356371 a24.919340018157683,24.919340018157683 0 0,0 -0.04606244893417225,0.42648106946330383 l -3.892911317642991 -0.45438711568373236" fill="#ff3004" stroke="none" /><path d="M 120.8583938346157 102.4346265915055 l 5.384583238614414 0.6284975555092656 a26.421138794649,26.421138794649 0 0,0 -0.05661482713041692,0.4512758760547207 l -5.372966902237149 -0.7210911858513812" fill="#ff4506" stroke="none" /><path d="M 120.70491114924044 103.5080841355445 l 10.238081164206832 1.7346633294723668 a31.38399551191654,31.38399551191654 0 0,0 -0.09482981756390661,0.5318559776078061 l -10.206704904303736 -1.9106380578133912" fill="#ff880c" stroke="none" /><path d="M 120.64145759157962 103.86396538481128 l 61.924372774738885 11.591896154433844 a84.0,84.0 0 0,0 -0.2782802680973435,1.4189450917282203 l -61.715662573665874 -12.656104973230008" fill="#4dd2ff" stroke="none" /><path d="M 120.32669344350535 105.2749913415812 l 6.024784300219688 1.563495071487271 a27.22435078564332,27.22435078564332 0 0,0 -0.12161755797844992,0.4525841760798795 l -5.99697866589946 -1.6669701807426989" fill="#ff5007" stroke="none" /><line stroke="#e1ed5e" stroke-width="0.3" x1="174.80103733775053" x2="179.2010983576182" y1="140.37084112569926" y2="142.7455964860345" /><path d="M 175.68104954172406 140.8457921977663 a86.0,86.0 0 0,1 -30.038265399797805,32.042727171017184" fill="none" id="id17" stroke="none" /><text fill="#e1ed5e" style="font-size:6.75px; font-family:Arial;" text-anchor="middle"><textPath startOffset="22.206326154141568" xlink:href="#id17">May</textPath></text><line stroke="#e1ed5e" stroke-width="0.3" x1="143.8653032363475" x2="146.44561519142675" y1="172.8068346515853" y2="177.08958963109032" /><path d="M 144.38136562736335 173.6633856474863 a86.0,86.0 0 0,1 -40.68145358897372,12.25698825130547" fill="none" id="id18" stroke="none" /><text fill="#e1ed5e" style="font-size:6.75px; font-family:Arial;" text-anchor="middle"><textPath startOffset="21.466115282336833" xlink:href="#id18">June</textPath></text><line stroke="#e1ed5e" stroke-width="0.3" x1="102.19456741930631" x2="102.32365962044197" y1="184.97166512339345" y2="189.96999836594603" /><path d="M 102.22038585953345 185.97133177190398 a86.0,86.0 0 0,1 -42.740103519485714,-10.115201625700543" fill="none" id="id19" stroke="none" /><text fill="#e1ed5e" style="font-size:6.75px; font-family:Arial;" text-anchor="middle"><textPath startOffset="22.20632615414155" xlink:href="#id19">July</textPath></text><line stroke="#e1ed5e" stroke-width="0.3" x1="58.666819895761336" x2="56.23545636021788" y1="174.27360380694188" y2="178.64263932499728" /><path d="M 58.180547188652646 175.14741091055294 a86.0,86.0 0 0,1 -31.652253787137756,-30.449443065178592" fill="none" id="id20" stroke="none" /><text fill="#e1ed5e" style="font-size:6.75px; font-family:Arial;" text-anchor="middle"><textPath startOffset="22.20632615414155" xlink:href="#id20">August</textPath></text><line stroke="#e1ed5e" stroke-width="0.3" x1="26.63291911575756" x2="22.317208475507996" y1="142.92168965132927" y2="145.44649492493687" /><path d="M 25.769776987707644 143.4266507060508 a86.0,86.0 0 0,1 -11.730757126820373,-40.83630448921669" fill="none" id="id21" stroke="none" /><text fill="#e1ed5e" style="font-size:6.75px; font-family:Arial;" text-anchor="middle"><textPath startOffset="21.46611528233685" xlink:href="#id21">September</textPath></text><line stroke="#e1ed5e" stroke-width="0.3" x1="15.007084014347285" x2="10.007500721073583" y1="101.09737516637583" y2="101.16192664675087" /><path d="M 14.007167355692545 101.11028546245083 a86.0,86.0 0 0,1 10.666146001902534,-42.60595125391555" fill="none" id="id22" stroke="none" /><text fill="#e1ed5e" style="font-size:6.75px; font-family:Arial;" text-anchor="middle"><textPath startOffset="22.20632615414155" xlink:href="#id22">October</textPath></text><line stroke="#e1ed5e" stroke-width="0.3" x1="26.266209847984243" x2="21.928928074336255" y1="57.711370442889674" y2="55.22380399835377" /><path d="M 25.398753493254645 57.213857153982495 a86.0,86.0 0 0,1 29.58750427330803,-30.492523968695096" fill="none" id="id23" stroke="none" /><text fill="#e1ed5e" style="font-size:6.75px; font-family:Arial;" text-anchor="middle"><textPath startOffset="21.46611528233685" xlink:href="#id23">November</textPath></text><line stroke="#e1ed5e" stroke-width="0.3" x1="56.762969772571076" x2="54.21961505331055" y1="26.818313649435495" y2="22.513508569990535" /><path d="M 56.25429882871897 25.957352633546506 a86.0,86.0 0 0,1 42.265352541879196,-11.944610805530505" fill="none" id="id24" stroke="none" /><text fill="#e1ed5e" style="font-size:6.75px; font-family:Arial;" text-anchor="middle"><textPath startOffset="22.20632615414155" xlink:href="#id24">December</textPath></text></svg>