<?xml version="1.0" encoding="utf-8" ?>
<svg baseProfile="full" height="200mm" version="1.1" viewBox="0,0,200,200" width="200mm" xmlns="http://www.w3.org/2000/svg" xmlns:ev="http://www.w3.org/2001/xml-events" xmlns:xlink="http://www.w3.org/1999/xlink"><defs /><rect fill="#1a1a1a" height="200" width="200" x="0" y="0" /><text alignment-baseline="middle" fill="#e1ed5e" style="dominant-baseline: central; font-size:9.0px; font-family:Arial;" text-anchor="middle" x="100.0" y="100.0">2025</text><line stroke="#e1ed5e" stroke-width="0.3" x1="100.0" x2="100.0" y1="15.0" y2="10.0" /><path d="M 100.0 14.0 a86.0,86.0 0 0,1 42.46469731375804,11.215312516191453" fill="none" id="id13" stroke="none" /><text fill="#e1ed5e" style="font-size:6.75px; font-family:Arial;" text-anchor="middle"><textPath startOffset="22.20632615414155" xlink:href="#id13">January</textPath></text><path d="M 103.59715602781102 79.31037775812273 l 0.7552861472497459 -4.344149920188297 a25.40931918705137,25.40931918705137 0 0,0 0.4302703748747209,0.07862916078933224 l -0.8299516432273677 4.330505278048227" fill="#ff3b05" stroke="none" /><line stroke="#e1ed5e" stroke-width="0.3" x1="143.23703022742887" x2="145.7803849466894" y1="26.81831364943548" y2="22.513508569990506" /><path d="M 143.74570117128098 25.957352633546492 a86.0,86.0 0 0,1 28.547481713284135,27.462654790039103" fill="none" id="id14" stroke="none" /><text fill="#e1ed5e" style="font-size:6.75px; font-family:Arial;" text-anchor="middle"><textPath startOffset="19.985693538727396" xlink:href="#id14">February</textPath></text><path d="M 114.68862486808459 84.99185889309783 l 0.15285753958707574 -0.15618259326380854 a21.218537021685624,21.218537021685624 0 0,0 0.25882997894191145,0.25771848075643844 l -0.15552331869630975 0.15352826185725138" fill="#ff0000" stroke="none" /><line stroke="#e1ed5e" stroke-width="0.3" x1="172.23445277983987" x2="176.4835382374775" y1="55.19839476539836" y2="52.563006222186495" /><path d="M 173.08426987136738 54.67131705675599 a86.0,86.0 0 0,1 12.851231095245387,41.99856678651699" fill="none" id="id15" stroke="none" /><text fill="#e1ed5e" style="font-size:6.75px; font-family:Arial;" text-anchor="middle"><textPath startOffset="22.20632615414155" xlink:href="#id15">March</textPath></text><path d="M 117.84615892207809 88.93136811851018 l 0.697802709328074 -0.4327946057850811 a21.821121058031192,21.821121058031192 0 0,0 0.19523066240418377,0.32090787654617237 l -0.7051491700184818 0.42071895603182724" fill="#ff0901" stroke="none" /><line stroke="#e1ed5e" stroke-width="0.3" x1="184.98032266829074" x2="189.97916517819016" y1="98.17113171792111" y2="98.06355123074" /><path d="M 185.9800911702706 98.14961562048488 a86.0,86.0 0 0,1 -9.607161424134198,41.387399972396054" fill="none" id="id16" stroke="none" /><text fill="#e1ed5e" style="font-size:6.75px; font-family:Arial;" text-anchor="middle"><textPath startOffset="21.466115282336823" xlink:href="#id16">April</textPath></text><path d="M 120.99980553446 99.90962569577887 l 0.49573400885742164 -0.0021334300479936836 a21.495738599527634,21.495738599527634 0 0,0 -0.0015924275620676114,0.37002408394002095 l -0.495697284005851 -0.006400132095711983" fill="#ff0400" stroke="none" /><path d="M 120.99824983174949 100.27111621757518 l 0.8345463386151205 0.010775138334359943 a21.834615896626723,21.834615896626723 0 0,0 -0.008087060654328685,0.37577393111199764 l -0.8342372152757844 -0.02513888523647243" fill="#ff0901" stroke="none" /><path d="M 120.9904718944345 100.63252640178507 l 5.899332908384628 0.17777036344105077 a26.902010764651976,26.902010764651976 0 0,0 -0.01793194155805238,0.4627437328222108 l -5.8953988339753725 -0.2792913432772678" fill="#ff5007" stroke="none" /><path d="M 120.9764740272857 100.99374915477107 l 5.781778528473218 0.27390864252352215 a26.788263029334708,26.788263029334708 0 0,0 -0.025785169009883008,0.46041151416823856 l -5.776207008575806 -0.373391873027184" fill="#ff4e07" stroke="none" /><path d="M 120.95626037817324 101.35467743843564 l 10.547516413318617 0.6818240591978115 a31.569531046216127,31.569531046216127 0 0,0 -0.03972265007590772,0.5419840004933397 l -10.53421720457837 -0.8632811961879217" fill="#ff8f0d" stroke="none" /><path d="M 120.92983693683757 101.71520430193887 l 1.5247258053015635 0.12495158315961542 a22.529837141491406,22.529837141491406 0 0,0 -0.03500214440728095,0.3862457468526942 l -1.5223490646172073 -0.1511787185608802" fill="#ff1302" stroke="none" /><path d="M 120.89721153311464 102.0752229133903 l 1.4252977745829152 0.14154092260259654 a22.43230847899543,22.43230847899543 0 0,0 -0.041465266055859144,0.3839168655221875 l -1.422650207026004 -0.16605411000957548" fill="#ff1101" stroke="none" /><path d="M 120.8583938346157 102.4346265915055 l 1.9677762564089472 0.22968213362793913 a22.981135350700374,22.981135350700374 0 0,0 -0.04924363840835345,0.39252024936259744 l -1.9635311087537455 -0.26352013727793144" fill="#ff1902" stroke="none" /><path d="M 120.70491114924044 103.5080841355445 l 11.490561162007545 1.9468741029792445 a32.65432600327824,32.65432600327824 0 0,0 -0.09866824561542598,0.5533839205719722 l -11.45534647405293 -2.144376774284435" fill="#ff9d0e" stroke="none" /><path d="M 120.64145759157962 103.86396538481128 l 61.924372774738885 11.591896154433844 a84.0,84.0 0 0,0 -0.2782802680973435,1.4189450917282203 l -61.715662573665874 -12.656104973230008" fill="#4dd2ff" stroke="none" /><path d="M 120.41448212921028 104.9243191809786 l 2.0864475031819385 0.5032865097921142 a23.14628993718763,23.14628993718763 0 0,0 -0.09676106535862668,0.38651235724799515 l -2.077475123528251 -0.5391267064375053" fill="#ff1c02" stroke="none" /><path d="M 120.32669344350535 105.2749913415812 l 3.1252590667938427 0.8110376910713477 a24.228780941921496,24.228780941921496 0 0,0 -0.10823564514549248,0.4027851002346797 l -3.110835345306573 -0.8647137244815757" fill="#ff2b04" stroke="none" /><path d="M 120.13307415673323 105.97154293290107 l 4.7887682003876035 1.420366044534851 a25.99497152919925,25.99497152919925 0 0,0 -0.1309320017740284,0.42789335747244694 l -4.763609426107442 -1.502586374559355" fill="#ff4406" stroke="none" /><path d="M 120.02730092923936 106.31721596034902 l 3.750665221997908 1.1830731602848632 a24.93282998743793,24.93282998743793 0 0,0 -0.1326281101757765,0.40818735125465594 l -3.729744860805885 -1.2474594115173143" fill="#ff3505" stroke="none" /><path d="M 119.79798401119884 107.00284435728193 l 1.7075981973761416 0.6040031345735084 a22.811273416758738,22.811273416758738 0 0,0 -0.13412565916886246,0.36905620935425043 l -1.6969482772020523 -0.63330714093389" fill="#ff1702" stroke="none" /><path d="M 119.26925614724726 108.34839909993367 l 3.4558704457507683 1.4972547719707712 a24.76627301055073,24.76627301055073 0 0,0 -0.1728437194131175,0.38971695786727334 l -3.429585641606378 -1.5565200663307321" fill="#ff3204" stroke="none" /><path d="M 118.81262510543309 109.33194174019688 l 2.829830794478076 1.403728398385926 a24.158859880053488,24.158859880053488 0 0,0 -0.18800347704978465,0.3709486961137142 l -2.805248647642022 -1.4522313062023344" fill="#ff2a04" stroke="none" /><path d="M 118.64920377521936 109.65438752849418 l 4.5811522399612805 2.371587526454338 a26.158622223165413,26.158622223165413 0 0,0 -0.2104492196617318,0.39809061374084903 l -4.5396505120746555 -2.4500931552813214" fill="#ff4606" stroke="none" /><line stroke="#e1ed5e" stroke-width="0.3" x1="174.80103733775053" x2="179.2010983576182" y1="140.37084112569926" y2="142.7455964860345" /><path d="M 175.68104954172406 140.8457921977663 a86.0,86.0 0 0,1 -30.038265399797805,32.042727171017184" fill="none" id="id17" stroke="none" /><text fill="#e1ed5e" style="font-size:6.75px; font-family:Arial;" text-anchor="middle"><textPath startOffset="22.206326154141568" xlink:href="#id17">May</textPath></text><path d="M 118.48025628344425 109.97397251340804 l 5.900599450202682 3.184610420239453 a27.705133660146522,27.705133660146522 0 0,0 -0.23011566141088557,0.4177267670729388 l -5.844907379340286 -3.2857077057101973" fill="#ff5b08" stroke="none" /><path d="M 118.30583269289576 110.29060199501025 l 0.6316978171822775 0.3551081738151324 a21.724668163605365,21.724668163605365 0 0,0 -0.18605420016554167,0.324401180543825 l -0.6254916208643562 -0.3659292002172725" fill="#ff0701" stroke="none" /><path d="M 118.12598468904814 110.60418214915192 l 3.4345985022791377 2.009331286116461 a24.97918070577657,24.97918070577657 0 0,0 -0.22031533219522262,0.3692611692734241 l -3.399502294385688 -2.0681545492759894" fill="#ff3505" stroke="none" /><path d="M 117.94076556474637 110.91462005526583 l 9.557111881752267 5.8142582956418725 a32.186777330794186,32.186777330794186 0 0,0 -0.2920342484119007,0.4708521941690011 l -9.455612993672403 -5.977906821176147" fill="#ff970d" stroke="none" /><path d="M 117.14729908036423 112.12312394758627 l 3.058950472035876 2.1626750398541907 a24.746243627739236,24.746243627739236 0 0,0 -0.24890031985595226,0.3457007748427514 l -3.021270359804321 -2.2150094201480734" fill="#ff3204" stroke="none" /><path d="M 116.498646956653 112.99209946851258 l 4.235877783638227 3.335603558648102 a26.39155930120274,26.39155930120274 0 0,0 -0.284126610997336,0.35449163368277786 l -4.177833260586037 -3.40802302590913" fill="#ff4906" stroke="none" /><path d="M 116.27256486870786 113.27417163493432 l 3.5053114220633734 2.8594204924536712 a25.52365932827749,25.52365932827749 0 0,0 -0.2806435731549404,0.33805326282968984 l -3.4555718490148895 -2.9193350123971316" fill="#ff3d05" stroke="none" /><path d="M 115.32070863581623 114.36230785411682 l 3.3684691964730145 3.157751560117538 a25.617139768624327,25.617139768624327 0 0,0 -0.30434802593719806,0.31910768842777926 l -3.313614619156852 -3.215266365127824" fill="#ff3e05" stroke="none" /><path d="M 115.07121518719521 114.62390073753431 l 4.803275243995926 4.660713785238222 a27.692810026998654,27.692810026998654 0 0,0 -0.3348975583291607,0.3392494584682367 l -4.722337060611229 -4.742703737687124" fill="#ff5b08" stroke="none" /><path d="M 114.81725581225074 114.88116024355365 l 6.669945145448794 6.6987115416521394 a30.45308968335536,30.45308968335536 0 0,0 -0.37464557952376504,0.36666955200600415 l -6.553649613549235 -6.812531196580716" fill="#ff800b" stroke="none" /><path d="M 113.75828350139079 115.86535959552629 l 3.1090612426687136 3.5852128366497658 a25.745525565703232,25.745525565703232 0 0,0 -0.33730870984729544,0.2874618002880465 l -3.046887056244371 -3.638199027160759" fill="#ff4006" stroke="none" /><path d="M 113.20401910651253 116.32954008644616 l 4.587895301860484 5.6738951708421395 a28.29670266014309,28.29670266014309 0 0,0 -0.38138903184564293,0.30299851303557696 l -4.48954877729749 -5.752027597882843" fill="#ff6309" stroke="none" /><path d="M 112.92097659922987 116.55440617244103 l 13.922690180342892 17.83780556279235 a43.62804916809671,43.62804916809671 0 0,0 -0.5959825684857274,0.4569740195143977 l -13.61357888336367 -18.07481892413412" fill="#daff1b" stroke="none" /><path d="M 111.45004920935366 117.60387380957326 l 2.9044913896633147 4.465509184262385 a26.326991881668306,26.326991881668306 0 0,0 -0.38201492970033607,0.2438200025455813 l -2.827194657916048 -4.514843615631775" fill="#ff4806" stroke="none" /><path d="M 111.1453310114006 117.79835938074945 l 2.582922787810688 4.12475753148625 a25.866735540518334,25.866735540518334 0 0,0 -0.3794044083966592,0.23306117570315976 l -2.5115391794817206 -4.168607174017788" fill="#ff4206" stroke="none" /><line stroke="#e1ed5e" stroke-width="0.3" x1="143.8653032363475" x2="146.44561519142675" y1="172.8068346515853" y2="177.08958963109032" /><path d="M 144.38136562736335 173.6633856474863 a86.0,86.0 0 0,1 -40.68145358897372,12.25698825130547" fill="none" id="id18" stroke="none" /><text fill="#e1ed5e" style="font-size:6.75px; font-family:Arial;" text-anchor="middle"><textPath startOffset="21.466115282336833" xlink:href="#id18">June</textPath></text><path d="M 110.8373102113329 117.98757091392108 l 2.413177055699012 4.0053475051254885 a25.676134315753465,25.676134315753465 0 0,0 -0.3805351403263413,0.22482686837896182 l -2.3438740443442887 -4.0462929457982" fill="#ff3f05" stroke="none" /><path d="M 110.5260780823613 118.17145234162733 l 4.4394472149669815 7.663937399925298 a29.856897201867696,29.856897201867696 0 0,0 -0.44693106911019576,0.25377912522517143 l -4.3068673789355865 -7.739219690945098" fill="#ff780b" stroke="none" /><path d="M 109.89434966115114 118.52300852407294 l 1.9218728256993134 3.5978985938193357 a25.079028003038054,25.079028003038054 0 0,0 -0.3825257535793268,0.20011939498908599 l -1.859656169593491 -3.6304474077531386" fill="#ff3705" stroke="none" /><line stroke="#e1ed5e" stroke-width="0.3" x1="102.19456741930631" x2="102.32365962044197" y1="184.97166512339345" y2="189.96999836594603" /><path d="M 102.22038585953345 185.97133177190398 a86.0,86.0 0 0,1 -42.740103519485714,-10.115201625700543" fill="none" id="id19" stroke="none" /><text fill="#e1ed5e" style="font-size:6.75px; font-family:Arial;" text-anchor="middle"><textPath startOffset="22.20632615414155" xlink:href="#id19">July</textPath></text><line stroke="#e1ed5e" stroke-width="0.3" x1="58.666819895761336" x2="56.23545636021788" y1="174.27360380694188" y2="178.64263932499728" /><path d="M 58.180547188652646 175.14741091055294 a86.0,86.0 0 0,1 -31.652253787137756,-30.449443065178592" fill="none" id="id20" stroke="none" /><text fill="#e1ed5e" style="font-size:6.75px; font-family:Arial;" text-anchor="middle"><textPath startOffset="22.20632615414155" xlink:href="#id20">August</textPath></text><line stroke="#e1ed5e" stroke-width="0.3" x1="26.63291911575756" x2="22.317208475507996" y1="142.92168965132927" y2="145.44649492493687" /><path d="M 25.769776987707644 143.4266507060508 a86.0,86.0 0 0,1 -11.730757126820373,-40.83630448921669" fill="none" id="id21" stroke="none" /><text fill="#e1ed5e" style="font-size:6.75px; font-family:Arial;" text-anchor="middle"><textPath startOffset="21.46611528233685" xlink:href="#id21">September</textPath></text><line stroke="#e1ed5e" stroke-width="0.3" x1="15.007084014347285" x2="10.007500721073583" y1="101.09737516637583" y2="101.16192664675087" /><path d="M 14.007167355692545 101.11028546245083 a86.0,86.0 0 0,1 10.666146001902534,-42.60595125391555" fill="none" id="id22" stroke="none" /><text fill="#e1ed5e" style="font-size:6.75px; font-family:Arial;" text-anchor="middle"><textPath startOffset="22.20632615414155" xlink:href="#id22">October</textPath></text><line stroke="#e1ed5e" stroke-width="0.3" x1="26.266209847984243" x2="21.928928074336255" y1="57.711370442889674" y2="55.22380399835377" /><path d="M 25.398753493254645 57.213857153982495 a86.0,86.0 0 0,1 29.58750427330803,-30.492523968695096" fill="none" id="id23" stroke="none" /><text fill="#e1ed5e" style="font-size:6.75px; font-family:Arial;" text-anchor="middle"><textPath startOffset="21.46611528233685" xlink:href="#id23">November</textPath></text><line stroke="#e1ed5e" stroke-width="0.3" x1="56.762969772571076" x2="54.21961505331055" y1="26.818313649435495" y2="22.513508569990535" /><path d="M 56.25429882871897 25.957352633546506 a86.0,86.0 0 0,1 42.265352541879196,-11.944610805530505" fill="none" id="id24" stroke="none" /><text fill="#e1ed5e" style="font-size:6.75px; font-family:Arial;" text-anchor="middle"><textPath startOffset="22.20632615414155" xlink:href="#id24">December</textPath></text></svg>