<?xml version="1.0" encoding="utf-8" ?>
<svg baseProfile="full" height="200mm" version="1.1" viewBox="0,0,200,200" width="200mm" xmlns="http://www.w3.org/2000/svg" xmlns:ev="http://www.w3.org/2001/xml-events" xmlns:xlink="http://www.w3.org/1999/xlink"><defs /><rect fill="#1a1a1a" height="200" width="200" x="0" y="0" /><rect fill="#1a1a1a" height="200" width="180" x="10" y="0" /><text alignment-baseline="middle" fill="#e1ed5e" style="dominant-baseline: central; font-size:9.0px; font-family:Arial;" text-anchor="middle" x="100.0" y="100.0">2026</text><line stroke="#e1ed5e" stroke-width="0.3" x1="100.0" x2="100.0" y1="15.0" y2="10.0" /><path d="M 100.0 14.0 a86.0,86.0 0 0,1 42.46469731375804,11.215312516191453" fill="none" id="id25" stroke="none" /><text fill="#e1ed5e" style="font-size:6.75px; font-family:Arial;" text-anchor="middle"><textPath startOffset="22.20632615414155" xlink:href="#id25">January</textPath></text><path d="M 100.36148047927253 79.00311137660856 l 0.26815904516676514 -15.576236968737103 a36.578545098299685,36.578545098299685 0 0,0 0.6294529486594682,0.01625691259678585 l -0.5362386290211011 15.569313263997957" fill="#ffa20f" stroke="none" /><path d="M 102.52436894288641 79.15227682838746 l 0.8242166874364657 -6.8068660809348875 a27.856585082359192,27.856585082359192 0 0,0 0.4755321650520866,0.06173772288828057 l -0.9412635809963984 6.79167003488247" fill="#ff2303" stroke="none" /><path d="M 103.2404852339499 79.25152402106235 l 2.2949763835147765 -14.694485216815421 a35.87261955366631,35.87261955366631 0 0,0 0.6092721759087749,0.1005351294703979 l -2.5475777655624263 14.652803824405398" fill="#ff980e" stroke="none" /><path d="M 104.307194497241 79.44645832069477 l 1.519564830163391 -7.2512256159260335 a28.408734723698196,28.408734723698196 0 0,0 0.4777500650126825,0.10441765984974473 l -1.6441576193296015 7.223994457980418" fill="#ff2b04" stroke="none" /><path d="M 105.01212808612495 79.60689891045804 l 1.7664455803002475 -7.187227195562037 a28.401119155154092,28.401119155154092 0 0,0 0.4737456948308547,0.12076832600029694 l -1.8899001638161272 7.155755873392872" fill="#ff2b04" stroke="none" /><path d="M 105.71112130821622 79.79150937346287 l 3.9366168188759265 -13.92950347072382 a35.47508269128587,35.47508269128587 0 0,0 0.586200034330787,0.17112786468449695 l -4.175807070930141 13.85967727712062" fill="#ff920d" stroke="none" /><path d="M 106.40334571778207 80.00007090966166 l 2.0294365665219973 -6.338653137384928 a27.655609391604678,27.655609391604678 0 0,0 0.4521259888329434,0.1490588300179535 l -2.138245377597358 6.302780583107738" fill="#ff2003" stroke="none" /><path d="M 108.09893153111575 80.62456947434976 l 5.604698918327813 -13.40836801645207 a35.532617893198726,35.532617893198726 0 0,0 0.5622888597209718,0.2407427450743857 l -5.8346715358391 13.309905743414893" fill="#ff930d" stroke="none" /><path d="M 108.76106565485865 80.91482961587045 l 2.7545160506399275 -6.000458188910904 a27.602488708820403,27.602488708820403 0 0,0 0.4301017013277554,0.2019385158075593 l -2.857395963267281 5.952154690463341" fill="#ff1f03" stroke="none" /><path d="M 109.73455568895987 81.39251694778311 l 2.972650503565467 -5.682184748091844 a27.412789917640808,27.412789917640808 0 0,0 0.41622399303421626,0.22233244232916463 l -3.0700195431279944 5.6301735792609255" fill="#ff1c02" stroke="none" /><line stroke="#e1ed5e" stroke-width="0.3" x1="143.23703022742887" x2="145.7803849466894" y1="26.81831364943548" y2="22.513508569990506" /><path d="M 143.74570117128098 25.957352633546492 a86.0,86.0 0 0,1 28.547481713284135,27.462654790039103" fill="none" id="id26" stroke="none" /><text fill="#e1ed5e" style="font-size:6.75px; font-family:Arial;" text-anchor="middle"><textPath startOffset="19.985693538727396" xlink:href="#id26">February</textPath></text><path d="M 110.68208982089419 81.91981866633111 l 7.420065088593101 -12.558977181317033 a35.587161264612114,35.587161264612114 0 0,0 0.5247207182454391,0.31613836160268793 l -7.6351478730561775 12.42939221025573" fill="#ff940d" stroke="none" /><path d="M 113.34407831869373 83.78471172551755 l 4.221119460980784 -5.129366544929852 a27.642909803400638,27.642909803400638 0 0,0 0.36481067183482924,0.3055184462683968 l -4.3087876697747305 5.055946941267635" fill="#ff2003" stroke="none" /><path d="M 113.89432698308785 84.25364557470407 l 4.4054780217278555 -4.992700864706563 a27.658475690754518,27.658475690754518 0 0,0 0.3542774314598274,0.31807377596416697 l -4.490766440783673 4.9161280799731" fill="#ff2003" stroke="none" /><path d="M 114.42810811169701 84.74124197986012 l 9.402251635879837 -9.943554722884624 a34.68490468916047,34.68490468916047 0 0,0 0.43028566024916715,0.413934464244817 l -9.572020539741422 9.780237171877506" fill="#ff870c" stroke="none" /><path d="M 114.94478906791727 85.2469230424477 l 16.40164792252554 -16.19124719205014 a44.04713735387885,44.04713735387885 0 0,0 0.5280113596928087,0.5441621196722938 l -16.67792354592146 15.906520876827733" fill="#f8ff18" stroke="none" /><path d="M 115.9244219780498 86.31012108654704 l 11.188514112362045 -9.618522017993774 a35.75462008501594,35.75462008501594 0 0,0 0.39719873260164595,0.470158016470883 l -11.352423458450808 9.424505051893785" fill="#ff960d" stroke="none" /><path d="M 116.82858285166822 87.43820079747576 l 5.300601214519736 -3.9566663869651095 a27.61449787460149,27.61449787460149 0 0,0 0.2810595539269209,0.38336491569524045 l -5.367923380960282 3.8648390275983755" fill="#ff1f03" stroke="none" /><line stroke="#e1ed5e" stroke-width="0.3" x1="172.23445277983987" x2="176.4835382374775" y1="55.19839476539836" y2="52.563006222186495" /><path d="M 173.08426987136738 54.67131705675599 a86.0,86.0 0 0,1 12.851231095245387,41.99856678651699" fill="none" id="id27" stroke="none" /><text fill="#e1ed5e" style="font-size:6.75px; font-family:Arial;" text-anchor="middle"><textPath startOffset="22.20632615414155" xlink:href="#id27">March</textPath></text><path d="M 119.34039704204932 91.81776055985345 l 5.166009394679249 -2.18555625954374 a26.609305592454835,26.609305592454835 0 0,0 0.1748336713703139,0.4233736029056331 l -5.20286475293576 2.096308086184804" fill="#ff1001" stroke="none" /><path d="M 119.85752413597 93.16781622104841 l 4.325211700221932 -1.4881332142137367 a25.574056920828905,25.574056920828905 0 0,0 0.1396376464655731,0.41749878951694736 l -4.350186640459276 1.4134613217744754" fill="#ff0000" stroke="none" /><path d="M 120.28053869075195 94.5502522615342 l 6.4386399920461415 -1.7301790781055375 a27.667053666312434,27.667053666312434 0 0,0 0.11963190282106474,0.460990522494024 l -6.467468226737509 1.6190921300626633" fill="#ff2003" stroke="none" /><path d="M 120.37134235888165 94.90015583598534 l 6.347602577190928 -1.5890844789939826 a27.54348897449522,27.54348897449522 0 0,0 0.11118021101975971,0.4609137522506638 l -6.374015588471508 1.4795854950839127" fill="#ff1e03" stroke="none" /><path d="M 120.53481517161879 95.60439243477599 l 6.475504481390258 -1.3861228479124998 a27.62219713071201,27.62219713071201 0 0,0 0.0955211144765266,0.4657948778208705 l -6.498404891781782 1.2744523139282176" fill="#ff1f03" stroke="none" /><path d="M 120.6074358757038 95.95851677861258 l 15.432192339699183 -3.0265262881953676 a36.726169965462276,36.726169965462276 0 0,0 0.1163245051817234,0.6214101580745114 l -15.482002568790765 2.7604380526582935" fill="#ffa40f" stroke="none" /><path d="M 120.83666639777658 97.38593545837742 l 6.6919038356676985 -0.8395329751324176 a27.74436005579171,27.74436005579171 0 0,0 0.05536934933712184,0.4743707716286596 l -6.70536353800841 0.7242184651789053" fill="#ff2103" stroke="none" /><path d="M 120.91429891909075 98.10471618934814 l 9.99306483375639 -0.9055858898968222 a31.034013682252922,31.034013682252922 0 0,0 0.043633108243875236,0.5324344391856863 l -10.00717242581976 0.733437533503367" fill="#ff5307" stroke="none" /><line stroke="#e1ed5e" stroke-width="0.3" x1="184.98032266829074" x2="189.97916517819016" y1="98.17113171792111" y2="98.06355123074" /><path d="M 185.9800911702706 98.14961562048488 a86.0,86.0 0 0,1 -9.607161424134198,41.387399972396054" fill="none" id="id28" stroke="none" /><text fill="#e1ed5e" style="font-size:6.75px; font-family:Arial;" text-anchor="middle"><textPath startOffset="21.466115282336823" xlink:href="#id28">April</textPath></text><path d="M 120.99513854157772 99.54816195383933 l 6.392145353294473 -0.13756586847416558 a27.393625464930924,27.393625464930924 0 0,0 0.006087897860228507,0.47151439837352993 l -6.3935662582724175 0.027515212040172928" fill="#ff1c02" stroke="none" /><path d="M 120.99824983174949 100.27111621757518 l 6.705618701750126 0.08657873839423925 a27.706177603613177,27.706177603613177 0 0,0 -0.010261757744712078,0.47682355959398254 l -6.703134881320406 -0.20199211377833662" fill="#ff2103" stroke="none" /><path d="M 120.9904718944345 100.63252640178507 l 6.49398997953749 0.1956897460735155 a27.496937765674815,27.496937765674815 0 0,0 -0.018328499135364273,0.47297712182864754 l -6.489659347550923 -0.30744411491616924" fill="#ff1e03" stroke="none" /><path d="M 120.9764740272857 100.99374915477107 l 14.579973017662152 0.690718365919837 a35.59632505313496,35.59632505313496 0 0,0 -0.03426341068178667,0.6117962145806844 l -14.565923256092836 -0.9415862968359447" fill="#ff940d" stroke="none" /><path d="M 120.95626037817324 101.35467743843564 l 6.243365617848073 0.4035904493347799 a27.256396685706694,27.256396685706694 0 0,0 -0.03429560946887199,0.4679363432141743 l -6.2354934497148635 -0.5109999290457244" fill="#ff1a02" stroke="none" /><path d="M 120.92983693683757 101.71520430193887 l 5.546758491818346 0.4545579621902346 a26.56535288257173,26.56535288257173 0 0,0 -0.04127168394456491,0.4554295932143192 l -5.538112211596705 -0.5499689439531243" fill="#ff0f01" stroke="none" /><path d="M 120.8583938346157 102.4346265915055 l 9.000897064515414 1.050599749646392 a30.062003520191286,30.062003520191286 0 0,0 -0.06441641844878794,0.5134622349163072 l -8.981479136819779 -1.205379738850094" fill="#ff4406" stroke="none" /><path d="M 120.81339534386255 102.79330883721812 l 5.446180997635596 0.7309170492584163 a26.49500929861849,26.49500929861849 0 0,0 -0.06455439495656128,0.4514932879729422 l -5.432792551662433 -0.8245558092117677" fill="#ff0e01" stroke="none" /><path d="M 120.70491114924044 103.5080841355445 l 14.717738716596156 2.4936627513455485 a35.92749767534538,35.92749767534538 0 0,0 -0.10855845454053292,0.6088534645586337 l -14.672633819716433 -2.7466349666374006" fill="#ff990e" stroke="none" /><path d="M 120.5718875245553 104.21870165774334 l 6.375228763674543 1.3073758118550765 a27.507900836875663,27.507900836875663 0 0,0 -0.09911484569023303,0.46303156203361645 l -6.351779879259866 -1.416921193304862" fill="#ff1e03" stroke="none" /><path d="M 120.41448212921028 104.9243191809786 l 6.746256867655547 1.6273115273235659 a27.93974960148778,27.93974960148778 0 0,0 -0.11679970935427186,0.46655677902140313 l -6.717245844006214 -1.743196145742365" fill="#ff2403" stroke="none" /><path d="M 120.13307415673323 105.97154293290107 l 60.399222470199675 17.914628798703227 a84.0,84.0 0 0,0 -0.4230929099754692,1.3826921097917715 l -60.08190278771807 -18.951647881047055" fill="#4dd2ff" stroke="none" /><path d="M 119.9155931802556 106.66101706037122 l 5.219132783336492 1.7456036682157683 a26.503315289585547,26.503315289585547 0 0,0 -0.14843013754560586,0.43140745831481164 l -5.188311814847655 -1.8351838296198801" fill="#ff0e01" stroke="none" /><line stroke="#e1ed5e" stroke-width="0.3" x1="174.80103733775053" x2="179.2010983576182" y1="140.37084112569926" y2="142.7455964860345" /><path d="M 175.68104954172406 140.8457921977663 a86.0,86.0 0 0,1 -30.038265399797805,32.042727171017184" fill="none" id="id29" stroke="none" /><text fill="#e1ed5e" style="font-size:6.75px; font-family:Arial;" text-anchor="middle"><textPath startOffset="22.206326154141568" xlink:href="#id29">May</textPath></text><line stroke="#e1ed5e" stroke-width="0.3" x1="143.8653032363475" x2="146.44561519142675" y1="172.8068346515853" y2="177.08958963109032" /><path d="M 144.38136562736335 173.6633856474863 a86.0,86.0 0 0,1 -40.68145358897372,12.25698825130547" fill="none" id="id30" stroke="none" /><text fill="#e1ed5e" style="font-size:6.75px; font-family:Arial;" text-anchor="middle"><textPath startOffset="21.466115282336833" xlink:href="#id30">June</textPath></text><line stroke="#e1ed5e" stroke-width="0.3" x1="102.19456741930631" x2="102.32365962044197" y1="184.97166512339345" y2="189.96999836594603" /><path d="M 102.22038585953345 185.97133177190398 a86.0,86.0 0 0,1 -42.740103519485714,-10.115201625700543" fill="none" id="id31" stroke="none" /><text fill="#e1ed5e" style="font-size:6.75px; font-family:Arial;" text-anchor="middle"><textPath startOffset="22.20632615414155" xlink:href="#id31">July</textPath></text><line stroke="#e1ed5e" stroke-width="0.3" x1="58.666819895761336" x2="56.23545636021788" y1="174.27360380694188" y2="178.64263932499728" /><path d="M 58.180547188652646 175.14741091055294 a86.0,86.0 0 0,1 -31.652253787137756,-30.449443065178592" fill="none" id="id32" stroke="none" /><text fill="#e1ed5e" style="font-size:6.75px; font-family:Arial;" text-anchor="middle"><textPath startOffset="22.20632615414155" xlink:href="#id32">August</textPath></text><line stroke="#e1ed5e" stroke-width="0.3" x1="26.63291911575756" x2="22.317208475507996" y1="142.92168965132927" y2="145.44649492493687" /><path d="M 25.769776987707644 143.4266507060508 a86.0,86.0 0 0,1 -11.730757126820373,-40.83630448921669" fill="none" id="id33" stroke="none" /><text fill="#e1ed5e" style="font-size:6.75px; font-family:Arial;" text-anchor="middle"><textPath startOffset="21.46611528233685" xlink:href="#id33">September</textPath></text><line stroke="#e1ed5e" stroke-width="0.3" x1="15.007084014347285" x2="10.007500721073583" y1="101.09737516637583" y2="101.16192664675087" /><path d="M 14.007167355692545 101.11028546245083 a86.0,86.0 0 0,1 10.666146001902534,-42.60595125391555" fill="none" id="id34" stroke="none" /><text fill="#e1ed5e" style="font-size:6.75px; font-family:Arial;" text-anchor="middle"><textPath startOffset="22.20632615414155" xlink:href="#id34">October</textPath></text><line stroke="#e1ed5e" stroke-width="0.3" x1="26.266209847984243" x2="21.928928074336255" y1="57.711370442889674" y2="55.22380399835377" /><path d="M 25.398753493254645 57.213857153982495 a86.0,86.0 0 0,1 29.58750427330803,-30.492523968695096" fill="none" id="id35" stroke="none" /><text fill="#e1ed5e" style="font-size:6.75px; font-family:Arial;" text-anchor="middle"><textPath startOffset="21.46611528233685" xlink:href="#id35">November</textPath></text><line stroke="#e1ed5e" stroke-width="0.3" x1="56.762969772571076" x2="54.21961505331055" y1="26.818313649435495" y2="22.513508569990535" /><path d="M 56.25429882871897 25.957352633546506 a86.0,86.0 0 0,1 42.265352541879196,-11.944610805530505" fill="none" id="id36" stroke="none" /><text fill="#e1ed5e" style="font-size:6.75px; font-family:Arial;" text-anchor="middle"><textPath startOffset="22.20632615414155" xlink:href="#id36">December</textPath></text></svg>